<?xml version="1.0" encoding="utf-8"?>
<!-- Generator: Adobe Illustrator 15.0.0, SVG Export Plug-In . SVG Version: 6.00 Build 0)  -->
<!DOCTYPE svg PUBLIC "-//W3C//DTD SVG 1.1//EN" "http://www.w3.org/Graphics/SVG/1.1/DTD/svg11.dtd">
<svg version="1.1" id="Layer_1" xmlns="http://www.w3.org/2000/svg" xmlns:xlink="http://www.w3.org/1999/xlink" x="0px" y="0px"
	 width="960px" height="300px" viewBox="0 0 960 300" enable-background="new 0 0 960 300" xml:space="preserve">
<g id="Parte_4">
	<path fill="#1F386C" d="M950.889,100.292c9.176-21.03-0.803-45.324-22.288-54.26c-21.481-8.938-46.34,0.867-55.514,21.896
		c-9.176,21.029,0.803,45.323,22.287,54.258C916.857,131.126,941.714,121.321,950.889,100.292"/>
	<path fill="#1F386C" d="M832.82,71.37c9.533-9.248,9.46-24.515-0.163-34.099c-9.624-9.584-25.155-9.858-34.688-0.61
		c-9.533,9.249-9.462,24.517,0.163,34.101C807.756,80.347,823.288,80.62,832.82,71.37"/>
	<path fill="#00B6DD" d="M914.936,77.558c6.264-6.076,6.258-16.064-0.014-22.31c-6.271-6.244-16.432-6.381-22.693-0.304
		c-6.265,6.076-6.258,16.062,0.015,22.309C898.513,83.499,908.672,83.634,914.936,77.558"/>
	<path fill="#00B6DD" d="M802.964,96.255c4.118-3.996,4.114-10.562-0.01-14.67c-4.123-4.106-10.806-4.197-14.924-0.199
		c-4.119,3.994-4.115,10.562,0.009,14.67C792.164,100.161,798.846,100.251,802.964,96.255"/>
	<path fill="#BCCF00" d="M879.323,76.548c4.905-11.248-0.263-24.166-11.54-28.856c-11.281-4.689-24.401,0.626-29.307,11.874
		c-4.906,11.248,0.261,24.167,11.541,28.857C861.297,93.112,874.418,87.796,879.323,76.548"/>
	<path fill="#00B6DD" d="M775.705,86.302c1.682-1.634,1.681-4.314-0.004-5.992c-1.685-1.676-4.412-1.713-6.096-0.082
		c-1.681,1.633-1.68,4.314,0.004,5.992C771.294,87.896,774.023,87.934,775.705,86.302"/>
	<path fill="#00B6DD" d="M736.209,83.467c1.683-1.632,1.681-4.313-0.004-5.991c-1.684-1.676-4.413-1.713-6.095-0.081
		c-1.682,1.631-1.682,4.313,0.005,5.99C731.799,85.063,734.528,85.099,736.209,83.467"/>
	<path fill="#00B6DD" d="M761.98,81.602c0.905-0.88,0.904-2.324-0.002-3.228c-0.906-0.901-2.378-0.922-3.283-0.043
		c-0.904,0.879-0.904,2.324,0.003,3.227C759.605,82.462,761.075,82.481,761.98,81.602"/>
	<path fill="#00B6DD" d="M743.625,88.192c0.906-0.88,0.903-2.324-0.001-3.228c-0.907-0.902-2.378-0.925-3.282-0.044
		c-0.906,0.88-0.906,2.324,0.002,3.227C741.252,89.051,742.721,89.07,743.625,88.192"/>
	<path fill="#00B6DD" d="M801.982,77.126c0.907-0.879,0.905-2.323,0-3.228c-0.907-0.902-2.377-0.921-3.283-0.042
		c-0.906,0.878-0.904,2.324,0.001,3.225C799.609,77.985,801.078,78.005,801.982,77.126"/>
	<path fill="#00B6DD" d="M814.657,99.718c0.905-0.88,0.903-2.325-0.001-3.228c-0.907-0.903-2.378-0.923-3.283-0.044
		c-0.906,0.879-0.904,2.323,0.002,3.227C812.282,100.575,813.751,100.597,814.657,99.718"/>
	<path fill="#00B6DD" d="M736.607,91.552c0.522-0.508,0.521-1.342,0-1.865c-0.525-0.521-1.375-0.532-1.897-0.024
		c-0.522,0.507-0.522,1.343,0.001,1.864C735.235,92.046,736.084,92.06,736.607,91.552"/>
	<path fill="#00B6DD" d="M741.914,93.576c0.354-0.345,0.354-0.912-0.002-1.265c-0.356-0.354-0.932-0.362-1.286-0.019
		c-0.354,0.345-0.354,0.911,0,1.266C740.982,93.912,741.558,93.919,741.914,93.576"/>
	<path fill="#00B6DD" d="M754.604,79.759c0.354-0.344,0.354-0.91,0-1.264c-0.355-0.354-0.933-0.363-1.286-0.018
		c-0.356,0.344-0.355,0.91,0,1.264C753.673,80.095,754.248,80.104,754.604,79.759"/>
	<path fill="#00B6DD" d="M749.643,82.53c0.568-0.552,0.566-1.459,0-2.025c-0.571-0.568-1.493-0.58-2.061-0.027
		c-0.57,0.551-0.57,1.459,0,2.024C748.151,83.07,749.073,83.081,749.643,82.53"/>
	<path fill="#00B6DD" d="M743.287,80.606c0.523-0.507,0.521-1.342,0-1.865c-0.525-0.521-1.374-0.531-1.898-0.023
		c-0.521,0.507-0.521,1.343,0.002,1.863C741.915,81.103,742.764,81.114,743.287,80.606"/>
	<path fill="#00B6DD" d="M837.044,90.948c2.296-5.261-0.199-11.336-5.573-13.571s-11.59,0.218-13.883,5.477
		c-2.295,5.26,0.199,11.336,5.573,13.571C828.534,98.66,834.751,96.208,837.044,90.948"/>
	<path fill="#00B6DD" d="M884.994,40.228c2.295-5.26-0.2-11.335-5.574-13.57c-5.375-2.235-11.591,0.217-13.885,5.477
		c-2.295,5.26,0.201,11.335,5.575,13.57C876.482,47.939,882.7,45.488,884.994,40.228"/>
	<path fill="#BCCF00" d="M924.371,41.91c-1.438,4.666,1.396,9.469,6.324,10.732c4.932,1.262,10.092-1.498,11.527-6.164
		c1.438-4.666-1.395-9.47-6.322-10.732C930.97,34.484,925.809,37.244,924.371,41.91"/>
	<path fill="#2ED03C" d="M899.655,37.603c6.571,7.306,18.298,8.095,26.188,1.766c7.893-6.33,8.963-17.384,2.391-24.69
		c-6.57-7.305-18.298-8.095-26.188-1.765C894.154,19.242,893.083,30.297,899.655,37.603"/>
	<path fill="#EE7203" d="M863.951,121.683c1.414,3.977,5.753,6.265,9.688,5.111c3.934-1.154,5.976-5.313,4.562-9.291
		c-1.415-3.977-5.751-6.264-9.688-5.11C864.578,113.547,862.536,117.704,863.951,121.683"/>
	<path fill="#971B81" d="M836.701,108.056c7.203,6.662,18.189,6.496,24.538-0.371c6.35-6.865,5.653-17.83-1.548-24.492
		c-7.205-6.66-18.19-6.494-24.539,0.371C828.805,90.429,829.496,101.396,836.701,108.056"/>
	<path fill="#00B6DD" d="M830.585,58.077c0.503-1.157-0.044-2.494-1.227-2.986c-1.183-0.489-2.55,0.049-3.056,1.206
		c-0.504,1.157,0.044,2.493,1.228,2.984C828.713,59.773,830.079,59.233,830.585,58.077"/>
</g>
<g id="Parte_1">
	<path fill="#00B6DD" d="M239.103,72.939c-1.791,0.35-3.504-0.844-3.828-2.666c-0.323-1.822,0.867-3.582,2.657-3.932
		c1.791-0.35,3.505,0.844,3.828,2.666C242.083,70.83,240.894,72.589,239.103,72.939"/>
	<path fill="#00B6DD" d="M221.457,66.178c-0.965,0.188-1.888-0.454-2.062-1.437c-0.174-0.98,0.467-1.93,1.431-2.117
		c0.965-0.188,1.888,0.455,2.062,1.437C223.061,65.042,222.42,65.99,221.457,66.178"/>
	<path fill="#00B6DD" d="M228.292,64.668c-0.965,0.188-1.888-0.455-2.062-1.437c-0.173-0.98,0.468-1.93,1.432-2.117
		c0.964-0.188,1.887,0.455,2.061,1.436C229.896,63.533,229.256,64.48,228.292,64.668"/>
	<path fill="#00B6DD" d="M172.693,68.834c-0.538-0.181-0.818-0.767-0.626-1.31c0.193-0.542,0.785-0.836,1.324-0.654
		c0.538,0.18,0.818,0.766,0.625,1.309C173.823,68.722,173.231,69.015,172.693,68.834"/>
	<path fill="#00B6DD" d="M153.762,51.71c-0.365-0.123-0.555-0.521-0.425-0.889c0.131-0.368,0.533-0.567,0.897-0.444
		c0.365,0.123,0.555,0.521,0.425,0.888C154.529,51.634,154.127,51.833,153.762,51.71"/>
	<path fill="#00B6DD" d="M228.766,68.857c-0.379,0.074-0.74-0.178-0.809-0.562c-0.068-0.386,0.184-0.757,0.562-0.83
		c0.378-0.075,0.74,0.179,0.807,0.562C229.395,68.412,229.144,68.784,228.766,68.857"/>
	<path fill="#00B6DD" d="M234.161,65.927c-0.377,0.074-0.739-0.178-0.808-0.562c-0.069-0.384,0.183-0.756,0.561-0.83
		c0.378-0.072,0.739,0.179,0.808,0.562C234.79,65.482,234.54,65.855,234.161,65.927"/>
	<path fill="#00B6DD" d="M242.122,75.535c-0.379,0.074-0.74-0.178-0.809-0.562c-0.067-0.385,0.183-0.756,0.561-0.83
		c0.378-0.073,0.74,0.179,0.808,0.562C242.75,75.09,242.499,75.46,242.122,75.535"/>
	<path fill="#00B6DD" d="M224.285,60.158c-0.557,0.109-1.09-0.263-1.191-0.83c-0.101-0.566,0.271-1.114,0.827-1.223
		c0.557-0.109,1.091,0.262,1.19,0.83C225.212,59.501,224.842,60.048,224.285,60.158"/>
	<path fill="#00B6DD" d="M204.079,99.287c0.563-0.129,1.126,0.213,1.258,0.764c0.132,0.55-0.217,1.101-0.78,1.229
		c-0.562,0.13-1.126-0.212-1.258-0.763C203.166,99.966,203.516,99.416,204.079,99.287"/>
	<path fill="#00B6DD" d="M147.405,87.285c-2.604-0.875-3.958-3.711-3.027-6.336c0.932-2.623,3.798-4.043,6.401-3.168
		c2.603,0.873,3.958,3.709,3.026,6.334C152.874,86.74,150.009,88.158,147.405,87.285"/>
	<path fill="#2ED03C" d="M133.12,29.097c9.057,4.226,12.463,15.123,7.608,24.338c-4.855,9.216-16.132,13.261-25.188,9.037
		c-9.057-4.227-12.463-15.123-7.608-24.339C112.787,28.917,124.063,24.872,133.12,29.097"/>
	<path fill="#BCCF00" d="M183.883,93.21c2.412,1.2,3.411,4.177,2.232,6.648c-1.178,2.472-4.089,3.502-6.5,2.301
		c-2.412-1.199-3.411-4.177-2.233-6.648C178.561,93.041,181.471,92.009,183.883,93.21"/>
	<path fill="#BCCF00" d="M219.332,75.371c1.43,0.244,2.409,1.623,2.185,3.081s-1.563,2.442-2.994,2.198
		c-1.431-0.244-2.409-1.623-2.186-3.081C216.56,76.111,217.901,75.126,219.332,75.371"/>
	<path fill="#BCCF00" d="M197.957,81.137c1.43,0.243,2.409,1.623,2.185,3.081c-0.223,1.458-1.563,2.441-2.994,2.198
		c-1.43-0.245-2.408-1.624-2.185-3.081C195.186,81.877,196.527,80.894,197.957,81.137"/>
	<path fill="#BCCF00" d="M139.05,101.566c0.75,0.373,1.061,1.299,0.694,2.068c-0.367,0.769-1.272,1.09-2.023,0.716
		c-0.75-0.373-1.061-1.3-0.694-2.068C137.394,101.514,138.299,101.192,139.05,101.566"/>
	<path fill="#BCCF00" d="M143.98,97.395c0.509,0.253,0.72,0.882,0.471,1.403s-0.863,0.74-1.373,0.486
		c-0.508-0.254-0.72-0.882-0.471-1.403C142.856,97.359,143.471,97.142,143.98,97.395"/>
	<path fill="#BCCF00" d="M213.786,81.974c0.561,0.097,0.943,0.637,0.856,1.208c-0.088,0.571-0.613,0.958-1.173,0.862
		c-0.561-0.097-0.944-0.637-0.856-1.208C212.699,82.265,213.225,81.879,213.786,81.974"/>
	<path fill="#BCCF00" d="M207.337,82.589c0.898,0.152,1.512,1.019,1.373,1.934c-0.141,0.916-0.982,1.533-1.88,1.38
		c-0.897-0.152-1.511-1.019-1.372-1.934C205.598,83.054,206.439,82.436,207.337,82.589"/>
	<path fill="#BCCF00" d="M202.786,88.599c0.827,0.141,1.391,0.938,1.263,1.779c-0.129,0.842-0.903,1.41-1.729,1.27
		c-0.826-0.14-1.392-0.938-1.262-1.779C201.186,89.026,201.96,88.457,202.786,88.599"/>
	<path fill="#BCCF00" d="M131.875,121.21c0.75,0.373,1.061,1.299,0.694,2.068c-0.366,0.77-1.272,1.09-2.022,0.717
		c-0.75-0.374-1.061-1.3-0.694-2.069C130.219,121.158,131.125,120.836,131.875,121.21"/>
	<path fill="#2ED03C" d="M45.953,24.383c1.033,10.005-6.418,19.448-16.642,21.091C19.087,47.118,9.962,40.34,8.931,30.335
		c-1.033-10.004,6.418-19.446,16.641-21.09C35.796,7.601,44.921,14.379,45.953,24.383"/>
	<path fill="#EE7203" d="M74.018,73.085c-12.88-4.325-19.585-18.359-14.975-31.344c4.611-12.986,18.791-20.007,31.671-15.682
		c12.882,4.325,19.585,18.358,14.975,31.344C101.079,70.389,86.899,77.412,74.018,73.085"/>
	<path fill="#2ED03C" d="M75.351,10.344c0.267,2.628-1.826,5.125-4.672,5.578c-2.848,0.454-5.372-1.31-5.639-3.938
		c-0.267-2.627,1.826-5.125,4.673-5.578C72.56,5.954,75.084,7.716,75.351,10.344"/>
	<path fill="#971B81" d="M200.349,81.408c-7.186,3.018-15.409-0.244-18.366-7.285s0.472-15.195,7.658-18.213
		c7.186-3.018,15.409,0.244,18.365,7.285S207.534,78.39,200.349,81.408"/>
	<path fill="#971B81" d="M79.303,97.33c-2.062,5.189-7.811,7.776-12.841,5.777c-5.031-1.998-7.437-7.826-5.375-13.016
		c2.062-5.19,7.812-7.775,12.842-5.777C78.959,86.312,81.365,92.14,79.303,97.33"/>
	<path fill="#00B6DD" d="M149.438,36.976c6.542-10.792,20.952-14.262,32.187-7.748c11.234,6.513,15.039,20.542,8.497,31.334
		c-6.541,10.793-20.951,14.262-32.186,7.748S142.897,47.769,149.438,36.976"/>
	<path fill="#00B6DD" d="M28.615,69.324c-1.793-7.017,2.594-14.32,9.799-16.311c7.204-1.99,14.497,2.084,16.29,9.102
		c1.792,7.018-2.594,14.32-9.799,16.312C37.7,80.419,30.407,76.341,28.615,69.324"/>
	<path fill="#971B81" d="M166.681,102.073c-5.888,2.472-12.65-0.264-15.105-6.11c-2.455-5.848,0.327-12.591,6.215-15.062
		c5.887-2.473,12.649,0.264,15.105,6.109C175.351,92.857,172.568,99.601,166.681,102.073"/>
	<path fill="#1F386C" d="M129.158,94.74c-10.531,12.747-29.538,15.383-42.454,5.887c-12.916-9.494-14.849-27.523-4.318-40.27
		c10.531-12.746,29.539-15.381,42.454-5.887C137.756,63.964,139.689,81.995,129.158,94.74"/>
	<path fill="#971B81" d="M109.53,120.302c-11.104,4.662-23.867-0.521-28.51-11.577s0.595-23.798,11.697-28.46
		c11.103-4.662,23.867,0.521,28.51,11.576C125.87,102.898,120.633,115.64,109.53,120.302"/>
</g>
<g>
	<g>
		<text transform="matrix(1 0 0 1 40.1958 164.5684)" font-family="'Geomanist-Medium'" font-size="19.5168">Emprendimiento Social</text>
		<text transform="matrix(1 0 0 1 66.6475 199.2617)" font-family="'Geomanist-Regular'" font-size="12.2044">El principal enfoque de este</text>
		<text transform="matrix(1 0 0 1 33.8306 218.2617)" font-family="'Geomanist-Regular'" font-size="12.2044">Hackathon es el emprendimiento social </text>
		<text transform="matrix(1 0 0 1 22.8716 237.2617)" font-family="'Geomanist-Regular'" font-size="12.2044">tecnológico, en el que se logren soluciones </text>
		<text transform="matrix(1 0 0 1 40.8667 256.2617)" font-family="'Geomanist-Regular'" font-size="12.2044">de impacto en diferentes sectores de</text>
		<text transform="matrix(1 0 0 1 108.1475 275.2617)" font-family="'Geomanist-Regular'" font-size="12.2044">la población</text>
	</g>
	<g>
		<text transform="matrix(1 0 0 1 433.1523 164.5684)" font-family="'Geomanist-Medium'" font-size="19.5168">Vinculación</text>
		<text transform="matrix(1 0 0 1 374.5674 199.2617)" font-family="'Geomanist-Regular'" font-size="12.2044">Los proyectos estarán en todo momento</text>
		<text transform="matrix(1 0 0 1 373.2505 218.2617)" font-family="'Geomanist-Regular'" font-size="12.2044">vinculados con diferentes organizaciones</text>
		<text transform="matrix(1 0 0 1 381.9634 237.2617)" font-family="'Geomanist-Regular'" font-size="12.2044">sin fines de lucro, esto para lograr que</text>
		<text transform="matrix(1 0 0 1 370.6621 256.2617)" font-family="'Geomanist-Regular'" font-size="12.2044">el esfuerzo esté dirigido en la mejor forma</text>
		<text transform="matrix(1 0 0 1 435.6304 275.2617)" font-family="'Geomanist-Regular'" font-size="12.2044">y al lugar correcto</text>
	</g>
	<g>
		<text transform="matrix(1 0 0 1 730.4258 164.5684)" font-family="'Geomanist-Medium'" font-size="19.5168">Innovación para todos</text>
		<text transform="matrix(1 0 0 1 712.332 199.2617)" font-family="'Geomanist-Regular'" font-size="12.2044">Los resultados que brindará este Hackathon</text>
		<text transform="matrix(1 0 0 1 714.5176 218.2617)" font-family="'Geomanist-Regular'" font-size="12.2044">no sólo impactarán a los participantes, sino</text>
		<text transform="matrix(1 0 0 1 713.1738 237.2617)" font-family="'Geomanist-Regular'" font-size="12.2044">que cruzará fronteras hacia las necesidades</text>
		<text transform="matrix(1 0 0 1 743.8184 256.2617)" font-family="'Geomanist-Regular'" font-size="12.2044">más importantes de la sociedad</text>
	</g>
</g>
<g>
	<text transform="matrix(0.9511 0 0 1 271.3647 92.9336)" font-family="'SurfingCapital'" font-size="40.6241">acerca del social hack</text>
</g>
</svg>
