<?xml version="1.0" encoding="utf-8"?>
<!-- Generator: Adobe Illustrator 15.0.0, SVG Export Plug-In . SVG Version: 6.00 Build 0)  -->
<!DOCTYPE svg PUBLIC "-//W3C//DTD SVG 1.1//EN" "http://www.w3.org/Graphics/SVG/1.1/DTD/svg11.dtd">
<svg version="1.1" id="Layer_1" xmlns="http://www.w3.org/2000/svg" xmlns:xlink="http://www.w3.org/1999/xlink" x="0px" y="0px"
	 width="960px" height="560px" viewBox="0 0 960 560" enable-background="new 0 0 960 560" xml:space="preserve">
<g id="Parte_4" display="none">
	<path display="inline" fill="#1F386C" d="M12.261,483.896c-16.001-32.973-1.642-72.389,32.071-88.037
		c33.713-15.649,74.015-1.606,90.016,31.365c16.001,32.973,1.643,72.388-32.071,88.037
		C68.564,530.911,28.262,516.868,12.261,483.896"/>
	<path display="inline" fill="#1F386C" d="M205.454,450.291c-9.264-19.087-0.822-41.966,18.856-51.102
		c19.678-9.136,43.141-1.069,52.405,18.017c9.264,19.087,0.822,41.967-18.856,51.103
		C238.181,477.444,214.717,469.377,205.454,450.291"/>
	<path display="inline" fill="#00B6DD" d="M114.869,462.55c-6.086-12.54-0.625-27.531,12.197-33.483
		c12.822-5.95,28.15-0.61,34.235,11.93c6.086,12.54,0.625,27.53-12.197,33.482C136.282,480.431,120.955,475.09,114.869,462.55"/>
	<path display="inline" fill="#00B6DD" d="M317.534,526.875c-4.002-8.247-0.411-18.104,8.021-22.018s18.512-0.402,22.513,7.844
		c4.002,8.247,0.411,18.104-8.021,22.019C331.616,538.634,321.536,535.122,317.534,526.875"/>
	<path display="inline" fill="#BCCF00" d="M156.969,378.564c-8.555-17.635-1.141-38.588,16.559-46.801
		c17.7-8.212,38.984-0.575,47.538,17.06c8.555,17.636,1.141,38.589-16.559,46.803C186.807,403.839,165.524,396.199,156.969,378.564"
		/>
	<path display="inline" fill="#00B6DD" d="M363.886,526.809c-1.634-3.368-0.168-7.394,3.276-8.992
		c3.443-1.598,7.56-0.164,9.194,3.204c1.634,3.367,0.168,7.393-3.276,8.992C369.637,531.61,365.52,530.177,363.886,526.809"/>
	<path display="inline" fill="#00B6DD" d="M424.723,544.109c-1.634-3.367-0.168-7.393,3.276-8.991
		c3.443-1.599,7.56-0.164,9.194,3.204c1.634,3.366,0.168,7.393-3.276,8.991C430.474,548.912,426.357,547.478,424.723,544.109"/>
	<path display="inline" fill="#00B6DD" d="M387.055,527.244c-0.88-1.813-0.09-3.981,1.764-4.843c1.854-0.86,4.072-0.088,4.952,1.726
		c0.88,1.814,0.09,3.982-1.764,4.843C390.151,529.83,387.935,529.059,387.055,527.244"/>
	<path display="inline" fill="#00B6DD" d="M411.012,547.154c-0.88-1.814-0.09-3.982,1.764-4.843c1.855-0.86,4.072-0.089,4.952,1.726
		s0.09,3.982-1.764,4.843C414.109,549.74,411.892,548.968,411.012,547.154"/>
	<path display="inline" fill="#00B6DD" d="M314.974,494.136c-0.88-1.813-0.09-3.981,1.764-4.843c1.855-0.86,4.072-0.088,4.952,1.726
		c0.88,1.814,0.09,3.982-1.764,4.842C318.071,496.722,315.854,495.95,314.974,494.136"/>
	<path display="inline" fill="#00B6DD" d="M298.09,525.688c-0.88-1.813-0.09-3.981,1.764-4.843c1.855-0.86,4.072-0.088,4.952,1.727
		c0.88,1.813,0.09,3.981-1.764,4.843C301.187,528.274,298.97,527.503,298.09,525.688"/>
	<path display="inline" fill="#00B6DD" d="M419.714,556.028c-0.509-1.048-0.052-2.3,1.019-2.798
		c1.071-0.497,2.352-0.051,2.861,0.997c0.508,1.048,0.052,2.3-1.02,2.797C421.503,557.522,420.223,557.077,419.714,556.028"/>
	<path display="inline" fill="#00B6DD" d="M410.645,556.172c-0.345-0.711-0.035-1.562,0.691-1.898
		c0.727-0.337,1.596-0.033,1.941,0.677c0.345,0.711,0.035,1.561-0.692,1.897C411.859,557.185,410.99,556.883,410.645,556.172"/>
	<path display="inline" fill="#00B6DD" d="M399.135,528.505c-0.345-0.711-0.035-1.562,0.691-1.898
		c0.727-0.337,1.596-0.034,1.941,0.676c0.345,0.711,0.035,1.562-0.691,1.898C400.349,529.518,399.479,529.216,399.135,528.505"/>
	<path display="inline" fill="#00B6DD" d="M405.07,535.372c-0.553-1.14-0.057-2.5,1.108-3.041c1.164-0.54,2.556-0.056,3.108,1.084
		c0.553,1.138,0.057,2.5-1.107,3.04C407.014,536.996,405.623,536.511,405.07,535.372"/>
	<path display="inline" fill="#00B6DD" d="M415.66,535.953c-0.509-1.048-0.052-2.3,1.019-2.798c1.071-0.497,2.352-0.051,2.861,0.997
		c0.508,1.048,0.052,2.3-1.019,2.797C417.449,537.447,416.168,537.002,415.66,535.953"/>
	<path display="inline" fill="#00B6DD" d="M444.653,541.419c-0.509-1.048-0.052-2.3,1.019-2.798
		c1.071-0.497,2.352-0.051,2.861,0.997c0.508,1.048,0.052,2.3-1.02,2.797C446.442,542.913,445.161,542.467,444.653,541.419"/>
	<path display="inline" fill="#00B6DD" d="M90.057,370.781c-4.002-8.247-0.411-18.104,8.021-22.019
		c8.432-3.914,18.512-0.401,22.513,7.845c4.002,8.247,0.411,18.104-8.021,22.019C104.139,382.54,94.059,379.028,90.057,370.781"/>
	<path display="inline" fill="#00B6DD" d="M161.747,292.93c-4.002-8.247-0.411-18.104,8.021-22.019
		c8.432-3.914,18.512-0.401,22.514,7.845c4.002,8.247,0.41,18.104-8.022,22.019C175.829,304.688,165.749,301.177,161.747,292.93"/>
	<path display="inline" fill="#BCCF00" d="M51.645,352.994c2.595,7.354-1.614,15.205-9.401,17.537
		c-7.786,2.331-16.202-1.74-18.796-9.094c-2.595-7.354,1.614-15.205,9.4-17.537C40.635,341.569,49.05,345.641,51.645,352.994"/>
	<path display="inline" fill="#2ED03C" d="M122.006,317.718c-10.018,12.084-28.68,14.102-41.684,4.508
		c-13.003-9.594-15.424-27.167-5.406-39.251c10.017-12.083,28.68-14.101,41.683-4.507
		C129.603,288.061,132.024,305.634,122.006,317.718"/>
	<path display="inline" fill="#EE7203" d="M141.556,541.268c-4.295,5.197-12.055,6.265-17.332,2.385
		c-5.277-3.88-6.074-11.237-1.779-16.436s12.054-6.266,17.332-2.386C145.054,528.711,145.851,536.069,141.556,541.268"/>
	<path display="inline" fill="#971B81" d="M192.378,521.621c-14.45,6.068-30.852-0.178-36.635-13.95
		c-5.783-13.771,1.243-29.855,15.692-35.923c14.45-6.067,30.852,0.178,36.635,13.95C213.853,499.47,206.828,515.553,192.378,521.621
		"/>
	<path display="inline" fill="#00B6DD" d="M253.022,332.113c-0.88-1.814-0.09-3.982,1.764-4.844
		c1.855-0.859,4.072-0.088,4.952,1.727c0.88,1.813,0.09,3.981-1.764,4.843C256.12,334.699,253.902,333.927,253.022,332.113"/>
</g>
<g id="Parte_3" display="none">
	<path display="inline" fill="#00B6DD" d="M725.652,413.995c-3.514,1.474-7.55-0.111-9.015-3.541s0.194-7.405,3.708-8.88
		c3.514-1.474,7.548,0.111,9.014,3.54C730.825,408.545,729.165,412.521,725.652,413.995"/>
	<path display="inline" fill="#00B6DD" d="M706.646,450.235c-1.892,0.794-4.064-0.061-4.854-1.907s0.104-3.988,1.997-4.782
		c1.891-0.794,4.064,0.061,4.854,1.907S708.539,449.441,706.646,450.235"/>
	<path display="inline" fill="#00B6DD" d="M728.101,427.527c-1.893,0.794-4.065-0.06-4.854-1.906
		c-0.789-1.848,0.104-3.988,1.997-4.782c1.892-0.794,4.065,0.06,4.854,1.907C730.887,424.593,729.992,426.733,728.101,427.527"/>
	<path display="inline" fill="#00B6DD" d="M737.568,419.341c-1.093,0.459-2.349-0.034-2.805-1.103
		c-0.455-1.065,0.061-2.303,1.154-2.762c1.093-0.459,2.348,0.035,2.804,1.102C739.178,417.646,738.661,418.882,737.568,419.341"/>
	<path display="inline" fill="#00B6DD" d="M737.28,428.223c-0.742,0.312-1.593-0.023-1.903-0.747
		c-0.309-0.724,0.042-1.562,0.783-1.874s1.593,0.023,1.902,0.747S738.021,427.912,737.28,428.223"/>
	<path display="inline" fill="#00B6DD" d="M708.511,438.459c-0.742,0.311-1.593-0.023-1.903-0.747
		c-0.309-0.724,0.043-1.563,0.783-1.874c0.741-0.312,1.594,0.022,1.902,0.747C709.603,437.309,709.252,438.147,708.511,438.459"/>
	<path display="inline" fill="#00B6DD" d="M715.799,432.905c-1.188,0.499-2.552-0.037-3.048-1.197
		c-0.495-1.16,0.066-2.504,1.254-3.003c1.188-0.498,2.552,0.038,3.047,1.198C717.548,431.062,716.987,432.407,715.799,432.905"/>
	<path display="inline" fill="#00B6DD" d="M716.899,422.562c-1.093,0.459-2.349-0.034-2.804-1.101
		c-0.456-1.067,0.06-2.305,1.152-2.764c1.094-0.459,2.35,0.035,2.805,1.103C718.51,420.867,717.992,422.103,716.899,422.562"/>
	<path display="inline" fill="#00B6DD" d="M727.207,406.133c-1.173,0.17-2.265-0.623-2.438-1.77
		c-0.174-1.147,0.637-2.215,1.81-2.385c1.174-0.17,2.266,0.623,2.438,1.77C729.191,404.896,728.381,405.963,727.207,406.133"/>
	<path display="inline" fill="#00B6DD" d="M605.803,526.901c-2.016,3.18-6.27,4.176-9.502,2.226
		c-3.231-1.95-4.219-6.109-2.202-9.289c2.016-3.18,6.271-4.177,9.502-2.227C606.833,519.562,607.819,523.722,605.803,526.901"/>
	<path display="inline" fill="#00B6DD" d="M570.409,544.569c-1.086,1.713-3.377,2.249-5.116,1.199
		c-1.741-1.051-2.272-3.29-1.187-5.003c1.085-1.713,3.377-2.249,5.117-1.198C570.965,540.617,571.495,542.857,570.409,544.569"/>
	<path display="inline" fill="#00B6DD" d="M577.836,532.197c-1.086,1.713-3.377,2.248-5.117,1.198
		c-1.74-1.051-2.271-3.291-1.186-5.003c1.085-1.712,3.376-2.249,5.117-1.199C578.392,528.245,578.922,530.484,577.836,532.197"/>
	<path display="inline" fill="#00B6DD" d="M614.088,514.841c-0.627,0.989-1.95,1.299-2.956,0.691
		c-1.006-0.605-1.312-1.899-0.686-2.89c0.628-0.989,1.951-1.299,2.957-0.692C614.409,512.558,614.715,513.852,614.088,514.841"/>
	<path display="inline" fill="#00B6DD" d="M563.686,553.59c-0.427,0.671-1.324,0.881-2.007,0.47c-0.682-0.412-0.89-1.29-0.464-1.961
		c0.425-0.671,1.323-0.881,2.005-0.469C563.902,552.04,564.11,552.918,563.686,553.59"/>
	<path display="inline" fill="#00B6DD" d="M555.147,533.957c-0.426,0.671-1.323,0.881-2.006,0.47
		c-0.682-0.411-0.89-1.29-0.464-1.961c0.425-0.671,1.323-0.881,2.005-0.469C555.365,532.408,555.573,533.286,555.147,533.957"/>
	<path display="inline" fill="#00B6DD" d="M545.053,535.87c-0.426,0.671-1.324,0.881-2.006,0.47
		c-0.683-0.411-0.891-1.289-0.464-1.961c0.425-0.671,1.322-0.881,2.005-0.469C545.27,534.321,545.478,535.199,545.053,535.87"/>
	<path display="inline" fill="#00B6DD" d="M584.887,537.089c-0.427,0.671-1.323,0.881-2.006,0.47
		c-0.682-0.412-0.891-1.29-0.465-1.961c0.425-0.671,1.323-0.881,2.005-0.469C585.104,535.54,585.312,536.417,584.887,537.089"/>
	<path display="inline" fill="#00B6DD" d="M588.104,524.995c-0.426,0.671-1.323,0.882-2.006,0.47
		c-0.681-0.412-0.89-1.29-0.464-1.961c0.425-0.67,1.323-0.881,2.005-0.469C588.321,523.446,588.529,524.324,588.104,524.995"/>
	<path display="inline" fill="#00B6DD" d="M614.048,525.807c-0.426,0.671-1.323,0.881-2.006,0.47
		c-0.682-0.412-0.89-1.29-0.464-1.961c0.425-0.671,1.323-0.881,2.005-0.469C614.265,524.258,614.473,525.136,614.048,525.807"/>
	<path display="inline" fill="#00B6DD" d="M565.273,532.224c-0.627,0.989-1.951,1.299-2.956,0.693
		c-1.007-0.607-1.313-1.901-0.686-2.891c0.627-0.99,1.95-1.3,2.956-0.692C565.594,529.94,565.9,531.234,565.273,532.224"/>
	<path display="inline" fill="#00B6DD" d="M559.253,540.29c-0.627,0.989-1.951,1.299-2.956,0.693
		c-1.006-0.607-1.313-1.901-0.686-2.89c0.627-0.99,1.95-1.301,2.956-0.693C559.573,538.007,559.88,539.302,559.253,540.29"/>
	<path display="inline" fill="#2ED03C" d="M873.379,494.175c6.822,19.336-4.244,39.98-24.717,46.11
		c-20.475,6.13-42.602-4.576-49.425-23.911c-6.821-19.336,4.245-39.979,24.719-46.109
		C844.429,464.134,866.557,474.839,873.379,494.175"/>
	<path display="inline" fill="#BCCF00" d="M715.938,450.726c-2.092-0.617-3.226-2.721-2.534-4.7
		c0.692-1.978,2.949-3.082,5.041-2.465s3.227,2.721,2.534,4.699S718.03,451.343,715.938,450.726"/>
	<path display="inline" fill="#BCCF00" d="M704.693,456.044c-1.007-0.604-1.313-1.854-0.686-2.793
		c0.628-0.937,1.953-1.208,2.961-0.603c1.007,0.604,1.313,1.854,0.686,2.792C707.026,456.378,705.7,456.648,704.693,456.044"/>
	<path display="inline" fill="#BCCF00" d="M707.762,458.742c-0.582-0.35-0.759-1.071-0.396-1.613
		c0.363-0.542,1.13-0.698,1.711-0.349c0.582,0.349,0.759,1.07,0.396,1.612C709.109,458.935,708.344,459.091,707.762,458.742"/>
	<path display="inline" fill="#BCCF00" d="M703.392,461.408c-0.396-0.237-0.515-0.727-0.27-1.094
		c0.246-0.368,0.767-0.475,1.161-0.237s0.516,0.728,0.269,1.094C704.306,461.539,703.786,461.646,703.392,461.408"/>
	<path display="inline" fill="#BCCF00" d="M699.05,455.065c-0.441-0.13-0.681-0.574-0.535-0.992c0.146-0.417,0.623-0.65,1.064-0.52
		c0.44,0.13,0.681,0.574,0.535,0.992C699.968,454.963,699.492,455.195,699.05,455.065"/>
	<path display="inline" fill="#BCCF00" d="M698.042,452.183c-0.633-0.379-0.825-1.164-0.432-1.753
		c0.396-0.589,1.228-0.76,1.86-0.379c0.632,0.379,0.825,1.164,0.43,1.752C699.507,452.393,698.674,452.562,698.042,452.183"/>
	<path display="inline" fill="#BCCF00" d="M708.833,451.271c-0.65-0.192-1.004-0.847-0.789-1.462
		c0.217-0.616,0.918-0.959,1.569-0.768c0.651,0.192,1.004,0.847,0.788,1.463C710.187,451.12,709.484,451.464,708.833,451.271"/>
	<path display="inline" fill="#BCCF00" d="M722.748,441.748c-0.651-0.192-1.004-0.847-0.788-1.462
		c0.215-0.616,0.917-0.959,1.568-0.768c0.65,0.192,1.004,0.847,0.788,1.462C724.101,441.597,723.398,441.939,722.748,441.748"/>
	<path display="inline" fill="#00B6DD" d="M911.359,469.063c4.758-7.854,15.124-10.447,23.154-5.794
		c8.029,4.653,10.681,14.792,5.923,22.645c-4.757,7.854-15.124,10.447-23.153,5.794S906.602,476.916,911.359,469.063"/>
	<path display="inline" fill="#1F386C" d="M828.264,527.396c-17.901,21.591-51.276,25.174-74.547,8.003
		c-23.271-17.169-27.624-48.592-9.724-70.182s51.277-25.173,74.546-8.002C841.812,474.385,846.164,505.807,828.264,527.396"/>
	<path display="inline" fill="#971B81" d="M789.422,403.055c-5.754,2.416-12.341-0.203-14.712-5.85
		c-2.372-5.648,0.37-12.185,6.124-14.602c5.754-2.416,12.342,0.204,14.713,5.852C797.918,394.102,795.176,400.639,789.422,403.055"
		/>
	<path display="inline" fill="#BCCF00" d="M682.061,529.727c1.049,2.973-0.652,6.146-3.801,7.088
		c-3.146,0.942-6.548-0.702-7.597-3.676c-1.049-2.972,0.653-6.145,3.8-7.087C677.61,525.109,681.012,526.755,682.061,529.727"/>
	<path display="inline" fill="#EE7203" d="M920.887,371.397c9.134,25.858-5.979,53.572-33.757,61.9
		c-27.777,8.327-57.7-5.886-66.835-31.745s5.979-53.574,33.756-61.9C881.828,331.325,911.752,345.538,920.887,371.397"/>
</g>
<g id="Parte_2">
	<path fill="#00B6DD" d="M629.23,122.337c3.711-0.85,7.424,1.404,8.293,5.033c0.869,3.63-1.436,7.261-5.146,8.111
		c-3.712,0.85-7.425-1.404-8.294-5.033C623.214,126.818,625.52,123.188,629.23,122.337"/>
	<path fill="#00B6DD" d="M666.881,134.443c1.999-0.458,3.998,0.756,4.466,2.711c0.468,1.954-0.773,3.91-2.772,4.368
		c-1.998,0.458-3.998-0.756-4.466-2.711C663.641,136.856,664.882,134.901,666.881,134.443"/>
	<path fill="#00B6DD" d="M652.733,138.04c1.999-0.458,3.998,0.756,4.466,2.711c0.469,1.955-0.772,3.91-2.771,4.368
		c-1.998,0.458-3.998-0.756-4.466-2.711C649.493,140.453,650.734,138.498,652.733,138.04"/>
	<path fill="#00B6DD" d="M669.139,126.516c0.784-0.179,1.567,0.296,1.75,1.062c0.185,0.766-0.303,1.533-1.086,1.712
		c-0.783,0.18-1.566-0.296-1.75-1.062C667.869,127.462,668.355,126.696,669.139,126.516"/>
	<path fill="#00B6DD" d="M651.298,129.671c0.783-0.18,1.566,0.296,1.75,1.062c0.184,0.766-0.304,1.533-1.087,1.712
		c-0.782,0.18-1.566-0.296-1.75-1.062C650.027,130.618,650.515,129.851,651.298,129.671"/>
	<path fill="#00B6DD" d="M670.261,150.567c0.784-0.18,1.566,0.296,1.75,1.062s-0.303,1.533-1.086,1.712
		c-0.783,0.18-1.567-0.296-1.75-1.062C668.99,151.513,669.478,150.746,670.261,150.567"/>
	<path fill="#00B6DD" d="M672.143,158.574c0.783-0.18,1.566,0.296,1.75,1.062s-0.304,1.533-1.087,1.712
		c-0.782,0.18-1.566-0.296-1.75-1.062C670.872,159.521,671.359,158.753,672.143,158.574"/>
	<path fill="#00B6DD" d="M640.313,135.998c0.784-0.179,1.567,0.296,1.75,1.062c0.185,0.766-0.302,1.533-1.086,1.712
		c-0.783,0.18-1.566-0.296-1.75-1.062C639.044,136.944,639.53,136.177,640.313,135.998"/>
	<path fill="#00B6DD" d="M622.638,117.377c0.784-0.179,1.566,0.296,1.75,1.062s-0.304,1.533-1.086,1.712
		c-0.783,0.18-1.567-0.296-1.75-1.062C621.367,118.324,621.854,117.558,622.638,117.377"/>
	<path fill="#00B6DD" d="M661.596,146.76c1.155-0.265,2.311,0.437,2.58,1.566s-0.446,2.259-1.601,2.523
		c-1.154,0.265-2.311-0.436-2.58-1.566C659.724,148.154,660.44,147.024,661.596,146.76"/>
	<path fill="#1F386C" d="M674.879,49.492c19.024-31.399,60.472-41.77,92.577-23.165c32.104,18.606,42.709,59.143,23.685,90.542
		c-19.023,31.398-60.472,41.77-92.576,23.164C666.46,121.428,655.855,80.891,674.879,49.492"/>
	<path fill="#00B6DD" d="M821.77,96.172c4.758-7.853,15.124-10.447,23.154-5.794c8.029,4.654,10.681,14.792,5.924,22.645
		c-4.758,7.853-15.125,10.447-23.154,5.794C819.664,114.164,817.012,104.025,821.77,96.172"/>
	<path fill="#1F386C" d="M912.144,19.519c4.758-7.853,15.124-10.447,23.153-5.793c8.029,4.652,10.682,14.791,5.924,22.644
		s-15.125,10.447-23.153,5.794C910.037,37.511,907.385,27.372,912.144,19.519"/>
	<path fill="#EE7203" d="M881.408,25.168c5.188,14.708-3.229,30.411-18.801,35.073c-15.573,4.663-32.405-3.48-37.595-18.187
		c-5.188-14.708,3.229-30.411,18.803-35.074C859.387,2.318,876.219,10.461,881.408,25.168"/>
	<path fill="#1F386C" d="M818.902,217.733c1.706,4.836-1.062,9.999-6.182,11.532c-5.12,1.534-10.655-1.144-12.361-5.98
		s1.062-9.999,6.182-11.532C811.661,210.22,817.196,212.897,818.902,217.733"/>
	<path fill="#BCCF00" d="M951.726,270.57c1.049,2.972-0.652,6.146-3.8,7.088s-6.548-0.703-7.597-3.676
		c-1.05-2.972,0.652-6.145,3.8-7.087C947.275,265.952,950.677,267.598,951.726,270.57"/>
	<path fill="#00B6DD" d="M946.932,174.551c-18.146,21.877-52.106,25.4-75.855,7.869c-23.748-17.529-28.291-49.476-10.146-71.351
		c18.145-21.875,52.106-25.398,75.854-7.868C960.534,120.73,965.076,152.676,946.932,174.551"/>
	<path fill="#2ED03C" d="M821.895,118.417c9.134,25.859-5.979,53.573-33.756,61.901c-27.778,8.327-57.701-5.886-66.835-31.745
		c-9.135-25.86,5.978-53.574,33.756-61.901C782.837,78.345,812.761,92.558,821.895,118.417"/>
	<path fill="#00B6DD" d="M754.665,268.734c13.421-22.142,42.986-29.259,66.036-15.896c23.049,13.364,30.854,42.146,17.433,64.287
		c-13.42,22.144-42.984,29.261-66.033,15.897C749.05,319.659,741.245,290.877,754.665,268.734"/>
	<path fill="#971B81" d="M901.516,278.549c-20.316,8.531-43.76-1.159-52.362-21.644c-8.602-20.485,0.896-44.007,21.212-52.538
		c20.316-8.531,43.76,1.159,52.361,21.644C931.328,246.495,921.833,270.019,901.516,278.549"/>
</g>
<g id="Parte_1" display="none">
	<path display="inline" fill="#00B6DD" d="M257.976,273.352c-1.634-3.368-0.168-7.393,3.276-8.992
		c3.443-1.598,7.56-0.164,9.194,3.204c1.634,3.367,0.168,7.393-3.276,8.992C263.727,278.154,259.609,276.72,257.976,273.352"/>
	<path display="inline" fill="#00B6DD" d="M262.108,234.802c-0.88-1.814-0.09-3.982,1.764-4.843c1.855-0.86,4.072-0.088,4.952,1.726
		s0.09,3.982-1.764,4.843C265.206,237.388,262.989,236.616,262.108,234.802"/>
	<path display="inline" fill="#00B6DD" d="M268.696,247.564c-0.88-1.814-0.09-3.982,1.764-4.843c1.855-0.86,4.072-0.088,4.952,1.726
		s0.09,3.982-1.764,4.842C271.793,250.15,269.576,249.378,268.696,247.564"/>
	<path display="inline" fill="#00B6DD" d="M263.826,286.65c-0.509-1.048-0.052-2.3,1.019-2.798c1.071-0.497,2.352-0.052,2.861,0.997
		c0.508,1.048,0.052,2.3-1.019,2.797C265.614,288.145,264.333,287.698,263.826,286.65"/>
	<path display="inline" fill="#00B6DD" d="M261.708,234.321c-0.345-0.711-0.035-1.561,0.691-1.898
		c0.727-0.337,1.596-0.034,1.941,0.676c0.345,0.711,0.035,1.561-0.691,1.898C262.923,235.333,262.054,235.032,261.708,234.321"/>
	<path display="inline" fill="#00B6DD" d="M260.637,250.707c-0.345-0.711-0.035-1.561,0.691-1.898
		c0.727-0.337,1.596-0.034,1.941,0.676c0.345,0.711,0.035,1.561-0.692,1.898C261.851,251.72,260.981,251.418,260.637,250.707"/>
	<path display="inline" fill="#00B6DD" d="M269.283,259.868c-0.345-0.711-0.035-1.561,0.691-1.898
		c0.727-0.337,1.596-0.034,1.941,0.676c0.345,0.711,0.035,1.561-0.691,1.898C270.497,260.881,269.627,260.579,269.283,259.868"/>
	<path display="inline" fill="#00B6DD" d="M254.414,280.703c-0.345-0.711-0.035-1.561,0.691-1.898
		c0.727-0.337,1.596-0.034,1.941,0.676c0.345,0.711,0.035,1.561-0.691,1.897C255.627,281.717,254.758,281.414,254.414,280.703"/>
	<path display="inline" fill="#00B6DD" d="M275.535,237.248c-0.509-1.048-0.052-2.3,1.019-2.798
		c1.071-0.497,2.352-0.051,2.861,0.997c0.508,1.048,0.052,2.3-1.02,2.797C277.324,238.742,276.043,238.296,275.535,237.248"/>
	<path display="inline" fill="#00B6DD" d="M491.703,110.116c1.155-0.264,2.311,0.437,2.58,1.566
		c0.271,1.129-0.445,2.259-1.601,2.523c-1.154,0.265-2.311-0.436-2.58-1.566C489.831,111.51,490.549,110.38,491.703,110.116"/>
	<path display="inline" fill="#00B6DD" d="M139.966,74.696c-2.46-5.068-0.252-11.128,4.93-13.533
		c5.182-2.406,11.378-0.247,13.837,4.821c2.46,5.069,0.253,11.128-4.93,13.533C148.621,81.923,142.426,79.765,139.966,74.696"/>
	<path display="inline" fill="#2ED03C" d="M265.173,171.599c6.822,19.336-4.244,39.98-24.717,46.11
		c-20.474,6.13-42.601-4.576-49.423-23.911c-6.823-19.336,4.244-39.98,24.717-46.11
		C236.223,141.558,258.351,152.263,265.173,171.599"/>
	<path display="inline" fill="#BCCF00" d="M450.269,97.649c4.948,2.463,6.998,8.57,4.58,13.641
		c-2.418,5.071-8.39,7.185-13.337,4.722c-4.948-2.463-6.999-8.571-4.581-13.642C439.35,97.3,445.32,95.187,450.269,97.649"/>
	<path display="inline" fill="#BCCF00" d="M423.692,118.561c2.665,1.326,3.769,4.615,2.467,7.346
		c-1.303,2.731-4.519,3.87-7.184,2.543c-2.664-1.327-3.769-4.616-2.466-7.347C417.811,118.372,421.027,117.233,423.692,118.561"/>
	<path display="inline" fill="#BCCF00" d="M378.291,117.218c2.665,1.326,3.769,4.615,2.467,7.346
		c-1.303,2.731-4.519,3.87-7.184,2.543c-2.664-1.327-3.768-4.616-2.466-7.346C372.409,117.029,375.625,115.891,378.291,117.218"/>
	<path display="inline" fill="#BCCF00" d="M358.286,114.792c1.54,0.766,2.178,2.666,1.425,4.244c-0.752,1.578-2.61,2.236-4.15,1.469
		c-1.539-0.766-2.177-2.666-1.424-4.244C354.889,114.683,356.747,114.025,358.286,114.792"/>
	<path display="inline" fill="#BCCF00" d="M368.401,106.236c1.044,0.52,1.477,1.809,0.967,2.879
		c-0.511,1.07-1.771,1.517-2.816,0.997c-1.043-0.52-1.477-1.809-0.966-2.879C366.096,106.162,367.356,105.716,368.401,106.236"/>
	<path display="inline" fill="#BCCF00" d="M408.884,128.244c1.045,0.52,1.477,1.809,0.967,2.879
		c-0.511,1.07-1.771,1.517-2.815,0.997c-1.044-0.52-1.477-1.809-0.966-2.879C406.579,128.17,407.84,127.724,408.884,128.244"/>
	<path display="inline" fill="#BCCF00" d="M395.854,125.628c1.673,0.833,2.366,2.898,1.549,4.613
		c-0.818,1.714-2.837,2.428-4.51,1.596c-1.673-0.832-2.366-2.898-1.548-4.612C392.162,125.511,394.181,124.795,395.854,125.628"/>
	<path display="inline" fill="#BCCF00" d="M383.354,134.735c1.54,0.766,2.177,2.666,1.425,4.244
		c-0.752,1.577-2.61,2.235-4.149,1.469c-1.54-0.766-2.178-2.667-1.425-4.244C379.957,134.626,381.815,133.968,383.354,134.735"/>
	<path display="inline" fill="#BCCF00" d="M343.566,155.096c1.539,0.766,2.177,2.666,1.425,4.244
		c-0.752,1.577-2.61,2.236-4.15,1.469c-1.539-0.766-2.177-2.666-1.424-4.244C340.169,154.987,342.027,154.33,343.566,155.096"/>
	<path display="inline" fill="#2ED03C" d="M104.259,93.177c-13.17,15.886-37.705,18.539-54.8,5.926
		C32.363,86.49,29.181,63.388,42.351,47.502c13.17-15.886,37.704-18.539,54.8-5.926C114.246,54.188,117.429,77.292,104.259,93.177"
		/>
	<path display="inline" fill="#EE7203" d="M73.248,204.252c-12.171-25.08-1.249-55.062,24.395-66.965
		c25.644-11.904,56.299-1.222,68.47,23.858c12.172,25.08,1.25,55.061-24.394,66.965C116.075,240.015,85.419,229.333,73.248,204.252"
		/>
	<path display="inline" fill="#2ED03C" d="M185.622,120.844c-3.466,4.166-10.129,4.689-14.883,1.17
		c-4.755-3.519-5.799-9.749-2.334-13.915c3.466-4.165,10.129-4.689,14.883-1.17C188.043,110.449,189.088,116.678,185.622,120.844"/>
	<path display="inline" fill="#971B81" d="M484.051,73.435c-14.743,6.191-31.613-0.501-37.679-14.947
		c-6.066-14.446,0.968-31.175,15.712-37.366c14.743-6.191,31.613,0.501,37.679,14.947C505.828,50.513,498.793,67.243,484.051,73.435
		"/>
	<path display="inline" fill="#971B81" d="M45.332,246.824c-10.563,4.436-22.612-0.269-26.912-10.508
		c-4.299-10.239,0.778-22.135,11.342-26.571c10.563-4.436,22.612,0.269,26.912,10.508C60.973,230.492,55.895,242.388,45.332,246.824
		"/>
	<path display="inline" fill="#00B6DD" d="M479.633,23.082c13.421-22.142,42.986-29.259,66.036-15.896
		c23.05,13.363,30.854,42.146,17.434,64.287c-13.42,22.143-42.985,29.261-66.034,15.897
		C474.019,74.006,466.213,45.225,479.633,23.082"/>
	<path display="inline" fill="#00B6DD" d="M13.526,132.348c7.703-12.708,24.702-16.774,37.969-9.082
		c13.265,7.691,17.775,24.228,10.072,36.936c-7.702,12.708-24.701,16.775-37.967,9.083C10.333,161.593,5.823,145.056,13.526,132.348
		"/>
	<path display="inline" fill="#971B81" d="M201.101,59.732c-12.079,5.072-25.954-0.541-30.991-12.536
		c-5.037-11.996,0.671-25.832,12.75-30.904c12.078-5.072,25.953,0.541,30.991,12.536C218.888,40.824,213.18,54.66,201.101,59.732"/>
	<path display="inline" fill="#1F386C" d="M337.992,100.788c-21.606,26.152-60.602,31.559-87.1,12.078
		c-26.499-19.478-30.466-56.47-8.86-82.62c21.606-26.15,60.603-31.557,87.101-12.078C355.632,37.648,359.598,74.639,337.992,100.788
		"/>
	<path display="inline" fill="#971B81" d="M297.722,153.232c-22.779,9.565-48.967-1.069-58.492-23.752
		c-9.525-22.683,1.22-48.826,23.999-58.391c22.779-9.565,48.967,1.069,58.492,23.752
		C331.246,117.524,320.501,143.667,297.722,153.232"/>
</g>
<g id="Name" display="none">
	<g display="inline">
		<text transform="matrix(1.0014 -0.2454 0.1766 0.9843 305.5776 371.5059)" font-family="'sobrushone-one'" font-size="100">hackaton</text>
	</g>
	<g display="inline">
		<path fill="#00B6DD" d="M328.482,338.223c1.788,3.361,0.58,7.533-2.698,9.318c-3.278,1.785-7.384,0.508-9.172-2.855
			c-1.787-3.359-0.579-7.531,2.698-9.316C322.588,333.584,326.694,334.861,328.482,338.223"/>
		<path fill="#00B6DD" d="M451.607,340.727c0.963,1.811,0.312,4.059-1.453,5.02s-3.977,0.271-4.94-1.537
			c-0.962-1.811-0.312-4.057,1.454-5.02C448.433,338.229,450.645,338.916,451.607,340.727"/>
		<path fill="#00B6DD" d="M520.447,317.006c0.963,1.811,0.312,4.059-1.452,5.02c-1.767,0.961-3.978,0.271-4.94-1.537
			c-0.962-1.811-0.312-4.057,1.453-5.02C517.273,314.508,519.484,315.195,520.447,317.006"/>
		<path fill="#00B6DD" d="M528.152,313.439c0.379,0.711,0.122,1.59-0.568,1.967c-0.692,0.377-1.56,0.107-1.937-0.604
			c-0.378-0.709-0.123-1.59,0.569-1.965C526.909,312.461,527.775,312.729,528.152,313.439"/>
		<path fill="#00B6DD" d="M519.183,304.484c0.377,0.709,0.122,1.59-0.569,1.967c-0.691,0.375-1.559,0.107-1.936-0.604
			c-0.378-0.709-0.123-1.59,0.568-1.965C517.938,303.506,518.806,303.773,519.183,304.484"/>
		<path fill="#00B6DD" d="M594.553,304.566c0.377,0.709,0.122,1.59-0.568,1.967c-0.692,0.375-1.56,0.107-1.937-0.604
			c-0.378-0.709-0.123-1.59,0.569-1.967C593.309,303.586,594.176,303.857,594.553,304.566"/>
		<path fill="#00B6DD" d="M514.339,327.836c0.556,1.045,0.181,2.344-0.839,2.898c-1.021,0.555-2.298,0.158-2.854-0.889
			c-0.556-1.045-0.18-2.344,0.84-2.898C512.505,326.391,513.782,326.789,514.339,327.836"/>
		<path fill="#00B6DD" d="M673.639,271.618c1.999-0.458,3.998,0.756,4.466,2.711c0.468,1.954-0.773,3.91-2.772,4.368
			c-1.998,0.458-3.998-0.756-4.466-2.711S671.64,272.076,673.639,271.618"/>
		<path fill="#00B6DD" d="M659.491,275.214c1.999-0.458,3.998,0.756,4.466,2.711c0.469,1.955-0.772,3.911-2.771,4.368
			c-1.998,0.459-3.998-0.756-4.466-2.71C656.251,277.627,657.492,275.672,659.491,275.214"/>
		<path fill="#00B6DD" d="M675.896,263.69c0.784-0.179,1.567,0.296,1.75,1.062c0.185,0.766-0.303,1.532-1.086,1.712
			s-1.566-0.296-1.75-1.062C674.627,264.636,675.113,263.871,675.896,263.69"/>
		<path fill="#00B6DD" d="M677.019,287.74c0.784-0.18,1.566,0.297,1.75,1.062s-0.303,1.533-1.086,1.713s-1.567-0.297-1.75-1.062
			C675.748,288.688,676.235,287.92,677.019,287.74"/>
		<path fill="#00B6DD" d="M668.354,283.934c1.155-0.264,2.311,0.438,2.58,1.566s-0.446,2.26-1.601,2.523
			c-1.154,0.266-2.311-0.436-2.58-1.566C666.481,285.328,667.198,284.199,668.354,283.934"/>
		<path fill="#00B6DD" d="M565.956,290.389c3.711-0.85,7.424,1.404,8.293,5.033c0.868,3.629-1.436,7.26-5.146,8.109
			c-3.712,0.852-7.425-1.402-8.294-5.031C559.94,294.869,562.244,291.238,565.956,290.389"/>
		<path fill="#00B6DD" d="M489.639,319.617c1.999-0.457,3.998,0.756,4.466,2.711s-0.773,3.91-2.772,4.369
			c-1.998,0.457-3.998-0.756-4.466-2.711S487.64,320.076,489.639,319.617"/>
		<path fill="#00B6DD" d="M372.471,306.098c1.999-0.459,3.998,0.756,4.466,2.711c0.468,1.955-0.773,3.91-2.772,4.367
			c-1.998,0.459-3.998-0.756-4.466-2.711S370.472,306.555,372.471,306.098"/>
		<path fill="#00B6DD" d="M491.896,311.689c0.784-0.178,1.567,0.297,1.75,1.062c0.185,0.766-0.303,1.533-1.086,1.713
			s-1.567-0.297-1.75-1.062C490.627,312.637,491.113,311.869,491.896,311.689"/>
		<path fill="#00B6DD" d="M474.055,314.846c0.784-0.18,1.567,0.297,1.75,1.062c0.184,0.766-0.303,1.533-1.086,1.711
			c-0.783,0.182-1.567-0.295-1.75-1.061C472.785,315.791,473.272,315.025,474.055,314.846"/>
		<path fill="#00B6DD" d="M573.866,268.976c-0.88-1.813-0.09-3.981,1.765-4.843c1.854-0.859,4.071-0.088,4.951,1.727
			c0.88,1.813,0.09,3.981-1.764,4.843C576.963,271.563,574.746,270.791,573.866,268.976"/>
		<path fill="#00B6DD" d="M580.454,281.738c-0.88-1.814-0.091-3.982,1.764-4.843c1.854-0.859,4.072-0.088,4.952,1.727
			c0.88,1.814,0.09,3.982-1.764,4.841C583.551,284.324,581.334,283.553,580.454,281.738"/>
		<path fill="#00B6DD" d="M587.293,271.422c-0.509-1.048-0.052-2.3,1.02-2.798c1.07-0.497,2.352-0.051,2.86,0.997
			c0.508,1.048,0.052,2.3-1.02,2.797C589.082,272.917,587.801,272.47,587.293,271.422"/>
		<path fill="#00B6DD" d="M474.866,315.977c-0.88-1.814-0.09-3.982,1.764-4.844c1.855-0.859,4.073-0.088,4.952,1.727
			c0.881,1.814,0.09,3.982-1.764,4.844C477.963,318.562,475.747,317.791,474.866,315.977"/>
		<path fill="#00B6DD" d="M481.453,328.738c-0.879-1.814-0.09-3.982,1.765-4.844c1.855-0.859,4.072-0.088,4.952,1.727
			s0.09,3.982-1.764,4.842C484.551,331.324,482.334,330.553,481.453,328.738"/>
		<path fill="#00B6DD" d="M473.395,331.881c-0.345-0.711-0.035-1.561,0.691-1.896c0.727-0.338,1.596-0.035,1.941,0.676
			c0.345,0.711,0.035,1.561-0.692,1.896C474.608,332.895,473.739,332.592,473.395,331.881"/>
		<path fill="#00B6DD" d="M488.293,318.422c-0.509-1.047-0.052-2.299,1.019-2.797c1.071-0.498,2.353-0.051,2.861,0.996
			c0.508,1.049,0.052,2.301-1.02,2.797C490.082,319.916,488.801,319.471,488.293,318.422"/>
	</g>
</g>
</svg>
