<?xml version="1.0" encoding="utf-8"?>
<!-- Generator: Adobe Illustrator 15.0.0, SVG Export Plug-In . SVG Version: 6.00 Build 0)  -->
<!DOCTYPE svg PUBLIC "-//W3C//DTD SVG 1.1//EN" "http://www.w3.org/Graphics/SVG/1.1/DTD/svg11.dtd">
<svg version="1.1" id="Layer_1" xmlns="http://www.w3.org/2000/svg" xmlns:xlink="http://www.w3.org/1999/xlink" x="0px" y="0px"
	 width="1099px" height="878px" viewBox="0 0 1099 878" enable-background="new 0 0 1099 878" xml:space="preserve">
<g>
	<path fill-rule="evenodd" clip-rule="evenodd" fill="#B9D443" d="M410.777,320.194c-21.814-9.011-40.521-21.131-37.568-54.907
		C396.192,271.983,416.873,293.756,410.777,320.194z"/>
	<path fill-rule="evenodd" clip-rule="evenodd" fill="#127A4F" d="M653.528,325.973c-18.951,52.334-38.775,103.793-63.578,150.274
		c-9.632,0-19.267,0-28.898,0C573.261,418.915,579.991,331.561,653.528,325.973z"/>
	<path fill-rule="evenodd" clip-rule="evenodd" fill="#127A4F" d="M566.832,331.754c4.916-1.063,5.453,2.252,5.778,5.779
		c-27.574,44.673-51.038,93.457-72.245,144.495c-13.798,4.504-34.423,2.184-49.129,5.778
		c-15.101-53.957-10.158-164.527,60.688-150.273c-6.449,33.046-19.92,59.071-17.34,101.146
		C524.178,408.547,533.387,358.031,566.832,331.754z"/>
	<path fill-rule="evenodd" clip-rule="evenodd" fill="#755B55" d="M673.757,392.44c4.214-40.442,63.393-61.564,95.367-31.788
		c17.4,49.833-71.847,99.918-92.476,49.127C673.32,406.363,673.377,399.565,673.757,392.44z M696.877,369.32
		c14.662,3.187,50.633-4.307,69.356,8.672C761.044,345.793,711.229,346.016,696.877,369.32z"/>
	<path fill-rule="evenodd" clip-rule="evenodd" fill="#127A4F" d="M329.861,354.873C287.394,395.25,301.8,492.497,222.936,496.477
		c-1.632-34.383,15.687-49.817,20.229-78.027c-28.976,10.521-41.178,37.812-63.577,54.909c-12.845,1.286-15.292-7.829-23.119-11.559
		c-2.238-20.543,4.369-32.238,2.89-52.02c-65.526,25.024-105.81,75.292-144.495,127.156c-5.229-18.517,17.334-38.863,31.788-54.908
		c16.058-17.824,38.561-31.075,49.129-49.129c41.073-25.396,73.46-59.473,124.265-75.137c2.929,18.85-16.306,39.193-17.34,63.578
		C247.574,414.862,265.187,341.589,329.861,354.873z"/>
	<path fill-rule="evenodd" clip-rule="evenodd" fill="#B9D443" d="M858.709,398.221c9.278-2.534,5.993,7.493,11.562,8.668
		c35.272-23.924,80.479-3.569,66.467,52.02c-9.697,38.474-94.99,144.523-132.935,78.026
		C774.864,486.222,827.864,421.937,858.709,398.221z M913.618,415.56c-10.526-0.895-18.808,0.46-26.01,2.889
		c-9.066,8.273-2.104,32.573-8.669,43.351c-16.864,0.487-14.763-17.992-14.449-34.682c-31.543,15.487-53.773,61.828-40.46,104.039
		C887.733,541.263,925.357,471.334,913.618,415.56z"/>
	<path fill-rule="evenodd" clip-rule="evenodd" fill="#B9D443" d="M971.416,542.714c-17.155,0.779-26.04-6.71-34.679-14.449
		c-12.248,1.24-14.721,12.254-26.009,14.449c5.836-14.393,17.607-22.849,28.899-31.787c0.977-24.071,7.987-42.104,34.679-40.459
		c7.582,21.754-21.034,27.872-14.45,57.797c55.727-4.53,64.521-84.208,89.586-121.375c12.71-2.624,18.452-3.044,28.899,2.891
		c-11.258,46.541-42.792,72.803-40.46,132.934c3.405,8.156,26.353-3.231,26.011,8.671c-24.903,21.342-63.481-16.257-104.036,0
		c0.895-3.923,7.235-2.399,11.56-2.89c8.824-3.794,24.129-2.827,26.009-5.781c4.817,0,9.631,0,14.449,0
		c-2.245-2.57-3.107-6.522-2.889-11.557c-6.04-1.227-7.654,1.981-11.561,2.887C990.415,538.596,985.083,544.824,971.416,542.714z"/>
	<path fill-rule="evenodd" clip-rule="evenodd" fill="#B9D443" d="M959.856,453.129c-8.419-21.176,5.309-42.318,20.229-40.458
		C1003.444,415.58,997.721,461.487,959.856,453.129z"/>
	<path fill-rule="evenodd" clip-rule="evenodd" fill="#B9D443" d="M604.4,525.376c-24.302-3.438-50.533,4.401-75.138-2.89
		c-12.329-3.655-21.875-17.556-34.679-20.229c-48.97-10.23-97.017,8.089-153.164,8.67c32.235-8.791,80.343-13.414,127.155-17.34
		C526.406,488.737,600.068,479.656,604.4,525.376z"/>
	<path fill-rule="evenodd" clip-rule="evenodd" fill="#B9D443" d="M332.751,510.927c-7.905,4.616-19.097,5.947-31.789,5.781
		C308.866,512.091,320.059,510.758,332.751,510.927z"/>
	<path fill-rule="evenodd" clip-rule="evenodd" fill="#127A4F" d="M509.035,259.505c-3.647,35.003-33.747,83.629-86.698,69.356
		C420.691,276.818,476.771,268.122,509.035,259.505z"/>
	<path fill-rule="evenodd" clip-rule="evenodd" fill="#B9D443" d="M676.648,409.78c-19.579,7.258-44.682,47.535-14.451,57.798
		c21.655,7.354,57.761-6.229,75.138-17.339c14.783-9.455,28.183-31.542,49.129-52.018c27.277-26.667,60.357-33.418,63.576-72.249
		c0.416-9.085-7.409-9.926-14.449-11.559c2.659-7.876,9.033,4.037,17.34,0c7.38,21.686,0.932,40.262-11.561,54.906
		c-37.139,43.548-99.124,97.698-153.162,115.598c22.447,22.26,67.833,6.117,83.806-11.56c-6.432,11.039-21.563,25.385-40.458,28.898
		c-36.102,6.712-93.635-18.974-98.257-46.238c-4.692-27.688,23.061-45.805,40.458-63.579
		C673.377,399.565,673.32,406.363,676.648,409.78z"/>
	<path fill-rule="evenodd" clip-rule="evenodd" fill="#127A4F" d="M413.668,441.569c-13.949,23.632-42.722,57.449-92.476,54.907
		c-37.061-64.874,38.678-167.111,106.926-144.495c9.122,56.66-37.067,82.136-80.919,95.367c-1.235,11.832,6.106,15.088,11.56,20.229
		C387.972,469.819,399.212,454.085,413.668,441.569z M352.98,430.009c32.251-6.28,52.54-24.523,52.018-63.577
		C376.32,376.287,359.178,397.675,352.98,430.009z"/>
	<path fill-rule="evenodd" clip-rule="evenodd" fill="#B9D443" d="M873.159,586.064c13.705-9.415,28.42-17.82,46.238-23.12
		c-17.997,13.791-33.411,30.165-40.458,54.908c-9.076-1.371-11.808,3.604-14.449,8.67c-11.805,0.87,0.487-4.003-2.891-11.56
		c0.851-5.894,7.82-5.669,8.671-11.56c0.036-5.744,7.885-3.675,5.779-11.561c2.459,0.53,2.727-1.127,2.89-2.889
		C875.58,589.422,873.797,588.316,873.159,586.064z"/>
	<path fill-rule="evenodd" clip-rule="evenodd" fill="#B9D443" d="M861.6,614.963c-2.891,0-5.778,0-8.669,0
		c3.448-12.929,10.454-22.303,20.229-28.898c0.638,2.252,2.421,3.357,5.78,2.89c-0.163,1.762-0.431,3.419-2.89,2.889
		c-7.446,4.116-16.35,6.77-17.341,17.339c2.611,7.83,6.467-6.606,11.562-5.778C869.42,609.294,862.45,609.069,861.6,614.963z"/>
	<path fill-rule="evenodd" clip-rule="evenodd" fill="#B9D443" d="M878.939,617.853
		C877.302,620.552,873.796,616.449,878.939,617.853c-0.793,2.624-18.903,14.288-19.696,7.474
		C861.884,620.26,869.863,616.481,878.939,617.853z"/>
	<path fill-rule="evenodd" clip-rule="evenodd" fill="#FFFFFF" d="M870.271,603.403c-5.095-0.828-8.95,13.608-11.562,5.778
		c0.991-10.569,9.895-13.223,17.341-17.339C878.155,599.729,870.307,597.659,870.271,603.403z"/>
</g>
</svg>
