<?xml version="1.0" encoding="utf-8"?>
<!-- Generator: Adobe Illustrator 15.0.0, SVG Export Plug-In . SVG Version: 6.00 Build 0)  -->
<!DOCTYPE svg PUBLIC "-//W3C//DTD SVG 1.1//EN" "http://www.w3.org/Graphics/SVG/1.1/DTD/svg11.dtd">
<svg version="1.1" id="Layer_1" xmlns="http://www.w3.org/2000/svg" xmlns:xlink="http://www.w3.org/1999/xlink" x="0px" y="0px"
	 width="973.447px" height="335.085px" viewBox="0 0 973.447 335.085" enable-background="new 0 0 973.447 335.085"
	 xml:space="preserve">
<g>
	<polygon fill="#F1852D" points="870.746,73.934 775.259,93.76 807.523,246.13 959.887,213.855 932.435,85.3 	"/>
	<path d="M123.748,123.983c-0.494-0.342-0.902-0.709-0.976-0.64c-0.315,0.248-0.56,0.582-0.751,0.948
		c-0.047,0.075,0.434,0.583,0.5,0.554C122.879,124.662,123.195,124.381,123.748,123.983 M177.519,167.261
		c0.349-0.479,0.751-0.788,0.779-1.087c0.024-0.229-0.523-0.742-0.72-0.671c-0.316,0.06-0.71,0.442-0.805,0.758
		C176.693,166.432,177.138,166.783,177.519,167.261 M136.658,115.333c0.363-0.447,0.753-0.737,0.732-1.021
		c0-0.333-0.508-0.934-0.58-0.878c-0.488,0.249-0.964,0.604-1.444,0.961C135.735,114.626,136.072,114.907,136.658,115.333
		 M76.177,139.989c-0.639-0.042-1.14-0.228-1.405-0.052c-0.389,0.273-0.666,0.809-0.896,1.218c-0.075,0.06,0.355,0.572,0.422,0.526
		c0.408-0.132,0.771-0.354,1.101-0.64C75.648,140.871,75.775,140.592,76.177,139.989 M58.4,148.601
		c-0.449,0.495-0.93,0.837-0.878,0.993c0.205,0.495,0.587,0.889,0.885,1.336c0.323-0.273,0.91-0.595,0.883-0.862
		C59.225,149.62,58.803,149.251,58.4,148.601 M134.569,174.428c0.651,0.574,0.673,1.663,1.641,0.965
		c0.515-0.391,0.969-0.998,0.369-1.607C135.663,172.883,135.479,174.345,134.569,174.428 M56.851,169.93
		c1.077,0,1.754-0.621,1.683-1.496c-0.026-0.229-0.311-0.42-0.456-0.669c-0.578,0.521-1.132,1.055-1.653,1.631
		C56.39,169.417,56.751,169.802,56.851,169.93 M137.102,165.618c0-0.794,0-1.349-0.016-1.883c-1.468-0.348-1.918-0.074-1.971,1.184
		c0.364,0.109,0.674,0.22,0.997,0.351C136.435,165.373,136.724,165.482,137.102,165.618 M147.313,147.123
		c0.066,0.091,0.133,0.171,0.218,0.248c0.727-0.29,1.508-0.462,2.109-0.872c0.31-0.194,0.257-0.874,0.322-1.338
		c0-0.05-0.54-0.302-0.593-0.208C148.646,145.636,147.986,146.403,147.313,147.123 M58.532,171.36
		c-0.759,0.43-1.417,0.74-1.912,1.199c-0.185,0.145-0.146,0.712-0.031,1.058c0,0.115,0.577,0.288,0.644,0.191
		C57.801,173.209,58.784,172.8,58.532,171.36 M56.588,109.209c-0.634-0.569-1.121-1.021-1.638-1.396
		c-0.024-0.042-0.672,0.576-0.62,0.661c0.349,0.592,0.844,1.116,1.24,1.663C55.835,109.889,56.085,109.676,56.588,109.209
		 M57.671,154.157c-0.642-0.556-1.05-1.025-1.584-1.254c-0.112-0.075-0.574,0.513-0.891,0.771c0.449,0.458,0.891,0.997,1.425,1.384
		C56.68,155.11,57.134,154.631,57.671,154.157 M99.808,130.293c-0.713-0.597-1.188-1.02-1.772-1.337
		c-0.126-0.067-0.589,0.443-0.878,0.706c0.488,0.526,1.003,1.107,1.57,1.559C98.753,131.23,99.26,130.785,99.808,130.293
		 M83.576,157.811c0.408-0.491,0.921-1.007,0.888-1.103c-0.375-0.468-0.803-1.031-1.317-1.159c-0.323-0.073-0.798,0.677-1.209,1.037
		C82.44,156.953,82.914,157.308,83.576,157.811 M59.831,148.116c0.634-0.584,1.057-0.976,1.505-1.339
		c-0.542-0.374-1.042-0.89-1.643-1.142c-0.217-0.07-1.015,0.613-0.961,0.695C58.934,146.858,59.33,147.358,59.831,148.116
		 M129.869,114.84c-0.442-0.299-0.97-0.862-1.24-0.792c-0.489,0.166-1.002,0.738-1.142,1.233c-0.137,0.678,0.39,0.99,1.142,0.99
		C129.466,116.271,129.688,115.816,129.869,114.84 M119.779,121.618c0.963,0.036,2.065-1.017,1.966-1.683
		c-0.081-0.277-0.456-0.532-0.68-0.789c-0.608,0.565-1.2,1.073-1.714,1.686C119.253,120.939,119.661,121.43,119.779,121.618
		 M77.989,131.917c0.151,0.086,0.402,0.585,0.76,0.64c0.844,0.17,1.642-0.53,1.615-1.391c-0.072-0.381-0.363-1.056-0.62-1.131
		C78.925,129.895,78.056,130.768,77.989,131.917 M94.785,116.938c-0.152,0.146-0.634,0.354-0.747,0.713
		c-0.052,0.241,0.297,0.752,0.596,0.961c0.52,0.388,1.133,0.7,1.753,0.895c0.153,0.086,0.661-0.256,0.661-0.461
		C97.157,118.181,95.923,116.938,94.785,116.938 M145.044,113.13c0.034,1.266,1.035,2.365,1.794,2.113
		c0.423-0.155,0.787-0.847,0.898-1.383c0.145-0.596-1.076-1.428-1.905-1.287C145.502,112.626,145.19,113.002,145.044,113.13
		 M88.025,158.562c-0.903-0.751-1.424-1.572-2.108-1.734c-0.912-0.241-1.082,0.691-1.082,1.422
		c-0.014,0.872,0.716,1.491,1.706,1.323C86.943,159.514,87.266,159.106,88.025,158.562 M123.432,168.778
		c-0.812-0.7-1.286-1.432-1.906-1.527c-0.481-0.122-1.109,0.56-1.692,0.869c0.709,0.625,1.424,1.297,2.188,1.85
		C122.146,170.044,122.759,169.361,123.432,168.778 M147.426,148.703c-0.89-0.749-2.017-0.865-2.447-0.289
		c-0.779,1.088-0.301,3.129,0.918,3.731c0.17,0.08,0.487,0.163,0.594,0.067c0.126-0.106,0.192-0.513,0.126-0.596
		C145.533,150.321,146.615,149.594,147.426,148.703 M155.087,166.401c-0.019-0.102-0.045-0.157-0.045-0.246
		c-0.495,0.144-0.976,0.246-1.351,0.504c-0.145,0.125-0.185,0.801-0.048,0.9c0.562,0.43,1.253,0.99,1.847,0.943
		c0.606-0.039,1.299-0.644,1.687-1.168c0.443-0.665,0.015-1.19-0.83-1.121C155.905,166.244,155.511,166.321,155.087,166.401
		 M142.382,152.2c-0.033-0.353,0.092-0.819-0.093-1.042c-0.468-0.616-0.995-1.245-1.622-1.656c-0.469-0.281-1.119-0.332-1.694-0.332
		c-0.131,0-0.475,0.781-0.344,0.957c0.344,0.415,0.811,0.832,1.339,1.098C140.667,151.573,141.42,151.815,142.382,152.2
		 M134.312,100.875c-0.206,0.106-0.706,0.283-1.088,0.56c-0.731,0.568-0.731,1.358-0.25,2.104c0.529,0.725,1.207,0.511,1.879,0.067
		c0.316-0.238,0.745-0.452,0.975-0.767c0.158-0.218,0.061-0.731-0.092-0.942C135.42,101.541,134.977,101.343,134.312,100.875
		 M79.605,137.983c-0.118-0.181-0.475-0.822-0.726-0.768c-0.93,0.182-1.912,0.469-2.301,1.525c-0.317,0.736-0.146,1.248,0.759,1.497
		C78.306,140.494,79.566,139.445,79.605,137.983 M68.885,145.693c-0.997-0.1-1.129,0.571-1.167,1.321
		c-0.065,1.343,0.317,1.774,1.809,1.723c1-0.035,0.934-0.985,1.042-1.678C70.764,145.693,69.76,145.795,68.885,145.693
		 M88.241,143.429c0.193-0.146,0.997-0.408,1.117-0.833c0.238-0.77-0.535-1.047-1.208-1.269c-0.363-0.113-0.626-0.438-1.002-0.55
		c-0.364-0.138-0.824-0.38-1.147-0.272c-0.252,0.124-0.489,0.581-0.52,0.949C85.328,142.69,86.298,143.488,88.241,143.429
		 M111.525,141.087c1.065,0.367,1.733-0.448,2.345-1.222c0.126-0.167-0.039-0.862-0.276-1.016c-0.468-0.263-1.042-0.333-1.575-0.423
		c-0.903-0.11-2.208,0.759-2.109,1.439C109.981,140.778,110.353,141.402,111.525,141.087 M61.302,147.997
		c2.065,1.085,4.153,1.223,4.221-1.118c0.04-1.016-0.516-1.656-1.432-1.141C63.115,146.285,62.31,147.14,61.302,147.997
		 M150.312,117.958c1.255-0.541,1.834-1.459,2.091-2.392c0.395-1.217-1.24-0.68-1.529-1.392c0.14-0.474,0.223-0.871,0.355-1.429
		c-0.962,0.774-1.74,1.322-2.459,1.967c-0.211,0.127-0.39,0.404-0.39,0.62c0,0.163,0.263,0.402,0.469,0.446
		c0.568,0.144,1.273,0.037,1.622,0.364C150.71,116.355,150.428,117.138,150.312,117.958 M131.417,122.519
		c-0.091,0.146-0.151,0.277-0.244,0.425c0.7,0.452,1.478,1.332,2.115,1.237c1.478-0.149,2.855-0.77,4.288-1.237
		c0.026-0.179,0.026-0.365,0.041-0.533c-0.396-0.117-0.785-0.373-1.147-0.336C134.792,122.166,133.104,122.347,131.417,122.519
		 M64.552,152.056c0.04,0.072,0.111,0.414,0.271,0.462c0.633,0.143,1.287,0.253,1.926,0.334c-0.059-0.543-0.013-1.152-0.245-1.661
		c-0.542-1.276-1.714-1.182-2.795-0.976c-0.448,0.081-1.135,0.383-1.172,0.637c-0.049,0.468,0.19,1.106,0.539,1.425
		C63.261,152.469,63.919,152.177,64.552,152.056 M110.817,157.99c-1.145,1.414-1.119,2.36,0.325,3.243
		c0.435,0.252,1.216,0.19,1.728-0.024c0.33-0.15,0.712-0.859,0.62-1.194c-0.156-0.612-0.505-1.328-1.02-1.689
		C112.106,157.99,111.4,158.079,110.817,157.99 M116.854,123.772c-0.021,0.835,0.139,1.625,1.119,1.734
		c0.949,0.08,2.714-1.523,2.714-2.291c-0.012-0.921-0.698-0.93-1.336-0.963C117.576,122.239,116.879,122.666,116.854,123.772
		 M60.92,109.651c0.006-1.042-0.885-2.04-1.747-1.655c-0.771,0.274-1.417,1.185-1.841,2.001c-0.276,0.473,1.141,1.691,1.895,1.722
		C60.057,111.745,60.886,110.702,60.92,109.651 M93.662,139.631c-0.622,0.067-1.114,0-1.469,0.171
		c-0.548,0.28-1.003,0.777-1.451,1.14c0.422,0.42,0.837,1.058,1.383,1.24c0.613,0.156,1.377,0.011,2.044-0.12
		c0.567-0.127,1.087-0.419,1.628-0.639c-0.376-0.47-0.693-0.983-1.139-1.383C94.355,139.781,93.887,139.721,93.662,139.631
		 M122.82,162.554c0.21-0.146,0.573-0.277,0.752-0.515c0.098-0.161-0.053-0.514-0.138-0.732c-0.16-0.478-0.303-0.955-0.586-1.37
		c-0.298-0.455-0.679-1.037-1.135-1.172c-0.309-0.086-0.937,0.462-1.213,0.867c-1.353,2.2-1.339,2.219,1.279,2.603
		C122.101,162.324,122.377,162.434,122.82,162.554 M88.968,100.666h1.68c0.93,0,1.789-0.021,2.184,1.123
		c0.126,0.429,0.664,0.753,1.081,1.004c0.125,0.06,0.686-0.278,0.692-0.401c-0.006-0.586-0.026-1.2-0.309-1.67
		c-0.662-1.156-1.769-1.502-3.079-1.7C90.028,98.868,89.482,99.379,88.968,100.666 M40.802,139.937
		c1.209,2.126,3.35,2.534,5.184,1.165c0.509-0.354,0.443-1.165-0.166-1.403C44.151,139.058,42.501,139.103,40.802,139.937
		 M100.883,132.792c0.875,0.932,3.312,1.579,4.228,0.872c0.455-0.368,0.869-1.233,0.812-1.824c-0.133-0.694-0.904-0.708-1.536-0.318
		c-0.218,0.099-0.602,0.159-0.806,0.031C102.188,130.785,101.503,131.619,100.883,132.792 M64.216,137.335
		c0.605-0.025,1.029-0.265,0.804-1.082c-0.079-0.388,0.099-0.794,0.178-1.177c0.065-0.365,0.138-0.721,0.198-1.08
		c-0.376-0.083-0.805-0.284-1.162-0.216c-0.784,0.164-1.575,0.394-2.261,0.735c-0.39,0.195-0.787,0.663-0.889,1.039
		c-0.061,0.327,0.235,0.994,0.5,1.09C62.396,136.946,63.261,137.125,64.216,137.335 M109.163,153.029
		c-0.403,0.271-0.744,0.471-1.073,0.744c-0.753,0.766-0.258,1.644-0.08,2.435c0.066,0.336,0.361,0.782,0.666,0.896
		c0.33,0.132,0.778-0.116,1.161-0.244c0.456-0.166,0.971-0.337,1.312-0.621c0.408-0.27,0.746-0.725,0.906-1.129
		c0.052-0.136-0.499-0.559-0.807-0.805c-0.318-0.26-0.7-0.446-1.041-0.661C109.889,153.449,109.574,153.252,109.163,153.029
		 M36.714,148.294c0.362,0.267,0.625,0.553,0.958,0.732c0.354,0.165,0.742,0.266,1.125,0.329c0.515,0.081,1.195,0.345,1.55,0.134
		c0.659-0.408,1.227-1.161,0.797-2.018c-0.237-0.516-0.797-1.055-1.348-1.208c-1.805-0.527-1.805-0.469-2.654,1.268
		C37.029,147.708,36.885,147.932,36.714,148.294 M126.604,123.412c0.152,0,0.291-0.038,0.434-0.068
		c0.355-0.642,0.839-1.257,1.037-1.936c0.171-0.422,0.064-1.168-0.198-1.383c-0.404-0.297-1.036-0.814-1.655-0.116
		c-0.19,0.216-0.654,0.371-0.931,0.312c-1.623-0.349-2.538,0.894-3.724,1.563c0.838,0.816,2.814,0.737,3.644-0.04
		c0.19-0.184,0.496-0.28,0.729-0.443c0.104,0.272,0.221,0.556,0.315,0.826C126.385,122.556,126.499,122.98,126.604,123.412
		 M129.031,108.483c0.894-0.522,1.872-0.975,2.683-1.666c0.646-0.529,0.292-1.934-0.542-2.573c-0.791-0.574-1.503-0.441-2.123,0.493
		c-0.354,0.588-0.725,1.19-1.048,1.852c-0.167,0.355-0.35,0.919-0.225,1.284C127.908,108.126,128.457,108.233,129.031,108.483
		 M105.979,115.281c1.3,0.106,1.748-0.301,1.556-1.445c-0.126-0.647-0.191-1.315-0.427-1.927c-0.158-0.372-0.549-0.861-0.873-0.884
		c-0.487-0.055-1.237,0.091-1.421,0.399c-0.581,0.868-0.951,1.863-1.299,2.814c-0.119,0.373,0,0.889,0.21,1.168
		c0.111,0.192,0.66,0.119,0.982,0.089C105.149,115.452,105.565,115.333,105.979,115.281 M104.964,135.346
		c0.013-0.041,0-0.041,0-0.083c-0.258,0.021-0.501,0-0.699,0.107c-0.515,0.327-1.023,0.734-1.529,1.112l1.132,1.323
		c0.325,0.339,0.661,0.649,0.944,1.03c0.519,0.644,1.194,0.887,1.786,0.225c0.481-0.542,0.837-1.307,0.996-2.048
		c0.33-1.235-0.276-1.78-1.588-1.664C105.656,135.369,105.32,135.346,104.964,135.346 M143.938,133.942
		c1.958-0.232,2.082-0.338,2.241-2.006c0.022-0.234,0.092-0.461,0.205-0.675c0.468-0.996,0.275-1.899-0.336-2.734
		c-0.126-0.156-0.831-0.172-0.895-0.086c-0.239,0.527-0.363,1.153-0.601,1.7c-0.132,0.385-0.285,0.779-0.443,1.089
		c-0.64-1.022-1.358-1.422-2.233-1.022c-0.285,0.153-0.537,0.89-0.436,1.269c0.369,1.276,1.396,0.527,2.242,0.527
		c0.045,0.338,0.079,0.664,0.125,0.961C143.852,133.26,143.886,133.538,143.938,133.942 M129.235,165.503
		c0.738,0.405,3.125-0.074,3.376-0.726c0.199-0.474,0.264-1.094,0.106-1.563c-0.066-0.211-0.813-0.266-1.235-0.266
		c-0.309,0-0.599,0.208-0.895,0.338c-0.917,0.448-1.708,1.056-2.903,0.552c-0.979-0.389-1.523,0.515-1.812,1.388
		c-0.218,0.681,0.449,1.706,1.265,1.854c0.786,0.17,1.537,0.116,1.808-0.837C129.017,166.01,129.143,165.726,129.235,165.503
		 M134.312,116.843c0.408-0.572,0.726-0.985,0.995-1.391c-0.448-0.046-0.876-0.101-1.327-0.144h-0.064
		c-1.234-0.181-2.202,0.331-2.716,1.368c-0.555,1.147-0.113,2.104,1.093,2.467c0.218,0.066,0.516,0.134,0.581,0.307
		c0.595,1.182,1.587,0.605,2.388,0.446c0.691-0.145,1.317-0.687,1.912-1.043c-0.47-0.513-0.983-1.065-1.642-1.841
		C135.341,117.012,134.852,116.915,134.312,116.843 M72.523,121.855c-0.297,0-0.783,0-1.247,0.067
		c-1.112,0.152-2.07,0.976-2.142,1.836c-0.06,0.786,0.83,1.96,1.74,2.324c0.456,0.18,0.923,0.547,1.378,0.547
		c0.554-0.039,1.45-0.252,1.604-0.615c0.335-1.053,0.441-2.2,0.526-3.312c0.045-0.275-0.343-0.664-0.639-0.802
		C73.447,121.72,73.064,121.835,72.523,121.855 M113.55,112.81c-0.033,0,0.125,0.018,0.257-0.037
		c0.579-0.229,1.364-0.089,1.457-1.052c0.104-1.041-0.712-1.056-1.33-1.318c-0.708-0.23-1.408-0.514-2.085-0.786
		c-0.488-0.195-0.962-0.435-1.431-0.622c-0.146,0.49-0.336,1.003-0.428,1.512c-0.041,0.346,0.182,0.685,0.182,1.03
		c-0.024,0.25-0.157,0.664-0.349,0.754c-0.539,0.267-1.108,0.519-0.726,1.212c0.37,0.698,0.996,0.355,1.531,0.085
		c0.106-0.055,0.218-0.018-0.02-0.018c0.792,0.5,1.345,0.857,1.917,1.245C112.824,114.214,113.126,113.629,113.55,112.81
		 M99.042,114.555c-0.336,0.572-0.507,0.972-0.777,1.261c-0.489,0.586-0.562,1.872-0.067,2.471c0.297,0.407,0.489,0.872,0.786,1.26
		c0.211,0.217,0.547,0.495,0.797,0.477c0.284-0.031,0.718-0.312,0.718-0.532c0.08-0.817,0.285-1.857-0.118-2.41
		c-0.672-0.982-0.237-1.366,0.376-1.893c0.258-0.251,0.516-0.518,0.635-0.826c0.56-1.101-0.016-2.273-1.101-2.074
		c-1.089,0.229-2.07,0.268-3.192,0.16c-0.243-0.037-0.811,0.513-0.877,0.887c-0.164,0.61,0.166,1.059,0.877,1.076
		C97.612,114.428,98.132,114.499,99.042,114.555 M119.629,140.237c-0.409-0.607-0.726-1.287-1.216-1.802
		c-0.943-0.949-2.894-0.661-3.242,0.398c-0.117,0.371-0.349,0.783-0.598,1.103c-0.488,0.741-0.187,1.572,0.69,1.667
		c0.659,0.063,1.37,0.135,1.985-0.055c1.062-0.35,1.912-0.188,2.585,0.729c0.559,0.73,1.33,0.913,2.208,0.697
		c0.21-0.063,0.506-0.402,0.48-0.587C122.484,140.778,121.152,139.821,119.629,140.237 M96.935,128.052
		c-0.122-0.326-0.217-0.976-0.575-1.217c-0.278-0.192-0.924,0.124-1.37,0.285c-0.76,0.32-1.359,1.323-2.395,0.551
		c-0.112-0.101-0.429,0.111-0.598,0.223c-0.754,0.535-1.453,1.111-2.256,1.568c-0.725,0.469-0.559,1.03,0,1.279
		c0.899,0.355,1.636,1.064,2.914,0.678c0.909-0.22,1.667-0.651,2.52-0.912C96.386,130.141,96.682,129.319,96.935,128.052
		 M141.828,135.261c0.212-1.735,0.106-2.001-1.093-3.325c-0.099-0.131-0.226-0.406-0.197-0.556c0.099-1.239-1.227-1.378-1.643-2.195
		c-0.047-0.086-0.264-0.086-0.442-0.086c-0.974,0.173-1.943,0.284-2.922,0.495c-0.27,0.04-0.554,0.214-0.738,0.408
		c-0.337,0.379-0.593,0.825-0.876,1.227c0.83,1.734,1.392,1.857,2.965,0.608c0.687-0.608,1.372-0.306,1.782,0.117
		c0.582,0.555,1.101,1.339,1.213,2.11C140.122,135.282,140.857,135.261,141.828,135.261 M69.669,134.529
		c0.417,0.417,0.791,0.805,1.221,1.126c1.008,0.766,2.499,0.358,2.579-0.837c0.112-1.466,1.048-2.112,1.767-3.041
		c0.257-0.379,0.303-0.897,0.449-1.352c-0.516,0.135-1.062,0.197-1.523,0.44c-0.245,0.138-0.357,0.553-0.58,0.813
		c-0.257,0.301-0.646,0.735-0.962,0.71c-0.995-0.08-1.576,0.364-1.971,1.274c-0.555-0.53-1.104-0.895-1.451-1.427
		c-0.554-0.716-1.478-1.167-2.044-0.617c-0.27,0.28-0.053,1.021-0.053,1.858c-0.361,0.518-0.685,1.468,0.251,2.125
		C68.64,136.63,68.739,134.731,69.669,134.529 M93.424,154.552c-0.046-2.636-1.212-3.394-3.495-2.475
		c-0.625,0.232-1.159,0.636-1.728,0.952c-0.626,0.356-1.225,0.714-1.878,1.048c0.441,0.605,0.851,1.224,1.305,1.801
		c1.148,1.417,2.432,1.526,3.857,0.351c0.158-0.152,0.401-0.307,0.607-0.287C93.303,156.06,93.629,155.437,93.424,154.552
		 M112.929,173.318c-0.139,1.991,1.232,3.483,2.743,2.924c1.352-0.483,2.458-1.344,2.896-2.831c0.288-1.11-1.966-3.763-3.119-3.608
		c-0.081,0-0.186,0.023-0.232,0.072C114.253,170.936,112.803,171.687,112.929,173.318 M111.299,132.067
		c-0.624-0.868-3.079-1.384-4.008-0.9c-0.692,0.415-0.771,1.475-0.204,2.01c0.407,0.351,0.745,0.767,1.003,1.208
		c0.671,1.094,1.721,1.358,2.328,0.348c0.862-1.437,1.661-2.684,3.56-2.558c0.021,0,0.078,0,0.106-0.022
		c0.739-1.022,1.821-1.19,2.941-1.411c0.341-0.057,0.685-0.811,0.836-1.298c0.204-0.792-0.291-1.253-1.028-1.238
		c-0.43,0-0.976,0.287-1.268,0.6c-0.572,0.593-0.97,1.336-1.436,2.042C112.87,129.914,112.567,130.003,111.299,132.067
		 M61.144,102.281c-1.129-0.642-2.237-0.556-2.586,0.132c-0.595,1.193-0.309,1.965,0.877,2.644c0.323,0.163,0.666,0.49,0.81,0.81
		c0.425,0.982,1.01,0.887,1.669,0.361c1.2-0.97,2.408-1.925,3.501-2.984c0.376-0.39,0.634-1.114,0.546-1.629
		c-0.091-0.291-0.875-0.56-1.343-0.633C63.182,100.666,61.994,101.18,61.144,102.281 M98.417,156.155
		c0.369,0.084,0.785,0.294,1.167,0.262c1.083-0.142,2.263-0.19,3.218-0.661c1.062-0.502,0.897-2.221-0.25-3.347
		c-0.547-0.516-0.402-0.838-0.192-1.385c0.158-0.427,0.218-1.208-0.026-1.43c-0.33-0.321-1.128-0.534-1.537-0.343
		c-0.507,0.239-0.783,1.003-1.237,1.39c-1.465,1.146-1.597,2.641-1.294,4.271C98.35,155.322,98.379,155.732,98.417,156.155
		 M162.484,161.043c-0.831,0.299-1.363,0.141-1.832-0.617c-0.257-0.397-0.931-0.704-1.411-0.687c-0.265,0-0.784,0.805-0.752,1.146
		c0.225,1.175,0.521,2.375,1.041,3.454c0.218,0.48,1.056,1.047,1.458,0.941c1.285-0.271,1.622-1.071,1.307-2.098
		c-0.068-0.235-0.087-0.566,0.033-0.75c0.282-0.459,0.644-0.842,0.98-1.249c1.162,1.139,1.162,1.139,2.578,0.049
		c1.305-1.02,1.424-2.08,0.304-3.4c-0.547-0.69-1.128-0.807-1.727-0.055c-0.409,0.454-0.692,1.038-1.195,1.384
		C162.533,159.631,162.142,160.168,162.484,161.043 M134.146,162.792c0.746-0.468,1.452-0.896,2.175-1.324
		c0.066-0.045,0.08-0.284,0.022-0.341c-0.575-0.748-1.037-1.764-1.816-2.161c-0.943-0.461-1.441-0.949-1.424-1.979
		c0-0.834-0.58-0.93-1.098-0.762c-0.508,0.12-1.078,0.466-1.349,0.878c-0.709,1.09-1.64,1.679-2.88,2.049
		c-0.427,0.111-0.731,0.751-1.074,1.166c0.461,0.29,1.074,0.914,1.411,0.809c1.377-0.519,2.452,0.179,3.601,0.682
		C132.493,162.154,133.288,162.434,134.146,162.792 M73.801,161.211c-0.222-1.181-0.461-2.533-0.795-3.808
		c-0.101-0.376-0.542-0.694-0.898-0.908c-0.368-0.254-0.981-0.268-1.233-0.618c-0.71-0.903-1.396-0.429-2.011-0.059
		c-0.67,0.359-1.299,0.83-1.812,1.417c-0.244,0.271-0.363,0.969-0.205,1.256c0.5,0.802,1.128,1.579,1.86,2.117
		c1.029,0.756,2.233,1.241,3.323,1.824C73.321,163.125,73.801,162.806,73.801,161.211 M81.65,163.287
		c0.032-1.507,0-2.859-1.287-3.86c-0.302-0.241-0.435-0.749-0.62-1.134c-0.419-0.849-1.604-1.36-2.117-0.816
		c-0.612,0.662-1.154,1.456-1.562,2.263c-0.146,0.276,0.131,0.805,0.237,1.179c0.357,1.016,0.614,2.084,1.094,3.042
		c0.231,0.579,0.743,1.028,1.182,1.444c0.302,0.255,0.785,0.35,1.106,0.603c0.765,0.518,1.438,0.312,1.656-0.579
		C81.472,164.732,81.55,163.961,81.65,163.287 M106.366,169.762c0.298-0.112,0.792-0.277,1.194-0.483
		c0.797-0.43,1.979-0.856,2.123-1.455c0.137-0.693-0.844-1.537-1.035-2.392c-0.429-1.749-1.874-1.52-3.084-1.77
		c-0.752-0.168-1.525-0.338-2.31-0.49c-0.157-0.014-0.381-0.046-0.532,0.013c-1.347,0.654-1.839,2.992-0.693,4.044
		c1.029,0.932,2.269,1.638,3.463,2.42C105.63,169.762,105.921,169.697,106.366,169.762 M62.238,115.63
		c-0.395,0.132-0.982,0.273-1.551,0.401c-1.903,0.508-1.961,0.688-0.927,2.255c0.085,0.144,0.209,0.282,0.23,0.406
		c0.112,1.774,1.491,1.937,2.803,2.304c1.208,0.362,2.669,0.397,3.389,1.884c0.13,0.294,1.226,0.514,1.551,0.294
		c0.388-0.231,0.717-1.196,0.547-1.521c-0.303-0.656-0.159-1.021,0.103-1.529c0.417-0.762-0.262-2.955-1.059-3.282
		c-0.316-0.103-0.759,0-1.103,0.107c-0.362,0.134-0.659,0.43-0.975,0.654c-0.897,0.651-1.246,0.516-1.478-0.59
		C63.596,116.271,63.274,115.699,62.238,115.63 M89.773,169.309c0.198,0.107,0.408,0.221,0.601,0.341
		c1.271,0.819,2.642,1.53,4.035,0.28c0.581-0.483,1.536-1.298,1.41-1.769c-0.171-0.9-0.905-2.15-1.648-2.364
		c-1.978-0.57-4.201-0.745-6.18,0.214c-1.146,0.532-1.719,0.532-2.314-0.623c-0.163-0.3-0.763-0.399-1.181-0.453
		c-0.15-0.018-0.578,0.418-0.558,0.627c0.085,1.022,0.085,2.044,0.38,3.004c0.58,1.816,2.415,2.369,4.062,1.438
		C88.822,169.75,89.275,169.53,89.773,169.309 M73.643,171.006c0.416,0.231,0.596,0.354,0.785,0.354
		c1.749,0.13,3.561-0.407,5.255,0.532c0.118,0.064,0.437,0.038,0.568-0.08c0.297-0.322,0.535-0.667,0.805-1.024
		c-0.33-0.122-0.661-0.278-0.979-0.45c-0.473-0.252-0.975-0.488-1.374-0.832c-0.792-0.589-1.418-1.471-2.271-1.946
		c-1.165-0.588-2.16-1.262-2.729-2.509c-0.448-0.892-0.77-1.997-2.227-1.789c-1.234,0.168-2.388-0.046-3.501,1.092
		c-0.601,0.636-1.813,0.717-1.675,2.119c-1.585,0.196-3.015,0.265-4.345,0.617c-0.766,0.23-1.604,0.802-2.002,1.434
		c-0.406,0.766-0.378,1.794-0.623,3.03c0.817-0.357,1.412-0.743,2.023-0.862c0.667-0.117,0.956-0.308,1.142-0.941
		c0.308-1.088,0.962-2.222,2.148-2.16c1.519,0.058,2.454-0.461,3.41-1.565c0.909-1.035,2.432-0.834,3.251,0.351
		c0.23,0.284,0.612,0.613,0.901,0.639c1.114,0.067,2.012,0.422,2.626,1.301c0.276,0.419,0.515,0.974,0.531,1.488
		c0,0.203-0.579,0.452-0.869,0.637C74.272,170.598,74.059,170.745,73.643,171.006 M92.338,109.368c0.1,0.055,0.21,0.141,0.316,0.222
		c-0.143,0.351-0.265,0.734-0.442,1.089c-0.488,0.915-1.286,1.79-0.179,2.842c0.282,0.231,0.476,0.572,0.692,0.892
		c0.315-0.375,0.576-0.728,0.903-1.076c0.337-0.398,0.6-0.868,1.003-1.169c0.434-0.334,1.007-0.507,1.45-0.806
		c0.475-0.266,0.832-0.781,1.306-0.906c0.791-0.229,0.962-0.694,0.991-1.379c0.082-1.08-0.622-1.441-1.54-1.715
		c-0.942-0.322-1.989-0.545-2.121-1.816c-0.121-1.469-0.41-1.469-1.915-1.389c-1.464,0.086-3.13,0.526-4.432-0.79
		c-0.149-0.193-0.624-0.254-0.814-0.125c-0.22,0.109-0.47,0.49-0.443,0.742c0.083,0.568,0.151,1.511,0.574,1.728
		c1.22,0.68,1.363,1.366,0.844,2.639c-0.416,1.071,0.949,1.209,1.529,1.619c0.329,0.241,1.057,0,1.562-0.12
		C91.875,109.812,92.081,109.524,92.338,109.368 M168.775,138.629c1.062-1.231,1.721-2.022,2.479-2.887
		c-0.817-0.48-1.417-1.048-2.076-1.175c-0.982-0.196-1.709-0.655-2.427-1.273c-0.997-0.842-1.049-1.713-0.12-2.637
		c0.199-0.186,0.199-0.623,0.292-0.9c-0.304-0.017-0.664-0.147-0.924-0.036c-0.223,0.089-0.295,0.422-0.475,0.772
		c-0.864-0.816-1.502-1.428-2.188-1.985c-1.266-1.066-3.428-0.301-3.626,1.303c-0.145,1.169-0.699,1.357-1.668,1.039
		c-0.06-0.405-0.101-0.749-0.158-1.091c-1.828,0.301-2.366,1.277-2.526,2.97c-0.063,0.878,0.219,1.338,1.235,1.184
		c0.31-0.055,0.711,0.138,0.841,0.154c-0.32,0.831-0.571,1.434-0.841,2.094c-0.079,0.17-0.138,0.514-0.206,0.514
		c-1.054,0.013-2.234,0.272-3.059-0.176c-0.56-0.319-1.068-0.526-1.714-0.587c-0.23-0.03-0.495-0.215-0.638-0.411
		c-0.067-0.063,0.123-0.376,0.276-0.553c0.832-0.826,0.726-1.468-0.443-1.77c-0.64-0.152-1.438-0.152-2.038,0.107
		c-0.454,0.194-0.971,0.936-0.955,1.428c-0.014,0.466,0.541,0.957,0.91,1.419c0.173,0.2,0.646,0.303,0.646,0.417
		c-0.152,1.138,0.878,1.595,1.47,2.235c0.444,0.475,1.274,1.02,1.82,0.915c1.354-0.251,2.209-1.769,3.726-1.879
		c0.127-0.015,0.206-0.231,0.33-0.318c0.223-0.132,0.476-0.283,0.732-0.402c0.11,0.249,0.401,0.529,0.381,0.77
		c-0.099,0.826,0.311,1.368,1.034,1.399c0.713,0.04,1.504-0.163,1.721-1.089c0.206-0.9,0.745-1.23,1.642-0.888
		c0.574,0.209,1.174,0.527,1.749,0.577c0.684,0.061,1.587,0.116,2.023-0.281c0.891-0.744,1.609-0.426,2.341,0.04
		C168.597,137.775,168.624,138.244,168.775,138.629 M132.381,173.045c0,1.07,0.968,1.022,1.615,1.367
		c0.091,0.016,0.532-0.443,0.467-0.604c-0.119-0.413-0.316-1.148-0.612-1.198c-0.455-0.072-1.002,0.284-1.49,0.449
		c-0.232-1.034-0.43-2.079-0.686-3.234c-0.786,0.614-1.385,2.919-1.063,3.446c0.153,0.221,0.588,0.311,0.869,0.243
		C131.772,173.464,132.069,173.209,132.381,173.045 M54.28,184.69c0.916-0.493,1.522-0.838,2.143-1.134
		c-0.033-0.149-0.06-0.275-0.092-0.416c-0.258-0.047-0.528-0.175-0.819-0.175c-1.298,0-2.597,0.102-3.896,0.013
		c-0.626-0.03-1.247-0.402-1.872-0.564c-0.364-0.115-0.759-0.252-1.133-0.241c-1.563,0-3.152,0.078-4.696,0.118
		c-1.682,0.008-2.017-0.684-1.429-2.162c0.348-0.902,0.275-1.941,0.454-2.876c0.059-0.349,0.363-0.688,0.599-0.962
		c0.53-0.562,1.108-1.115,1.557-1.564c-0.151-0.38-0.17-0.489-0.23-0.504c-0.792-0.349-1.023-0.964-0.817-1.729
		c0.152-0.536,1.561-0.838,2.216-0.536c0.949,0.459,1.886,0.557,2.716-0.186c1.417-1.222,2.524-1.198,3.844,0.122
		c0.222,0.209,0.541,0.336,0.817,0.52c0.118-0.243,0.336-0.5,0.33-0.706c-0.047-0.321-0.217-0.647-0.417-0.949
		c-0.126-0.159-0.427-0.275-0.474-0.441c-0.271-1.468-1.464-1.468-2.538-1.497c-0.647,0-0.929-0.145-1.081-0.847
		c-0.231-1.244-1.688-2.153-2.895-1.961c-0.174,0.013-0.398,0.013-0.47,0.133c-1.232,1.749-3.005,0.804-4.521,0.791
		c-1.24-0.016-1.933-1.225-2.396-2.315c-0.44-1.125-0.068-2.209,0.752-3c0.686-0.699,1.518-0.699,2.209,0.065
		c0.777,0.806,1.469,1.063,2.249-0.065c0.297-0.517,1.021-0.963,1.128-1.477c0.19-1.379-0.872-1.428-1.841-1.337
		c-0.039-1.193,1.326-2.111,2.36-1.841c0.818,0.199,1.721,0.199,2.574,0.141c1.887-0.223,3.79-0.483,5.978-0.712
		c-0.183-0.529-0.256-1.282-0.632-1.8c-0.686-0.849-1.536-0.504-2.388,0.039c-0.698-1.274-1.786-1.886-3.17-2.095
		c-0.514-0.083-0.928-0.644-1.457-0.747c-1.234-0.278-1.616,1.062-2.492,1.462c-0.45,0.234-0.864,0.729-1.254,0.712
		c-1.507-0.02-2.458,0.835-3.324,1.875c-1.362,1.667-3.083,0.854-3.611-0.782c-0.27-0.9-1.469-1.114-2.203-0.426
		c-0.594,0.583-1.16,1.208-1.721,1.817c-1.093-0.875-0.955-2.291,0.41-2.949c0.691-0.397,1.055-0.649,0.507-1.496
		c-0.25-0.431-0.021-1.072-0.133-1.64c-0.084-0.452-0.31-1.303-0.461-1.282c-0.673,0-1.418,0.191-2.023,0.514
		c-0.305,0.125-0.437,0.66-0.833,0.948c0.047-0.778,0.059-1.572,0.146-2.353c0.065-0.819-0.232-1.269-1.063-1.129
		c-0.89,0.154-1.365-0.295-1.887-1.007c-0.825-1.101-1.984-1.861-3.475-1.835c-1.273,0-2.598,0.229-3.744-0.59
		c-0.18-0.109-0.642-0.066-0.706,0.04c-0.14,0.266-0.197,0.585-0.14,0.87c0.086,0.284,0.357,0.559,0.621,0.644
		c1.14,0.456,2.295,0.853,3.402,1.319c0.301,0.127,0.593,0.529,0.639,0.872c0.045,0.284-0.184,0.779-0.449,0.893
		c-1.479,0.874-1.641,0.819-2.841-0.398c-0.218-0.211-0.601-0.393-0.898-0.445c-1.377-0.206-2.143-0.976-2.281-2.404
		c0-0.095,0.015-0.187,0-0.26c-0.354-1.13,0.918-3.015-1.128-3.393c-1.206-0.242-2.544,0.364-3.85,0.532
		c-0.351,0.041-0.732,0-1.082,0c0.126-0.68,0.126-1.829,0.349-1.906c1.65-0.358,2.216-1.777,3.12-2.918
		c0.216,0.123,0.403,0.145,0.416,0.265c0.426,1.584,1.575,1.723,2.927,1.616c1.008-0.102,1.735-1.073,1.339-2.005
		c-0.1-0.189-0.675-0.361-0.932-0.26c-1.207,0.439-1.199,0.475-1.771-0.776c0.566-0.628,1.154-1.201,0.493-2.132
		c-0.119-0.136,0.151-0.579,0.343-0.814c0.566-0.897,1.146-1.834,1.786-2.697c0.087-0.135,0.402-0.232,0.598-0.263
		c1.083-0.09,1.625-0.684,1.422-1.71c-0.205-1.089,0.454-1.75,0.947-2.515c0.066-0.104,0.184-0.256,0.257-0.241
		c1.643,0.345,3.239-1.613,4.98-0.103c0.33,0.269,1.227-0.079,1.852-0.12c0.41,0,0.819-0.101,1.2,0
		c0.562,0.12,1.133,0.636,1.63,0.529c2.127-0.392,3.343,1.022,4.793,2.09c1.305,0.936,2.855,1.509,4.285,2.321
		c0.527,0.296,1.081,0.685,1.423,1.126c0.497,0.667,1.037,0.771,1.729,0.517c0.747-0.22,1.108-0.668,0.998-1.392
		c-0.29-1.939,1.173-2.888,2.307-3.945c0.468-0.424,1.469-0.514,1.847,0.306c0.361,0.704,0.848,0.772,1.463,0.639
		c1.293-0.248,2.467-0.025,3.521,0.804c1.049,0.814,2.433,0.695,3.561-0.155c1.049-0.756,0.865-1.909,0.706-2.906
		c-0.099-0.473-0.902-0.901-1.464-1.167c-0.987-0.44-1.055-1.285-1.055-2.226c0.451,0.396,0.805,0.941,1.332,1.2
		c0.64,0.288,1.413,0.471,2.077,0.355c0.212-0.038,0.422-1.096,0.405-1.629c-0.106-1.443-1.545-2.93-2.925-2.906
		c-0.487,0-0.994,0.672-1.343,1.116c-0.191,0.228-0.058,0.704-0.04,1.156c-1.472-1.173-3.131-1.437-4.655-0.527
		c-1.438,0.895-2.657,1.546-4.411,0.623c-0.633-0.331-1.287-0.303-1.575-1.186c-0.166-0.408-0.747-0.722-1.128-1.107
		c-0.525-0.486-0.7-0.912-0.066-1.53c0.922-0.895,1.898-1.262,3.178-1.216c0.442,0.021,1.218-0.346,1.272-0.615
		c0.093-0.835-0.712-0.575-1.213-0.68c-0.276-0.067-0.552-0.252-0.851-0.408c0.232-0.263,0.443-0.703,0.732-0.747
		c1.544-0.355,3.132-0.516,4.661-0.88c0.685-0.163,1.39-0.523,1.937-0.974c0.19-0.127,0.112-0.928-0.124-1.232
		c-0.358-0.457-0.983-0.643-1.406-1.028c-0.237-0.216-0.496-0.622-0.449-0.896c0.134-0.972-0.58-1.346-1.192-1.64
		c-0.297-0.157-0.744,0.155-1.133,0.271c-0.292,0.086-0.602,0.306-0.871,0.284c-1.183-0.135-2.119,0.34-3.094,0.893
		c-1.3,0.819-2.708,1.475-4.114,2.217c-1.114-0.767-2.223-1.325-3.739-0.796c-0.639,0.221-1.799-0.331-2.427-0.902
		c-0.884-0.793-1.728-1.069-2.901-0.97c-0.336,0.028-0.718-0.127-1.054-0.161c-0.032-0.224-0.063-0.325-0.039-0.367
		c1.22-1.405,2.361-2.946,3.783-4.083c0.602-0.549,1.834-0.352,2.981-0.549c-0.19,0.67-0.382,0.937-0.323,1.194
		c0.08,0.553,0.285,1.089,0.442,1.64c0.64-0.319,1.681-0.483,1.834-0.973c0.27-0.844,0.354-2.051-0.026-2.854
		c-0.564-1.134,0.195-1.663,0.743-1.926c1.294-0.605,2.626-1.569,4.201-0.605c0.473,0.271,2.163-0.799,2.347-1.365
		c0.257-0.818,0.302-1.795,0.804-2.404c0.592-0.661,1.522-1.056,2.374-1.398c1.496-0.6,3.283-0.288,4.622-1.486
		c0.317-0.284,1.135-0.299,1.562-0.113c1.55,0.769,3,1.71,4.531,2.569c0.752,0.418,1.634,0.65,2.293,1.205
		c0.542,0.469,0.824,1.273,1.326,1.831c0.342,0.381,0.955,0.898,1.299,0.792c0.825-0.261,1.319-0.955,1.168-1.917
		c-0.052-0.356-0.118-0.722-0.179-1.123c0.19-0.053,0.328-0.111,0.349-0.07c1.003,1.31,2.834,1.912,3.304,3.793
		c0.257,0.999,0.811,1.981,1.475,2.819c0.356,0.481,1.13,0.701,1.746,0.958c0.873,0.326,1.757,0.679,2.58,0.984
		c0.065,0.967,0.039,1.884,0.2,2.817c0.051,0.355,0.46,0.825,0.75,0.869c0.494,0.103,1.055-0.073,1.542-0.233
		c0.521-0.224,1.003-0.679,1.55-0.813c1.305-0.306,2.63-0.52,3.6-1.559c0.245-0.276,0.7-0.318,0.987-0.576
		c0.246-0.189,0.476-0.471,0.491-0.78c0.018-0.132-0.43-0.475-0.636-0.475c-0.824,0.07-1.24-0.127-1.668-0.895
		c-0.182-0.352-1.152-0.325-1.745-0.273c-0.917,0.038-1.318-0.254-1.359-1.473h2.051c0.159,0,0.363,0.1,0.455,0.041
		c0.849-0.614,1.609-1.284,2.699-1.386c0.031,0,0.082-0.063,0.057-0.063c-0.318-0.945-0.554-1.939-1.001-2.767
		c-0.363-0.73-1.056-0.438-1.643-0.029c-0.615,0.429-1.181,0.869-1.477,1.119c-1.858-0.52-3.468-0.929-5.072-1.367
		c-0.19-0.079-0.38-0.159-0.532-0.236c-0.72-0.541-1.418-1.043-2.341-1.705c0.337-0.155,0.727-0.302,1.102-0.497
		c0.323-0.179,0.601-0.358,0.916-0.557c-0.362-0.281-0.652-0.741-1.042-0.773c-1.041-0.082-2.123,0-3.167,0
		c-1.179,0-2.433,0.327-3.375-0.762c-0.17-0.227-0.542-0.294-0.83-0.425c-1.895-0.639-2.388-1.75-1.688-3.619
		c0.33-0.873,1.432-1.3,2.359-0.984c0.603,0.165,1.235,0.265,1.879,0.41c0.45,0.104,0.879,0.229,1.326,0.326
		c0.184,0.073,0.377,0.166,0.55,0.132c1.065-0.079,2.16-0.144,3.202-0.389c0.221-0.038,0.594-0.716,0.516-1.012
		c-0.239-1.031-0.62-2.013-0.978-2.973c-0.063-0.183-0.322-0.377-0.513-0.425c-0.997-0.184-0.997-0.819-0.771-1.594
		c0.257-0.921,0.91-0.869,1.575-0.749c0.719,0.147,1.518,0.272,2.11,0.64c1.411,0.872,2.597,0.202,3.897-0.169
		c0.876-0.241,1.814-0.422,2.715-0.516c0.963-0.076,1.964-0.138,2.941,0.018c0.771,0.132,1.596,0.453,2.148,0.966
		c0.652,0.619,1.048,0.502,1.82,0.258c1.1-0.291,2.368-0.197,3.533-0.258c0.126,0,0.304,0.062,0.324,0.123
		c0.831,1.928,2.333,1.11,3.646,0.954c1.871-0.272,2.578,0.125,3.169,2.024c-0.829,0.454-1.661,1.066-2.59,1.411
		c-0.751,0.312-0.878,0.691-0.718,1.44c0.502,2.224-0.473,3.454-2.659,3.986c-1.125,0.297-2.194,2.195-1.806,3.334
		c0.126,0.291,0.577,0.548,0.938,0.612c0.845,0.172,1.715,0.275,2.545,0.258c0.442-0.027,0.902-0.322,1.28-0.605
		c0.547-0.445,1.047-0.994,1.547-1.484c0.094-0.108,0.264-0.156,0.409-0.259c1.054-1.129,2.221-2.088,4.016-1.896
		c0.301,0.024,0.706-0.667,1.061-1.058c-0.448-0.15-0.875-0.462-1.299-0.507c-1.952-0.077-2.031-0.129-2.104-1.703
		c0.831-0.043,1.647-0.043,2.454-0.145c0.261-0.019,0.521-0.284,0.77-0.427c-0.178-0.283-0.375-0.585-0.593-0.766
		c-0.515-0.406-1.088-0.77-1.938-1.316c0.66-0.232,0.882-0.309,1.153-0.35c1.161-0.325,2.354-0.625,3.534-0.962
		c0.935-0.236,1.833-0.541,2.598,0.462c0.086,0.114,0.66-0.027,0.984-0.159c0.335-0.19,0.594-0.581,0.969-0.706
		c1.409-0.469,2.848-0.914,4.271-1.328c0.343-0.077,0.746,0.152,1.094,0.299c0.586,0.284,1.16,0.864,1.713,0.864
		c1.688-0.045,2.441,1.399,3.714,1.974c0.178,0.095,0.15,0.615,0.178,0.967c0.057,0.492-0.06,0.969,0.057,1.43
		c0.133,0.302,0.469,0.625,0.766,0.713c0.231,0.081,0.674-0.178,0.822-0.41c1.051-1.665,1.288-1.823,3.147-1.41
		c1.325,0.249,2.75,0.358,3.69,1.596c0.132,0.178,0.517,0.224,0.76,0.204c1.028-0.065,2.082-0.295,3.119-0.257
		c0.758,0.053,1.601,0.304,2.216,0.733c1.195,0.869,1.048,1.508-0.295,2.195c-0.478,0.285-0.964,0.606-1.267,1.021
		c-0.416,0.597-0.892,1.043-1.709,0.896c-0.19-0.016-0.612,0.13-0.612,0.251c-0.258,1.41-1.688,1.026-2.513,1.578
		c-0.237,0.169-1.337-0.373-1.719-0.877c-0.674-0.807-1.543-1.174-3.117-0.838c-0.985,0.208-1.36,0.893-1.255,1.869
		c-0.969,0.266-1.781,0.862-2.958,0.277c-1.162-0.544-2.876,0.428-3.312,1.481c-0.409,1.009,0.059,2.172,1.186,3.041
		c0.261,0.189,0.449,0.443,0.633,0.719c0.529,0.706,1.347,0.849,1.787,0.104c0.475-0.938,1.173-0.986,2.053-0.907
		c1.311,0.122,2.272-0.494,2.886-1.668c0.24-0.441,0.725-0.785,1.068-1.168c0.323,0.358,0.608,0.7,0.944,0.994
		c0.232,0.202,0.481,0.365,0.758,0.542c0.409,0.325,0.838,0.581,1.18,0.911c0.569,0.538,1.794,0.435,2.348-0.25
		c0.127-0.177,0.204-0.385,0.42-0.762c0.943,0.929,2.388,0.774,3.139,1.988c0.338,0.584,1.893,0.247,2.6-0.572
		c0.487,0.456,0.923,1.013,1.47,1.331c0.422,0.222,1.152,0.423,1.51,0.222c0.336-0.181,0.56-0.931,0.496-1.401
		c0-0.346-0.461-0.743-0.813-0.885c-0.941-0.413-1.998-0.715-3.033-1.059c1.148-1.938,2.564-2.937,4.65-2.661
		c0.961,0.104,1.042-0.544,1.158-1.611c0.911,0.808,1.529,1.57,2.328,1.956c0.68,0.299,1.709,0.34,2.302,0.023
		c0.988-0.532,1.799-0.484,1.833,0.643c0.065,1.951,1.479,2.851,2.584,4.095c1.021,1.08,1.991,2.38,2.487,3.738
		c0.328,0.896,0.44,2.26-0.84,3.056c-0.567,0.364-0.244,1.043,0.25,1c1.32-0.107,1.821,0.617,2.084,1.725
		c0.046,0.091,0.249,0.166,0.423,0.299c0.758-0.739,1.081-1.539,0.543-2.51c-0.543-0.994,0.216-2.468,1.351-2.605
		c0.363-0.055,0.744,0.063,1.053-0.068c0.355-0.1,0.72-0.343,0.885-0.642c0.091-0.117-0.243-0.524-0.396-0.778
		c-0.712-1.14-1.458-2.248-2.241-3.456c1.12-0.71,2.289-1.303,3.691-1.438c0.613-0.012,1.276-0.193,1.826-0.464
		c0.943-0.517,1.773-1.172,2.704-1.725c0.424-0.211,1.029-0.551,1.299-0.397c1.279,0.762,2.372-0.136,3.592-0.155
		c0.732-0.026,1.747,0.272,2.243,0.739c0.739,0.862,1.548,0.786,2.427,0.838c0.315,0,0.611,0.039,0.82,0.207
		c1.077,2.04,2.625,3.465,4.979,4.261c-0.455,0.175-0.948,0.307-1.326,0.586c-0.297,0.184-0.514,0.576-0.598,0.894
		c-0.021,0.11,0.447,0.379,0.724,0.55c0.896,0.471,2.169,0.233,2.362,0.897c-0.415,0.663-0.725,1.446-1.339,1.914
		c-0.322,0.256-1.059,0.045-1.623-0.076c-0.975-0.241-1.958-0.885-2.874-0.806c-0.929,0.08-1.853,0.72-2.665,1.265
		c-0.797,0.496-1.113,0.56-1.601-0.383c-0.363-0.7-1.18-1.137-1.833-1.655c-0.131-0.056-0.594,0.061-0.68,0.193
		c-0.11,0.251-0.198,0.709-0.045,0.877c0.659,0.732,0.976,1.566,1.324,2.517c0.569,1.464,3.001,1.764,4.274,0.692
		c1.568-1.313,1.517-1.167,3.322-0.428c0.996,0.428,2.274,0.38,3.409,0.301c0.759-0.046,1.267,0,1.623,0.755
		c0.164,0.327,0.568,0.538,0.884,0.824c0.56,0.445,0.598,0.811,0,1.303c-1.268,1.089-2.524,2.23-3.745,3.393
		c-0.092,0.103,0.146,0.814,0.289,0.814c0.461,0.055,1.016,0.055,1.358-0.16c1.781-1.116,4.702-1.26,6.192,0.623
		c0.315,0.447,1.094,0.467,1.679,0.679c0.583,0.231,1.137,0.513,1.691,0.795c0,0.128,0.005,0.282,0.005,0.425
		c-1.207,0.778-2.413,1.709-3.697,2.411c-0.372,0.214-1.035-0.021-1.544-0.172c-0.771-0.259-1.484-0.719-2.27-0.883
		c-1.238-0.228-2.551-0.266-3.795-0.334c-0.425-0.036-1.083,0-1.194,0.252c-0.554,0.979-1.536,0.658-2.302,0.896
		c-0.243,0.067-0.837-0.536-0.995-0.979c-0.111-0.19,0.256-0.741,0.579-0.949c0.528-0.361,1.167-0.52,1.799-0.771
		c-0.469-0.923-0.976-1.168-1.872-0.986c-1.096,0.196-2.177,0.129-3.328-0.299c-1.063-0.38-2.383-0.171-3.555-0.119
		c-0.285,0-0.526,0.501-0.766,0.758c-0.27,0.328-0.528,0.679-0.857,1.057c-0.831-0.787-1.674-0.819-2.467-0.158
		c-0.606,0.506-0.54,1.055,0.016,1.486c1.199,1.002,2.557,0.959,3.79-0.064c0.779-0.621,1.367-0.184,1.384,0.489
		c0,1.254,1.267,1.472,1.714,2.362c0.035,0.101,0.355,0.184,0.403,0.138c0.976-0.985,1.946,0.045,2.901,0.045
		c0.259,0,0.725,0.356,0.705,0.514c-0.064,0.321-0.288,0.741-0.573,0.873c-0.461,0.214-1.008,0.157-1.497,0.298
		c-1.491,0.445-2.954,0.885-4.371,1.42c-0.237,0.107-0.371,0.713-0.371,1.077c0,0.459,0.19,0.95,0.292,1.462
		c-0.612-0.068-1.209-0.068-1.782-0.214c-0.156-0.016-0.231-0.358-0.321-0.485c-1.102,0.404-1.121,1.193-0.964,1.854
		c0.113,0.465,0.599,0.875,1.027,1.222c0.456,0.361,1.01,0.526,1.498,0.842c0.898,0.661,1.899,0.435,2.381-0.616
		c0.428-0.855,1.772-1.231,2.649-0.855c0.731,0.282,1.518,0.497,2.242,0.601c1.378,0.199,2.149,0.982,2.59,2.214
		c0.599,1.707,1.741,2.441,3.528,2.54c0.916,0.051,1.847,0.441,2.796,0.484c0.488,0.029,1.036-0.265,1.504-0.57
		c1.022-0.679,1.964-1.504,3.025-2.108c1.028-0.614,1.565-0.365,2.004,0.724c0.437,1.012,0.82,2.027,1.241,3.121
		c-1.957,0.583-0.876,2.34-1.075,3.57c-0.138,1.011-0.75,2.117,0.033,3.159c0.061,0.065-0.606,0.985-0.928,0.944
		c-0.759-0.052-1.532-0.324-2.175-0.706c-1.05-0.64-1.688-0.729-2.136,0.342c-0.455,1.124-1.207,0.849-1.993,0.873
		c-0.534,0.02-1.12,0.063-1.58,0.298c-1.017,0.492-1.92,1.118-2.844,1.725c-0.045,0-0.09,0.062-0.111,0.042
		c-1.951-0.469-3.384,1.375-5.255,1.121c-1.03-0.159-2.077-0.517-3.086-0.862c-0.183-0.095-0.232-0.604-0.363-0.938
		c-0.145-0.393-0.184-0.874-0.482-1.135c-0.644-0.591-1.298-1.191-2.107-1.529c-0.369-0.175-0.991,0.298-1.522,0.445
		c0.271,0.62,0.328,1.511,0.788,1.813c0.713,0.422,0.509,0.78,0.259,1.211c-0.362,0.636-0.758,1.265-1.114,1.881
		c-1.259-0.54-2.552-1.45-3.931-1.6c-1.396-0.15-2.869,0.479-4.298,0.766c-0.416-1.277-0.416-1.277-2.017-1.479
		c-1.154-0.189-2.38-0.672-3.501,0.292c-0.067,0.064-0.619-0.248-0.778-0.504c-0.561-0.703-1.007-1.456-1.523-2.195
		c-0.126-0.166-0.422-0.293-0.599-0.249c-0.568,0.064-1.663,2.155-1.616,2.745c0.04,0.53,0,1.144-0.225,1.618
		c-0.354,0.692-0.949,1.284-1.298,1.946c-0.203,0.342-0.271,0.86-0.191,1.265c0.072,0.19,0.614,0.464,0.837,0.391
		c0.461-0.121,1.172-0.461,1.2-0.764c0.138-1.631,1.635-2.1,2.578-3.003c0.396-0.367,1.417-0.409,1.891,0.428
		c0.171,0.232,0.443,0.398,0.595,0.64c1.007,1.383,2.505,0.935,3.841,0.916c0.917,0,1.544,0.082,1.445,1.216
		c0,0.209,0.133,0.567,0.257,0.596c2.006,0.576,3.607,2.169,5.849,2.19c1.048,0,2.005,0.477,2.039,1.841
		c0.064,1.031,1.97,1.958,3.143,1.654c0.727-0.178,1.443-0.229,2.184-0.348c1.128-0.22,1.657,0.348,1.68,1.404
		c0,0.887,0.331,1.146,1.252,1.254c0.781,0.058,1.506,0.515,2.171,0.751c-0.093,1.383-0.237,2.583-0.224,3.748
		c0.046,1.551-1.305,2.658-2.67,1.981c-1.233-0.594-2.069-0.081-2.979,0.446c-0.238,0.096-0.436,0.231-0.646,0.352
		c-0.956,0.445-1.833,0.956-0.212,2.341c-0.812-0.063-1.304,0.04-1.457-0.109c-0.911-1.028-1.952-1.221-3.33-1.065
		c-0.693,0.08-1.568-0.492-2.222-0.984c-0.566-0.425-1.162-0.55-1.522-0.083c-0.167,0.222,0.23,0.913,0.383,1.372
		c0.092,0.132,0.237,0.187,0.368,0.304c0.614,0.513,1.424,1.101,0.671,1.892c-0.361,0.37-1.29,0.231-1.963,0.244
		c-0.429,0-0.843-0.111-1.273-0.168c-0.805-0.122-1.427-0.318-1.841-1.211c-0.163-0.388-1.102-0.468-1.708-0.62
		c-0.289-0.082-0.625,0.104-0.864,0.021c-0.838-0.446-1.878-0.063-2.137,0.808c-0.144,0.575-0.019,1.083,0.725,0.979
		c1.353-0.193,2.159,0.29,2.778,1.542c0.269,0.52,1.371,0.763,2.129,0.943c0.686,0.116,1.278,0.116,1.199,1.042v0.129
		c0.1,0.816,1.846,1.382,0.327,2.501c-0.814,0.607-1.463,1.379-2.207,2.098c-0.258,0.22-0.62,0.401-0.72,0.702
		c-0.606,1.563-1.838,2.266-3.331,2.693c-0.257,0.078-0.559,0.13-0.811,0.225c-1.582,0.729-2.523,0.414-3.31-1.209
		c-0.573-1.147-1.352-1.147-2.533-0.575c-1.047,0.471-2.32,0.662-3.493,0.751c-1.269,0.102-2.609-0.202-2.981,1.604
		c-0.997-1.33-1.762-1.654-3.012-1.223c-0.232-1.111-1.14-1.056-2.005-1.174c-0.917-0.134-1.14,0.505-1.477,1.181
		c-0.245,0.513-0.806,0.907-1.247,1.337c-0.421,0.382-0.832,0.79-1.325,1.227c-0.845-1.189-1.411-1.056-2.138,0.262
		c-0.515,0.97-2.134,1.006-2.919,0.277c-0.62-0.612-0.448-1.669,0.38-2.458c0.14-0.147,0.304-0.399,0.258-0.552
		c-0.052-0.168-0.335-0.308-0.534-0.321c-0.314-0.033-0.638-0.021-0.935,0c-1.173,0.194-1.808-0.295-2.261-1.339
		c-0.238-0.568-0.968-0.924-1.525-1.314c-0.249-0.18-0.638-0.135-1.019-0.22c0.237-1.171,0.797-1.688,1.95-1.669
		c1.185,0.054,1.366-0.291,0.896-1.424c-0.5,0.06-1.008,0.155-1.49,0.121c-1.029-0.062-1.556,0.333-1.874,1.378
		c-0.159,0.567-0.803,1.179-1.383,1.442c-1.906,0.812-2.699,2.512-3.458,4.213c-0.765,1.623-1.211,3.42-2.049,5.001
		c-1.286,2.419-0.482,4.786-0.086,7.19c0.052,0.351,0.462,0.669,0.739,1.016c1.108,1.238,2.527,2.105,3.093,3.839
		c0.403,1.231,1.622,1.766,2.86,1.939c5.686,0.828,11.29,1.943,16.842,3.408c5.489,1.489,10.801,3.433,15.579,5.521
		c-36.086-10.933-72.627-10.979-109.24-0.153c2.721-1.042,5.403-2.232,8.22-3.15c3.576-1.153,7.174-2.258,10.835-3.126
		c4.371-0.985,8.848-1.753,13.3-2.5c2.287-0.38,4.594-0.487,6.881-0.828c0.522-0.066,0.979-0.452,1.411-0.732
		c1.266-0.718,2.618-1.337,3.764-2.214c0.74-0.57,1.168-1.517,1.702-2.354c0.971-1.553,1.927-3.173,2.903-4.773
		c0.138-0.229,0.244-0.469,0.31-0.732c0.344-2.288,0.661-4.55,0.936-6.807c0.165-1.048,0.33-2.098,0.298-3.154
		c-0.005-1.811-1.029-3.143-2.499-4.074c-1.089-0.729-2.275-1.3-3.443-1.918c-2.432-1.285-4.966-0.642-7.458-0.255
		c-0.429,0.059-0.752,0.631-1.114,0.998c-0.295,0.345-0.598,0.662-0.891,1.018c-0.15,0.17-0.362,0.457-0.322,0.564
		c0.64,1.061-0.171,1.186-0.843,1.501c-0.358,0.176-0.753,0.585-0.797,0.886c-0.042,0.321,0.341,0.737,0.651,0.973
		c0.779,0.641,0.758,1.518-0.14,2.006c-0.171,0.079-0.367,0.18-0.526,0.275c-1.265,0.924-2.564,0.472-3.059-1.089
		c-0.415-1.447-1.622-2.165-3.112-1.916c-1.544,0.238-3.098,0.357-4.608,0.81c-0.516,0.157-0.909,1.016-1.261,1.606
		c-0.269,0.392-0.229,1.023-0.534,1.388c-1.053,1.207-1.186,1.554-0.317,3.018c1.015,1.597-0.27,2.986-1.438,3.244
		c-0.343,0.084-0.759-0.183-1.159-0.303c0.204-0.462,0.209-1.188,0.56-1.388c0.856-0.529,0.739-0.844,0.019-1.316
		c-0.387-0.246-0.717-0.644-1.107-0.881c-0.415-0.226-1.016-0.574-1.344-0.423c-1.82,0.812-3.614,0.143-5.448,0.183
		c-0.212,0-0.442-0.099-0.548,0c-0.73,0.535-1.341,0.37-1.771-0.307C54.655,185.772,54.486,185.105,54.28,184.69"/>
	<path d="M204.453,207.08l26.195,0.017l6.442-16.032l34.668,0.023l6.521,16.053l26.689,0.035l-38.156-90.572h-24.021L204.453,207.08
		z M244.429,171.687l10.121-25.534l10.016,25.534H244.429z M350.34,208.764c21.798,0.019,36.304-10.881,36.336-29.251v-0.242
		c0.016-16.838-12.789-23.539-33.493-28.047c-12.415-2.823-15.514-4.637-15.501-8.735l-0.013-0.253
		c0.013-3.221,2.973-5.75,9.005-5.75c7.952,0,16.933,3.075,25.182,8.843l12.443-17.547c-9.759-7.854-21.687-11.988-36.963-12.002
		c-21.57-0.019-34.795,12.033-34.809,28.738v0.253c-0.033,18.489,14.731,23.898,33.857,28.288
		c12.197,2.842,15.158,4.863,15.158,8.619v0.253c0,3.84-3.611,6.145-10.311,6.145c-10.403,0-20.261-3.72-29.092-10.813
		l-13.923,16.552C319.253,203.73,334.417,208.737,350.34,208.764 M396.547,207.253l24.926,0.04l0.013-34.163l31.992,0.04
		l-0.047,34.145l24.916,0.013l0.082-89.892l-24.903-0.019l-0.027,33.626l-31.992-0.021l0.021-33.626l-24.892-0.043L396.547,207.253z
		 M536.606,209.197c27.731,0.027,48.567-20.905,48.585-46.707l-0.019-0.284c0.041-25.785-20.505-46.495-48.212-46.507
		c-27.738,0-48.56,20.88-48.56,46.708l-0.028,0.253C488.373,188.482,508.894,209.159,536.606,209.197 M536.883,186.708
		c-13.581-0.016-22.957-11.316-22.957-24.301v-0.246c0.013-12.949,9.112-23.993,22.747-23.993
		c13.746,0.043,23.109,11.321,23.09,24.282l0.021,0.272C559.763,175.683,550.626,186.723,536.883,186.708 M593.903,207.437h24.88
		l0.036-23.22l9.147-10.154l22.529,33.414l29.95,0.039l-35.193-51.285l34.107-38.595l-29.536-0.027l-30.99,36.436l0.031-36.478
		l-24.876-0.019L593.903,207.437z M684.65,207.497l26.193,0.042l6.425-16.06l34.694,0.051l6.521,16.047l26.694,0.033l-38.182-90.556
		l-24.005-0.033L684.65,207.497z M724.614,172.125l10.168-25.556l9.975,25.556H724.614z"/>
	<path fill="#FFFFFF" d="M806.314,107.536l17.114,77.406c6.97,30.453,27.753,39.175,54.939,32.925
		c27.212-6.239,42.243-23.24,35.254-53.661L896.521,86.8l-26.414,6.084l17.03,77.189c3.053,13.212-1.276,21.488-14.131,24.441
		c-12.844,2.928-20.165-2.632-23.215-15.828l-17.028-77.229L806.314,107.536z"/>
	<polyline fill="#E95B10" points="869.98,73.94 907.701,99.655 931.881,85.041 	"/>
	
		<text transform="matrix(1 8.999989e-04 -8.999989e-04 1 395.4941 250.6353)" fill="#F1852D" font-family="'MyriadPro-Regular'" font-size="37.3643">C</text>
	
		<text transform="matrix(1 8.999989e-04 -8.999989e-04 1 417.207 250.6216)" fill="#F1852D" font-family="'MyriadPro-Regular'" font-size="37.3643">H</text>
	
		<text transform="matrix(1 8.999989e-04 -8.999989e-04 1 441.6074 250.6118)" fill="#F1852D" font-family="'MyriadPro-Regular'" font-size="37.3643">A</text>
	
		<text transform="matrix(1 8.999989e-04 -8.999989e-04 1 464.5098 250.5933)" fill="#F1852D" font-family="'MyriadPro-Regular'" font-size="37.3643">N</text>
	
		<text transform="matrix(1 8.999989e-04 -8.999989e-04 1 489.1328 250.5767)" fill="#F1852D" font-family="'MyriadPro-Regular'" font-size="37.3643">G</text>
	
		<text transform="matrix(1 8.999989e-04 -8.999989e-04 1 513.3096 250.5552)" fill="#F1852D" font-family="'MyriadPro-Regular'" font-size="37.3643">E</text>
	
		<text transform="matrix(1 8.999989e-04 -8.999989e-04 1 531.5449 250.6909)" fill="#F1852D" font-family="'MyriadPro-Regular'" font-size="37.3643">MA</text>
	
		<text transform="matrix(1 8.999989e-04 -8.999989e-04 1 584.1543 250.6899)" fill="#F1852D" font-family="'MyriadPro-Regular'" font-size="37.3643">K</text>
	
		<text transform="matrix(1 8.999989e-04 -8.999989e-04 1 604.4375 250.6763)" fill="#F1852D" font-family="'MyriadPro-Regular'" font-size="37.3643">E</text>
	
		<text transform="matrix(1 8.999989e-04 -8.999989e-04 1 622.8584 250.6909)" fill="#F1852D" font-family="'MyriadPro-Regular'" font-size="37.3643">R</text>
	
		<text transform="matrix(1 8.999989e-04 -8.999989e-04 1 650.8027 250.7612)" fill="#F1852D" font-family="'MyriadPro-Regular'" font-size="37.3643">CA</text>
	
		<text transform="matrix(1 8.999989e-04 -8.999989e-04 1 695.3438 250.7974)" fill="#F1852D" font-family="'MyriadPro-Regular'" font-size="37.3643">M</text>
	
		<text transform="matrix(1 8.999989e-04 -8.999989e-04 1 725.4268 250.7856)" fill="#F1852D" font-family="'MyriadPro-Regular'" font-size="37.3643">P</text>
	
		<text transform="matrix(1 8.999989e-04 -8.999989e-04 1 745.3379 250.8042)" fill="#F1852D" font-family="'MyriadPro-Regular'" font-size="37.3643">U</text>
	
		<text transform="matrix(1 8.999989e-04 -8.999989e-04 1 769.5508 250.7896)" fill="#F1852D" font-family="'MyriadPro-Regular'" font-size="37.3643">S</text>
</g>
</svg>
