<?xml version="1.0" encoding="utf-8"?>
<!-- Generator: Adobe Illustrator 15.0.0, SVG Export Plug-In . SVG Version: 6.00 Build 0)  -->
<!DOCTYPE svg PUBLIC "-//W3C//DTD SVG 1.1//EN" "http://www.w3.org/Graphics/SVG/1.1/DTD/svg11.dtd">
<svg version="1.1" id="Layer_1" xmlns="http://www.w3.org/2000/svg" xmlns:xlink="http://www.w3.org/1999/xlink" x="0px" y="0px"
	 width="759.562px" height="156.592px" viewBox="0 0 759.562 156.592" enable-background="new 0 0 759.562 156.592"
	 xml:space="preserve">
<g>
	<polygon fill="#F1852D" points="675.521,10 602.224,25.219 626.99,142.18 743.947,117.405 722.874,18.725 	"/>
	<path d="M102.115,48.419c-0.379-0.263-0.692-0.545-0.749-0.491c-0.242,0.19-0.429,0.446-0.576,0.727
		c-0.036,0.058,0.333,0.448,0.384,0.425C101.448,48.94,101.691,48.724,102.115,48.419 M143.391,81.639
		c0.268-0.366,0.577-0.604,0.598-0.833c0.019-0.176-0.401-0.571-0.552-0.516c-0.243,0.046-0.546,0.34-0.618,0.582
		C142.757,81.003,143.098,81.272,143.391,81.639 M112.026,41.779c0.278-0.343,0.578-0.566,0.562-0.784
		c0-0.256-0.39-0.716-0.445-0.674c-0.375,0.191-0.74,0.463-1.109,0.738C111.317,41.237,111.576,41.452,112.026,41.779
		 M65.599,60.705c-0.49-0.032-0.875-0.175-1.078-0.04c-0.299,0.21-0.511,0.621-0.688,0.935c-0.057,0.046,0.273,0.439,0.324,0.404
		c0.313-0.101,0.592-0.271,0.845-0.491C65.194,61.382,65.291,61.168,65.599,60.705 M51.954,67.316
		c-0.345,0.38-0.714,0.642-0.674,0.762c0.157,0.38,0.451,0.683,0.679,1.026c0.248-0.21,0.698-0.457,0.678-0.662
		C52.587,68.098,52.263,67.815,51.954,67.316 M110.422,87.142c0.5,0.44,0.516,1.276,1.259,0.74c0.395-0.3,0.744-0.767,0.284-1.235
		C111.261,85.955,111.12,87.077,110.422,87.142 M50.764,83.688c0.827,0,1.347-0.476,1.292-1.148c-0.02-0.176-0.238-0.322-0.35-0.514
		c-0.444,0.4-0.869,0.81-1.269,1.252C50.41,83.294,50.688,83.59,50.764,83.688 M112.366,80.378c0-0.61,0-1.035-0.012-1.446
		c-1.127-0.267-1.472-0.056-1.513,0.909c0.279,0.084,0.517,0.169,0.765,0.269C111.854,80.191,112.076,80.274,112.366,80.378
		 M120.205,66.181c0.051,0.07,0.102,0.131,0.167,0.19c0.558-0.222,1.158-0.355,1.619-0.669c0.238-0.149,0.197-0.671,0.248-1.027
		c0-0.039-0.415-0.232-0.456-0.16C121.227,65.04,120.721,65.629,120.205,66.181 M52.055,84.786c-0.583,0.329-1.088,0.569-1.467,0.92
		c-0.142,0.111-0.112,0.547-0.024,0.813c0,0.087,0.443,0.22,0.494,0.146C51.494,86.206,52.248,85.891,52.055,84.786 M50.563,37.078
		c-0.487-0.437-0.861-0.784-1.257-1.071c-0.019-0.033-0.516,0.442-0.476,0.507c0.268,0.455,0.648,0.857,0.952,1.277
		C49.985,37.6,50.177,37.437,50.563,37.078 M51.394,71.581c-0.493-0.427-0.806-0.787-1.216-0.963
		c-0.086-0.057-0.44,0.394-0.684,0.592c0.345,0.351,0.684,0.765,1.094,1.062C50.633,72.312,50.982,71.945,51.394,71.581
		 M83.739,53.262c-0.548-0.458-0.912-0.782-1.361-1.026c-0.097-0.052-0.452,0.34-0.674,0.542c0.375,0.404,0.77,0.85,1.205,1.196
		C82.929,53.982,83.318,53.64,83.739,53.262 M71.279,74.386c0.313-0.377,0.707-0.773,0.682-0.847
		c-0.288-0.359-0.617-0.791-1.012-0.889c-0.248-0.056-0.612,0.52-0.928,0.796C70.407,73.727,70.771,73.999,71.279,74.386
		 M53.052,66.944c0.487-0.449,0.811-0.749,1.155-1.028c-0.416-0.287-0.8-0.683-1.261-0.876c-0.166-0.054-0.779,0.471-0.738,0.533
		C52.364,65.978,52.667,66.362,53.052,66.944 M106.814,41.401c-0.34-0.23-0.745-0.662-0.952-0.608
		c-0.375,0.127-0.769,0.566-0.876,0.946c-0.106,0.521,0.299,0.76,0.876,0.76C106.505,42.499,106.676,42.15,106.814,41.401
		 M99.069,46.603c0.739,0.028,1.585-0.781,1.509-1.292c-0.062-0.213-0.35-0.408-0.522-0.606C99.59,45.139,99.135,45.529,98.74,46
		C98.665,46.082,98.978,46.459,99.069,46.603 M66.99,54.509c0.116,0.066,0.309,0.449,0.583,0.491
		c0.648,0.131,1.261-0.406,1.24-1.067c-0.055-0.293-0.279-0.811-0.476-0.868C67.709,52.957,67.042,53.627,66.99,54.509
		 M79.883,43.011c-0.117,0.111-0.487,0.271-0.573,0.547c-0.04,0.185,0.228,0.578,0.457,0.738c0.399,0.298,0.87,0.537,1.346,0.687
		c0.117,0.066,0.507-0.197,0.507-0.354C81.704,43.965,80.757,43.011,79.883,43.011 M118.463,40.088
		c0.026,0.972,0.794,1.816,1.377,1.622c0.324-0.119,0.604-0.65,0.689-1.062c0.111-0.457-0.826-1.096-1.462-0.988
		C118.814,39.701,118.575,39.99,118.463,40.088 M74.694,74.962c-0.693-0.576-1.093-1.207-1.618-1.331
		c-0.7-0.185-0.83,0.53-0.83,1.091c-0.011,0.669,0.55,1.145,1.309,1.016C73.864,75.693,74.112,75.38,74.694,74.962 M101.873,82.804
		c-0.623-0.538-0.987-1.099-1.463-1.172c-0.369-0.094-0.851,0.43-1.299,0.667c0.545,0.48,1.093,0.995,1.68,1.42
		C100.886,83.777,101.357,83.252,101.873,82.804 M120.291,67.394c-0.683-0.575-1.548-0.664-1.878-0.222
		c-0.598,0.835-0.231,2.402,0.705,2.864c0.131,0.061,0.374,0.125,0.456,0.052c0.097-0.082,0.148-0.394,0.097-0.458
		C118.838,68.636,119.669,68.078,120.291,67.394 M126.172,80.979c-0.015-0.078-0.035-0.12-0.035-0.188
		c-0.379,0.11-0.749,0.188-1.037,0.387c-0.111,0.096-0.142,0.615-0.037,0.691c0.431,0.33,0.962,0.76,1.418,0.724
		c0.466-0.03,0.997-0.495,1.295-0.897c0.34-0.509,0.011-0.914-0.637-0.86C126.8,80.858,126.497,80.918,126.172,80.979
		 M116.419,70.078c-0.025-0.271,0.071-0.629-0.071-0.8c-0.359-0.473-0.764-0.956-1.245-1.271c-0.36-0.216-0.859-0.255-1.3-0.255
		c-0.101,0-0.364,0.6-0.264,0.735c0.264,0.318,0.622,0.638,1.028,0.842C115.103,69.597,115.681,69.783,116.419,70.078
		 M110.225,30.68c-0.158,0.082-0.542,0.218-0.835,0.43c-0.562,0.436-0.562,1.043-0.192,1.615c0.406,0.556,0.926,0.392,1.442,0.052
		c0.243-0.183,0.572-0.347,0.748-0.589c0.122-0.167,0.047-0.561-0.07-0.723C111.075,31.192,110.735,31.04,110.225,30.68
		 M68.231,59.165c-0.091-0.138-0.365-0.631-0.557-0.589c-0.714,0.14-1.468,0.36-1.767,1.171c-0.243,0.565-0.112,0.958,0.583,1.149
		C67.234,61.093,68.201,60.288,68.231,59.165 M60.002,65.084c-0.765-0.077-0.867,0.438-0.896,1.014
		c-0.051,1.031,0.243,1.362,1.388,1.323c0.767-0.027,0.717-0.756,0.8-1.288C61.444,65.084,60.674,65.162,60.002,65.084
		 M74.86,63.346c0.148-0.112,0.765-0.313,0.857-0.64c0.183-0.591-0.411-0.803-0.927-0.974c-0.279-0.087-0.481-0.336-0.769-0.422
		c-0.28-0.106-0.633-0.292-0.881-0.209c-0.193,0.095-0.375,0.446-0.399,0.729C72.624,62.779,73.368,63.391,74.86,63.346
		 M92.733,61.548c0.818,0.282,1.33-0.344,1.8-0.938c0.097-0.129-0.03-0.662-0.212-0.78c-0.359-0.202-0.8-0.256-1.209-0.325
		c-0.693-0.084-1.695,0.583-1.619,1.105C91.548,61.311,91.833,61.79,92.733,61.548 M54.181,66.852
		c1.585,0.833,3.188,0.939,3.24-0.858c0.03-0.78-0.396-1.271-1.099-0.876C55.573,65.538,54.955,66.195,54.181,66.852
		 M122.507,43.794c0.963-0.415,1.408-1.12,1.605-1.836c0.303-0.934-0.952-0.522-1.174-1.068c0.107-0.364,0.171-0.669,0.273-1.097
		c-0.739,0.594-1.336,1.015-1.888,1.51c-0.162,0.097-0.299,0.31-0.299,0.475c0,0.125,0.202,0.309,0.36,0.343
		c0.436,0.11,0.977,0.028,1.245,0.279C122.812,42.564,122.595,43.164,122.507,43.794 M108.002,47.295
		c-0.07,0.112-0.116,0.213-0.187,0.326c0.537,0.347,1.134,1.022,1.624,0.95c1.134-0.115,2.192-0.591,3.291-0.95
		c0.02-0.137,0.02-0.28,0.031-0.409c-0.304-0.09-0.603-0.286-0.881-0.258C110.593,47.024,109.297,47.163,108.002,47.295
		 M56.676,69.968c0.03,0.055,0.085,0.317,0.208,0.354c0.486,0.11,0.988,0.195,1.478,0.257c-0.045-0.417-0.01-0.884-0.188-1.275
		c-0.416-0.98-1.316-0.907-2.146-0.749c-0.344,0.062-0.871,0.294-0.9,0.489c-0.037,0.36,0.146,0.849,0.414,1.094
		C55.685,70.285,56.19,70.061,56.676,69.968 M92.19,74.523c-0.879,1.085-0.859,1.812,0.249,2.489
		c0.334,0.194,0.933,0.146,1.326-0.018c0.253-0.115,0.547-0.659,0.476-0.917c-0.12-0.47-0.388-1.019-0.783-1.297
		C93.179,74.523,92.637,74.591,92.19,74.523 M96.823,48.257c-0.016,0.641,0.107,1.247,0.859,1.331
		c0.729,0.061,2.084-1.169,2.084-1.759c-0.009-0.707-0.536-0.714-1.026-0.739C97.378,47.08,96.843,47.407,96.823,48.257
		 M53.888,37.417c0.005-0.8-0.679-1.566-1.341-1.27c-0.592,0.211-1.088,0.909-1.413,1.536c-0.212,0.363,0.876,1.298,1.454,1.322
		C53.225,39.025,53.862,38.224,53.888,37.417 M79.021,60.43c-0.477,0.052-0.855,0-1.128,0.132c-0.421,0.215-0.77,0.596-1.114,0.875
		c0.324,0.323,0.643,0.812,1.062,0.952c0.47,0.12,1.057,0.009,1.569-0.092c0.435-0.098,0.834-0.322,1.25-0.491
		c-0.289-0.36-0.532-0.754-0.875-1.061C79.553,60.546,79.194,60.499,79.021,60.43 M101.403,78.026
		c0.161-0.112,0.44-0.213,0.577-0.395c0.075-0.123-0.04-0.394-0.106-0.562c-0.122-0.367-0.232-0.733-0.45-1.052
		c-0.228-0.349-0.521-0.796-0.871-0.9c-0.237-0.066-0.719,0.355-0.931,0.665c-1.038,1.689-1.028,1.704,0.982,1.998
		C100.851,77.85,101.063,77.934,101.403,78.026 M75.418,30.52h1.29c0.714,0,1.373-0.016,1.676,0.862
		c0.097,0.329,0.51,0.578,0.83,0.771c0.096,0.045,0.526-0.214,0.531-0.308c-0.005-0.45-0.02-0.921-0.237-1.282
		C79,29.676,78.15,29.41,77.144,29.258C76.232,29.14,75.813,29.532,75.418,30.52 M38.445,60.665
		c0.928,1.632,2.571,1.945,3.979,0.894c0.391-0.272,0.34-0.894-0.127-1.077C41.016,59.99,39.75,60.025,38.445,60.665 M84.564,55.18
		c0.672,0.716,2.542,1.212,3.245,0.669c0.349-0.282,0.667-0.946,0.623-1.4c-0.102-0.533-0.694-0.544-1.179-0.244
		c-0.167,0.076-0.462,0.122-0.619,0.024C85.566,53.64,85.04,54.28,84.564,55.18 M56.418,58.668c0.465-0.019,0.79-0.203,0.617-0.83
		c-0.06-0.298,0.076-0.61,0.137-0.904c0.05-0.28,0.106-0.553,0.152-0.829c-0.289-0.064-0.618-0.218-0.892-0.166
		c-0.602,0.126-1.209,0.302-1.735,0.564c-0.299,0.15-0.604,0.509-0.683,0.798c-0.046,0.251,0.181,0.763,0.384,0.836
		C55.021,58.369,55.685,58.507,56.418,58.668 M90.92,70.715c-0.309,0.208-0.571,0.361-0.824,0.571
		c-0.578,0.588-0.198,1.262-0.061,1.869c0.051,0.258,0.277,0.6,0.511,0.688c0.253,0.101,0.597-0.089,0.891-0.188
		c0.35-0.127,0.745-0.258,1.007-0.476c0.313-0.207,0.572-0.556,0.695-0.867c0.04-0.104-0.382-0.429-0.619-0.618
		c-0.244-0.2-0.537-0.342-0.799-0.507C91.477,71.037,91.235,70.886,90.92,70.715 M35.307,67.08c0.278,0.205,0.48,0.425,0.735,0.562
		c0.272,0.127,0.57,0.204,0.864,0.253c0.395,0.062,0.917,0.265,1.19,0.103c0.506-0.313,0.942-0.891,0.612-1.549
		c-0.182-0.396-0.612-0.81-1.034-0.927c-1.386-0.405-1.386-0.36-2.038,0.973C35.549,66.631,35.438,66.803,35.307,67.08
		 M104.308,47.98c0.117,0,0.223-0.029,0.333-0.052c0.273-0.493,0.644-0.965,0.796-1.486c0.132-0.324,0.05-0.897-0.152-1.062
		c-0.31-0.228-0.795-0.625-1.271-0.089c-0.146,0.166-0.502,0.284-0.714,0.239c-1.246-0.268-1.948,0.687-2.858,1.2
		c0.643,0.627,2.16,0.566,2.797-0.031c0.146-0.141,0.38-0.214,0.559-0.34c0.08,0.209,0.17,0.427,0.242,0.634
		C104.14,47.323,104.227,47.649,104.308,47.98 M106.171,36.521c0.686-0.401,1.437-0.748,2.059-1.279
		c0.496-0.406,0.224-1.484-0.416-1.975c-0.607-0.441-1.154-0.338-1.63,0.379c-0.272,0.451-0.556,0.913-0.804,1.421
		c-0.128,0.273-0.269,0.706-0.173,0.986C105.309,36.247,105.73,36.329,106.171,36.521 M88.476,41.739
		c0.998,0.082,1.342-0.231,1.195-1.109c-0.097-0.497-0.147-1.01-0.328-1.479c-0.122-0.286-0.421-0.662-0.67-0.679
		c-0.374-0.042-0.95,0.07-1.091,0.307c-0.446,0.666-0.73,1.43-0.997,2.16c-0.092,0.286,0,0.683,0.161,0.897
		c0.085,0.148,0.507,0.092,0.754,0.069C87.839,41.87,88.158,41.779,88.476,41.739 M87.697,57.141c0.009-0.031,0-0.031,0-0.064
		c-0.198,0.016-0.385,0-0.537,0.082c-0.395,0.251-0.785,0.564-1.173,0.854l0.869,1.016c0.249,0.26,0.507,0.498,0.725,0.791
		c0.398,0.494,0.916,0.681,1.371,0.172c0.369-0.416,0.642-1.003,0.764-1.572c0.253-0.948-0.212-1.366-1.219-1.277
		C88.228,57.158,87.97,57.141,87.697,57.141 M117.614,56.064c1.503-0.178,1.598-0.26,1.72-1.54c0.017-0.18,0.071-0.354,0.157-0.518
		c0.36-0.765,0.212-1.458-0.258-2.099c-0.097-0.12-0.638-0.132-0.687-0.066c-0.183,0.404-0.279,0.885-0.461,1.305
		c-0.101,0.295-0.219,0.598-0.34,0.836c-0.491-0.785-1.042-1.092-1.714-0.785c-0.218,0.118-0.412,0.683-0.334,0.974
		c0.283,0.98,1.071,0.404,1.721,0.404c0.034,0.26,0.06,0.51,0.095,0.738C117.548,55.54,117.573,55.753,117.614,56.064
		 M106.327,80.29c0.567,0.311,2.399-0.056,2.592-0.557c0.153-0.364,0.202-0.84,0.081-1.2c-0.051-0.162-0.624-0.204-0.948-0.204
		c-0.237,0-0.459,0.16-0.687,0.26c-0.704,0.343-1.311,0.81-2.228,0.423c-0.752-0.298-1.169,0.396-1.391,1.066
		c-0.167,0.522,0.345,1.31,0.972,1.423c0.603,0.131,1.179,0.089,1.387-0.643C106.16,80.679,106.257,80.461,106.327,80.29
		 M110.225,42.938c0.313-0.439,0.557-0.756,0.764-1.068c-0.344-0.035-0.673-0.077-1.019-0.11h-0.049
		c-0.947-0.139-1.69,0.254-2.085,1.05c-0.426,0.881-0.087,1.615,0.839,1.894c0.167,0.051,0.396,0.103,0.445,0.235
		c0.457,0.907,1.219,0.465,1.833,0.343c0.531-0.111,1.012-0.527,1.468-0.801c-0.361-0.394-0.755-0.818-1.261-1.413
		C111.014,43.068,110.639,42.993,110.225,42.938 M62.795,46.785c-0.228,0-0.601,0-0.957,0.052c-0.854,0.117-1.589,0.749-1.644,1.409
		c-0.046,0.603,0.637,1.505,1.335,1.784c0.35,0.138,0.709,0.42,1.058,0.42c0.425-0.03,1.113-0.193,1.231-0.472
		c0.257-0.808,0.339-1.689,0.404-2.543c0.035-0.211-0.263-0.509-0.49-0.615C63.504,46.681,63.21,46.77,62.795,46.785 M94.287,39.842
		c-0.025,0,0.097,0.014,0.198-0.028c0.444-0.176,1.047-0.069,1.118-0.808c0.08-0.799-0.547-0.81-1.021-1.012
		c-0.543-0.176-1.08-0.394-1.6-0.603c-0.375-0.15-0.739-0.334-1.098-0.477c-0.112,0.376-0.258,0.77-0.329,1.16
		c-0.031,0.266,0.14,0.526,0.14,0.791c-0.019,0.192-0.121,0.51-0.268,0.579c-0.414,0.205-0.851,0.398-0.557,0.93
		c0.284,0.536,0.764,0.273,1.175,0.066c0.081-0.042,0.167-0.014-0.015-0.014c0.607,0.383,1.032,0.658,1.471,0.956
		C93.73,40.92,93.962,40.471,94.287,39.842 M83.151,41.182c-0.258,0.439-0.39,0.746-0.597,0.968
		c-0.375,0.45-0.431,1.437-0.051,1.897c0.228,0.312,0.375,0.669,0.603,0.967c0.162,0.166,0.42,0.38,0.612,0.366
		c0.218-0.024,0.551-0.24,0.551-0.408c0.061-0.627,0.219-1.425-0.091-1.85c-0.516-0.754-0.182-1.049,0.289-1.453
		c0.198-0.193,0.396-0.397,0.487-0.634c0.43-0.845-0.012-1.745-0.845-1.592c-0.836,0.176-1.589,0.205-2.451,0.122
		c-0.186-0.028-0.622,0.394-0.673,0.681c-0.126,0.469,0.127,0.813,0.673,0.826C82.053,41.084,82.452,41.138,83.151,41.182
		 M98.954,60.896c-0.314-0.467-0.557-0.988-0.933-1.384c-0.724-0.728-2.221-0.507-2.489,0.306c-0.09,0.285-0.268,0.601-0.459,0.847
		c-0.375,0.569-0.143,1.207,0.53,1.28c0.506,0.048,1.052,0.104,1.524-0.042c0.815-0.269,1.467-0.144,1.984,0.559
		c0.429,0.56,1.021,0.7,1.695,0.535c0.162-0.049,0.389-0.309,0.369-0.451C101.145,61.311,100.123,60.576,98.954,60.896
		 M81.533,51.542c-0.093-0.25-0.167-0.749-0.441-0.934c-0.213-0.148-0.709,0.094-1.052,0.218c-0.583,0.246-1.043,1.016-1.838,0.423
		c-0.086-0.077-0.329,0.085-0.459,0.171c-0.579,0.411-1.115,0.853-1.732,1.204c-0.556,0.36-0.429,0.791,0,0.982
		c0.69,0.273,1.256,0.817,2.237,0.521c0.698-0.169,1.28-0.5,1.934-0.7C81.112,53.146,81.339,52.515,81.533,51.542 M115.994,57.076
		c0.163-1.332,0.081-1.536-0.839-2.552c-0.076-0.101-0.173-0.311-0.151-0.427c0.076-0.951-0.942-1.058-1.261-1.685
		c-0.036-0.066-0.203-0.066-0.339-0.066c-0.748,0.133-1.492,0.218-2.243,0.38c-0.207,0.031-0.425,0.164-0.567,0.313
		c-0.258,0.291-0.455,0.633-0.672,0.942c0.637,1.331,1.068,1.425,2.276,0.466c0.527-0.466,1.053-0.234,1.368,0.09
		c0.446,0.426,0.845,1.028,0.931,1.62C114.684,57.092,115.249,57.076,115.994,57.076 M60.604,56.514
		c0.32,0.32,0.607,0.618,0.937,0.865c0.774,0.588,1.918,0.275,1.979-0.643c0.086-1.125,0.805-1.621,1.356-2.334
		c0.197-0.291,0.233-0.689,0.345-1.038c-0.396,0.104-0.815,0.151-1.169,0.338c-0.188,0.106-0.274,0.425-0.445,0.624
		c-0.198,0.231-0.496,0.564-0.739,0.545c-0.764-0.061-1.21,0.28-1.513,0.978c-0.426-0.406-0.847-0.687-1.114-1.095
		c-0.425-0.55-1.134-0.896-1.569-0.474c-0.207,0.215-0.04,0.784-0.04,1.427c-0.278,0.397-0.526,1.127,0.192,1.631
		C59.814,58.127,59.89,56.669,60.604,56.514 M78.839,71.884c-0.036-2.023-0.931-2.605-2.683-1.9c-0.48,0.178-0.89,0.488-1.326,0.731
		c-0.481,0.273-0.941,0.548-1.442,0.804c0.339,0.465,0.653,0.94,1.002,1.383c0.881,1.087,1.867,1.171,2.961,0.269
		c0.121-0.117,0.308-0.235,0.466-0.22C78.745,73.041,78.996,72.563,78.839,71.884 M93.811,86.289
		c-0.107,1.528,0.946,2.674,2.105,2.244c1.038-0.371,1.887-1.031,2.223-2.172c0.221-0.853-1.509-2.889-2.394-2.771
		c-0.062,0-0.143,0.018-0.178,0.056C94.827,84.461,93.714,85.037,93.811,86.289 M92.56,54.624c-0.479-0.666-2.363-1.062-3.077-0.691
		c-0.531,0.318-0.592,1.132-0.157,1.543c0.313,0.269,0.572,0.589,0.77,0.927c0.516,0.84,1.321,1.043,1.787,0.267
		c0.662-1.103,1.275-2.06,2.732-1.963c0.016,0,0.06,0,0.082-0.017c0.567-0.785,1.397-0.914,2.257-1.083
		c0.262-0.044,0.526-0.622,0.642-0.996c0.157-0.608-0.223-0.962-0.789-0.951c-0.33,0-0.749,0.221-0.973,0.461
		c-0.439,0.455-0.744,1.026-1.102,1.568C93.765,52.971,93.533,53.04,92.56,54.624 M54.06,31.76
		c-0.867-0.493-1.717-0.427-1.985,0.101c-0.457,0.916-0.237,1.508,0.673,2.029c0.248,0.125,0.511,0.376,0.622,0.622
		c0.326,0.754,0.775,0.681,1.281,0.277c0.921-0.744,1.848-1.478,2.688-2.291c0.289-0.299,0.486-0.855,0.419-1.25
		c-0.07-0.223-0.672-0.43-1.031-0.486C55.624,30.52,54.712,30.915,54.06,31.76 M82.671,73.114c0.283,0.065,0.602,0.226,0.895,0.201
		c0.831-0.109,1.737-0.146,2.47-0.507c0.815-0.385,0.689-1.705-0.192-2.569c-0.42-0.396-0.309-0.643-0.147-1.063
		c0.121-0.328,0.167-0.927-0.02-1.098c-0.253-0.246-0.866-0.409-1.18-0.263c-0.389,0.183-0.601,0.77-0.949,1.067
		c-1.125,0.88-1.226,2.027-0.994,3.278C82.62,72.475,82.642,72.79,82.671,73.114 M131.85,76.867
		c-0.638,0.229-1.047,0.108-1.406-0.474c-0.198-0.305-0.715-0.54-1.083-0.527c-0.204,0-0.602,0.618-0.578,0.88
		c0.173,0.902,0.4,1.823,0.799,2.652c0.167,0.369,0.81,0.803,1.119,0.722c0.986-0.208,1.245-0.822,1.003-1.61
		c-0.052-0.181-0.067-0.435,0.025-0.576c0.217-0.352,0.494-0.646,0.753-0.958c0.891,0.874,0.891,0.874,1.979,0.037
		c1.001-0.782,1.093-1.596,0.233-2.609c-0.42-0.53-0.866-0.62-1.326-0.042c-0.314,0.348-0.531,0.796-0.917,1.062
		C131.887,75.782,131.587,76.195,131.85,76.867 M110.097,78.209c0.573-0.359,1.115-0.688,1.67-1.016
		c0.051-0.035,0.061-0.218,0.017-0.262c-0.441-0.574-0.795-1.354-1.394-1.658c-0.724-0.354-1.106-0.728-1.093-1.519
		c0-0.641-0.445-0.714-0.843-0.585c-0.39,0.092-0.827,0.358-1.035,0.674c-0.545,0.836-1.259,1.289-2.211,1.573
		c-0.328,0.085-0.562,0.576-0.824,0.895c0.354,0.222,0.824,0.701,1.083,0.62c1.057-0.398,1.882,0.138,2.764,0.524
		C108.828,77.72,109.439,77.934,110.097,78.209 M63.776,76.995c-0.171-0.906-0.354-1.944-0.611-2.923
		c-0.077-0.289-0.416-0.533-0.689-0.697c-0.282-0.195-0.753-0.205-0.947-0.474c-0.545-0.693-1.072-0.329-1.543-0.045
		c-0.515,0.276-0.997,0.637-1.392,1.088c-0.187,0.208-0.278,0.744-0.157,0.964c0.384,0.616,0.866,1.212,1.428,1.625
		c0.79,0.58,1.714,0.953,2.551,1.4C63.407,78.465,63.776,78.22,63.776,76.995 M69.801,78.589c0.024-1.157,0-2.195-0.988-2.963
		c-0.232-0.185-0.334-0.575-0.476-0.871c-0.322-0.651-1.231-1.044-1.625-0.626c-0.47,0.508-0.886,1.117-1.199,1.737
		c-0.112,0.212,0.101,0.618,0.182,0.905c0.274,0.78,0.471,1.6,0.84,2.336c0.177,0.444,0.57,0.788,0.907,1.108
		c0.232,0.196,0.602,0.268,0.849,0.463c0.587,0.397,1.104,0.239,1.271-0.444C69.664,79.698,69.724,79.107,69.801,78.589
		 M88.773,83.559c0.229-0.086,0.608-0.213,0.917-0.371c0.612-0.329,1.519-0.657,1.63-1.117c0.105-0.532-0.648-1.179-0.795-1.836
		c-0.329-1.341-1.438-1.165-2.368-1.358c-0.577-0.129-1.17-0.26-1.773-0.376c-0.121-0.011-0.292-0.035-0.408,0.01
		c-1.034,0.502-1.412,2.296-0.532,3.104c0.79,0.716,1.741,1.258,2.658,1.858C88.208,83.559,88.431,83.51,88.773,83.559 M54.9,42.007
		c-0.303,0.101-0.754,0.21-1.191,0.308c-1.461,0.39-1.506,0.528-0.712,1.731c0.066,0.11,0.161,0.216,0.177,0.312
		c0.086,1.362,1.145,1.487,2.151,1.768c0.927,0.278,2.049,0.305,2.602,1.446c0.1,0.226,0.94,0.395,1.19,0.226
		c0.298-0.178,0.551-0.918,0.42-1.168c-0.233-0.503-0.122-0.784,0.079-1.174c0.32-0.585-0.201-2.268-0.813-2.519
		c-0.243-0.079-0.583,0-0.846,0.082c-0.278,0.103-0.506,0.33-0.748,0.502c-0.689,0.5-0.957,0.396-1.135-0.453
		C55.942,42.499,55.695,42.06,54.9,42.007 M76.036,83.212c0.152,0.082,0.313,0.169,0.461,0.261c0.976,0.629,2.028,1.174,3.097,0.215
		c0.446-0.37,1.179-0.995,1.083-1.357c-0.132-0.691-0.695-1.651-1.266-1.815c-1.518-0.437-3.224-0.571-4.743,0.164
		c-0.88,0.409-1.32,0.409-1.777-0.478c-0.125-0.231-0.586-0.306-0.906-0.347c-0.116-0.014-0.444,0.321-0.429,0.481
		c0.065,0.785,0.065,1.569,0.292,2.305c0.445,1.395,1.854,1.82,3.118,1.105C75.306,83.55,75.654,83.381,76.036,83.212
		 M63.654,84.515c0.319,0.178,0.458,0.271,0.603,0.271c1.342,0.1,2.733-0.312,4.034,0.409c0.09,0.049,0.335,0.028,0.436-0.062
		c0.228-0.247,0.41-0.512,0.618-0.787c-0.253-0.093-0.507-0.213-0.751-0.345c-0.363-0.193-0.749-0.375-1.055-0.638
		c-0.608-0.453-1.089-1.129-1.743-1.495c-0.894-0.451-1.659-0.968-2.095-1.925c-0.344-0.685-0.591-1.534-1.709-1.374
		c-0.947,0.129-1.833-0.036-2.688,0.838c-0.461,0.488-1.392,0.551-1.286,1.627c-1.216,0.151-2.314,0.204-3.335,0.474
		c-0.588,0.176-1.231,0.615-1.537,1.101c-0.311,0.588-0.29,1.377-0.478,2.326c0.627-0.275,1.084-0.571,1.553-0.662
		c0.512-0.091,0.734-0.237,0.876-0.723c0.237-0.835,0.739-1.706,1.649-1.658c1.166,0.045,1.884-0.354,2.618-1.202
		c0.697-0.794,1.866-0.64,2.495,0.27c0.177,0.218,0.47,0.471,0.692,0.49c0.855,0.052,1.544,0.325,2.016,0.998
		c0.212,0.323,0.395,0.749,0.408,1.143c0,0.156-0.444,0.347-0.667,0.489C64.137,84.201,63.973,84.314,63.654,84.515 M78.005,37.2
		c0.076,0.042,0.161,0.108,0.242,0.17c-0.11,0.269-0.203,0.563-0.339,0.836c-0.375,0.702-0.987,1.374-0.137,2.181
		c0.217,0.178,0.365,0.439,0.531,0.685c0.242-0.288,0.442-0.559,0.693-0.826c0.259-0.305,0.461-0.666,0.77-0.897
		c0.333-0.256,0.773-0.389,1.113-0.619c0.364-0.204,0.639-0.599,1.003-0.695c0.607-0.176,0.738-0.533,0.76-1.059
		c0.063-0.829-0.477-1.106-1.182-1.317c-0.723-0.247-1.527-0.418-1.628-1.394c-0.092-1.128-0.314-1.128-1.469-1.066
		c-1.124,0.066-2.403,0.404-3.402-0.606c-0.115-0.148-0.479-0.195-0.625-0.096c-0.169,0.084-0.361,0.376-0.34,0.57
		c0.064,0.436,0.116,1.16,0.44,1.326c0.937,0.522,1.047,1.048,0.648,2.026c-0.319,0.822,0.729,0.928,1.174,1.242
		c0.253,0.185,0.811,0,1.199-0.092C77.65,37.541,77.807,37.32,78.005,37.2 M136.679,59.661c0.815-0.945,1.321-1.552,1.903-2.216
		c-0.627-0.369-1.088-0.805-1.593-0.902c-0.754-0.151-1.312-0.503-1.863-0.977c-0.765-0.646-0.805-1.315-0.092-2.024
		c0.153-0.143,0.153-0.478,0.224-0.691c-0.233-0.013-0.51-0.113-0.709-0.028c-0.171,0.068-0.227,0.324-0.365,0.593
		c-0.663-0.626-1.153-1.096-1.68-1.524c-0.972-0.819-2.631-0.231-2.784,1c-0.11,0.898-0.536,1.042-1.28,0.798
		c-0.046-0.311-0.077-0.575-0.121-0.838c-1.403,0.231-1.816,0.98-1.939,2.28c-0.049,0.674,0.168,1.027,0.948,0.909
		c0.238-0.042,0.546,0.106,0.646,0.118c-0.246,0.638-0.439,1.101-0.646,1.607c-0.061,0.131-0.106,0.395-0.158,0.395
		c-0.809,0.01-1.715,0.209-2.348-0.135c-0.43-0.245-0.82-0.404-1.316-0.451c-0.177-0.022-0.38-0.165-0.49-0.315
		c-0.051-0.049,0.095-0.289,0.212-0.425c0.638-0.634,0.557-1.127-0.34-1.358c-0.491-0.117-1.104-0.117-1.564,0.082
		c-0.349,0.149-0.745,0.718-0.733,1.096c-0.011,0.358,0.415,0.734,0.698,1.09c0.133,0.153,0.496,0.232,0.496,0.32
		c-0.117,0.873,0.674,1.224,1.128,1.715c0.341,0.365,0.978,0.783,1.397,0.703c1.039-0.193,1.696-1.358,2.86-1.443
		c0.097-0.011,0.158-0.177,0.253-0.244c0.171-0.102,0.365-0.218,0.562-0.309c0.085,0.191,0.308,0.406,0.293,0.591
		c-0.076,0.634,0.238,1.05,0.794,1.074c0.547,0.03,1.154-0.125,1.321-0.836c0.158-0.691,0.572-0.945,1.26-0.681
		c0.441,0.16,0.901,0.404,1.342,0.442c0.525,0.047,1.219,0.089,1.553-0.215c0.684-0.571,1.235-0.327,1.797,0.03
		C136.542,59.006,136.563,59.365,136.679,59.661 M108.742,86.08c0,0.822,0.743,0.784,1.24,1.049c0.07,0.013,0.408-0.34,0.358-0.463
		c-0.091-0.317-0.243-0.882-0.47-0.92c-0.349-0.056-0.769,0.218-1.144,0.345c-0.178-0.794-0.33-1.596-0.527-2.483
		c-0.603,0.472-1.063,2.241-0.815,2.646c0.117,0.169,0.451,0.238,0.667,0.187C108.275,86.402,108.503,86.206,108.742,86.08
		 M48.791,95.019c0.703-0.379,1.169-0.644,1.645-0.871c-0.026-0.115-0.046-0.211-0.071-0.319c-0.198-0.036-0.405-0.134-0.628-0.134
		c-0.997,0-1.994,0.078-2.991,0.009c-0.481-0.024-0.957-0.309-1.437-0.434c-0.279-0.087-0.583-0.193-0.87-0.184
		c-1.2,0-2.42,0.06-3.605,0.091c-1.291,0.006-1.548-0.525-1.097-1.661c0.267-0.692,0.211-1.49,0.348-2.206
		c0.045-0.268,0.279-0.529,0.46-0.738c0.407-0.432,0.851-0.857,1.195-1.202c-0.116-0.292-0.13-0.376-0.176-0.387
		c-0.608-0.267-0.786-0.74-0.628-1.327c0.117-0.411,1.199-0.643,1.701-0.411c0.728,0.351,1.448,0.427,2.085-0.143
		c1.087-0.938,1.937-0.92,2.951,0.094c0.17,0.16,0.415,0.258,0.627,0.399c0.09-0.187,0.258-0.384,0.253-0.542
		c-0.036-0.247-0.167-0.498-0.32-0.729c-0.097-0.122-0.328-0.211-0.364-0.338c-0.208-1.127-1.124-1.127-1.948-1.15
		c-0.497,0-0.713-0.111-0.83-0.649c-0.177-0.956-1.296-1.654-2.222-1.507c-0.133,0.011-0.305,0.011-0.36,0.102
		c-0.946,1.343-2.307,0.618-3.471,0.607c-0.952-0.012-1.484-0.94-1.839-1.776c-0.338-0.864-0.052-1.697,0.578-2.303
		c0.526-0.537,1.165-0.537,1.695,0.05c0.597,0.619,1.128,0.817,1.726-0.05c0.229-0.397,0.784-0.739,0.866-1.133
		c0.146-1.059-0.669-1.097-1.413-1.027c-0.03-0.915,1.018-1.62,1.812-1.413c0.628,0.152,1.321,0.152,1.976,0.108
		c1.448-0.171,2.909-0.371,4.589-0.547c-0.141-0.406-0.197-0.984-0.485-1.382c-0.527-0.652-1.179-0.387-1.833,0.03
		c-0.536-0.978-1.371-1.448-2.434-1.608c-0.394-0.064-0.712-0.494-1.118-0.574c-0.947-0.213-1.24,0.815-1.913,1.123
		c-0.345,0.18-0.663,0.56-0.963,0.546c-1.157-0.015-1.887,0.641-2.551,1.44c-1.046,1.28-2.367,0.656-2.772-0.6
		c-0.207-0.691-1.128-0.855-1.691-0.327c-0.456,0.447-0.89,0.927-1.321,1.395c-0.839-0.672-0.733-1.759,0.314-2.264
		c0.531-0.305,0.81-0.498,0.39-1.148c-0.192-0.331-0.016-0.823-0.102-1.259c-0.065-0.347-0.238-1-0.354-0.984
		c-0.517,0-1.089,0.147-1.553,0.394c-0.234,0.096-0.335,0.507-0.639,0.728c0.036-0.597,0.045-1.207,0.112-1.806
		c0.051-0.629-0.178-0.974-0.815-0.867c-0.684,0.118-1.048-0.227-1.449-0.773c-0.633-0.845-1.523-1.429-2.667-1.409
		c-0.978,0-1.994,0.176-2.874-0.453c-0.138-0.084-0.493-0.051-0.542,0.031c-0.107,0.204-0.151,0.449-0.107,0.667
		c0.066,0.218,0.274,0.429,0.476,0.495c0.875,0.35,1.762,0.654,2.612,1.012c0.231,0.098,0.455,0.406,0.49,0.669
		c0.035,0.218-0.141,0.598-0.344,0.685c-1.135,0.671-1.26,0.629-2.181-0.305c-0.167-0.162-0.461-0.302-0.689-0.342
		c-1.057-0.158-1.645-0.749-1.751-1.845c0-0.073,0.011-0.143,0-0.2c-0.272-0.867,0.705-2.314-0.866-2.604
		c-0.925-0.186-1.953,0.279-2.955,0.408c-0.269,0.031-0.562,0-0.83,0c0.097-0.522,0.097-1.404,0.268-1.463
		c1.266-0.275,1.701-1.364,2.395-2.24c0.166,0.094,0.309,0.111,0.319,0.203c0.327,1.216,1.209,1.322,2.247,1.24
		c0.774-0.078,1.332-0.823,1.028-1.539c-0.077-0.145-0.518-0.277-0.716-0.199c-0.926,0.337-0.92,0.364-1.36-0.596
		c0.435-0.482,0.886-0.921,0.379-1.636c-0.091-0.105,0.116-0.445,0.263-0.625c0.435-0.689,0.88-1.409,1.371-2.071
		c0.067-0.104,0.309-0.178,0.459-0.202c0.831-0.069,1.247-0.525,1.091-1.313c-0.157-0.836,0.349-1.343,0.727-1.93
		c0.051-0.08,0.142-0.197,0.197-0.185c1.261,0.265,2.487-1.238,3.823-0.079c0.253,0.206,0.942-0.061,1.421-0.092
		c0.315,0,0.629-0.077,0.921,0c0.432,0.092,0.87,0.488,1.251,0.406c1.633-0.3,2.566,0.785,3.679,1.604
		c1.002,0.719,2.192,1.159,3.29,1.782c0.404,0.227,0.83,0.526,1.092,0.864c0.381,0.512,0.796,0.592,1.327,0.397
		c0.573-0.169,0.851-0.513,0.766-1.068c-0.223-1.489,0.9-2.217,1.771-3.029c0.359-0.326,1.128-0.394,1.418,0.235
		c0.277,0.54,0.651,0.592,1.123,0.49c0.993-0.19,1.894-0.019,2.703,0.617c0.805,0.625,1.867,0.534,2.733-0.119
		c0.805-0.58,0.664-1.465,0.542-2.231c-0.076-0.362-0.693-0.691-1.124-0.895c-0.758-0.338-0.81-0.986-0.81-1.709
		c0.346,0.305,0.618,0.723,1.022,0.921c0.491,0.221,1.084,0.362,1.594,0.273c0.163-0.029,0.324-0.841,0.311-1.25
		c-0.082-1.108-1.186-2.249-2.245-2.231c-0.374,0-0.763,0.516-1.031,0.857c-0.147,0.174-0.045,0.54-0.03,0.887
		c-1.13-0.9-2.404-1.103-3.574-0.404c-1.104,0.687-2.04,1.187-3.386,0.478c-0.486-0.254-0.988-0.233-1.209-0.911
		c-0.127-0.313-0.573-0.554-0.866-0.85c-0.403-0.373-0.537-0.7-0.05-1.174c0.708-0.687,1.457-0.969,2.439-0.934
		c0.339,0.017,0.935-0.265,0.977-0.472c0.071-0.641-0.547-0.441-0.931-0.522c-0.212-0.051-0.424-0.193-0.653-0.313
		c0.178-0.201,0.34-0.539,0.562-0.573c1.185-0.273,2.404-0.396,3.578-0.676c0.526-0.125,1.067-0.402,1.487-0.748
		c0.146-0.097,0.086-0.712-0.095-0.946c-0.275-0.35-0.755-0.493-1.079-0.789c-0.182-0.166-0.381-0.477-0.345-0.688
		c0.103-0.746-0.445-1.033-0.915-1.258c-0.228-0.12-0.571,0.119-0.87,0.208c-0.224,0.066-0.461,0.235-0.668,0.218
		c-0.908-0.104-1.626,0.261-2.375,0.685c-0.998,0.629-2.079,1.132-3.158,1.702c-0.855-0.589-1.706-1.017-2.87-0.611
		c-0.491,0.169-1.381-0.254-1.863-0.693c-0.678-0.609-1.326-0.82-2.227-0.744c-0.258,0.022-0.551-0.098-0.809-0.124
		c-0.025-0.172-0.049-0.249-0.03-0.282c0.936-1.078,1.812-2.261,2.904-3.134c0.462-0.421,1.408-0.27,2.288-0.421
		c-0.146,0.514-0.293,0.719-0.248,0.916c0.061,0.425,0.219,0.836,0.339,1.259c0.491-0.245,1.291-0.371,1.408-0.747
		c0.207-0.648,0.272-1.575-0.02-2.191c-0.433-0.871,0.15-1.277,0.57-1.479c0.993-0.465,2.016-1.204,3.225-0.465
		c0.363,0.209,1.66-0.613,1.802-1.048c0.197-0.627,0.231-1.378,0.617-1.845c0.455-0.507,1.169-0.81,1.822-1.073
		c1.148-0.46,2.52-0.221,3.548-1.141c0.243-0.218,0.871-0.23,1.199-0.087c1.19,0.59,2.303,1.313,3.478,1.972
		c0.577,0.321,1.254,0.499,1.76,0.925c0.416,0.36,0.633,0.977,1.018,1.406c0.263,0.292,0.733,0.689,0.997,0.608
		c0.634-0.201,1.013-0.733,0.897-1.472c-0.04-0.273-0.09-0.554-0.137-0.862c0.146-0.04,0.252-0.085,0.268-0.054
		c0.77,1.005,2.176,1.468,2.536,2.912c0.198,0.767,0.623,1.521,1.133,2.164c0.273,0.369,0.867,0.538,1.34,0.735
		c0.67,0.25,1.348,0.521,1.98,0.756c0.05,0.742,0.03,1.446,0.153,2.162c0.039,0.273,0.353,0.634,0.576,0.667
		c0.379,0.079,0.81-0.056,1.184-0.179c0.4-0.172,0.77-0.521,1.19-0.624c1.002-0.235,2.019-0.399,2.763-1.197
		c0.188-0.212,0.537-0.244,0.758-0.442c0.189-0.146,0.365-0.362,0.377-0.599c0.014-0.101-0.33-0.364-0.488-0.364
		c-0.633,0.054-0.952-0.098-1.281-0.687c-0.14-0.27-0.884-0.249-1.339-0.21c-0.704,0.029-1.012-0.195-1.043-1.131h1.574
		c0.122,0,0.279,0.077,0.349,0.032c0.652-0.472,1.235-0.986,2.072-1.064c0.024,0,0.063-0.049,0.044-0.049
		c-0.244-0.725-0.426-1.489-0.769-2.124c-0.279-0.561-0.81-0.336-1.261-0.022c-0.472,0.329-0.906,0.667-1.133,0.859
		c-1.427-0.399-2.662-0.714-3.893-1.05c-0.146-0.06-0.292-0.122-0.409-0.181c-0.552-0.415-1.088-0.801-1.797-1.308
		c0.259-0.12,0.558-0.232,0.846-0.382c0.248-0.137,0.461-0.275,0.703-0.427c-0.278-0.216-0.501-0.569-0.8-0.594
		c-0.799-0.063-1.63,0-2.431,0c-0.905,0-1.867,0.251-2.59-0.585c-0.131-0.174-0.416-0.226-0.637-0.326
		c-1.454-0.491-1.833-1.343-1.296-2.778c0.253-0.67,1.099-0.998,1.811-0.756c0.463,0.127,0.948,0.204,1.442,0.315
		c0.346,0.08,0.675,0.176,1.018,0.25c0.141,0.056,0.289,0.127,0.422,0.101c0.818-0.061,1.658-0.11,2.458-0.298
		c0.169-0.029,0.456-0.55,0.396-0.777c-0.183-0.791-0.476-1.545-0.75-2.282c-0.049-0.14-0.247-0.289-0.394-0.326
		c-0.765-0.141-0.765-0.629-0.592-1.223c0.197-0.707,0.698-0.667,1.209-0.575c0.552,0.113,1.165,0.209,1.62,0.491
		c1.083,0.669,1.993,0.155,2.992-0.13c0.673-0.185,1.392-0.324,2.084-0.396c0.74-0.058,1.508-0.106,2.258,0.014
		c0.592,0.101,1.225,0.347,1.649,0.741c0.5,0.475,0.805,0.385,1.397,0.198c0.845-0.223,1.818-0.151,2.712-0.198
		c0.097,0,0.233,0.047,0.249,0.094c0.638,1.48,1.791,0.852,2.799,0.732c1.436-0.209,1.979,0.096,2.433,1.554
		c-0.636,0.348-1.275,0.818-1.988,1.083c-0.577,0.239-0.674,0.53-0.552,1.106c0.386,1.707-0.363,2.651-2.041,3.059
		c-0.864,0.228-1.684,1.685-1.386,2.559c0.097,0.223,0.442,0.421,0.719,0.47c0.649,0.132,1.317,0.211,1.954,0.198
		c0.339-0.021,0.692-0.247,0.982-0.465c0.42-0.341,0.804-0.763,1.188-1.139c0.072-0.083,0.202-0.119,0.314-0.199
		c0.809-0.867,1.705-1.603,3.083-1.456c0.231,0.019,0.542-0.512,0.814-0.812c-0.344-0.115-0.672-0.355-0.997-0.389
		c-1.498-0.059-1.559-0.099-1.615-1.307c0.638-0.033,1.265-0.033,1.884-0.111c0.2-0.014,0.4-0.218,0.591-0.328
		c-0.137-0.217-0.288-0.449-0.456-0.588c-0.395-0.312-0.835-0.591-1.487-1.01c0.506-0.178,0.677-0.237,0.885-0.269
		c0.891-0.249,1.807-0.48,2.713-0.738c0.718-0.181,1.407-0.415,1.994,0.355c0.066,0.087,0.506-0.021,0.755-0.122
		c0.258-0.146,0.456-0.446,0.744-0.542c1.082-0.36,2.186-0.702,3.279-1.019c0.263-0.059,0.573,0.117,0.84,0.229
		c0.45,0.218,0.89,0.664,1.315,0.664c1.296-0.035,1.874,1.073,2.851,1.515c0.137,0.073,0.115,0.472,0.137,0.742
		c0.044,0.378-0.046,0.744,0.044,1.098c0.102,0.231,0.36,0.48,0.588,0.547c0.177,0.062,0.517-0.136,0.631-0.315
		c0.806-1.277,0.988-1.399,2.416-1.082c1.017,0.191,2.11,0.275,2.833,1.225c0.101,0.137,0.396,0.172,0.583,0.157
		c0.789-0.051,1.598-0.227,2.394-0.197c0.582,0.04,1.229,0.233,1.701,0.562c0.917,0.667,0.804,1.158-0.227,1.686
		c-0.366,0.218-0.74,0.465-0.972,0.784c-0.319,0.458-0.685,0.801-1.312,0.688c-0.146-0.012-0.47,0.1-0.47,0.193
		c-0.198,1.082-1.296,0.788-1.929,1.212c-0.182,0.129-1.026-0.287-1.32-0.674c-0.517-0.619-1.184-0.901-2.393-0.643
		c-0.756,0.159-1.044,0.685-0.963,1.434c-0.744,0.204-1.367,0.662-2.271,0.213c-0.892-0.418-2.208,0.329-2.542,1.137
		c-0.314,0.775,0.045,1.667,0.91,2.334c0.2,0.145,0.345,0.34,0.486,0.552c0.407,0.542,1.034,0.651,1.372,0.08
		c0.365-0.721,0.901-0.757,1.576-0.697c1.006,0.094,1.744-0.379,2.215-1.28c0.184-0.339,0.557-0.603,0.82-0.897
		c0.248,0.275,0.467,0.537,0.725,0.763c0.178,0.155,0.369,0.28,0.582,0.416c0.314,0.249,0.643,0.446,0.906,0.699
		c0.437,0.413,1.377,0.334,1.802-0.192c0.098-0.136,0.157-0.296,0.323-0.585c0.724,0.714,1.833,0.594,2.409,1.526
		c0.26,0.449,1.453,0.19,1.996-0.439c0.374,0.35,0.708,0.777,1.128,1.022c0.324,0.17,0.885,0.324,1.159,0.17
		c0.258-0.139,0.43-0.714,0.38-1.076c0-0.265-0.354-0.57-0.624-0.679c-0.723-0.317-1.534-0.549-2.328-0.813
		c0.881-1.488,1.968-2.254,3.569-2.042c0.738,0.08,0.799-0.418,0.889-1.237c0.699,0.62,1.174,1.205,1.787,1.501
		c0.522,0.23,1.312,0.261,1.767,0.018c0.758-0.408,1.381-0.371,1.407,0.493c0.05,1.498,1.135,2.189,1.984,3.144
		c0.784,0.829,1.528,1.827,1.909,2.869c0.252,0.688,0.338,1.735-0.645,2.346c-0.435,0.279-0.187,0.801,0.192,0.767
		c1.013-0.082,1.398,0.474,1.6,1.324c0.035,0.07,0.191,0.127,0.324,0.23c0.582-0.568,0.83-1.181,0.417-1.927
		c-0.417-0.763,0.166-1.895,1.037-2c0.278-0.042,0.571,0.049,0.808-0.052c0.273-0.077,0.552-0.263,0.679-0.493
		c0.07-0.089-0.186-0.402-0.303-0.597c-0.547-0.875-1.119-1.725-1.721-2.653c0.86-0.545,1.757-1,2.834-1.103
		c0.471-0.01,0.98-0.148,1.402-0.357c0.724-0.396,1.361-0.9,2.075-1.324c0.326-0.162,0.79-0.423,0.998-0.305
		c0.981,0.585,1.82-0.104,2.757-0.119c0.562-0.019,1.341,0.209,1.722,0.568c0.567,0.662,1.188,0.603,1.863,0.643
		c0.242,0,0.469,0.03,0.63,0.159c0.826,1.566,2.015,2.66,3.822,3.271c-0.349,0.134-0.728,0.235-1.018,0.45
		c-0.228,0.141-0.395,0.442-0.459,0.686c-0.016,0.084,0.343,0.291,0.556,0.422c0.688,0.362,1.665,0.179,1.813,0.689
		c-0.319,0.509-0.557,1.11-1.028,1.469c-0.247,0.197-0.813,0.035-1.246-0.058c-0.748-0.185-1.503-0.679-2.206-0.618
		c-0.713,0.061-1.422,0.552-2.045,0.97c-0.612,0.381-0.855,0.43-1.229-0.294c-0.279-0.537-0.906-0.873-1.407-1.27
		c-0.101-0.043-0.456,0.047-0.522,0.148c-0.085,0.193-0.152,0.545-0.035,0.674c0.506,0.562,0.749,1.202,1.016,1.932
		c0.437,1.124,2.304,1.354,3.281,0.531c1.204-1.008,1.164-0.895,2.55-0.329c0.765,0.329,1.746,0.292,2.617,0.231
		c0.582-0.035,0.972,0,1.245,0.58c0.126,0.251,0.436,0.413,0.679,0.632c0.43,0.342,0.459,0.622,0,1
		c-0.973,0.836-1.938,1.712-2.875,2.604c-0.07,0.079,0.112,0.625,0.222,0.625c0.354,0.042,0.779,0.042,1.042-0.122
		c1.367-0.857,3.609-0.967,4.753,0.478c0.242,0.343,0.84,0.359,1.289,0.521c0.448,0.178,0.873,0.394,1.298,0.611
		c0,0.098,0.004,0.216,0.004,0.326c-0.926,0.597-1.852,1.312-2.838,1.85c-0.285,0.164-0.794-0.016-1.185-0.132
		c-0.591-0.199-1.139-0.552-1.742-0.678c-0.95-0.174-1.958-0.204-2.913-0.256c-0.327-0.028-0.831,0-0.917,0.193
		c-0.426,0.752-1.179,0.505-1.767,0.688c-0.187,0.052-0.643-0.411-0.764-0.751c-0.085-0.146,0.197-0.569,0.445-0.728
		c0.405-0.277,0.896-0.399,1.381-0.592c-0.36-0.709-0.749-0.897-1.437-0.757c-0.841,0.151-1.671,0.099-2.555-0.229
		c-0.816-0.292-1.829-0.132-2.729-0.092c-0.219,0-0.404,0.385-0.588,0.582c-0.207,0.252-0.405,0.521-0.658,0.812
		c-0.637-0.604-1.285-0.629-1.894-0.122c-0.465,0.389-0.414,0.81,0.012,1.141c0.921,0.77,1.963,0.737,2.909-0.049
		c0.598-0.477,1.049-0.141,1.063,0.375c0,0.963,0.972,1.13,1.316,1.813c0.026,0.077,0.272,0.141,0.309,0.106
		c0.749-0.756,1.494,0.035,2.227,0.035c0.198,0,0.556,0.273,0.541,0.394c-0.05,0.246-0.222,0.569-0.44,0.67
		c-0.354,0.164-0.774,0.12-1.149,0.229c-1.144,0.341-2.267,0.679-3.355,1.09c-0.182,0.082-0.284,0.547-0.284,0.827
		c0,0.352,0.146,0.729,0.224,1.122c-0.47-0.052-0.928-0.052-1.368-0.164c-0.12-0.012-0.178-0.275-0.247-0.373
		c-0.846,0.31-0.86,0.916-0.74,1.423c0.087,0.357,0.46,0.671,0.789,0.938c0.35,0.277,0.775,0.404,1.15,0.646
		c0.689,0.507,1.458,0.334,1.827-0.473c0.329-0.656,1.361-0.945,2.034-0.656c0.562,0.216,1.165,0.381,1.721,0.461
		c1.058,0.152,1.65,0.753,1.989,1.699c0.46,1.31,1.336,1.874,2.708,1.95c0.703,0.039,1.418,0.338,2.146,0.371
		c0.375,0.022,0.795-0.203,1.154-0.438c0.785-0.521,1.508-1.155,2.322-1.618c0.79-0.471,1.202-0.28,1.539,0.556
		c0.335,0.776,0.629,1.556,0.952,2.396c-1.502,0.447-0.673,1.796-0.825,2.74c-0.106,0.776-0.576,1.625,0.025,2.425
		c0.047,0.05-0.465,0.756-0.712,0.725c-0.583-0.04-1.176-0.249-1.67-0.542c-0.806-0.491-1.296-0.56-1.639,0.262
		c-0.35,0.863-0.927,0.652-1.53,0.67c-0.41,0.015-0.86,0.049-1.213,0.229c-0.78,0.378-1.474,0.858-2.183,1.324
		c-0.035,0-0.07,0.047-0.085,0.032c-1.498-0.36-2.598,1.056-4.034,0.861c-0.791-0.122-1.595-0.397-2.369-0.662
		c-0.141-0.073-0.178-0.464-0.279-0.72c-0.111-0.301-0.141-0.671-0.37-0.871c-0.495-0.454-0.997-0.914-1.618-1.174
		c-0.283-0.134-0.761,0.229-1.169,0.342c0.208,0.476,0.252,1.16,0.605,1.392c0.548,0.324,0.391,0.599,0.199,0.93
		c-0.278,0.488-0.582,0.971-0.855,1.444c-0.967-0.414-1.959-1.113-3.017-1.228c-1.072-0.115-2.203,0.367-3.3,0.588
		c-0.319-0.98-0.319-0.98-1.548-1.136c-0.886-0.145-1.827-0.516-2.688,0.224c-0.051,0.049-0.475-0.19-0.597-0.387
		c-0.43-0.54-0.773-1.118-1.169-1.685c-0.097-0.127-0.324-0.225-0.46-0.191c-0.436,0.049-1.276,1.654-1.24,2.107
		c0.03,0.407,0,0.878-0.173,1.242c-0.272,0.531-0.728,0.985-0.996,1.494c-0.156,0.262-0.208,0.66-0.147,0.971
		c0.055,0.146,0.471,0.356,0.643,0.3c0.354-0.093,0.9-0.354,0.921-0.586c0.106-1.252,1.255-1.612,1.979-2.305
		c0.303-0.282,1.087-0.314,1.451,0.328c0.132,0.178,0.34,0.305,0.457,0.491c0.773,1.062,1.923,0.718,2.949,0.703
		c0.704,0,1.185,0.063,1.109,0.934c0,0.16,0.102,0.435,0.197,0.457c1.54,0.442,2.769,1.665,4.49,1.681
		c0.804,0,1.539,0.366,1.564,1.413c0.05,0.792,1.513,1.503,2.413,1.27c0.558-0.136,1.108-0.176,1.676-0.267
		c0.866-0.169,1.272,0.267,1.29,1.078c0,0.681,0.254,0.88,0.961,0.963c0.599,0.044,1.156,0.395,1.666,0.577
		c-0.071,1.061-0.182,1.982-0.172,2.877c0.036,1.19-1.001,2.04-2.049,1.52c-0.947-0.456-1.588-0.062-2.287,0.343
		c-0.183,0.073-0.334,0.178-0.496,0.269c-0.734,0.342-1.407,0.735-0.163,1.798c-0.623-0.049-1.001,0.031-1.118-0.084
		c-0.699-0.789-1.498-0.937-2.556-0.818c-0.532,0.061-1.204-0.378-1.706-0.756c-0.435-0.326-0.892-0.422-1.168-0.064
		c-0.128,0.17,0.176,0.702,0.293,1.054c0.071,0.101,0.182,0.143,0.283,0.233c0.471,0.394,1.093,0.845,0.515,1.452
		c-0.277,0.284-0.99,0.178-1.507,0.188c-0.329,0-0.647-0.087-0.977-0.129c-0.618-0.094-1.095-0.244-1.413-0.93
		c-0.125-0.298-0.846-0.359-1.311-0.476c-0.222-0.063-0.48,0.08-0.663,0.016c-0.643-0.342-1.442-0.049-1.64,0.62
		c-0.111,0.442-0.015,0.832,0.556,0.752c1.038-0.149,1.657,0.222,2.133,1.183c0.206,0.399,1.052,0.586,1.634,0.725
		c0.527,0.089,0.981,0.089,0.921,0.8v0.098c0.076,0.627,1.417,1.061,0.251,1.921c-0.625,0.466-1.123,1.058-1.694,1.61
		c-0.198,0.169-0.476,0.308-0.552,0.539c-0.466,1.199-1.412,1.739-2.557,2.068c-0.197,0.059-0.429,0.099-0.622,0.171
		c-1.214,0.561-1.937,0.318-2.541-0.927c-0.44-0.882-1.038-0.882-1.944-0.442c-0.804,0.362-1.781,0.508-2.682,0.576
		c-0.973,0.078-2.003-0.155-2.288,1.231c-0.765-1.021-1.352-1.27-2.312-0.938c-0.178-0.853-0.875-0.811-1.539-0.901
		c-0.704-0.103-0.875,0.387-1.134,0.906c-0.188,0.394-0.618,0.696-0.957,1.026c-0.323,0.294-0.638,0.607-1.017,0.942
		c-0.649-0.913-1.083-0.811-1.641,0.201c-0.395,0.744-1.638,0.772-2.241,0.213c-0.476-0.471-0.344-1.282,0.292-1.888
		c0.107-0.112,0.233-0.306,0.198-0.422c-0.04-0.129-0.258-0.237-0.41-0.246c-0.242-0.027-0.49-0.019-0.718,0
		c-0.901,0.148-1.388-0.227-1.736-1.029c-0.183-0.436-0.743-0.709-1.17-1.009c-0.191-0.139-0.49-0.103-0.783-0.169
		c0.182-0.898,0.612-1.296,1.497-1.281c0.91,0.041,1.049-0.224,0.688-1.093c-0.384,0.046-0.774,0.12-1.144,0.093
		c-0.79-0.047-1.194,0.256-1.438,1.057c-0.122,0.436-0.616,0.906-1.062,1.108c-1.463,0.623-2.071,1.928-2.654,3.234
		c-0.587,1.247-0.93,2.625-1.573,3.838c-0.987,1.858-0.37,3.675-0.066,5.52c0.04,0.269,0.355,0.513,0.567,0.78
		c0.851,0.951,1.94,1.617,2.374,2.947c0.309,0.944,1.245,1.355,2.196,1.488c4.364,0.637,8.666,1.492,12.928,2.617
		c4.214,1.142,8.291,2.634,11.959,4.238c-27.7-8.393-55.75-8.427-83.854-0.118c2.089-0.8,4.148-1.714,6.31-2.418
		c2.745-0.885,5.507-1.734,8.317-2.4c3.355-0.756,6.792-1.345,10.209-1.919c1.756-0.291,3.527-0.373,5.282-0.635
		c0.401-0.052,0.751-0.348,1.083-0.562c0.972-0.552,2.01-1.027,2.89-1.7c0.568-0.437,0.897-1.165,1.306-1.806
		c0.745-1.193,1.479-2.436,2.228-3.665c0.106-0.175,0.187-0.36,0.238-0.562c0.264-1.757,0.507-3.492,0.718-5.224
		c0.127-0.805,0.253-1.611,0.229-2.423c-0.004-1.389-0.79-2.411-1.918-3.127c-0.836-0.559-1.746-0.998-2.643-1.472
		c-1.867-0.987-3.812-0.493-5.725-0.195c-0.329,0.044-0.577,0.484-0.855,0.765c-0.226,0.265-0.459,0.509-0.684,0.782
		c-0.116,0.131-0.278,0.351-0.247,0.433c0.491,0.814-0.132,0.91-0.647,1.152c-0.275,0.135-0.578,0.45-0.612,0.68
		c-0.032,0.247,0.262,0.567,0.5,0.747c0.598,0.491,0.582,1.164-0.107,1.54c-0.131,0.061-0.282,0.138-0.404,0.211
		c-0.971,0.709-1.969,0.362-2.348-0.836c-0.318-1.111-1.245-1.662-2.389-1.471c-1.185,0.183-2.378,0.275-3.537,0.622
		c-0.396,0.12-0.698,0.78-0.968,1.233c-0.206,0.301-0.176,0.785-0.41,1.065c-0.808,0.927-0.91,1.193-0.243,2.317
		c0.779,1.225-0.207,2.292-1.104,2.489c-0.263,0.065-0.582-0.14-0.89-0.232c0.157-0.354,0.161-0.912,0.43-1.065
		c0.657-0.406,0.567-0.648,0.015-1.011c-0.298-0.188-0.551-0.494-0.85-0.676c-0.318-0.172-0.78-0.44-1.032-0.324
		c-1.397,0.624-2.774,0.11-4.182,0.14c-0.162,0-0.339-0.076-0.42,0c-0.561,0.411-1.03,0.284-1.36-0.235
		C49.079,95.849,48.949,95.337,48.791,95.019"/>
	<path d="M164.066,112.205l20.108,0.013l4.945-12.307l26.612,0.018l5.005,12.322l20.487,0.027l-29.289-69.524h-18.439
		L164.066,112.205z M194.752,85.037l7.769-19.6l7.688,19.6H194.752z M276.051,113.498c16.732,0.014,27.867-8.353,27.892-22.453
		v-0.187c0.012-12.925-9.817-18.068-25.71-21.529c-9.53-2.167-11.909-3.559-11.899-6.705l-0.01-0.195
		c0.01-2.472,2.282-4.413,6.913-4.413c6.104,0,12.998,2.361,19.33,6.788l9.551-13.469c-7.491-6.029-16.647-9.202-28.373-9.213
		c-16.557-0.014-26.709,9.237-26.72,22.06v0.195c-0.025,14.192,11.308,18.344,25.989,21.714c9.363,2.181,11.636,3.733,11.636,6.616
		v0.194c0,2.947-2.772,4.716-7.915,4.716c-7.986,0-15.553-2.855-22.331-8.299l-10.688,12.704
		C252.188,109.634,263.828,113.477,276.051,113.498 M311.52,112.338l19.133,0.031l0.01-26.223l24.558,0.03l-0.036,26.21
		l19.126,0.009l0.062-69.002l-19.116-0.014l-0.021,25.812l-24.557-0.016l0.016-25.812l-19.107-0.033L311.52,112.338z
		 M419.031,113.83c21.287,0.02,37.281-16.048,37.295-35.853l-0.014-0.218c0.031-19.793-15.741-35.69-37.008-35.7
		c-21.293,0-37.276,16.028-37.276,35.854l-0.021,0.195C382.007,97.929,397.759,113.801,419.031,113.83 M419.243,96.568
		c-10.425-0.012-17.622-8.687-17.622-18.654v-0.189c0.01-9.94,6.995-18.417,17.461-18.417c10.552,0.033,17.739,8.69,17.725,18.639
		l0.015,0.209C436.807,88.104,429.793,96.579,419.243,96.568 M463.014,112.479h19.097l0.029-17.824l7.021-7.794l17.294,25.649
		l22.989,0.03l-27.014-39.367l26.181-29.626l-22.672-0.021L482.15,71.494l0.025-28.001l-19.096-0.014L463.014,112.479z
		 M532.672,112.525l20.106,0.033l4.932-12.329l26.632,0.039l5.006,12.318l20.491,0.026L580.53,43.1l-18.426-0.026L532.672,112.525z
		 M563.349,85.373l7.804-19.617l7.658,19.617H563.349z"/>
	<path fill="#FFFFFF" d="M626.063,35.794L639.2,95.212c5.35,23.376,21.304,30.071,42.172,25.274
		c20.889-4.79,32.427-17.841,27.062-41.192l-13.127-59.417l-20.277,4.67l13.073,59.252c2.343,10.141-0.98,16.494-10.847,18.76
		c-9.859,2.249-15.479-2.019-17.821-12.149l-13.071-59.282L626.063,35.794z"/>
	<polyline fill="#E95B10" points="674.934,10.005 703.889,29.744 722.449,18.526 	"/>
	
		<text transform="matrix(1 8.999996e-04 -8.999996e-04 1 310.7061 145.6338)" fill="#F1852D" font-family="'MyriadPro-Regular'" font-size="28.6813">C</text>
	
		<text transform="matrix(1 8.999996e-04 -8.999996e-04 1 327.373 145.6221)" fill="#F1852D" font-family="'MyriadPro-Regular'" font-size="28.6813">H</text>
	
		<text transform="matrix(1 8.999996e-04 -8.999996e-04 1 346.1025 145.6152)" fill="#F1852D" font-family="'MyriadPro-Regular'" font-size="28.6813">A</text>
	
		<text transform="matrix(1 8.999996e-04 -8.999996e-04 1 363.6826 145.6016)" fill="#F1852D" font-family="'MyriadPro-Regular'" font-size="28.6813">N</text>
	
		<text transform="matrix(1 8.999996e-04 -8.999996e-04 1 382.584 145.5879)" fill="#F1852D" font-family="'MyriadPro-Regular'" font-size="28.6813">G</text>
	
		<text transform="matrix(1 8.999996e-04 -8.999996e-04 1 401.1426 145.5713)" fill="#F1852D" font-family="'MyriadPro-Regular'" font-size="28.6813">E</text>
	
		<text transform="matrix(1 8.999996e-04 -8.999996e-04 1 415.1396 145.6758)" fill="#F1852D" font-family="'MyriadPro-Regular'" font-size="28.6813">MA</text>
	
		<text transform="matrix(1 8.999996e-04 -8.999996e-04 1 455.5234 145.6748)" fill="#F1852D" font-family="'MyriadPro-Regular'" font-size="28.6813">K</text>
	
		<text transform="matrix(1 8.999996e-04 -8.999996e-04 1 471.0938 145.665)" fill="#F1852D" font-family="'MyriadPro-Regular'" font-size="28.6813">E</text>
	
		<text transform="matrix(1 8.999996e-04 -8.999996e-04 1 485.2334 145.6758)" fill="#F1852D" font-family="'MyriadPro-Regular'" font-size="28.6813">R</text>
	
		<text transform="matrix(1 8.999996e-04 -8.999996e-04 1 506.6836 145.7305)" fill="#F1852D" font-family="'MyriadPro-Regular'" font-size="28.6813">CA</text>
	
		<text transform="matrix(1 8.999996e-04 -8.999996e-04 1 540.874 145.7568)" fill="#F1852D" font-family="'MyriadPro-Regular'" font-size="28.6813">M</text>
	
		<text transform="matrix(1 8.999996e-04 -8.999996e-04 1 563.9658 145.749)" fill="#F1852D" font-family="'MyriadPro-Regular'" font-size="28.6813">P</text>
	
		<text transform="matrix(1 8.999996e-04 -8.999996e-04 1 579.25 145.7627)" fill="#F1852D" font-family="'MyriadPro-Regular'" font-size="28.6813">U</text>
	
		<text transform="matrix(1 8.999996e-04 -8.999996e-04 1 597.8369 145.752)" fill="#F1852D" font-family="'MyriadPro-Regular'" font-size="28.6813">S</text>
</g>
</svg>
