<?xml version="1.0" encoding="utf-8"?>
<!-- Generator: Adobe Illustrator 15.0.0, SVG Export Plug-In . SVG Version: 6.00 Build 0)  -->
<!DOCTYPE svg PUBLIC "-//W3C//DTD SVG 1.1//EN" "http://www.w3.org/Graphics/SVG/1.1/DTD/svg11.dtd">
<svg version="1.1" id="Layer_1" xmlns="http://www.w3.org/2000/svg" xmlns:xlink="http://www.w3.org/1999/xlink" x="0px" y="0px"
	 width="1099px" height="816px" viewBox="0 0 1099 816" enable-background="new 0 0 1099 816" xml:space="preserve">
<path fill="#04358E" d="M307.813,266.731c-0.179,3.896-0.497,7.896-0.72,11.755h2.264c0.805-3.2,1.539-5.339,2.538-6.477
	c0.938-1.272,2.211-1.869,7.688-1.869h3.008v31.995c0,5.543-0.673,6.075-6.417,6.547v2.131h20.836v-2.131
	c-6.075-0.473-6.67-1.006-6.67-6.547V270.14h3.604c4.347,0,5.812,0.396,7.009,1.737c1.012,1.139,1.809,3.2,2.606,6.548l2.207-0.14
	c-0.276-3.458-0.557-7.866-0.645-11.556L307.813,266.731L307.813,266.731z"/>
<path fill="#04358E" d="M365.66,304.613c-4.073,5.671-9.086,7.003-11.622,7.003c-8.616,0-13.489-6.609-13.489-14.287
	c0-4.873,1.937-9.091,4.742-11.886c2.868-3.01,6.538-4.814,10.079-4.814c5.943,0,10.556,5.145,10.556,10.483
	c0,1.344-0.406,2.138-1.798,2.342c-1.21,0.2-9.424,0.797-16.435,1.066c0.201,7.881,4.608,11.555,9.346,11.555
	c2.608,0,5.145-0.938,7.483-3.068L365.66,304.613z M348.024,291.518c3.076,0,6.013-0.064,9.081-0.204c1.07,0,1.471-0.2,1.535-1.268
	c0-3.472-1.801-6.814-4.744-6.814C351.161,283.23,348.623,286.239,348.024,291.518"/>
<path fill="#04358E" d="M394.945,304.54c-3.008,4.136-7.416,7.083-11.423,7.083c-8.879,0-14.087-6.882-14.087-14.098
	c0-5.012,2.396-9.614,6.738-12.888c4.008-3.011,8.279-4.009,10.889-4.009c2.464,0,4.673,0.733,5.804,1.664
	c0.938,0.746,1.208,1.41,1.208,2.277c-0.066,1.738-1.673,3.402-2.672,3.402c-0.404,0-0.806-0.194-1.403-0.726
	c-2.471-2.21-4.672-3.208-6.751-3.208c-3.269,0-6.538,2.936-6.538,10.08c0,9.021,6.337,11.956,9.546,11.956
	c2.805,0,4.813-0.735,7.477-3.068L394.945,304.54z"/>
<path fill="#04358E" d="M416.436,310.816v-2.005c3.199-0.396,3.603-0.729,3.603-5.471v-11.222c0-4.741-2.068-6.751-5.138-6.751
	c-2.054,0-3.992,1.071-5.797,2.544v15.955c0,4.279,0.406,4.548,3.542,4.944v2.005h-15.491v-2.005
	c4.272-0.528,4.605-0.729,4.605-5.137v-13.824c0-4.144-0.332-4.348-3.733-5.015v-1.804c3.53-0.465,7.477-1.404,11.078-2.604v5.075
	c1.332-0.939,2.676-1.938,4.28-2.937c1.921-1.271,3.387-1.937,5.322-1.937c5.339,0,8.615,3.874,8.615,10.483v12.693
	c0,4.341,0.394,4.54,4.07,5.005v2.005L416.436,310.816L416.436,310.816z"/>
<path fill="#04358E" d="M464.325,295.589c0,10.753-7.81,16.031-15.157,16.031c-10.02,0-15.294-7.479-15.294-14.825
	c0-10.884,8.552-16.162,15.49-16.162C458.317,280.632,464.325,287.514,464.325,295.589 M442.214,294.453
	c0,8.286,3.013,14.695,7.688,14.695c3.134,0,6.084-2.132,6.084-11.755c0-8.751-2.678-14.358-7.49-14.358
	C445.226,283.035,442.214,286.837,442.214,294.453"/>
<path fill="#04358E" d="M466.687,310.816v-2.005c4.062-0.528,4.464-0.869,4.464-5.209v-30.924c0-4.207-0.318-4.4-4.191-4.805v-1.876
	c3.661-0.394,8.339-1.401,11.548-2.332v39.938c0,4.479,0.468,4.812,4.601,5.209v2.005H466.687z"/>
<path fill="#04358E" d="M515.857,295.592c0,10.755-7.823,16.032-15.163,16.032c-10.021,0-15.304-7.484-15.304-14.832
	c0-10.879,8.553-16.164,15.498-16.164C509.842,280.628,515.857,287.506,515.857,295.592 M493.738,294.461
	c0,8.282,3.004,14.691,7.689,14.691c3.14,0,6.075-2.142,6.075-11.756c0-8.754-2.679-14.357-7.491-14.357
	C496.742,283.039,493.738,286.841,493.738,294.461 M498.348,277.154c1.014-2.872,3.209-9.546,3.678-10.817
	c0.665-0.402,5.606-0.935,6.613-0.735l0.333,0.666l-8.688,11.824L498.348,277.154z"/>
<path fill="#04358E" d="M549.88,282.036c-0.47,1.132-1.727,3.135-2.869,3.802l-3.813-0.27c1.082,1.4,1.81,3.145,1.81,5.415
	c0,7.075-6.145,10.557-12.351,10.557c-1.142,0-2.285-0.205-3.344-0.337c-0.605,0.529-1.271,1.395-1.271,2.201
	c0,1.131,1.135,2.536,4.207,2.536c2.27,0,4.343-0.133,6.478-0.133c4.206,0,10.02,1.271,10.02,8.081
	c0,7.35-8.482,13.566-17.36,13.566c-8.225,0-12.16-4.413-12.16-8.154c0-1.535,0.665-2.666,1.867-3.673
	c1.545-1.332,3.61-2.676,5.216-3.805c-2.61-0.938-4.077-2.271-4.941-3.742c-0.666-1-1-2.471-0.878-3.269
	c3.148-1.204,5.281-3.008,6.485-4.279c-3.67-1.332-6.35-4.609-6.35-8.88c0-7.544,6.887-11.017,12.623-11.017
	c2.541,0,4.538,0.525,6.886,1.737c3.405-0.134,6.879-0.538,9.414-0.871L549.88,282.036z M527.875,313.424
	c-1.211,1.131-2.082,2.403-2.082,4.007c0,3.409,3.543,6.405,8.688,6.405c5.546,0,8.618-2.932,8.618-6.671
	c0-2.338-1.407-3.875-3.473-4.476c-1.734-0.537-3.338-0.666-5.957-0.666C530.401,312.025,528.934,312.358,527.875,313.424
	 M528.178,290.583c0,4.809,1.86,8.547,5.205,8.615c2.739-0.067,4.549-2.743,4.549-7.749c0-4.68-1.81-8.546-5.215-8.546
	C530.372,282.902,528.178,285.569,528.178,290.583"/>
<path fill="#04358E" d="M551.847,310.82v-2.009c4.012-0.464,4.405-0.732,4.405-5.406v-13.42c0-4.278-0.395-4.542-3.875-5.077v-1.872
	c3.813-0.465,7.816-1.336,11.228-2.474v22.844c0,4.541,0.333,4.943,4.481,5.406v2.009L551.847,310.82L551.847,310.82z
	 M555.192,271.611c0-2.403,1.997-4.279,4.268-4.279c2.407,0,4.274,1.876,4.274,4.279c0,2.27-1.867,4.208-4.334,4.208
	C557.189,275.819,555.192,273.882,555.192,271.611"/>
<path fill="#04358E" d="M595.57,304.54c-3.013,4.136-7.416,7.083-11.412,7.083c-8.897,0-14.104-6.882-14.104-14.098
	c0-5.012,2.406-9.614,6.75-12.888c4.011-3.011,8.279-4.009,10.888-4.009c2.476,0,4.669,0.733,5.805,1.664
	c0.937,0.746,1.212,1.41,1.212,2.277c-0.076,1.738-1.673,3.402-2.68,3.402c-0.394,0-0.801-0.194-1.393-0.726
	c-2.482-2.21-4.685-3.208-6.75-3.208c-3.284,0-6.547,2.936-6.547,10.08c0,9.021,6.35,11.956,9.544,11.956
	c2.814,0,4.812-0.735,7.482-3.068L595.57,304.54z"/>
<path fill="#04358E" d="M628.207,295.589c0,10.753-7.815,16.031-15.164,16.031c-10.021,0-15.293-7.479-15.293-14.825
	c0-10.884,8.543-16.162,15.497-16.162C622.191,280.632,628.207,287.514,628.207,295.589 M606.09,294.453
	c0,8.286,3.011,14.695,7.687,14.695c3.134,0,6.075-2.132,6.075-11.755c0-8.751-2.67-14.358-7.482-14.358
	C609.101,283.035,606.09,286.837,606.09,294.453"/>
<path fill="#04358E" d="M681.204,309.587c-1.531,0.273-7.344,1.075-12.088,2.602v-4.062l-4.074,2.535
	c-1.998,1.195-3.27,1.468-4.007,1.468c-5.608,0-13.22-4.737-13.22-14.499c0-9.149,8.013-16.496,17.899-16.496
	c0.665,0,1.868,0.145,3.401,0.477v-8.559c0-3.875-0.4-4.131-4.741-4.601v-1.937c4.014-0.469,9.014-2.301,12.087-3.232v39.896
	c0,3.677,0.401,3.941,3.076,4.274l1.665,0.197L681.204,309.587L681.204,309.587z M669.116,287.278
	c-1.261-2.332-3.401-3.467-5.607-3.467c-2.132,0-7.406,2.067-7.406,12.017c0,8.15,4.801,11.564,8.343,11.564
	c1.605,0,3.141-0.538,4.672-1.536L669.116,287.278L669.116,287.278z"/>
<path fill="#04358E" d="M708.48,305.122c-4.067,5.676-9.08,7.008-11.623,7.008c-8.607,0-13.48-6.613-13.48-14.287
	c0-4.889,1.937-9.096,4.742-11.897c2.867-3.003,6.542-4.812,10.082-4.812c5.945,0,10.551,5.146,10.551,10.489
	c0,1.332-0.4,2.134-1.805,2.345c-1.202,0.196-9.413,0.794-16.427,1.059c0.2,7.885,4.612,11.563,9.353,11.563
	c2.602,0,5.138-0.938,7.477-3.072L708.48,305.122z M690.853,292.03c3.077,0,6.005-0.075,9.082-0.211
	c1.069,0,1.475-0.197,1.543-1.257c0-3.481-1.805-6.81-4.748-6.81C693.993,283.753,691.459,286.749,690.853,292.03"/>
<path fill="#04358E" d="M759.976,311.328v-2.135c5.206-0.544,5.478-1.006,5.478-7.483l-0.204-26.243h-0.272l-15.294,35.393h-1.729
	L733.859,276.2h-0.201l-0.87,18.032c-0.269,5.54-0.269,8.544-0.061,10.889c0.193,3.066,1.597,3.602,6.075,4.004v2.203H722.9v-2.203
	c3.805-0.333,5.077-1.408,5.478-3.875c0.406-2.2,0.868-5.477,1.404-12.492l0.998-13.424c0.607-8.012,0.142-8.679-5.741-9.216v-2.195
	h12.825l13.692,30.721l13.963-30.721h12.682v2.195c-5.546,0.537-5.879,0.877-5.735,6.946l0.666,24.646
	c0.129,6.478,0.401,6.938,5.881,7.483v2.135H759.976z"/>
<path fill="#04358E" d="M810.577,296.102c0,10.746-7.81,16.028-15.149,16.028c-10.033,0-15.302-7.476-15.302-14.825
	c0-10.888,8.552-16.163,15.499-16.163C804.569,281.142,810.577,288.021,810.577,296.102 M788.474,294.967
	c0,8.279,3.004,14.688,7.681,14.688c3.133,0,6.084-2.142,6.084-11.751c0-8.749-2.679-14.364-7.491-14.364
	C791.478,283.541,788.474,287.346,788.474,294.967"/>
<path fill="#04358E" d="M831.924,311.328v-1.998c3.209-0.408,3.611-0.742,3.611-5.479v-11.222c0-4.744-2.066-6.75-5.146-6.75
	c-2.065,0-4.004,1.067-5.812,2.536v15.967c0,4.268,0.408,4.541,3.542,4.949v1.998H812.62v-1.998
	c4.284-0.538,4.616-0.742,4.616-5.146v-13.826c0-4.145-0.332-4.334-3.745-5.017v-1.793c3.542-0.476,7.482-1.415,11.085-2.603v5.079
	c1.348-0.94,2.679-1.938,4.283-2.952c1.938-1.257,3.397-1.937,5.334-1.937c5.352,0,8.62,3.875,8.62,10.496v12.682
	c0,4.336,0.4,4.548,4.071,5.017v1.998L831.924,311.328L831.924,311.328z"/>
<path fill="#04358E" d="M861.799,311.328c-1.135,0.529-2.201,0.801-2.729,0.801c-4.812,0-7.552-2.467-7.552-8.279v-18.903h-4.344
	l-0.333-0.801l1.868-2.204h2.807v-4.88l6.411-4.933l0.87,0.332v9.481h6.947c0.733,0.667,0.598,2.476-0.408,3.005h-6.539v16.694
	c0,5.28,2.398,6.008,3.876,6.008c1.332,0,2.541-0.395,3.601-0.863l0.666,2.074L861.799,311.328z"/>
<path fill="#04358E" d="M893.271,305.122c-4.07,5.676-9.079,7.008-11.623,7.008c-8.611,0-13.484-6.613-13.484-14.287
	c0-4.889,1.938-9.096,4.744-11.897c2.869-3.003,6.546-4.812,10.087-4.812c5.94,0,10.549,5.146,10.549,10.489
	c0,1.332-0.402,2.134-1.801,2.345c-1.204,0.196-9.415,0.794-16.437,1.059c0.205,7.885,4.615,11.563,9.353,11.563
	c2.604,0,5.146-0.938,7.485-3.072L893.271,305.122z M875.64,292.03c3.08,0,6.009-0.075,9.087-0.211c1.067,0,1.478-0.197,1.536-1.257
	c0-3.481-1.801-6.81-4.743-6.81C878.788,283.753,876.245,286.749,875.64,292.03"/>
<path fill="#04358E" d="M907.536,288.218c2.27-3.943,5.017-7.083,7.741-7.083c2.543,0,4.275,1.81,4.275,3.875
	c0,1.937-1.265,3.677-2.868,4.283c-0.863,0.333-1.543,0.189-1.938-0.205c-1.128-0.937-1.937-1.4-3.004-1.4
	c-1.477,0-3.066,1.271-4.336,4.335v12.358c0,4.207,0.333,4.541,5.463,4.949v1.998h-17.223v-1.998
	c3.805-0.407,4.411-0.742,4.411-4.949v-14.355c0-3.745-0.401-4.002-3.813-4.685v-1.732c3.746-0.537,7.355-1.332,11.161-2.604v7.212
	H907.536L907.536,288.218z"/>
<path fill="#04358E" d="M933.416,288.218c2.269-3.943,5-7.083,7.747-7.083c2.535,0,4.277,1.81,4.277,3.875
	c0,1.937-1.271,3.677-2.876,4.283c-0.863,0.333-1.529,0.189-1.938-0.205c-1.129-0.937-1.938-1.4-3.004-1.4
	c-1.477,0-3.081,1.271-4.353,4.335v12.358c0,4.207,0.349,4.541,5.479,4.949v1.998h-17.222v-1.998c3.805-0.407,4.41-0.742,4.41-4.949
	v-14.355c0-3.745-0.4-4.002-3.813-4.685v-1.732c3.747-0.537,7.349-1.332,11.146-2.604v7.212H933.416L933.416,288.218z"/>
<path fill="#04358E" d="M970.321,305.122c-4.071,5.676-9.08,7.008-11.615,7.008c-8.619,0-13.493-6.613-13.493-14.287
	c0-4.889,1.938-9.096,4.744-11.897c2.868-3.003,6.546-4.812,10.087-4.812c5.94,0,10.55,5.146,10.55,10.489
	c0,1.332-0.402,2.134-1.802,2.345c-1.211,0.196-9.414,0.794-16.436,1.059c0.196,7.885,4.615,11.563,9.353,11.563
	c2.604,0,5.146-0.938,7.478-3.072L970.321,305.122z M952.688,292.03c3.073,0,6.017-0.075,9.081-0.211
	c1.074,0,1.483-0.197,1.543-1.257c0-3.481-1.801-6.81-4.735-6.81C955.837,283.753,953.295,286.749,952.688,292.03"/>
<path fill="#04358E" d="M1002.859,283.873c-3.345,0.605-3.949,1.204-5.675,4.873c-1.673,3.482-3.814,9.08-7.945,18.98
	c-4.48,10.745-5.889,14.756-6.955,18.493c-0.462,1.407-1.331,1.742-2.34,1.742c-1.867,0-4.41-1.802-4.41-3.875
	c0-1.075,0.537-1.673,1.809-2.544c2.407-1.332,3.876-2.739,5.274-5.206c0.87-1.53,1.271-2.535,1.535-3.406
	c0.342-0.999,0.213-1.938-0.203-3.072c-3.126-8.951-6.606-17.904-8.142-21.506c-1.27-3.149-2.005-3.942-5.336-4.48v-1.937h15.482
	v1.937c-3.005,0.606-3.397,1.075-2.665,3.345l5.403,15.491c1.681-4.072,4.147-11.146,5.419-15.09c0.795-2.34,0.197-3.14-3.27-3.747
	v-1.937h12.017L1002.859,283.873L1002.859,283.873z"/>
<path fill="#04358E" d="M154.391,242.988c-64.981,0-117.665,52.683-117.665,117.664c0,60.01,44.923,109.52,102.964,116.746v-16.645
	c-19.396-2.922-38.739-9.498-51.641-27.195h66.342h66.342c-12.9,17.697-32.257,24.273-51.641,27.195v16.645
	c58.042-7.227,102.958-56.734,102.958-116.746C272.049,295.671,219.373,242.988,154.391,242.988 M89.45,328.037
	c5.182-5.392,44.475-43.739,51.14-50.45c16.264-16.318,13.05-29.498,13.05-29.498c18.815,14.329,11.887,29.789,1.692,39.687
	c-8.288,8.05-37.629,37.575-51.194,50.584c-21.521,20.671-18.903,37.759-14.844,52.371C73.53,374.535,66.378,352.075,89.45,328.037
	 M117.715,336.71c5.75-5.676,36.662-36.012,47.134-46.208c21.974-21.393,20.703-29.897,21.697-34.348
	c15.398,15.797,5.947,31.825-2.409,40.153c-7.312,7.286-41.647,41.973-55.605,54.706c-3.559,3.242-26.67,24.444-25.16,44.104
	C90.47,378.785,93.935,358.062,117.715,336.71 M130.989,361.431c5.725-5.541,42.122-41.357,49.063-48.123
	c22.542-21.947,21.528-28.848,21.528-28.848c9.741,23.138-3.598,35.789-11.636,43.731c-8.74,8.647-30.871,30.412-43.617,42.948
	c-32.006,31.486-20.533,56.965-20.533,56.965C105.464,413.031,110.023,381.925,130.989,361.431 M216.41,377.404
	c-7.829,7.685-4.682,4.601-17.374,17.049c-20.648,20.215-20.757,33.65-20.757,33.65c-11.515-12.651-4.451-33.678,7.937-45.803
	c5.141-5.061,14.728-14.153,21.548-20.634c13.936-13.233,18.301-17.115,20.269-22.21C233.363,361.64,221.646,371.803,216.41,377.404
	 M217.168,338.997c-7.978,8.01-23.786,23.15-36.479,35.783c-29.943,27.4-30.424,45.058-28.822,53.325
	c-22.042-25.909-4.56-45.343,6.665-56.329c5.142-5.067,36.913-36.378,44.185-43.353c25.729-24.606,25.729-31.973,25.729-31.973
	C238.215,319.6,225.138,331,217.168,338.997"/>
<g enable-background="new    ">
	<path d="M317.356,378.517c1.742-0.04,2.994-0.251,3.757-0.632c1.241-0.641,1.863-1.873,1.863-3.697v-29.815
		c0-1.811-0.592-3.024-1.772-3.641c-0.723-0.378-2.005-0.607-3.848-0.687v-1.563h21.52v1.563c-1.924,0.08-3.246,0.299-3.968,0.657
		c-1.202,0.617-1.804,1.84-1.804,3.671v29.815c0,1.724,0.481,2.876,1.443,3.457c0.962,0.582,2.404,0.872,4.328,0.872v1.562h-21.52
		V378.517z"/>
	<path d="M341.312,378.606c1.12-0.14,1.947-0.446,2.479-0.917c0.53-0.47,0.796-1.407,0.796-2.81v-18.093
		c0-1.254-0.215-2.122-0.646-2.607c-0.432-0.485-1.308-0.809-2.629-0.97v-1.473h11.661v4.418c0.981-1.482,2.228-2.709,3.741-3.681
		c1.513-0.972,3.191-1.458,5.034-1.458c2.645,0,4.693,0.682,6.146,2.044c1.452,1.362,2.179,3.756,2.179,7.183v14.877
		c0,1.382,0.235,2.274,0.707,2.675c0.471,0.4,1.258,0.672,2.359,0.812v1.473h-14.457v-1.473c1.102-0.221,1.853-0.521,2.255-0.901
		c0.4-0.381,0.6-1.242,0.6-2.585v-14.908c0-1.403-0.14-2.454-0.421-3.156c-0.48-1.262-1.433-1.893-2.854-1.893
		c-1.062,0-2.039,0.385-2.931,1.157c-0.892,0.771-1.577,1.548-2.059,2.33v16.47c0,1.343,0.2,2.204,0.602,2.585
		c0.4,0.381,1.151,0.681,2.254,0.901v1.473h-14.816V378.606z"/>
	<path d="M376.114,370.762h1.714c0.601,2.945,1.724,5.025,3.365,6.236c1.645,1.213,3.327,1.818,5.051,1.818
		c1.582,0,2.744-0.355,3.486-1.066c0.74-0.711,1.112-1.648,1.112-2.81c0-1.102-0.402-2.043-1.203-2.826
		c-0.44-0.42-1.152-0.871-2.133-1.352l-4.569-2.225c-2.403-1.181-4.128-2.464-5.17-3.847c-1.062-1.382-1.593-3.016-1.593-4.899
		c0-2.385,0.831-4.443,2.495-6.177c1.662-1.732,3.987-2.6,6.974-2.6c1.302,0,2.684,0.216,4.147,0.647
		c1.463,0.431,2.374,0.646,2.734,0.646c0.501,0,0.857-0.106,1.066-0.316c0.211-0.21,0.387-0.506,0.527-0.887h1.353v8.896h-1.563
		c-0.582-2.083-1.533-3.757-2.855-5.02c-1.322-1.262-2.866-1.894-4.629-1.894c-1.362,0-2.38,0.381-3.051,1.143
		c-0.671,0.761-1.006,1.583-1.006,2.464c0,0.722,0.3,1.443,0.901,2.165c0.58,0.741,1.683,1.502,3.307,2.284l3.365,1.623
		c2.084,1.002,3.607,1.974,4.569,2.916c1.602,1.603,2.404,3.576,2.404,5.92c0,2.284-0.827,4.414-2.48,6.387
		c-1.652,1.975-4.132,2.961-7.438,2.961c-0.821,0-1.647-0.086-2.479-0.256c-0.833-0.17-1.859-0.467-3.081-0.887l-1.053-0.36
		c-0.38-0.14-0.616-0.22-0.706-0.24c-0.091-0.021-0.205-0.03-0.347-0.03c-0.34,0-0.636,0.135-0.885,0.405
		c-0.252,0.271-0.538,0.727-0.857,1.368h-1.474V370.762z"/>
	<path d="M399.498,354.442v-1.713c0.541-0.501,1.213-1.092,2.015-1.773c1.062-0.982,2.062-1.994,3.005-3.036
		c1.863-2.044,3.557-4.238,5.079-6.583h1.562v10.399h5.862v2.706h-5.862v18.514c0,0.862,0.131,1.583,0.391,2.165
		c0.401,0.901,1.062,1.353,1.984,1.353c0.801,0,1.473-0.285,2.015-0.857c0.541-0.57,1.081-1.357,1.622-2.359l1.473,0.722
		c-0.721,1.683-1.582,3.055-2.582,4.118c-1.762,1.863-3.914,2.795-6.455,2.795c-1.442,0-2.703-0.27-3.783-0.812
		c-2.083-1.041-3.129-2.935-3.14-5.681v-19.957H399.498z"/>
	<path d="M419.997,378.606c1.081-0.181,1.822-0.451,2.224-0.812c0.601-0.541,0.902-1.513,0.902-2.916v-18.093
		c0-1.254-0.211-2.107-0.632-2.562c-0.421-0.455-1.252-0.793-2.494-1.015v-1.473h11.812v23.384c0,1.343,0.2,2.204,0.602,2.585
		c0.4,0.381,1.151,0.681,2.254,0.901v1.473h-14.667V378.606z M424.099,338.948c0.932-0.932,2.059-1.397,3.381-1.397
		c1.304,0,2.421,0.466,3.353,1.397c0.932,0.932,1.396,2.059,1.396,3.381c0,1.323-0.465,2.45-1.396,3.382s-2.049,1.397-3.353,1.397
		c-1.322,0-2.449-0.466-3.381-1.397s-1.397-2.059-1.397-3.382C422.701,341.007,423.167,339.88,424.099,338.948z"/>
	<path d="M437.099,354.442v-1.713c0.541-0.501,1.212-1.092,2.014-1.773c1.062-0.982,2.063-1.994,3.005-3.036
		c1.864-2.044,3.558-4.238,5.079-6.583h1.564v10.399h5.86v2.706h-5.86v18.514c0,0.862,0.129,1.583,0.39,2.165
		c0.4,0.901,1.062,1.353,1.984,1.353c0.801,0,1.473-0.285,2.014-0.857c0.541-0.57,1.081-1.357,1.623-2.359l1.473,0.722
		c-0.721,1.683-1.582,3.055-2.582,4.118c-1.763,1.863-3.914,2.795-6.455,2.795c-1.443,0-2.703-0.27-3.783-0.812
		c-2.083-1.041-3.13-2.935-3.14-5.681v-19.957H437.099z"/>
	<path d="M469.197,351.736v20.889c0,1.243,0.151,2.154,0.451,2.735c0.521,1.022,1.554,1.533,3.096,1.533
		c0.981,0,1.943-0.311,2.885-0.932c0.542-0.341,1.223-0.912,2.045-1.713v-17.462c0-1.294-0.256-2.198-0.767-2.713
		c-0.512-0.515-1.538-0.803-3.081-0.864v-1.473h12.263v22.181c0,1.272,0.241,2.151,0.722,2.638c0.481,0.487,1.422,0.79,2.824,0.909
		v1.412c-3.806,0.361-6.206,0.627-7.198,0.797c-0.99,0.17-2.579,0.596-4.763,1.277v-4.058c-1.463,1.262-2.675,2.154-3.637,2.675
		c-1.684,0.922-3.437,1.383-5.26,1.383c-1.984,0-3.832-0.631-5.546-1.895c-1.713-1.262-2.57-3.505-2.57-6.732v-15.538
		c0-1.315-0.209-2.174-0.63-2.58c-0.422-0.404-1.233-0.736-2.435-0.997v-1.473H469.197z"/>
	<path d="M491.83,354.442v-1.713c0.542-0.501,1.212-1.092,2.014-1.773c1.062-0.982,2.063-1.994,3.006-3.036
		c1.863-2.044,3.557-4.238,5.079-6.583h1.563v10.399h5.861v2.706h-5.861v18.514c0,0.862,0.13,1.583,0.391,2.165
		c0.4,0.901,1.062,1.353,1.983,1.353c0.802,0,1.474-0.285,2.014-0.857c0.541-0.57,1.082-1.357,1.623-2.359l1.473,0.722
		c-0.72,1.683-1.581,3.055-2.581,4.118c-1.764,1.863-3.914,2.795-6.456,2.795c-1.442,0-2.702-0.27-3.783-0.812
		c-2.083-1.041-3.129-2.935-3.14-5.681v-19.957H491.83z"/>
	<path d="M516.641,355.253c2.634-2.864,5.946-4.297,9.934-4.297c4.067,0,7.398,1.462,9.994,4.388
		c2.595,2.926,3.892,6.472,3.892,10.639c0,4.108-1.282,7.64-3.847,10.595c-2.564,2.956-5.911,4.434-10.039,4.434
		c-4.007,0-7.323-1.438-9.947-4.314c-2.627-2.875-3.938-6.446-3.938-10.714C512.688,361.695,514.007,358.119,516.641,355.253z
		 M522.396,375.03c0.702,2.665,2.094,3.997,4.178,3.997c1.983,0,3.287-1.021,3.907-3.065c0.621-2.044,0.932-5.37,0.932-9.979
		c0-4.588-0.326-7.91-0.977-9.963c-0.651-2.053-1.929-3.081-3.832-3.081c-2.085,0-3.477,1.333-4.179,3.998
		c-0.46,1.784-0.689,4.799-0.689,9.046C521.736,370.291,521.955,373.307,522.396,375.03z"/>
	<path d="M562.536,355.238c2.315-2.814,5.096-4.223,8.341-4.223c1.623,0,3.066,0.401,4.328,1.202
		c0.781,0.481,1.763,1.343,2.946,2.585v-11.271c0-1.556-0.301-2.521-0.901-2.895c-0.603-0.373-1.845-0.601-3.729-0.681v-1.473
		h13.256v35.436c0,1.272,0.24,2.151,0.721,2.638c0.481,0.487,1.422,0.79,2.826,0.909v1.412c-3.447,0.341-5.671,0.597-6.674,0.767
		c-1.002,0.17-2.765,0.606-5.289,1.308v-4.058c-1.162,1.202-2.225,2.095-3.187,2.675c-1.522,0.922-3.165,1.383-4.93,1.383
		c-3.005,0-5.619-1.272-7.844-3.816c-2.224-2.545-3.337-6.001-3.337-10.37C559.064,361.896,560.222,358.053,562.536,355.238z
		 M576.568,375.691c1.055-1.182,1.583-2.014,1.583-2.495v-14.968c0-0.5-0.453-1.241-1.357-2.224
		c-0.905-0.982-2.101-1.473-3.587-1.473c-2.19,0-3.678,1.513-4.462,4.539c-0.423,1.623-0.633,3.917-0.633,6.882
		c0,3.167,0.2,5.551,0.603,7.154c0.744,2.905,2.171,4.358,4.28,4.358C574.321,377.465,575.513,376.873,576.568,375.691z"/>
	<path d="M596.865,354.938c2.518-2.615,5.552-3.923,9.103-3.923c2.026,0,3.932,0.531,5.718,1.593
		c1.785,1.062,3.159,2.536,4.123,4.419c0.722,1.423,1.223,3.266,1.504,5.53c0.141,1.062,0.211,1.874,0.211,2.435h-15.72
		c0.141,2.464,0.543,4.598,1.205,6.401c1.204,3.387,3.323,5.08,6.354,5.08c1.446,0,2.812-0.451,4.097-1.353
		c0.782-0.541,1.757-1.452,2.922-2.735l1.412,0.871c-1.905,3.126-4.113,5.3-6.62,6.522c-1.625,0.782-3.49,1.173-5.598,1.173
		c-3.029,0-5.868-1.191-8.516-3.576c-2.648-2.385-3.973-6.192-3.973-11.422C593.088,361.225,594.347,357.552,596.865,354.938z
		 M609.949,362.707c-0.04-3.626-0.322-6.161-0.846-7.604c-0.522-1.443-1.567-2.164-3.136-2.164c-1.609,0-2.71,0.832-3.304,2.494
		c-0.594,1.664-0.931,4.088-1.01,7.273H609.949z"/>
	<path d="M635.438,380.079v-1.562c1.763-0.06,3.016-0.301,3.757-0.722c1.143-0.641,1.713-1.843,1.713-3.607v-29.815
		c0-1.791-0.591-2.995-1.773-3.612c-0.681-0.377-1.913-0.617-3.696-0.716v-1.563h35.466v12.414h-1.504
		c-0.78-3.968-2.108-6.682-3.981-8.145c-1.874-1.463-5.285-2.195-10.234-2.195c-1.884,0-3.081,0.195-3.591,0.587
		c-0.512,0.39-0.767,1.167-0.767,2.329v14.247c3.506,0.04,5.88-0.597,7.122-1.909c1.243-1.312,2.194-3.712,2.855-7.198h1.564v20.798
		h-1.564c-0.44-3.506-1.337-5.977-2.689-7.409c-1.352-1.432-3.782-2.148-7.288-2.148v14.908c0,1.302,0.335,2.189,1.007,2.659
		c0.671,0.472,2.049,0.706,4.133,0.706c3.927,0,7.133-0.76,9.617-2.284c2.484-1.522,4.689-4.378,6.613-8.565h1.712l-2.494,12.803
		H635.438z"/>
	<path d="M676.493,378.606c1.122-0.14,1.894-0.38,2.314-0.722c0.681-0.54,1.021-1.543,1.021-3.005v-18.093
		c0-1.294-0.23-2.172-0.691-2.637s-1.343-0.779-2.645-0.94v-1.473h11.662v4.418c1.021-1.342,2.013-2.383,2.975-3.125
		c1.783-1.342,3.768-2.014,5.952-2.014c2.464,0,4.378,0.582,5.74,1.744c0.762,0.661,1.482,1.743,2.164,3.246h0.42
		c1.162-1.422,2.274-2.494,3.337-3.215c1.684-1.183,3.517-1.774,5.5-1.774c2.164,0,4.073,0.691,5.726,2.074
		c1.653,1.383,2.479,3.567,2.479,6.552v15.479c0,1.423,0.23,2.329,0.691,2.721c0.461,0.39,1.272,0.646,2.435,0.766v1.473h-14.607
		v-1.473c1.122-0.16,1.903-0.437,2.345-0.826c0.44-0.391,0.661-1.278,0.661-2.66v-14.908c0-1.603-0.236-2.845-0.707-3.727
		c-0.471-0.881-1.367-1.322-2.689-1.322c-1.062,0-2.179,0.486-3.352,1.457c-1.172,0.972-1.758,1.649-1.758,2.029v16.47
		c0,1.343,0.2,2.204,0.601,2.585c0.401,0.381,1.152,0.681,2.255,0.901v1.473h-14.396v-1.473c1.082-0.14,1.853-0.405,2.313-0.796
		c0.461-0.392,0.691-1.288,0.691-2.69v-14.908c0-1.562-0.221-2.795-0.661-3.697c-0.44-0.901-1.353-1.352-2.734-1.352
		c-1.263,0-2.436,0.516-3.517,1.547c-1.082,1.032-1.623,1.678-1.623,1.939v16.47c0,1.343,0.19,2.204,0.57,2.585
		s1.132,0.681,2.255,0.901v1.473h-14.728V378.606z"/>
	<path d="M727.889,391.29c1.323-0.141,2.225-0.446,2.705-0.917c0.481-0.471,0.722-1.357,0.722-2.66v-30.926
		c0-1.294-0.226-2.167-0.677-2.623c-0.451-0.455-1.317-0.772-2.599-0.955v-1.473h11.751v4.058c0.842-1.403,1.663-2.435,2.465-3.096
		c1.442-1.162,3.286-1.743,5.53-1.743c3.226,0,5.906,1.212,8.04,3.636c2.134,2.425,3.2,6.041,3.2,10.851
		c0,4.469-1.146,8.17-3.44,11.105c-2.296,2.936-5.086,4.403-8.371,4.403c-1.683,0-3.275-0.492-4.779-1.473
		c-0.802-0.521-1.633-1.263-2.494-2.225v5.2c0.02,2.765,0.039,4.317,0.06,4.658c0.141,1.623,0.557,2.735,1.248,3.337
		c0.69,0.601,1.848,0.951,3.471,1.051v1.264h-16.831V391.29z M749.289,373.106c0.421-1.623,0.631-3.957,0.631-7.003
		c0-3.526-0.321-6.337-0.962-8.431s-1.944-3.141-3.907-3.141c-1.323,0-2.505,0.582-3.547,1.744s-1.562,2.003-1.562,2.524v14.968
		c0,0.601,0.496,1.377,1.487,2.329c0.992,0.952,2.109,1.428,3.352,1.428C747.004,377.524,748.507,376.052,749.289,373.106z"/>
	<path d="M762.122,378.606c1.182-0.14,2.003-0.421,2.465-0.841c0.461-0.421,0.71-1.232,0.751-2.436l0.06-1.803v-16.741
		c0-1.294-0.22-2.172-0.661-2.637c-0.44-0.465-1.312-0.779-2.614-0.94v-1.473h11.661v4.84c1.305-1.704,2.601-3.056,3.886-4.058
		c1.286-1.002,2.772-1.503,4.458-1.503c1.267,0,2.405,0.406,3.42,1.217c1.014,0.812,1.521,2,1.521,3.562
		c0,1.202-0.356,2.193-1.07,2.975c-0.712,0.782-1.641,1.172-2.786,1.172c-1.305,0-2.435-0.611-3.389-1.833
		c-0.955-1.221-1.622-1.833-2.003-1.833c-0.824,0-1.652,0.506-2.485,1.517c-0.834,1.012-1.251,2.462-1.251,4.35v11.656
		c0,2.031,0.296,3.3,0.887,3.808c0.591,0.509,1.769,0.842,3.531,1.001v1.473h-16.38V378.606z"/>
	<path d="M792.378,354.938c2.518-2.615,5.553-3.923,9.104-3.923c2.026,0,3.932,0.531,5.718,1.593
		c1.785,1.062,3.159,2.536,4.122,4.419c0.723,1.423,1.224,3.266,1.505,5.53c0.141,1.062,0.211,1.874,0.211,2.435h-15.72
		c0.14,2.464,0.543,4.598,1.204,6.401c1.205,3.387,3.324,5.08,6.355,5.08c1.446,0,2.812-0.451,4.096-1.353
		c0.783-0.541,1.757-1.452,2.922-2.735l1.413,0.871c-1.905,3.126-4.113,5.3-6.62,6.522c-1.625,0.782-3.491,1.173-5.598,1.173
		c-3.029,0-5.868-1.191-8.517-3.576s-3.972-6.192-3.972-11.422C788.602,361.225,789.859,357.552,792.378,354.938z M805.463,362.707
		c-0.041-3.626-0.322-6.161-0.846-7.604s-1.567-2.164-3.136-2.164c-1.609,0-2.71,0.832-3.304,2.494
		c-0.594,1.664-0.931,4.088-1.01,7.273H805.463z"/>
	<path d="M815.562,378.606c1.122-0.14,1.948-0.446,2.479-0.917c0.531-0.47,0.797-1.407,0.797-2.81v-18.093
		c0-1.254-0.216-2.122-0.646-2.607c-0.432-0.485-1.308-0.809-2.63-0.97v-1.473h11.661v4.418c0.981-1.482,2.229-2.709,3.742-3.681
		c1.513-0.972,3.19-1.458,5.034-1.458c2.646,0,4.693,0.682,6.146,2.044s2.18,3.756,2.18,7.183v14.877
		c0,1.382,0.235,2.274,0.706,2.675c0.47,0.4,1.257,0.672,2.359,0.812v1.473h-14.457v-1.473c1.102-0.221,1.853-0.521,2.254-0.901
		c0.4-0.381,0.602-1.242,0.602-2.585v-14.908c0-1.403-0.141-2.454-0.421-3.156c-0.481-1.262-1.433-1.893-2.855-1.893
		c-1.062,0-2.039,0.385-2.931,1.157c-0.892,0.771-1.577,1.548-2.059,2.33v16.47c0,1.343,0.199,2.204,0.602,2.585
		c0.4,0.381,1.151,0.681,2.254,0.901v1.473h-14.817V378.606z"/>
	<path d="M853.837,355.238c2.315-2.814,5.096-4.223,8.342-4.223c1.623,0,3.065,0.401,4.327,1.202
		c0.782,0.481,1.763,1.343,2.946,2.585v-11.271c0-1.556-0.301-2.521-0.901-2.895c-0.602-0.373-1.845-0.601-3.729-0.681v-1.473
		h13.256v35.436c0,1.272,0.24,2.151,0.722,2.638c0.48,0.487,1.421,0.79,2.825,0.909v1.412c-3.447,0.341-5.671,0.597-6.673,0.767
		c-1.003,0.17-2.766,0.606-5.29,1.308v-4.058c-1.162,1.202-2.225,2.095-3.187,2.675c-1.522,0.922-3.165,1.383-4.929,1.383
		c-3.006,0-5.62-1.272-7.845-3.816c-2.224-2.545-3.336-6.001-3.336-10.37C850.366,361.896,851.523,358.053,853.837,355.238z
		 M867.869,375.691c1.055-1.182,1.583-2.014,1.583-2.495v-14.968c0-0.5-0.453-1.241-1.357-2.224c-0.904-0.982-2.1-1.473-3.587-1.473
		c-2.19,0-3.678,1.513-4.461,4.539c-0.423,1.623-0.634,3.917-0.634,6.882c0,3.167,0.2,5.551,0.604,7.154
		c0.743,2.905,2.17,4.358,4.28,4.358C865.623,377.465,866.814,376.873,867.869,375.691z"/>
	<path d="M884.028,378.606c1.082-0.181,1.823-0.451,2.224-0.812c0.602-0.541,0.901-1.513,0.901-2.916v-18.093
		c0-1.254-0.21-2.107-0.631-2.562c-0.42-0.455-1.252-0.793-2.494-1.015v-1.473h11.812v23.384c0,1.343,0.2,2.204,0.602,2.585
		c0.4,0.381,1.152,0.681,2.254,0.901v1.473h-14.667V378.606z M888.131,338.948c0.932-0.932,2.059-1.397,3.382-1.397
		c1.302,0,2.419,0.466,3.351,1.397c0.932,0.932,1.397,2.059,1.397,3.381c0,1.323-0.466,2.45-1.397,3.382s-2.049,1.397-3.351,1.397
		c-1.323,0-2.45-0.466-3.382-1.397s-1.397-2.059-1.397-3.382C886.733,341.007,887.199,339.88,888.131,338.948z"/>
	<path d="M901.131,378.606c1.121-0.14,1.894-0.38,2.313-0.722c0.682-0.54,1.021-1.543,1.021-3.005v-18.093
		c0-1.294-0.23-2.172-0.691-2.637s-1.342-0.779-2.644-0.94v-1.473h11.661v4.418c1.022-1.342,2.014-2.383,2.976-3.125
		c1.782-1.342,3.767-2.014,5.951-2.014c2.464,0,4.378,0.582,5.74,1.744c0.762,0.661,1.483,1.743,2.164,3.246h0.421
		c1.162-1.422,2.273-2.494,3.336-3.215c1.684-1.183,3.517-1.774,5.5-1.774c2.164,0,4.073,0.691,5.727,2.074
		c1.653,1.383,2.479,3.567,2.479,6.552v15.479c0,1.423,0.23,2.329,0.691,2.721c0.461,0.39,1.273,0.646,2.436,0.766v1.473h-14.608
		v-1.473c1.122-0.16,1.904-0.437,2.345-0.826c0.44-0.391,0.661-1.278,0.661-2.66v-14.908c0-1.603-0.235-2.845-0.706-3.727
		c-0.471-0.881-1.368-1.322-2.689-1.322c-1.062,0-2.18,0.486-3.352,1.457c-1.173,0.972-1.758,1.649-1.758,2.029v16.47
		c0,1.343,0.2,2.204,0.601,2.585s1.152,0.681,2.255,0.901v1.473h-14.397v-1.473c1.082-0.14,1.854-0.405,2.314-0.796
		c0.461-0.392,0.69-1.288,0.69-2.69v-14.908c0-1.562-0.22-2.795-0.66-3.697c-0.441-0.901-1.353-1.352-2.735-1.352
		c-1.263,0-2.435,0.516-3.517,1.547c-1.081,1.032-1.623,1.678-1.623,1.939v16.47c0,1.343,0.19,2.204,0.57,2.585
		c0.381,0.381,1.133,0.681,2.255,0.901v1.473h-14.727V378.606z"/>
	<path d="M952.406,378.606c1.081-0.181,1.823-0.451,2.224-0.812c0.602-0.541,0.901-1.513,0.901-2.916v-18.093
		c0-1.254-0.21-2.107-0.631-2.562c-0.421-0.455-1.253-0.793-2.494-1.015v-1.473h11.812v23.384c0,1.343,0.2,2.204,0.602,2.585
		c0.4,0.381,1.152,0.681,2.254,0.901v1.473h-14.667V378.606z M956.508,338.948c0.932-0.932,2.059-1.397,3.382-1.397
		c1.302,0,2.419,0.466,3.351,1.397c0.932,0.932,1.397,2.059,1.397,3.381c0,1.323-0.466,2.45-1.397,3.382s-2.049,1.397-3.351,1.397
		c-1.323,0-2.45-0.466-3.382-1.397s-1.397-2.059-1.397-3.382C955.11,341.007,955.576,339.88,956.508,338.948z"/>
	<path d="M973.645,354.938c2.518-2.615,5.552-3.923,9.103-3.923c2.026,0,3.933,0.531,5.718,1.593
		c1.785,1.062,3.16,2.536,4.123,4.419c0.722,1.423,1.223,3.266,1.504,5.53c0.141,1.062,0.211,1.874,0.211,2.435h-15.719
		c0.14,2.464,0.542,4.598,1.204,6.401c1.204,3.387,3.323,5.08,6.354,5.08c1.446,0,2.812-0.451,4.097-1.353
		c0.782-0.541,1.757-1.452,2.922-2.735l1.413,0.871c-1.906,3.126-4.113,5.3-6.621,6.522c-1.625,0.782-3.49,1.173-5.598,1.173
		c-3.029,0-5.868-1.191-8.516-3.576c-2.648-2.385-3.973-6.192-3.973-11.422C969.867,361.225,971.126,357.552,973.645,354.938z
		 M986.729,362.707c-0.04-3.626-0.322-6.161-0.845-7.604c-0.523-1.443-1.568-2.164-3.137-2.164c-1.608,0-2.71,0.832-3.303,2.494
		c-0.594,1.664-0.931,4.088-1.011,7.273H986.729z"/>
	<path d="M996.828,378.606c1.122-0.14,1.948-0.446,2.479-0.917c0.531-0.47,0.797-1.407,0.797-2.81v-18.093
		c0-1.254-0.215-2.122-0.646-2.607c-0.432-0.485-1.309-0.809-2.631-0.97v-1.473h11.662v4.418c0.98-1.482,2.229-2.709,3.742-3.681
		c1.512-0.972,3.19-1.458,5.033-1.458c2.646,0,4.694,0.682,6.147,2.044c1.452,1.362,2.179,3.756,2.179,7.183v14.877
		c0,1.382,0.235,2.274,0.707,2.675c0.47,0.4,1.256,0.672,2.359,0.812v1.473H1014.2v-1.473c1.102-0.221,1.854-0.521,2.255-0.901
		c0.4-0.381,0.601-1.242,0.601-2.585v-14.908c0-1.403-0.14-2.454-0.421-3.156c-0.48-1.262-1.433-1.893-2.855-1.893
		c-1.062,0-2.038,0.385-2.93,1.157c-0.893,0.771-1.578,1.548-2.059,2.33v16.47c0,1.343,0.199,2.204,0.601,2.585
		c0.4,0.381,1.152,0.681,2.254,0.901v1.473h-14.817V378.606z"/>
	<path d="M1031.062,354.442v-1.713c0.54-0.501,1.212-1.092,2.014-1.773c1.062-0.982,2.063-1.994,3.005-3.036
		c1.863-2.044,3.557-4.238,5.08-6.583h1.562v10.399h5.861v2.706h-5.861v18.514c0,0.862,0.13,1.583,0.391,2.165
		c0.4,0.901,1.062,1.353,1.984,1.353c0.801,0,1.472-0.285,2.014-0.857c0.541-0.57,1.081-1.357,1.623-2.359l1.473,0.722
		c-0.722,1.683-1.582,3.055-2.583,4.118c-1.761,1.863-3.913,2.795-6.455,2.795c-1.441,0-2.703-0.27-3.783-0.812
		c-2.082-1.041-3.129-2.935-3.139-5.681v-19.957H1031.062z"/>
	<path d="M1055.873,355.253c2.635-2.864,5.946-4.297,9.934-4.297c4.067,0,7.398,1.462,9.993,4.388
		c2.595,2.926,3.892,6.472,3.892,10.639c0,4.108-1.281,7.64-3.846,10.595c-2.565,2.956-5.912,4.434-10.039,4.434
		c-4.008,0-7.324-1.438-9.949-4.314c-2.625-2.875-3.937-6.446-3.937-10.714C1051.921,361.695,1053.237,358.119,1055.873,355.253z
		 M1061.629,375.03c0.701,2.665,2.093,3.997,4.178,3.997c1.983,0,3.286-1.021,3.907-3.065c0.621-2.044,0.932-5.37,0.932-9.979
		c0-4.588-0.326-7.91-0.978-9.963c-0.65-2.053-1.929-3.081-3.831-3.081c-2.085,0-3.478,1.333-4.178,3.998
		c-0.462,1.784-0.691,4.799-0.691,9.046C1060.968,370.291,1061.188,373.307,1061.629,375.03z"/>
</g>
<g enable-background="new    ">
	<path d="M317.356,453.944v-1.562c1.763-0.061,3.015-0.301,3.757-0.722c1.142-0.641,1.713-1.843,1.713-3.606v-29.815
		c0-1.791-0.592-2.995-1.773-3.611c-0.682-0.378-1.914-0.617-3.696-0.717v-1.562h35.465v12.412h-1.503
		c-0.78-3.967-2.108-6.682-3.982-8.145c-1.873-1.463-5.284-2.194-10.232-2.194c-1.885,0-3.081,0.195-3.592,0.587
		c-0.512,0.391-0.768,1.167-0.768,2.329v14.246c3.506,0.04,5.881-0.597,7.124-1.908c1.242-1.312,2.193-3.712,2.855-7.198h1.562
		v20.799h-1.562c-0.441-3.507-1.338-5.977-2.69-7.41c-1.353-1.432-3.783-2.147-7.289-2.147v14.907c0,1.302,0.336,2.189,1.007,2.659
		c0.672,0.472,2.048,0.706,4.133,0.706c3.928,0,7.134-0.761,9.618-2.284c2.484-1.521,4.688-4.378,6.611-8.565h1.714l-2.494,12.804
		H317.356z"/>
	<path d="M370.014,425.602v20.889c0,1.243,0.15,2.154,0.45,2.735c0.521,1.022,1.554,1.533,3.097,1.533
		c0.981,0,1.943-0.311,2.885-0.932c0.542-0.341,1.223-0.911,2.044-1.714v-17.462c0-1.294-0.256-2.197-0.767-2.713
		c-0.511-0.515-1.537-0.803-3.08-0.864v-1.473h12.263v22.181c0,1.272,0.241,2.151,0.722,2.639c0.481,0.487,1.422,0.79,2.824,0.908
		v1.413c-3.806,0.361-6.206,0.627-7.197,0.797s-2.581,0.596-4.765,1.276v-4.057c-1.463,1.262-2.675,2.154-3.637,2.675
		c-1.683,0.921-3.437,1.382-5.26,1.382c-1.983,0-3.832-0.631-5.545-1.894c-1.714-1.262-2.57-3.505-2.57-6.732v-15.538
		c0-1.314-0.21-2.174-0.631-2.58c-0.42-0.404-1.232-0.736-2.435-0.997v-1.473H370.014z"/>
	<path d="M394.163,458.348c0.731-0.932,1.999-1.538,3.803-1.818v-0.421c-1.202-0.462-2.074-0.932-2.615-1.412
		c-0.962-0.861-1.442-2.015-1.442-3.456c0-1.724,0.756-3.197,2.27-4.42c1.513-1.221,2.99-2.073,4.434-2.555v-0.42
		c-2.085-0.842-3.768-2.044-5.05-3.606c-1.283-1.563-1.924-3.457-1.924-5.681c0-2.806,1.121-5.119,3.366-6.942
		c2.244-1.823,5.279-2.735,9.106-2.735c1.443,0,2.766,0.141,3.968,0.421s2.134,0.57,2.795,0.871h8.115v3.276h-4.989
		c0.801,0.78,1.417,1.693,1.849,2.734c0.431,1.043,0.646,2.175,0.646,3.397c0,3.847-1.833,6.481-5.5,7.904
		c-1.923,0.762-4.317,1.142-7.183,1.142c-0.621,0-1.028-0.01-1.217-0.03c-0.191-0.02-0.478-0.029-0.857-0.029
		c-0.601,0.101-1.231,0.42-1.894,0.962c-0.682,0.561-1.021,1.232-1.021,2.013c0,0.622,0.17,1.103,0.51,1.443
		c0.342,0.341,0.812,0.551,1.413,0.632c0.302,0.04,0.941,0.074,1.924,0.104c0.981,0.03,1.743,0.045,2.284,0.045l3.998,0.061
		c2.264,0.04,4.168,0.37,5.71,0.991c2.945,1.202,4.418,3.356,4.418,6.463c0,4.006-2.203,6.762-6.612,8.265
		c-2.324,0.781-5.25,1.172-8.775,1.172c-2.886,0-5.37-0.28-7.454-0.841c-3.447-0.942-5.17-2.545-5.17-4.809
		C393.066,460.186,393.432,459.279,394.163,458.348z M400.505,463.648c1.354,0.724,3.312,1.086,5.876,1.086
		c2.284,0,4.168-0.181,5.651-0.543c2.784-0.685,4.178-1.942,4.178-3.772c0-1.066-0.396-1.865-1.188-2.398s-2.229-0.8-4.313-0.8
		h-10.098c-0.643,0.523-1.104,0.966-1.383,1.328c-0.501,0.663-0.752,1.367-0.752,2.111
		C398.477,461.929,399.153,462.925,400.505,463.648z M402.654,440.059c0.601,1.804,1.754,2.705,3.456,2.705
		c1.544,0,2.604-0.676,3.186-2.029c0.582-1.353,0.873-3.33,0.873-5.936c0-2.765-0.307-4.779-0.917-6.041
		c-0.611-1.263-1.658-1.894-3.142-1.894c-1.623,0-2.704,0.676-3.245,2.028c-0.542,1.353-0.812,3.321-0.812,5.906
		C402.054,437.163,402.253,438.916,402.654,440.059z"/>
	<path d="M427.561,428.803c2.518-2.614,5.552-3.922,9.104-3.922c2.025,0,3.933,0.531,5.717,1.592
		c1.785,1.062,3.16,2.536,4.124,4.419c0.721,1.423,1.223,3.267,1.503,5.53c0.141,1.062,0.211,1.874,0.211,2.435h-15.718
		c0.14,2.465,0.541,4.599,1.203,6.401c1.205,3.387,3.324,5.079,6.354,5.079c1.446,0,2.812-0.45,4.098-1.352
		c0.782-0.541,1.757-1.452,2.921-2.735l1.412,0.871c-1.905,3.127-4.112,5.301-6.619,6.522c-1.626,0.782-3.491,1.172-5.599,1.172
		c-3.028,0-5.868-1.191-8.516-3.575c-2.648-2.385-3.973-6.192-3.973-11.423C423.783,435.09,425.043,431.417,427.561,428.803z
		 M440.645,436.572c-0.04-3.627-0.321-6.161-0.844-7.604c-0.523-1.442-1.569-2.164-3.138-2.164c-1.608,0-2.71,0.832-3.304,2.494
		c-0.593,1.665-0.93,4.089-1.01,7.274H440.645z"/>
	<path d="M450.744,452.472c1.121-0.14,1.948-0.446,2.479-0.917c0.53-0.47,0.796-1.407,0.796-2.811v-18.093
		c0-1.254-0.215-2.122-0.646-2.606c-0.432-0.485-1.308-0.81-2.63-0.971v-1.473h11.662v4.418c0.98-1.482,2.228-2.709,3.74-3.682
		c1.514-0.972,3.192-1.457,5.035-1.457c2.645,0,4.693,0.682,6.146,2.044c1.453,1.362,2.18,3.756,2.18,7.183v14.878
		c0,1.382,0.235,2.274,0.706,2.675c0.472,0.4,1.258,0.672,2.359,0.812v1.473h-14.456v-1.473c1.102-0.221,1.853-0.521,2.255-0.901
		c0.4-0.381,0.6-1.242,0.6-2.585v-14.908c0-1.402-0.14-2.454-0.421-3.156c-0.48-1.262-1.433-1.893-2.854-1.893
		c-1.062,0-2.039,0.386-2.931,1.157c-0.892,0.771-1.578,1.548-2.059,2.329v16.471c0,1.343,0.2,2.204,0.602,2.585
		c0.4,0.381,1.151,0.681,2.254,0.901v1.473h-14.817V452.472z"/>
	<path d="M484.978,452.472c1.082-0.181,1.822-0.451,2.224-0.812c0.601-0.541,0.902-1.513,0.902-2.916v-18.093
		c0-1.254-0.211-2.106-0.632-2.562s-1.252-0.793-2.494-1.016v-1.473h11.812v23.384c0,1.343,0.2,2.204,0.602,2.585
		c0.4,0.381,1.151,0.681,2.254,0.901v1.473h-14.667V452.472z M489.08,412.812c0.932-0.932,2.059-1.396,3.38-1.396
		c1.304,0,2.421,0.465,3.353,1.396c0.933,0.932,1.397,2.059,1.397,3.381c0,1.324-0.465,2.451-1.397,3.383
		c-0.932,0.932-2.049,1.396-3.353,1.396c-1.321,0-2.448-0.465-3.38-1.396s-1.398-2.059-1.398-3.383
		C487.682,414.871,488.148,413.744,489.08,412.812z"/>
	<path d="M506.392,429.118c2.635-2.864,5.946-4.298,9.935-4.298c4.067,0,7.398,1.463,9.993,4.389s3.892,6.472,3.892,10.639
		c0,4.108-1.282,7.641-3.847,10.596c-2.564,2.956-5.911,4.433-10.038,4.433c-4.008,0-7.324-1.438-9.948-4.313
		c-2.626-2.874-3.938-6.446-3.938-10.715C502.439,435.561,503.758,431.983,506.392,429.118z M512.147,448.896
		c0.702,2.664,2.095,3.996,4.179,3.996c1.982,0,3.285-1.021,3.906-3.064c0.621-2.045,0.932-5.37,0.932-9.979
		c0-4.588-0.325-7.909-0.976-9.963c-0.652-2.054-1.93-3.081-3.833-3.081c-2.083,0-3.476,1.333-4.178,3.998
		c-0.461,1.783-0.69,4.799-0.69,9.046C511.487,444.156,511.706,447.172,512.147,448.896z"/>
	<path d="M555.428,418.028c4.088-4.309,9.307-6.463,15.659-6.463c2.544,0,5.079,0.478,7.604,1.428
		c2.524,0.952,4.097,1.428,4.718,1.428c0.662,0,1.192-0.23,1.594-0.691c0.4-0.46,0.73-1.162,0.991-2.104h1.714v14.396h-1.562
		c-1.483-3.126-2.997-5.591-4.539-7.394c-2.886-3.326-6.152-4.99-9.798-4.99c-3.968,0-6.863,1.725-8.687,5.17
		c-1.823,3.447-2.735,8.296-2.735,14.548c0,5.129,0.847,9.703,2.54,13.72c1.693,4.018,4.964,6.027,9.813,6.027
		c2.625,0,4.388-0.552,5.289-1.653c0.521-0.621,0.782-1.563,0.782-2.825v-6.492c0-1.864-0.572-3.086-1.714-3.667
		c-0.741-0.36-2.244-0.561-4.508-0.601v-1.564h21.099v1.564c-2.124,0.08-3.532,0.506-4.223,1.276
		c-0.691,0.771-1.037,2.22-1.037,4.344v7.844c-1.363,0.843-3.566,1.684-6.612,2.524c-3.046,0.843-6.451,1.263-10.219,1.263
		c-6.833,0-12.293-2.152-16.38-6.461c-3.808-4.028-5.712-9.078-5.712-15.149C549.506,427.375,551.48,422.216,555.428,418.028z"/>
	<path d="M600.692,441.6c2.665-1.626,6.843-3.261,12.534-4.907v-4.479c0-1.823-0.387-3.17-1.157-4.043
		c-0.771-0.871-2.14-1.307-4.104-1.307c-1.102,0-2.009,0.205-2.72,0.616s-1.067,0.928-1.067,1.548c0,0.241,0.04,0.441,0.121,0.601
		c0.079,0.161,0.2,0.331,0.36,0.512l0.36,0.42c0.28,0.342,0.506,0.717,0.677,1.127c0.17,0.412,0.256,0.848,0.256,1.309
		c0,1.162-0.387,2.059-1.157,2.689c-0.772,0.631-1.669,0.946-2.69,0.946c-1.183,0-2.189-0.349-3.021-1.049
		c-0.832-0.699-1.247-1.709-1.247-3.027c0-2.359,1.112-4.228,3.336-5.606c2.226-1.379,4.96-2.068,8.206-2.068
		c3.486,0,6.402,0.672,8.746,2.014c2.324,1.362,3.486,3.867,3.486,7.514v14.908c0,0.44,0.115,0.815,0.346,1.127
		c0.23,0.311,0.485,0.466,0.767,0.466c0.24,0,0.456-0.046,0.646-0.135c0.19-0.091,0.486-0.337,0.887-0.737l0.932,1.292
		c-1.201,1.403-2.534,2.385-3.996,2.946c-0.923,0.36-1.894,0.54-2.916,0.54c-1.823,0-3.155-0.532-3.998-1.596
		c-0.48-0.602-0.831-1.495-1.051-2.679c-1.704,1.706-3.628,2.909-5.771,3.612c-1.303,0.441-2.585,0.662-3.847,0.662
		c-1.684,0-3.257-0.537-4.719-1.609c-1.463-1.073-2.194-2.745-2.194-5.013C596.695,445.423,598.027,443.226,600.692,441.6z
		 M611.422,449.524c0.481-0.362,1.053-0.925,1.714-1.688v-9.01c-1.644,0.401-3.086,1.034-4.327,1.897
		c-2.104,1.467-3.157,3.335-3.157,5.605c0,1.346,0.306,2.365,0.917,3.059c0.61,0.693,1.297,1.039,2.059,1.039
		C609.629,450.428,610.561,450.127,611.422,449.524z"/>
	<path d="M627.021,452.472c1.183-0.14,2.004-0.421,2.466-0.842c0.461-0.42,0.71-1.232,0.75-2.435l0.061-1.803v-16.741
		c0-1.294-0.221-2.172-0.661-2.637s-1.312-0.779-2.615-0.94v-1.473h11.662v4.84c1.305-1.703,2.601-3.056,3.886-4.058
		c1.286-1.003,2.771-1.503,4.458-1.503c1.266,0,2.405,0.406,3.419,1.217c1.015,0.812,1.522,1.999,1.522,3.562
		c0,1.203-0.357,2.193-1.07,2.976c-0.713,0.781-1.642,1.172-2.786,1.172c-1.305,0-2.435-0.61-3.389-1.833
		c-0.955-1.222-1.622-1.833-2.004-1.833c-0.823,0-1.651,0.506-2.484,1.518c-0.835,1.012-1.251,2.462-1.251,4.35v11.655
		c0,2.031,0.296,3.3,0.887,3.809c0.59,0.508,1.769,0.841,3.531,1v1.473h-16.381V452.472z"/>
	<path d="M654.521,453.944v-1.562l15.006-24.796c-4.172-0.04-7.065,0.285-8.678,0.977s-2.84,2.6-3.683,5.726h-1.562l0.42-8.687
		h23.444v1.563l-14.746,24.946c4.193-0.101,7.002-0.491,8.428-1.172c2.18-1.022,3.814-3.297,4.905-6.823h1.713l-0.991,9.828H654.521
		z"/>
	<path d="M686.11,441.6c2.665-1.626,6.843-3.261,12.534-4.907v-4.479c0-1.823-0.387-3.17-1.157-4.043
		c-0.771-0.871-2.14-1.307-4.104-1.307c-1.102,0-2.009,0.205-2.72,0.616s-1.067,0.928-1.067,1.548c0,0.241,0.04,0.441,0.121,0.601
		c0.079,0.161,0.2,0.331,0.36,0.512l0.36,0.42c0.28,0.342,0.506,0.717,0.677,1.127c0.17,0.412,0.256,0.848,0.256,1.309
		c0,1.162-0.387,2.059-1.157,2.689c-0.772,0.631-1.669,0.946-2.69,0.946c-1.183,0-2.189-0.349-3.021-1.049
		c-0.833-0.699-1.248-1.709-1.248-3.027c0-2.359,1.112-4.228,3.337-5.606s4.959-2.068,8.205-2.068c3.486,0,6.402,0.672,8.746,2.014
		c2.324,1.362,3.486,3.867,3.486,7.514v14.908c0,0.44,0.115,0.815,0.346,1.127c0.23,0.311,0.485,0.466,0.767,0.466
		c0.24,0,0.456-0.046,0.646-0.135c0.19-0.091,0.486-0.337,0.887-0.737l0.932,1.292c-1.201,1.403-2.534,2.385-3.996,2.946
		c-0.923,0.36-1.894,0.54-2.916,0.54c-1.823,0-3.155-0.532-3.998-1.596c-0.48-0.602-0.831-1.495-1.051-2.679
		c-1.704,1.706-3.628,2.909-5.771,3.612c-1.302,0.441-2.585,0.662-3.847,0.662c-1.684,0-3.257-0.537-4.719-1.609
		c-1.463-1.073-2.194-2.745-2.194-5.013C682.113,445.423,683.445,443.226,686.11,441.6z M696.84,449.524
		c0.481-0.362,1.053-0.925,1.714-1.688v-9.01c-1.644,0.401-3.086,1.034-4.327,1.897c-2.104,1.467-3.157,3.335-3.157,5.605
		c0,1.346,0.306,2.365,0.917,3.059s1.297,1.039,2.059,1.039C695.047,450.428,695.979,450.127,696.84,449.524z"/>
	<path d="M727.828,452.382c1.684-0.061,2.886-0.28,3.607-0.662c1.222-0.642,1.833-1.864,1.833-3.671v-29.811
		c0-1.791-0.581-2.995-1.743-3.611c-0.682-0.378-1.914-0.617-3.697-0.717v-1.562h21.521v1.562c-2.505,0.08-4.173,0.428-5.004,1.047
		c-0.832,0.618-1.248,2.143-1.248,4.573v29.091c0,1.364,0.355,2.267,1.066,2.708c0.712,0.441,2.1,0.661,4.164,0.661
		c3.707,0,6.816-0.815,9.332-2.449c2.515-1.633,4.683-4.813,6.507-9.542h1.804l-2.495,13.945h-35.646V452.382z"/>
	<path d="M773.332,441.6c2.666-1.626,6.844-3.261,12.534-4.907v-4.479c0-1.823-0.386-3.17-1.157-4.043
		c-0.771-0.871-2.139-1.307-4.103-1.307c-1.103,0-2.01,0.205-2.72,0.616c-0.712,0.411-1.068,0.928-1.068,1.548
		c0,0.241,0.041,0.441,0.121,0.601c0.08,0.161,0.2,0.331,0.36,0.512l0.361,0.42c0.279,0.342,0.505,0.717,0.676,1.127
		c0.17,0.412,0.256,0.848,0.256,1.309c0,1.162-0.387,2.059-1.157,2.689c-0.771,0.631-1.668,0.946-2.69,0.946
		c-1.183,0-2.189-0.349-3.021-1.049c-0.832-0.699-1.248-1.709-1.248-3.027c0-2.359,1.113-4.228,3.337-5.606
		c2.225-1.379,4.959-2.068,8.205-2.068c3.486,0,6.402,0.672,8.747,2.014c2.324,1.362,3.486,3.867,3.486,7.514v14.908
		c0,0.44,0.114,0.815,0.345,1.127c0.23,0.311,0.486,0.466,0.767,0.466c0.241,0,0.456-0.046,0.646-0.135
		c0.189-0.091,0.485-0.337,0.887-0.737l0.932,1.292c-1.202,1.403-2.535,2.385-3.997,2.946c-0.923,0.36-1.894,0.54-2.916,0.54
		c-1.823,0-3.155-0.532-3.997-1.596c-0.481-0.602-0.831-1.495-1.052-2.679c-1.703,1.706-3.627,2.909-5.771,3.612
		c-1.302,0.441-2.585,0.662-3.847,0.662c-1.683,0-3.257-0.537-4.719-1.609c-1.463-1.073-2.194-2.745-2.194-5.013
		C769.335,445.423,770.667,443.226,773.332,441.6z M784.062,449.524c0.48-0.362,1.053-0.925,1.713-1.688v-9.01
		c-1.643,0.401-3.086,1.034-4.327,1.897c-2.104,1.467-3.156,3.335-3.156,5.605c0,1.346,0.305,2.365,0.917,3.059
		c0.61,0.693,1.297,1.039,2.059,1.039C782.27,450.428,783.201,450.127,784.062,449.524z"/>
	<path d="M801.06,458.348c0.731-0.932,1.999-1.538,3.803-1.818v-0.421c-1.203-0.462-2.074-0.932-2.615-1.412
		c-0.962-0.861-1.443-2.015-1.443-3.456c0-1.724,0.757-3.197,2.271-4.42c1.512-1.221,2.99-2.073,4.433-2.555v-0.42
		c-2.085-0.842-3.768-2.044-5.05-3.606c-1.282-1.563-1.923-3.457-1.923-5.681c0-2.806,1.122-5.119,3.366-6.942
		c2.243-1.823,5.279-2.735,9.106-2.735c1.442,0,2.765,0.141,3.968,0.421c1.202,0.28,2.134,0.57,2.795,0.871h8.115v3.276h-4.989
		c0.801,0.78,1.417,1.693,1.849,2.734c0.431,1.043,0.646,2.175,0.646,3.397c0,3.847-1.833,6.481-5.5,7.904
		c-1.924,0.762-4.318,1.142-7.184,1.142c-0.621,0-1.026-0.01-1.217-0.03c-0.19-0.02-0.477-0.029-0.857-0.029
		c-0.601,0.101-1.231,0.42-1.894,0.962c-0.681,0.561-1.021,1.232-1.021,2.013c0,0.622,0.17,1.103,0.511,1.443
		c0.34,0.341,0.811,0.551,1.413,0.632c0.3,0.04,0.94,0.074,1.923,0.104c0.981,0.03,1.743,0.045,2.284,0.045l3.997,0.061
		c2.265,0.04,4.167,0.37,5.711,0.991c2.945,1.202,4.418,3.356,4.418,6.463c0,4.006-2.204,6.762-6.612,8.265
		c-2.324,0.781-5.249,1.172-8.776,1.172c-2.886,0-5.369-0.28-7.453-0.841c-3.447-0.942-5.17-2.545-5.17-4.809
		C799.963,460.186,800.328,459.279,801.06,458.348z M807.401,463.648c1.353,0.724,3.312,1.086,5.876,1.086
		c2.284,0,4.168-0.181,5.65-0.543c2.785-0.685,4.178-1.942,4.178-3.772c0-1.066-0.396-1.865-1.187-2.398
		c-0.792-0.533-2.23-0.8-4.313-0.8h-10.099c-0.642,0.523-1.103,0.966-1.382,1.328c-0.502,0.663-0.752,1.367-0.752,2.111
		C805.373,461.929,806.049,462.925,807.401,463.648z M809.551,440.059c0.601,1.804,1.753,2.705,3.456,2.705
		c1.542,0,2.604-0.676,3.187-2.029c0.58-1.353,0.871-3.33,0.871-5.936c0-2.765-0.306-4.779-0.916-6.041
		c-0.612-1.263-1.658-1.894-3.142-1.894c-1.623,0-2.704,0.676-3.246,2.028c-0.541,1.353-0.811,3.321-0.811,5.906
		C808.95,437.163,809.149,438.916,809.551,440.059z"/>
	<path d="M841.92,425.602v20.889c0,1.243,0.15,2.154,0.451,2.735c0.521,1.022,1.553,1.533,3.096,1.533
		c0.981,0,1.943-0.311,2.886-0.932c0.54-0.341,1.222-0.911,2.044-1.714v-17.462c0-1.294-0.256-2.197-0.767-2.713
		c-0.512-0.515-1.538-0.803-3.081-0.864v-1.473h12.263v22.181c0,1.272,0.241,2.151,0.722,2.639c0.481,0.487,1.423,0.79,2.825,0.908
		v1.413c-3.808,0.361-6.207,0.627-7.198,0.797c-0.992,0.17-2.58,0.596-4.764,1.276v-4.057c-1.463,1.262-2.676,2.154-3.638,2.675
		c-1.683,0.921-3.436,1.382-5.259,1.382c-1.984,0-3.833-0.631-5.545-1.894c-1.714-1.262-2.57-3.505-2.57-6.732v-15.538
		c0-1.314-0.21-2.174-0.632-2.58c-0.421-0.404-1.231-0.736-2.434-0.997v-1.473H841.92z M836.615,414.09
		c0.771-0.781,1.688-1.172,2.75-1.172c1.102,0,2.044,0.391,2.825,1.172c0.782,0.781,1.173,1.724,1.173,2.825
		c0,1.103-0.391,2.045-1.173,2.825c-0.781,0.782-1.724,1.172-2.825,1.172c-1.021,0-1.929-0.38-2.72-1.141
		c-0.792-0.762-1.187-1.715-1.187-2.856C835.459,415.813,835.844,414.871,836.615,414.09z M855.1,419.74
		c-0.771,0.782-1.688,1.172-2.749,1.172c-1.104,0-2.045-0.39-2.826-1.172c-0.781-0.78-1.172-1.723-1.172-2.825
		c0-1.102,0.391-2.044,1.172-2.825s1.723-1.172,2.826-1.172c1.021,0,1.928,0.381,2.72,1.143c0.79,0.762,1.187,1.713,1.187,2.854
		C856.257,418.018,855.871,418.96,855.1,419.74z"/>
	<path d="M868.69,428.803c2.518-2.614,5.552-3.922,9.103-3.922c2.026,0,3.933,0.531,5.719,1.592
		c1.784,1.062,3.159,2.536,4.122,4.419c0.723,1.423,1.224,3.267,1.504,5.53c0.141,1.062,0.212,1.874,0.212,2.435h-15.72
		c0.14,2.465,0.542,4.599,1.204,6.401c1.204,3.387,3.323,5.079,6.355,5.079c1.445,0,2.811-0.45,4.096-1.352
		c0.783-0.541,1.757-1.452,2.922-2.735l1.413,0.871c-1.906,3.127-4.113,5.301-6.621,6.522c-1.625,0.782-3.49,1.172-5.597,1.172
		c-3.03,0-5.868-1.191-8.517-3.575c-2.648-2.385-3.973-6.192-3.973-11.423C864.913,435.09,866.172,431.417,868.69,428.803z
		 M881.774,436.572c-0.04-3.627-0.321-6.161-0.845-7.604c-0.523-1.442-1.567-2.164-3.137-2.164c-1.608,0-2.709,0.832-3.303,2.494
		c-0.594,1.665-0.931,4.089-1.011,7.274H881.774z"/>
	<path d="M891.993,452.472c1.183-0.14,2.004-0.421,2.466-0.842c0.46-0.42,0.71-1.232,0.75-2.435l0.061-1.803v-16.741
		c0-1.294-0.221-2.172-0.661-2.637s-1.312-0.779-2.615-0.94v-1.473h11.662v4.84c1.305-1.703,2.601-3.056,3.886-4.058
		c1.285-1.003,2.771-1.503,4.458-1.503c1.266,0,2.405,0.406,3.419,1.217c1.015,0.812,1.522,1.999,1.522,3.562
		c0,1.203-0.357,2.193-1.07,2.976c-0.713,0.781-1.642,1.172-2.786,1.172c-1.305,0-2.436-0.61-3.389-1.833
		c-0.955-1.222-1.622-1.833-2.004-1.833c-0.824,0-1.652,0.506-2.485,1.518c-0.834,1.012-1.25,2.462-1.25,4.35v11.655
		c0,2.031,0.296,3.3,0.886,3.809c0.591,0.508,1.77,0.841,3.532,1v1.473h-16.381V452.472z"/>
	<path d="M923.763,441.6c2.665-1.626,6.843-3.261,12.533-4.907v-4.479c0-1.823-0.386-3.17-1.157-4.043
		c-0.771-0.871-2.139-1.307-4.103-1.307c-1.102,0-2.01,0.205-2.72,0.616c-0.712,0.411-1.067,0.928-1.067,1.548
		c0,0.241,0.04,0.441,0.12,0.601c0.08,0.161,0.2,0.331,0.36,0.512l0.361,0.42c0.279,0.342,0.505,0.717,0.676,1.127
		c0.171,0.412,0.256,0.848,0.256,1.309c0,1.162-0.387,2.059-1.157,2.689c-0.771,0.631-1.668,0.946-2.69,0.946
		c-1.182,0-2.189-0.349-3.021-1.049c-0.832-0.699-1.247-1.709-1.247-3.027c0-2.359,1.112-4.228,3.336-5.606
		c2.225-1.379,4.96-2.068,8.205-2.068c3.486,0,6.402,0.672,8.747,2.014c2.324,1.362,3.486,3.867,3.486,7.514v14.908
		c0,0.44,0.114,0.815,0.345,1.127c0.23,0.311,0.486,0.466,0.767,0.466c0.241,0,0.456-0.046,0.646-0.135
		c0.19-0.091,0.486-0.337,0.887-0.737l0.932,1.292c-1.201,1.403-2.535,2.385-3.997,2.946c-0.923,0.36-1.894,0.54-2.916,0.54
		c-1.823,0-3.155-0.532-3.997-1.596c-0.48-0.602-0.831-1.495-1.052-2.679c-1.703,1.706-3.627,2.909-5.771,3.612
		c-1.302,0.441-2.585,0.662-3.847,0.662c-1.683,0-3.257-0.537-4.719-1.609c-1.463-1.073-2.194-2.745-2.194-5.013
		C919.765,445.423,921.097,443.226,923.763,441.6z M934.492,449.524c0.48-0.362,1.053-0.925,1.714-1.688v-9.01
		c-1.644,0.401-3.086,1.034-4.328,1.897c-2.104,1.467-3.156,3.335-3.156,5.605c0,1.346,0.305,2.365,0.917,3.059
		c0.61,0.693,1.297,1.039,2.059,1.039C932.699,450.428,933.631,450.127,934.492,449.524z"/>
</g>
</svg>
