<?xml version="1.0" encoding="utf-8"?>
<!-- Generator: Adobe Illustrator 15.0.0, SVG Export Plug-In . SVG Version: 6.00 Build 0)  -->
<!DOCTYPE svg PUBLIC "-//W3C//DTD SVG 1.1//EN" "http://www.w3.org/Graphics/SVG/1.1/DTD/svg11.dtd">
<svg version="1.1" id="Layer_1" xmlns="http://www.w3.org/2000/svg" xmlns:xlink="http://www.w3.org/1999/xlink" x="0px" y="0px"
	 width="384.085px" height="511.681px" viewBox="0 0 384.085 511.681" enable-background="new 0 0 384.085 511.681"
	 xml:space="preserve">
<path fill="#BEFE07" d="M127.619,193.568c1.949-1.184,3.239-3.062,4.801-4.639c7.123-7.195,14.172-14.465,21.242-21.711
	c16.657-17.071,33.309-34.145,49.964-51.218c8.124-8.33,16.251-16.661,24.371-24.999c4.805-4.934,9.622-9.86,14.379-14.841
	c0.864-0.906,1.341-0.858,2.189,0.016c13.484,13.892,26.996,27.763,40.534,41.604c0.97,0.992,0.936,1.526-0.05,2.532
	c-12.531,12.785-25.005,25.622-37.493,38.449c-11.54,11.854-23.083,23.708-34.623,35.562c-11.54,11.853-23.081,23.705-34.618,35.561
	c-2.257,2.318-4.497,4.652-6.739,6.987c-0.313,0.327-0.775,0.571-0.732,1.134c-0.653,0.032-0.98,0.554-1.379,0.95
	c-1.477,1.469-2.872,3.015-4.288,4.542c-3.69,3.976-7.653,7.684-11.363,11.647c-5.632,6.016-11.529,11.784-17.281,17.688
	c-3.126,3.21-6.183,6.484-9.272,9.732c-0.098-0.101-0.196-0.199-0.295-0.298C127.238,252.7,127.621,223.136,127.619,193.568"/>
<path fill="#BEFE07" d="M67.122,220.781c-0.457-0.428-0.243-0.986-0.245-1.479c-0.011-26.053-0.007-52.107-0.026-78.16
	c0-0.9,0.241-1.547,0.883-2.203c6.176-6.295,12.312-12.63,18.466-18.948c15.915-16.338,31.836-32.667,47.749-49.005
	c11.396-11.703,22.788-23.411,34.178-35.12c5.567-5.724,11.144-11.438,16.672-17.201c0.828-0.861,1.251-0.915,2.14,0
	c12.094,12.481,24.241,24.913,36.369,37.361c2.297,2.36,2.285,2.365-0.068,4.77c-10.661,10.891-21.326,21.778-31.981,32.678
	c-13.28,13.583-26.551,27.175-39.828,40.765c-13.239,13.551-26.479,27.104-39.716,40.657c-0.396,0.405-0.877,0.759-0.937,1.391
	c-0.601,0.159-0.922,0.67-1.312,1.075c-4.088,4.238-8.355,8.295-12.377,12.603c-4.939,5.294-10.194,10.29-15.195,15.536
	C77.007,210.629,71.842,215.491,67.122,220.781"/>
<path fill="#BEFE07" d="M185.904,253.42c2.266-1.458,3.831-3.649,5.689-5.523c6.426-6.489,12.766-13.064,19.137-19.608
	c13.761-14.135,27.523-28.272,41.283-42.407c0.038-0.037,0.077-0.072,0.113-0.11c1.549-1.604,1.522-1.579,3.089,0.03
	c6.842,7.035,13.701,14.05,20.55,21.076c6.958,7.139,13.897,14.294,20.886,21.401c0.784,0.796,0.554,1.172-0.091,1.833
	c-7.222,7.389-14.406,14.815-21.616,22.218c-15.915,16.339-31.837,32.668-47.75,49.007c-11.396,11.7-22.787,23.412-34.18,35.118
	c-1.929,1.983-3.838,3.983-5.791,5.941c-0.278,0.281-0.431,0.86-1.036,0.688c0.008-0.783,0.028-1.565,0.026-2.348
	C186.105,311.631,186.471,282.524,185.904,253.42"/>
<path fill="#AAD709" d="M67.122,220.781c4.72-5.29,9.885-10.151,14.772-15.279c5.001-5.246,10.256-10.242,15.195-15.536
	c4.022-4.308,8.289-8.365,12.377-12.603c0.39-0.405,0.711-0.916,1.312-1.075c4.325,4.409,8.656,8.811,12.974,13.226
	c1.305,1.334,2.579,2.701,3.866,4.053c0.002,29.567-0.382,59.133-0.65,88.696c-4.461-4.524-8.937-9.033-13.375-13.58
	c-9.246-9.476-18.47-18.971-27.705-28.458c-6.108-6.274-12.218-12.547-18.322-18.823C67.391,221.221,67.268,220.988,67.122,220.781"
	/>
<path fill="#AAD709" d="M185.904,253.42c0.567,29.104,0.202,58.21,0.31,87.315c0.002,0.783-0.018,1.565-0.026,2.348
	c-3.952-4.004-7.919-7.996-11.852-12.021c-6.491-6.637-12.963-13.297-19.44-19.95c-8.913-9.157-17.827-18.316-26.736-27.479
	c-0.322-0.333-0.598-0.714-0.896-1.072c3.087-3.248,6.146-6.522,9.272-9.732c5.751-5.903,11.648-11.671,17.281-17.688
	c3.709-3.963,7.673-7.671,11.361-11.647c1.418-1.527,2.813-3.073,4.29-4.542c0.399-0.396,0.726-0.918,1.379-0.95
	c4.492,4.566,8.983,9.128,13.471,13.7C184.863,252.257,185.375,252.847,185.904,253.42"/>
<path fill="#424143" d="M175.293,409.125c0-0.642,0-1.19,0-1.74c0-8.878,0.022-17.757-0.025-26.635
	c-0.006-1.179,0.234-1.614,1.522-1.597c5.692,0.073,11.386,0.056,17.077,0.008c1.085-0.009,1.404,0.289,1.402,1.395
	c-0.034,20.055-0.034,40.11,0,60.163c0.002,1.11-0.317,1.393-1.398,1.381c-4.908-0.056-9.819-0.05-14.727,0
	c-0.903,0.009-1.411-0.344-1.934-1.005c-7.234-9.117-14.491-18.219-21.745-27.323c-0.421-0.527-0.859-1.043-1.329-1.612
	c-0.584,0.464-0.334,1.077-0.336,1.585c-0.019,8.878-0.043,17.759,0.019,26.635c0.01,1.351-0.286,1.758-1.702,1.733
	c-5.588-0.092-11.177-0.076-16.765-0.007c-1.208,0.015-1.451-0.352-1.449-1.494c0.035-20.003,0.037-40.005-0.004-60.006
	c-0.005-1.238,0.404-1.458,1.516-1.444c4.751,0.052,9.504,0.05,14.256,0c1.035-0.009,1.699,0.289,2.358,1.124
	c7.317,9.252,14.678,18.469,22.035,27.691C174.375,408.361,174.599,408.847,175.293,409.125"/>
<path fill="#AAD709" d="M333.542,179.979c-0.028,14.979-10.127,27.731-23.795,30.479c-16.022,3.22-31.291-6.543-35.234-22.53
	c-3.936-15.948,4.942-32.259,20.171-37.054c16.809-5.294,34.779,5.399,38.176,22.711
	C333.301,175.843,333.612,178.112,333.542,179.979"/>
<path fill="#414042" d="M128.291,410.293c0.004,14.746-8.061,26.784-20.916,30.997c-19.812,6.492-39.504-5.458-41.852-26.264
	c-1.213-10.745,1.479-20.322,9.279-28.07c6.517-6.475,14.603-9.254,23.661-8.636c15.559,1.064,26.271,10.701,29.285,25.928
	C128.164,406.352,128.337,408.483,128.291,410.293 M95.675,397.471c-3.652,0.084-7.16,2.21-9.439,6.358
	c-1.485,2.702-1.808,5.621-1.557,8.636c0.676,8.129,8.524,13.316,16.114,10.659c5.257-1.842,8.573-7.602,7.958-13.83
	C108.059,402.246,103.241,397.496,95.675,397.471"/>
<path fill="#414042" d="M286.487,410.551c0-9.977,0.021-19.95-0.03-29.925c-0.004-1.177,0.291-1.473,1.463-1.471
	c15.93,0.042,31.856,0.039,47.786,0.008c1.097-0.002,1.548,0.184,1.527,1.435c-0.079,4.959-0.067,9.921-0.008,14.883
	c0.013,1.104-0.308,1.396-1.4,1.391c-9.608-0.042-19.218-0.002-28.826-0.05c-1.188-0.006-1.704,0.247-1.565,1.528
	c0.134,1.234-0.38,2.895,0.249,3.628c0.751,0.874,2.455,0.279,3.741,0.285c6.582,0.033,13.162,0.044,19.74-0.011
	c1.167-0.011,1.503,0.283,1.484,1.471c-0.072,4.49-0.069,8.981,0,13.471c0.019,1.146-0.369,1.356-1.417,1.351
	c-7.415-0.044-14.832,0.006-22.246-0.05c-1.2-0.009-1.685,0.266-1.55,1.529c0.109,1.032,0.102,2.092,0,3.127
	c-0.112,1.156,0.369,1.351,1.412,1.347c9.61-0.038,19.218,0,28.828-0.051c1.209-0.006,1.58,0.275,1.557,1.532
	c-0.077,4.854-0.073,9.713-0.002,14.57c0.017,1.23-0.308,1.561-1.547,1.557c-15.928-0.044-31.854-0.044-47.785,0.002
	c-1.204,0.001-1.44-0.334-1.437-1.475C286.506,430.604,286.487,420.577,286.487,410.551"/>
<path fill="#414042" d="M197.23,441.909c1.857-5.243,3.714-10.487,5.567-15.731c5.365-15.174,10.737-30.343,16.063-45.53
	c0.39-1.11,0.879-1.507,2.086-1.496c6.842,0.066,13.684,0.065,20.525,0c1.167-0.012,1.599,0.409,1.962,1.44
	c7.035,19.992,14.098,39.976,21.193,59.947c0.434,1.217,0.357,1.584-1.057,1.565c-5.743-0.069-11.49-0.046-17.233-0.01
	c-0.921,0.006-1.387-0.214-1.666-1.162c-0.722-2.449-1.601-4.853-2.361-7.287c-0.249-0.785-0.537-1.2-1.486-1.194
	c-6.477,0.046-12.95,0.037-19.426,0.012c-0.816-0.004-1.192,0.258-1.429,1.062c-0.751,2.547-1.616,5.059-2.396,7.598
	c-0.191,0.629-0.424,0.969-1.162,0.967c-6.265-0.03-12.531-0.025-18.8-0.036C197.521,442.054,197.429,441.987,197.23,441.909
	 M231.166,399.334c-0.975,2.977-1.827,5.592-2.677,8.208c-0.982,3.013-1.962,6.028-2.94,9.043c-0.153,0.476-0.516,1.049,0.458,1.047
	c3.64-0.004,7.279-0.002,11.116-0.002C235.136,411.535,233.209,405.616,231.166,399.334"/>
<path fill="#414042" d="M37.021,396.849c-6.19,0-12.03,0-17.871,0c-1.985,0-3.969-0.035-5.953,0.015
	c-0.821,0.021-1.087-0.258-1.083-1.07c0.025-5.172,0.033-10.342-0.006-15.512c-0.009-0.946,0.375-1.112,1.208-1.112
	c16.085,0.017,32.171,0.021,48.256-0.004c0.941-0.002,1.26,0.231,1.247,1.219c-0.056,3.966-0.045,7.937-0.002,11.907
	c0.008,0.762-0.339,1.265-0.759,1.801c-7.593,9.633-15.179,19.27-22.766,28.909c-0.317,0.401-0.617,0.814-0.939,1.242
	c0.452,0.413,0.936,0.218,1.367,0.22c7.208,0.017,14.415,0.036,21.621-0.015c1.121-0.008,1.51,0.2,1.49,1.427
	c-0.08,4.908-0.067,9.818-0.009,14.727c0.013,1.103-0.174,1.509-1.418,1.506c-15.929-0.048-31.858-0.05-47.787,0.001
	c-1.305,0.004-1.536-0.428-1.515-1.595c0.067-3.603,0.06-7.207,0.002-10.81c-0.015-1.062,0.298-1.875,0.954-2.696
	c7.757-9.704,15.485-19.432,23.221-29.153C36.463,397.624,36.631,397.377,37.021,396.849"/>
<path fill="#414042" d="M342.412,411.905c0-5.584,0.037-11.171-0.03-16.755c-0.014-1.192,0.325-1.477,1.486-1.465
	c5.689,0.063,11.381,0.075,17.069-0.006c1.259-0.017,1.412,0.42,1.406,1.508c-0.038,9.031-0.022,18.062-0.022,27.093
	c0,3.553,0.932,4.245,4.407,3.272c1.764-0.493,1.775-0.495,1.827,1.292c0.124,4.328,0.208,8.657,0.365,12.982
	c0.035,0.978-0.172,1.456-1.238,1.698c-4.345,0.984-8.705,1.662-13.173,1.45c-6.459-0.304-10.445-3.766-11.635-10.12
	c-0.317-1.697-0.457-3.407-0.46-5.132C342.408,422.452,342.412,417.179,342.412,411.905"/>
<path fill="#424143" d="M352.209,372.495c2.445,0.008,4.494,0.252,6.435,1.131c2.1,0.953,3.458,2.579,3.876,4.792
	c0.998,5.289-0.185,10.665-8.019,11.337c-2.086,0.18-4.153,0.159-6.201-0.319c-4.566-1.062-6.538-3.819-6.4-8.932
	c0.114-4.272,2.545-6.985,6.924-7.709C350.058,372.59,351.296,372.409,352.209,372.495"/>
<path fill="#464547" d="M158.155,469.333c0.61-0.78,1.283-1.471,2.332-1.639c2.714-0.438,4.344,0.88,4.412,3.651
	c0.039,1.618-0.012,3.236,0.014,4.851c0.025,1.552,0.15,1.636,1.741,1.385c0.286,1.082,0.304,1.96-1.178,2.096
	c-1.679,0.155-2.569-0.33-2.668-1.84c-0.123-1.87-0.029-3.756-0.063-5.634c-0.017-1.024-0.199-1.985-1.387-2.35
	c-1.507-0.468-2.797,0.548-2.846,2.359c-0.056,2.031-0.048,4.068,0.001,6.103c0.02,0.854-0.205,1.206-1.131,1.204
	c-0.918,0-1.154-0.34-1.133-1.2c0.049-1.981,0.045-3.964,0.005-5.945c-0.033-1.716-0.754-2.608-2.027-2.652
	c-1.298-0.046-2.386,1.131-2.419,2.725c-0.042,1.983-0.038,3.966,0.003,5.947c0.017,0.774-0.158,1.139-1.027,1.12
	c-0.808-0.017-1.23-0.134-1.213-1.103c0.057-3.183,0.014-6.368,0.027-9.551c0.002-0.424-0.194-1.083,0.538-1.058
	c0.546,0.023,1.35-0.453,1.61,0.392c0.184,0.59,0.318,0.438,0.706,0.235C154.968,467.118,156.251,467.324,158.155,469.333"/>
<path fill="#464547" d="M73.256,469.375c1.162-1.829,2.854-2.062,4.603-1.534c1.869,0.562,2.134,2.243,2.169,3.926
	c0.032,1.461,0.045,2.923-0.002,4.383c-0.041,1.261,0.235,2.023,1.714,1.341c0.181,1,0.472,1.936-0.976,2.161
	c-1.675,0.258-2.67-0.178-2.804-1.634c-0.176-1.916-0.104-3.854-0.127-5.781c-0.01-0.927-0.157-1.8-1.055-2.285
	c-1.467-0.792-3.122,0.334-3.187,2.226c-0.064,1.928-0.011,3.859-0.017,5.789c-0.002,0.755,0.231,1.55-1.079,1.563
	c-1.244,0.012-1.166-0.667-1.158-1.488c0.017-1.878,0.026-3.756,0-5.634c-0.026-1.757-0.677-2.608-1.979-2.68
	c-1.296-0.071-2.421,1.085-2.468,2.684c-0.057,1.979-0.035,3.964-0.004,5.946c0.012,0.724-0.069,1.164-0.986,1.16
	c-0.892-0.002-1.167-0.294-1.155-1.177c0.043-3.181,0.012-6.364,0.024-9.545c0.002-0.386-0.144-0.986,0.452-0.984
	c0.542,0.002,1.374-0.466,1.606,0.39c0.228,0.835,0.464,0.361,0.804,0.159C69.783,467.093,71.446,467.368,73.256,469.375"/>
<path fill="#464547" d="M86.737,478.9c0,1.183,0.006,2.22-0.002,3.257c-0.007,0.749,0.232,1.53-1.081,1.542
	c-1.258,0.013-1.158-0.661-1.154-1.475c0.012-3.596,0.029-7.191-0.014-10.787c-0.01-0.843,0.457-2.26-1.406-1.665
	c-0.323,0.104-0.354-0.319-0.331-0.552c0.041-0.424-0.372-0.977,0.247-1.253c0.927-0.418,2.031-0.753,2.79-0.002
	c0.735,0.728,1.116,0.575,1.88,0.132c2.203-1.272,4.987-0.296,5.999,2.105c0.947,2.25,0.978,4.585,0.019,6.843
	C92.577,479.661,90.277,480.291,86.737,478.9 M86.737,473.648c0,0.523,0.055,1.051-0.01,1.566c-0.159,1.25,0.386,1.966,1.56,2.321
	c1.197,0.363,2.167,0.023,2.93-0.9c1.211-1.467,1.204-4.583-0.006-6.028c-0.779-0.928-1.78-1.225-2.95-0.877
	c-1.17,0.352-1.694,1.11-1.536,2.352C86.792,472.6,86.737,473.126,86.737,473.648"/>
<path fill="#464547" d="M139.382,470.645c0,1.93-0.014,3.859,0.007,5.787c0.008,0.6-0.097,1.362,0.902,1.269
	c0.349-0.033,0.842-0.502,0.83,0.311c-0.007,0.518,0.366,1.194-0.472,1.441c-1.02,0.3-2.095,0.571-2.903-0.352
	c-0.427-0.487-0.642-0.415-1.129-0.144c-3.067,1.708-6,0.376-6.808-3.034c-0.379-1.611-0.348-3.212,0.065-4.797
	c0.769-2.948,3.416-4.303,6.18-3.07c0.99,0.443,1.155,0.226,1.103-0.711c-0.041-0.781-0.004-1.564-0.009-2.348
	c-0.006-0.73-0.137-1.379,1.047-1.404c1.205-0.025,1.213,0.556,1.197,1.419C139.358,466.889,139.382,468.767,139.382,470.645
	 M137.15,473.822c0-0.518-0.059-1.045,0.012-1.555c0.186-1.358-0.368-2.205-1.673-2.555c-1.334-0.359-2.413,0.128-3.046,1.276
	c-0.969,1.748-0.965,3.613-0.004,5.357c0.629,1.143,1.721,1.64,3.05,1.274c1.285-0.354,1.886-1.183,1.67-2.554
	C137.097,474.663,137.15,474.237,137.15,473.822"/>
<path fill="#464547" d="M52.138,471.887c0-2.142,0.035-4.281-0.019-6.423c-0.021-0.88,0.245-1.183,1.146-1.164
	c2.559,0.054,5.118,0.033,7.678,0.008c0.723-0.008,1.163,0.073,1.158,0.992c-0.004,0.861-0.338,1.057-1.113,1.041
	c-1.88-0.038-3.762,0.019-5.641-0.027c-0.796-0.021-1.056,0.207-1.082,1.042c-0.098,3.23-0.133,3.23,3.099,3.23
	c0.732,0,1.465,0.048,2.193-0.013c0.857-0.071,1.205,0.195,1.197,1.118c-0.009,0.883-0.396,1.034-1.148,1.009
	c-1.305-0.042-2.612-0.011-3.917-0.011c-0.156,0-0.319-0.029-0.47,0.005c-2.058,0.462-0.553,2.031-0.863,3.038
	c-0.155,0.506-0.711,1.788,0.863,1.757c1.932-0.04,3.866,0.023,5.797-0.026c0.822-0.02,1.083,0.254,1.08,1.074
	c-0.002,0.787-0.319,0.97-1.027,0.963c-2.663-0.025-5.328-0.031-7.99,0.001c-0.783,0.012-0.967-0.319-0.956-1.033
	C52.159,476.275,52.138,474.08,52.138,471.887"/>
<path fill="#464547" d="M302.826,468.519c0-1.341,0.05-2.543-0.015-3.735c-0.048-0.865,0.201-1.179,1.118-1.177
	c0.898,0.004,1.133,0.287,1.124,1.158c-0.044,3.754,0.004,7.512-0.033,11.269c-0.011,1.25,0.138,2.163,1.834,1.427
	c-0.146,0.794,0.493,1.643-0.56,2c-0.953,0.323-2.012,0.546-2.78-0.288c-0.455-0.495-0.571-0.673-1.236-0.216
	c-2.344,1.605-5.24,0.728-6.366-1.887c-0.902-2.096-0.915-4.274-0.168-6.416C296.773,467.689,299.356,466.879,302.826,468.519
	 M302.826,473.744c0-0.52-0.059-1.047,0.014-1.555c0.183-1.295-0.338-2.081-1.58-2.447c-1.337-0.397-2.346,0.103-3.095,1.177
	c-0.963,1.381-0.963,4.127-0.004,5.506c0.709,1.016,1.693,1.551,2.958,1.219c1.257-0.333,1.957-1.089,1.722-2.501
	C302.763,474.688,302.826,474.21,302.826,473.744"/>
<path fill="#464547" d="M289.8,478.484c-3.387,2.409-6.635,1.135-7.504-2.908c-0.357-1.666-0.266-3.313,0.317-4.914
	c0.971-2.663,3.451-3.739,6.049-2.637c0.428,0.184,0.642,0.418,1.227-0.069c0.996-0.827,1.979-0.13,1.983,1.246
	c0.005,2.34,0.017,4.685-0.006,7.029c-0.012,1.196,0.308,1.876,1.763,1.217c-0.065,0.772,0.544,1.565-0.504,2.041
	C291.981,480.006,290.742,479.665,289.8,478.484 M289.666,473.692c0-0.522-0.059-1.049,0.012-1.559
	c0.172-1.24-0.371-1.968-1.509-2.356c-1.255-0.428-2.249-0.026-3.022,0.975c-1.131,1.463-1.116,4.436,0.034,5.88
	c0.743,0.931,1.702,1.372,2.893,0.946c1.15-0.411,1.792-1.171,1.603-2.483C289.611,474.636,289.666,474.16,289.666,473.692"/>
<path fill="#464547" d="M267.206,473.715c-0.014,3.943-2.251,6.349-5.686,6.077c-2.075-0.164-3.535-1.248-4.19-3.209
	c-0.88-2.646-0.869-5.277,1.024-7.522c1.383-1.637,3.272-1.915,5.279-1.328C265.876,468.389,267.213,470.662,267.206,473.715
	 M258.964,473.856c-0.092,0.424,0.099,0.979,0.248,1.526c0.378,1.387,1.223,2.32,2.73,2.341c1.496,0.019,2.436-0.854,2.818-2.243
	c0.38-1.377,0.384-2.78-0.197-4.127c-0.474-1.098-1.288-1.731-2.524-1.75c-1.236-0.019-2.058,0.594-2.575,1.672
	C259.1,472.04,258.96,472.854,258.964,473.856"/>
<path fill="#464547" d="M180.155,474.476c-0.678,0-1.357-0.004-2.037,0.002c-1.604,0.011-1.805,0.357-1.062,1.821
	c0.84,1.654,2.882,2.06,4.905,0.968c0.452-0.242,0.868-0.873,1.332,0.054c0.353,0.701,0.431,1.146-0.354,1.643
	c-3.616,2.292-7.759,0.436-8.379-3.791c-0.209-1.416-0.159-2.799,0.315-4.163c0.973-2.803,3.469-4.148,6.168-3.301
	c2.181,0.682,3.414,3.561,2.675,6.129c-0.153,0.529-0.446,0.64-0.903,0.638C181.93,474.472,181.042,474.474,180.155,474.476
	 M179.302,472.676c0.415,0,0.838-0.052,1.245,0.01c1.379,0.2,1.458-0.577,1.185-1.569c-0.235-0.861-0.772-1.44-1.711-1.593
	c-1.066-0.174-1.957,0.099-2.612,0.973c-0.413,0.546-0.822,1.204-0.563,1.857c0.262,0.665,1.006,0.214,1.525,0.313
	C178.67,472.722,178.992,472.676,179.302,472.676"/>
<path fill="#464547" d="M110.826,474.476c-0.677,0-1.354-0.004-2.031,0.002c-1.563,0.013-1.751,0.302-1.113,1.7
	c0.794,1.739,2.942,2.226,4.979,1.091c0.543-0.304,0.935-0.798,1.417,0.165c0.418,0.839,0.163,1.225-0.536,1.576
	c-1.974,0.994-4.03,1.246-5.971,0.113c-2.158-1.259-2.504-3.506-2.443-5.737c0.091-3.361,1.796-5.504,4.51-5.866
	c1.584-0.208,3.026,0.195,4.016,1.546c1.104,1.509,0.954,3.244,0.713,4.961c-0.065,0.457-0.519,0.441-0.883,0.445
	C112.597,474.479,111.713,474.474,110.826,474.476 M109.938,472.676c0.312,0,0.636,0.057,0.931-0.013
	c0.573-0.14,1.501,0.485,1.662-0.558c0.146-0.974-0.2-1.911-1.143-2.361c-1.204-0.575-2.348-0.348-3.222,0.691
	c-0.468,0.556-0.909,1.288-0.575,1.981c0.273,0.571,1.033,0.17,1.57,0.254C109.414,472.707,109.678,472.676,109.938,472.676"/>
<path fill="#464547" d="M218.178,473.729c-0.004,3.939-2.086,6.253-5.483,6.068c-2.075-0.113-3.577-1.129-4.28-3.085
	c-0.966-2.692-0.947-5.363,0.982-7.659c1.381-1.64,3.274-1.903,5.279-1.314C216.939,468.402,218.182,470.561,218.178,473.729
	 M216.043,473.39c-0.048-0.298-0.09-0.926-0.258-1.519c-0.392-1.381-1.25-2.264-2.778-2.264c-1.464,0-2.273,0.866-2.702,2.165
	c-0.439,1.326-0.42,2.664,0.052,3.976c0.449,1.246,1.335,1.999,2.69,1.976c1.335-0.025,2.199-0.765,2.671-2.018
	C215.963,475.053,215.998,474.392,216.043,473.39"/>
<path fill="#464547" d="M318.768,473.685c-0.004,4.276-2.675,6.761-6.427,5.986c-0.052-0.01-0.103-0.014-0.157-0.025
	c-3.003-0.707-4.545-4.339-3.496-8.248c0.825-3.082,3.473-4.587,6.475-3.676C317.418,468.408,318.771,470.645,318.768,473.685
	 M310.504,473.599c0.09,0.615,0.117,1.248,0.281,1.84c0.386,1.391,1.272,2.291,2.778,2.285c1.502-0.006,2.369-0.904,2.774-2.295
	c0.373-1.288,0.365-2.579-0.104-3.833c-0.455-1.219-1.284-2.008-2.678-1.991c-1.372,0.017-2.197,0.757-2.675,1.995
	C310.628,472.248,310.569,472.911,310.504,473.599"/>
<path fill="#464547" d="M255.307,477.488c0.3,1.16,0.325,2.046-1.15,2.188c-1.664,0.161-2.598-0.361-2.686-1.824
	c-0.102-1.714-0.012-3.439-0.04-5.159c-0.033-2.002-0.807-3.003-2.222-2.959c-1.414,0.046-2.438,1.307-2.457,3.07
	c-0.019,1.825-0.03,3.651,0.008,5.476c0.015,0.789-0.073,1.269-1.066,1.238c-0.858-0.025-1.187-0.231-1.171-1.15
	c0.052-3.181,0.013-6.362,0.029-9.543c0-0.378-0.182-0.957,0.42-1.007c0.569-0.046,1.471-0.392,1.671,0.266
	c0.317,1.053,0.653,0.394,1.026,0.181c3.022-1.715,5.745-0.239,5.912,3.241c0.072,1.561,0.095,3.131,0.045,4.692
	C253.582,477.5,253.907,478.168,255.307,477.488"/>
<path fill="#464547" d="M197.333,477.49c0.281,1.146,0.336,2.042-1.15,2.184c-1.66,0.156-2.613-0.376-2.689-1.815
	c-0.094-1.769-0.001-3.548-0.055-5.319c-0.056-1.899-0.839-2.851-2.216-2.818c-1.344,0.031-2.416,1.28-2.441,2.929
	c-0.028,1.876-0.032,3.754,0.005,5.63c0.017,0.791-0.078,1.265-1.07,1.236c-0.857-0.023-1.182-0.237-1.166-1.152
	c0.051-3.179,0.014-6.36,0.027-9.541c0-0.38-0.18-0.959,0.42-1.007c0.571-0.044,1.411-0.392,1.676,0.271
	c0.278,0.69,0.362,0.577,0.893,0.27c3.255-1.88,5.997-0.292,6.047,3.47c0.015,1.408,0.023,2.816-0.004,4.222
	C195.583,477.288,195.734,478.251,197.333,477.49"/>
<path fill="#464547" d="M119.486,468.898c0.771-0.491,1.354-1.02,2.148-1.177c2.729-0.544,4.462,0.724,4.675,3.592
	c0.127,1.714,0.045,3.443,0.053,5.168c0.002,0.652-0.024,1.354,0.935,1.225c0.415-0.057,0.82-0.321,0.865,0.376
	c0.035,0.562,0.17,1.11-0.567,1.431c-1.861,0.812-3.383-0.123-3.428-2.188c-0.035-1.618,0.018-3.24-0.014-4.858
	c-0.034-1.756-0.812-2.725-2.134-2.746c-1.334-0.027-2.503,1.238-2.539,2.845c-0.043,1.93-0.031,3.863,0,5.794
	c0.012,0.723-0.053,1.181-0.978,1.152c-0.814-0.023-1.225-0.149-1.208-1.114c0.057-3.131,0.013-6.267,0.032-9.398
	c0.002-0.514-0.261-1.255,0.708-1.232C118.758,467.787,119.725,467.451,119.486,468.898"/>
<path fill="#464547" d="M233.88,468.954c1.057-0.948,2.073-1.347,3.292-1.307c1.849,0.065,2.881,0.821,3.332,2.659
	c0.478,1.955,0.146,3.951,0.233,5.925c0.038,0.827-0.161,1.855,1.278,1.379c0.51-0.168,0.472,0.268,0.512,0.525
	c0.082,0.516,0.126,1.001-0.489,1.328c-1.658,0.883-3.418-0.027-3.486-1.897c-0.058-1.666,0.007-3.34-0.021-5.008
	c-0.031-1.845-0.841-2.856-2.209-2.839c-1.343,0.017-2.443,1.271-2.468,2.896c-0.029,1.93-0.036,3.863,0.008,5.791
	c0.017,0.78-0.163,1.114-1.026,1.108c-0.872-0.006-1.175-0.252-1.162-1.158c0.049-3.131,0.015-6.261,0.026-9.391
	c0-0.533-0.208-1.236,0.745-1.202C233.167,467.789,234.096,467.475,233.88,468.954"/>
<path fill="#464547" d="M268.738,469.85c-0.083-0.902-0.516-1.785,0.731-2.113c1.488-0.392,2.581,0.011,2.963,1.217
	c0.453,1.423,0.14,2.902,0.216,4.35c0.033,0.575-0.008,1.152,0.04,1.722c0.13,1.543,1.001,2.564,2.193,2.621
	c1.143,0.052,2.245-0.938,2.497-2.378c0.373-2.146-0.036-4.247-0.487-6.339c-0.08-0.378-0.523-1.04,0.254-1.11
	c0.617-0.058,1.538-0.508,1.813,0.588c0.628,2.491,1.055,5.023,0.562,7.569c-0.508,2.616-2.552,3.953-5.319,3.684
	c-2.281-0.218-3.668-1.937-3.699-4.61c-0.015-1.303-0.015-2.608,0-3.911C270.517,469.919,270.206,469.134,268.738,469.85"/>
<path fill="#464547" d="M203.455,479.684c-2.279,0.01-3.302-0.997-3.393-3.427c-0.073-1.875-0.035-3.754-0.008-5.63
	c0.008-0.659-0.054-1.152-0.898-1.026c-0.791,0.121-0.795-0.394-0.791-0.961c0.008-0.537,0.098-0.967,0.764-0.867
	c1.036,0.155,1.269-0.392,1.196-1.274c-0.027-0.306,0.038-0.621,0.053-0.934c0.038-0.766,0.581-0.701,1.118-0.73
	c0.665-0.038,0.854,0.325,0.743,0.858c-0.411,1.957,0.623,2.312,2.231,2.079c0.205-0.029,0.417,0.015,0.623-0.008
	c0.709-0.084,0.883,0.268,0.879,0.914c-0.004,0.609-0.079,0.955-0.829,0.949c-0.917-0.007-2.151-0.439-2.687,0.21
	c-0.619,0.75-0.158,1.998-0.199,3.028c-0.038,0.938-0.026,1.876-0.003,2.816c0.042,1.895,0.817,2.411,2.613,1.775
	c0.458-0.163,0.975-0.755,1.29,0.243c0.25,0.785,0.165,1.282-0.663,1.585C204.8,479.539,204.108,479.729,203.455,479.684"/>
<path fill="#464547" d="M95.928,469.869c0.149-0.766-0.547-1.557,0.356-1.953c0.977-0.426,2.093-0.676,2.907,0.228
	c0.526,0.584,0.716,0.623,1.243,0.04c0.667-0.739,1.631-0.581,2.509-0.468c1.149,0.146,0.959,0.969,0.857,1.77
	c-0.142,1.146-0.805,0.426-1.234,0.346c-1.521-0.287-2.523,0.619-2.629,2.654c-0.104,1.977-0.066,3.968-0.023,5.949
	c0.02,0.833-0.28,1.068-1.084,1.08c-0.863,0.011-1.203-0.22-1.182-1.145c0.057-2.399,0.012-4.803,0.022-7.203
	C97.673,470.022,97.552,469.057,95.928,469.869"/>
<path fill="#464547" d="M320.35,469.913c0.08-0.841-0.514-1.698,0.497-2.063c0.938-0.34,2.01-0.569,2.77,0.283
	c0.512,0.569,0.722,0.623,1.248,0.054c0.678-0.732,1.634-0.577,2.513-0.458c1.158,0.159,0.913,0.957,0.819,1.771
	c-0.141,1.219-0.798,0.413-1.194,0.325c-1.091-0.246-1.831,0.113-2.27,1.124c-0.342,0.776-0.474,1.587-0.47,2.436
	c0.011,1.511,0.021,3.024-0.004,4.536c-0.011,0.712,0.325,1.576-1.024,1.608c-1.337,0.033-1.078-0.787-1.082-1.532
	c-0.004-2.294,0.015-4.589-0.011-6.884C322.13,470.049,321.933,469.118,320.35,469.913"/>
<path fill="#464547" d="M228.154,471.902c0,2.184-0.036,4.372,0.019,6.557c0.021,0.862-0.325,1.064-1.098,1.047
	c-0.698-0.015-1.162-0.034-1.152-0.974c0.046-4.423,0.046-8.848,0.002-13.271c-0.01-0.938,0.457-0.94,1.152-0.963
	c0.788-0.021,1.114,0.197,1.093,1.045C228.122,467.529,228.154,469.716,228.154,471.902"/>
<path fill="#464547" d="M168.8,473.098c0-1.358,0.039-2.715-0.014-4.071c-0.035-0.885,0.137-1.314,1.18-1.299
	c0.989,0.013,1.085,0.455,1.075,1.242c-0.029,2.455-0.017,4.908-0.005,7.361c0.004,0.793-0.071,1.745,1.225,1.278
	c0.563-0.203,0.473,0.193,0.497,0.451c0.049,0.552,0.213,1.12-0.517,1.456c-1.747,0.81-3.327-0.079-3.422-2.033
	c-0.068-1.46-0.013-2.923-0.013-4.385H168.8z"/>
<path fill="#464547" d="M143.326,472.941c0-1.351,0.047-2.706-0.017-4.052c-0.043-0.896,0.28-1.135,1.154-1.156
	c0.974-0.025,1.096,0.405,1.082,1.211c-0.037,2.39-0.027,4.778-0.006,7.17c0.008,0.854-0.191,1.983,1.34,1.482
	c0.388-0.128,0.466,0.102,0.448,0.371c-0.035,0.52,0.304,1.103-0.43,1.49c-1.646,0.868-3.399,0.031-3.53-1.843
	c-0.107-1.552-0.021-3.114-0.021-4.673H143.326z"/>
<path fill="#464547" d="M145.791,464.541c-0.024,0.908-0.55,1.299-1.396,1.272c-0.878-0.026-1.305-0.552-1.262-1.408
	c0.042-0.81,0.498-1.158,1.325-1.148C145.349,463.267,145.82,463.618,145.791,464.541"/>
<path fill="#464547" d="M169.919,463.272c0.937-0.072,1.316,0.407,1.296,1.293c-0.02,0.816-0.441,1.234-1.246,1.248
	c-0.853,0.014-1.355-0.361-1.372-1.282C168.583,463.616,169.013,463.2,169.919,463.272"/>
</svg>
