<?xml version="1.0" encoding="utf-8"?>
<!-- Generator: Adobe Illustrator 15.0.0, SVG Export Plug-In . SVG Version: 6.00 Build 0)  -->
<!DOCTYPE svg PUBLIC "-//W3C//DTD SVG 1.1//EN" "http://www.w3.org/Graphics/SVG/1.1/DTD/svg11.dtd">
<svg version="1.1" id="Layer_1" xmlns="http://www.w3.org/2000/svg" xmlns:xlink="http://www.w3.org/1999/xlink" x="0px" y="0px"
	 width="384.085px" height="442.477px" viewBox="0 0 384.085 442.477" enable-background="new 0 0 384.085 442.477"
	 xml:space="preserve">
<g>
	<path fill="#BEFE07" d="M152.506,180.817c1.173-0.714,1.951-1.844,2.891-2.794c4.289-4.333,8.534-8.711,12.792-13.074
		c10.031-10.28,20.059-20.562,30.089-30.843c4.891-5.016,9.785-10.033,14.675-15.055c2.895-2.971,5.794-5.937,8.66-8.937
		c0.52-0.545,0.807-0.517,1.317,0.01c8.12,8.365,16.257,16.719,24.409,25.053c0.584,0.597,0.564,0.919-0.031,1.525
		c-7.545,7.699-15.057,15.43-22.577,23.154c-6.949,7.139-13.899,14.277-20.85,21.416c-6.948,7.137-13.898,14.274-20.846,21.414
		c-1.359,1.397-2.708,2.803-4.059,4.208c-0.188,0.197-0.466,0.345-0.441,0.684c-0.393,0.019-0.589,0.333-0.83,0.572
		c-0.89,0.884-1.729,1.815-2.582,2.735c-2.222,2.395-4.608,4.628-6.843,7.015c-3.392,3.623-6.942,7.096-10.407,10.65
		c-1.882,1.933-3.723,3.905-5.583,5.861c-0.059-0.061-0.118-0.12-0.178-0.18C152.276,216.426,152.507,198.623,152.506,180.817"/>
	<path fill="#BEFE07" d="M116.076,197.205c-0.275-0.258-0.147-0.594-0.147-0.891c-0.007-15.689-0.005-31.378-0.016-47.067
		c0-0.542,0.145-0.932,0.532-1.327c3.719-3.791,7.414-7.606,11.12-11.41c9.584-9.839,19.171-19.672,28.754-29.511
		c6.863-7.047,13.723-14.098,20.582-21.149c3.352-3.447,6.71-6.888,10.041-10.358c0.497-0.519,0.752-0.551,1.287,0
		c7.283,7.516,14.598,15.003,21.901,22.499c1.384,1.421,1.376,1.424-0.042,2.872c-6.419,6.559-12.841,13.115-19.257,19.679
		c-7.998,8.179-15.99,16.364-23.985,24.548c-7.973,8.16-15.945,16.321-23.917,24.483c-0.238,0.243-0.528,0.457-0.564,0.837
		c-0.361,0.096-0.555,0.404-0.79,0.648c-2.462,2.552-5.031,4.995-7.454,7.589c-2.974,3.188-6.139,6.197-9.15,9.356
		C122.028,191.091,118.917,194.02,116.076,197.205"/>
	<path fill="#BEFE07" d="M187.605,216.859c1.365-0.878,2.307-2.197,3.426-3.326c3.87-3.907,7.688-7.867,11.524-11.807
		c8.287-8.512,16.575-17.025,24.86-25.538c0.021-0.022,0.046-0.043,0.068-0.066c0.933-0.966,0.916-0.951,1.858,0.019
		c4.123,4.236,8.251,8.46,12.376,12.691c4.19,4.299,8.37,8.608,12.577,12.887c0.474,0.48,0.334,0.707-0.055,1.104
		c-4.349,4.449-8.674,8.921-13.017,13.379c-9.584,9.84-19.172,19.673-28.754,29.512c-6.862,7.046-13.723,14.099-20.582,21.147
		c-1.162,1.194-2.312,2.398-3.488,3.578c-0.168,0.17-0.26,0.518-0.625,0.414c0.005-0.472,0.018-0.942,0.017-1.414
		C187.726,251.914,187.947,234.385,187.605,216.859"/>
	<path fill="#AAD709" d="M116.076,197.205c2.842-3.185,5.953-6.113,8.896-9.201c3.011-3.159,6.176-6.168,9.15-9.355
		c2.422-2.595,4.992-5.038,7.454-7.589c0.235-0.244,0.428-0.551,0.79-0.647c2.604,2.655,5.212,5.306,7.813,7.965
		c0.786,0.803,1.553,1.626,2.328,2.44c0.001,17.805-0.23,35.609-0.391,53.413c-2.687-2.726-5.382-5.44-8.055-8.179
		c-5.567-5.707-11.123-11.425-16.684-17.138c-3.679-3.777-7.358-7.555-11.034-11.334
		C116.237,197.469,116.164,197.329,116.076,197.205"/>
	<path fill="#AAD709" d="M187.605,216.859c0.342,17.525,0.123,35.053,0.187,52.58c0.002,0.472-0.011,0.942-0.015,1.414
		c-2.381-2.411-4.77-4.815-7.138-7.238c-3.908-3.997-7.806-8.009-11.707-12.014c-5.367-5.514-10.735-11.03-16.1-16.547
		c-0.194-0.202-0.36-0.431-0.54-0.646c1.859-1.956,3.701-3.928,5.584-5.86c3.463-3.556,7.014-7.028,10.406-10.652
		c2.234-2.387,4.621-4.619,6.842-7.013c0.854-0.921,1.694-1.851,2.583-2.735c0.241-0.238,0.438-0.553,0.831-0.572
		c2.705,2.749,5.41,5.496,8.112,8.249C186.978,216.159,187.287,216.515,187.605,216.859"/>
	<path fill="#424143" d="M181.215,310.625c0-0.389,0-0.719,0-1.05c0-5.346,0.014-10.692-0.015-16.037
		c-0.003-0.712,0.141-0.974,0.917-0.964c3.428,0.045,6.855,0.035,10.283,0.006c0.654-0.006,0.846,0.174,0.846,0.84
		c-0.021,12.078-0.021,24.153,0,36.23c0,0.668-0.191,0.838-0.843,0.832c-2.956-0.035-5.913-0.031-8.869,0
		c-0.543,0.004-0.85-0.207-1.165-0.606c-4.356-5.49-8.727-10.972-13.095-16.454c-0.253-0.317-0.518-0.628-0.8-0.97
		c-0.352,0.279-0.201,0.647-0.203,0.953c-0.011,5.347-0.025,10.695,0.012,16.039c0.006,0.814-0.172,1.06-1.025,1.046
		c-3.365-0.056-6.73-0.046-10.096-0.005c-0.728,0.009-0.874-0.212-0.873-0.901c0.022-12.044,0.022-24.089-0.002-36.133
		c-0.003-0.746,0.244-0.88,0.913-0.87c2.861,0.029,5.723,0.029,8.584,0c0.624-0.007,1.023,0.175,1.42,0.675
		c4.406,5.572,8.839,11.122,13.27,16.677C180.663,310.164,180.797,310.457,181.215,310.625"/>
	<path fill="#AAD709" d="M276.511,172.634c-0.018,9.02-6.098,16.699-14.328,18.354c-9.65,1.939-18.844-3.94-21.219-13.567
		c-2.37-9.604,2.977-19.427,12.147-22.314c10.123-3.188,20.942,3.251,22.988,13.676C276.365,170.143,276.554,171.51,276.511,172.634
		"/>
	<path fill="#414042" d="M152.911,311.328c0.002,8.88-4.854,16.128-12.596,18.666c-11.931,3.908-23.789-3.287-25.203-15.816
		c-0.73-6.471,0.891-12.238,5.588-16.904c3.925-3.898,8.794-5.573,14.249-5.2c9.37,0.642,15.82,6.444,17.635,15.614
		C152.835,308.955,152.938,310.236,152.911,311.328 M133.27,303.606c-2.199,0.051-4.312,1.33-5.685,3.828
		c-0.894,1.629-1.088,3.386-0.937,5.201c0.407,4.895,5.133,8.02,9.704,6.419c3.165-1.11,5.162-4.577,4.792-8.33
		C140.728,306.482,137.826,303.621,133.27,303.606"/>
	<path fill="#414042" d="M248.175,311.482c0-6.007,0.013-12.013-0.019-18.02c-0.002-0.709,0.176-0.889,0.881-0.887
		c9.594,0.024,19.186,0.023,28.777,0.005c0.659-0.001,0.933,0.11,0.921,0.864c-0.05,2.987-0.041,5.975-0.008,8.963
		c0.01,0.664-0.184,0.84-0.841,0.836c-5.787-0.023-11.574-0.001-17.359-0.029c-0.715-0.003-1.027,0.148-0.943,0.921
		c0.08,0.742-0.229,1.742,0.151,2.184c0.45,0.526,1.478,0.168,2.251,0.171c3.965,0.021,7.928,0.028,11.889-0.004
		c0.704-0.009,0.905,0.169,0.894,0.885c-0.044,2.705-0.041,5.408,0,8.111c0.012,0.69-0.223,0.817-0.853,0.813
		c-4.466-0.025-8.933,0.004-13.396-0.029c-0.724-0.005-1.016,0.159-0.935,0.92c0.066,0.622,0.062,1.26,0,1.884
		c-0.066,0.695,0.223,0.813,0.851,0.811c5.787-0.023,11.574,0,17.36-0.029c0.729-0.004,0.952,0.164,0.938,0.922
		c-0.046,2.923-0.045,5.85-0.002,8.773c0.012,0.741-0.186,0.939-0.932,0.938c-9.59-0.026-19.181-0.026-28.776,0
		c-0.725,0.001-0.865-0.2-0.864-0.888C248.187,323.558,248.175,317.521,248.175,311.482"/>
	<path fill="#414042" d="M194.426,330.365c1.117-3.156,2.235-6.314,3.352-9.473c3.231-9.138,6.466-18.272,9.673-27.418
		c0.234-0.669,0.529-0.906,1.257-0.9c4.12,0.04,8.24,0.04,12.359,0c0.703-0.006,0.964,0.247,1.182,0.868
		c4.236,12.039,8.489,24.073,12.763,36.1c0.261,0.733,0.214,0.953-0.638,0.942c-3.458-0.042-6.918-0.029-10.378-0.008
		c-0.553,0.006-0.835-0.128-1.002-0.698c-0.434-1.476-0.965-2.923-1.422-4.388c-0.149-0.474-0.324-0.724-0.894-0.721
		c-3.902,0.028-7.8,0.023-11.699,0.009c-0.491-0.003-0.719,0.154-0.861,0.639c-0.452,1.534-0.973,3.046-1.442,4.576
		c-0.116,0.378-0.256,0.583-0.699,0.581c-3.773-0.02-7.548-0.014-11.322-0.021C194.6,330.453,194.544,330.413,194.426,330.365
		 M214.862,304.729c-0.587,1.791-1.101,3.365-1.613,4.941c-0.59,1.814-1.181,3.631-1.77,5.445c-0.093,0.286-0.312,0.631,0.275,0.629
		c2.193-0.001,4.384,0,6.694,0C217.252,312.076,216.091,308.511,214.862,304.729"/>
	<path fill="#414042" d="M97.949,303.231c-3.728,0-7.245,0-10.763,0c-1.195,0-2.389-0.021-3.584,0.009
		c-0.494,0.013-0.654-0.155-0.652-0.645c0.016-3.114,0.02-6.228-0.003-9.341c-0.005-0.57,0.226-0.669,0.728-0.669
		c9.686,0.01,19.373,0.012,29.059-0.003c0.567-0.002,0.759,0.14,0.751,0.734c-0.033,2.389-0.027,4.779-0.001,7.169
		c0.005,0.46-0.204,0.763-0.457,1.086c-4.573,5.799-9.141,11.604-13.709,17.408c-0.191,0.241-0.372,0.491-0.565,0.747
		c0.272,0.249,0.564,0.132,0.823,0.134c4.34,0.01,8.681,0.021,13.02-0.008c0.675-0.006,0.909,0.119,0.897,0.857
		c-0.048,2.955-0.041,5.912-0.006,8.869c0.008,0.664-0.104,0.908-0.854,0.906c-9.592-0.029-19.185-0.031-28.776,0
		c-0.786,0.004-0.926-0.257-0.913-0.961c0.041-2.168,0.036-4.339,0.001-6.509c-0.01-0.64,0.179-1.129,0.574-1.623
		c4.672-5.844,9.326-11.702,13.984-17.555C97.613,303.698,97.714,303.551,97.949,303.231"/>
	<path fill="#414042" d="M281.853,312.298c0-3.363,0.021-6.726-0.018-10.09c-0.009-0.719,0.195-0.89,0.896-0.881
		c3.424,0.037,6.853,0.044,10.277-0.004c0.76-0.012,0.852,0.251,0.848,0.907c-0.024,5.438-0.013,10.877-0.013,16.316
		c0,2.138,0.561,2.555,2.653,1.969c1.061-0.296,1.069-0.298,1.1,0.779c0.075,2.606,0.126,5.211,0.22,7.817
		c0.021,0.588-0.104,0.877-0.747,1.021c-2.614,0.594-5.24,1.001-7.932,0.872c-3.888-0.182-6.29-2.267-7.006-6.092
		c-0.19-1.022-0.274-2.052-0.278-3.092C281.85,318.647,281.853,315.473,281.853,312.298"/>
	<path fill="#424143" d="M287.751,288.566c1.473,0.004,2.707,0.15,3.876,0.68c1.264,0.574,2.083,1.554,2.334,2.887
		c0.602,3.185-0.11,6.421-4.828,6.825c-1.256,0.11-2.502,0.097-3.735-0.19c-2.749-0.639-3.938-2.3-3.854-5.38
		c0.068-2.572,1.533-4.205,4.17-4.642C286.457,288.623,287.203,288.513,287.751,288.566"/>
	<path fill="#464547" d="M170.895,346.88c0.368-0.469,0.772-0.886,1.404-0.986c1.635-0.263,2.617,0.531,2.657,2.197
		c0.024,0.978-0.007,1.949,0.009,2.923c0.015,0.936,0.09,0.986,1.048,0.833c0.172,0.653,0.184,1.183-0.709,1.263
		c-1.011,0.094-1.547-0.199-1.607-1.107c-0.074-1.127-0.018-2.263-0.038-3.394c-0.01-0.616-0.12-1.196-0.835-1.414
		c-0.908-0.282-1.684,0.33-1.714,1.42c-0.033,1.223-0.029,2.45,0,3.675c0.012,0.515-0.123,0.729-0.681,0.727
		c-0.553,0-0.695-0.206-0.682-0.724c0.03-1.192,0.027-2.387,0.003-3.581c-0.02-1.032-0.454-1.569-1.221-1.596
		c-0.781-0.027-1.437,0.682-1.457,1.642c-0.025,1.193-0.023,2.387,0.002,3.579c0.01,0.468-0.096,0.688-0.619,0.676
		c-0.486-0.011-0.74-0.082-0.73-0.665c0.034-1.916,0.008-3.833,0.016-5.751c0.001-0.255-0.117-0.651,0.324-0.638
		c0.329,0.015,0.813-0.272,0.97,0.237c0.111,0.354,0.191,0.263,0.425,0.141C168.975,345.548,169.748,345.672,170.895,346.88"/>
	<path fill="#464547" d="M119.769,346.906c0.7-1.104,1.719-1.242,2.772-0.924c1.126,0.339,1.285,1.351,1.306,2.363
		c0.02,0.88,0.027,1.761-0.001,2.64c-0.024,0.76,0.142,1.218,1.033,0.808c0.108,0.603,0.284,1.167-0.588,1.303
		c-1.009,0.154-1.608-0.108-1.689-0.984c-0.105-1.153-0.062-2.32-0.076-3.483c-0.006-0.559-0.094-1.082-0.635-1.375
		c-0.884-0.477-1.88,0.2-1.919,1.342c-0.039,1.16-0.007,2.323-0.01,3.485c-0.001,0.453,0.139,0.932-0.65,0.94
		c-0.749,0.009-0.703-0.4-0.698-0.896c0.011-1.132,0.016-2.262,0-3.393c-0.015-1.059-0.407-1.571-1.191-1.614
		c-0.78-0.042-1.458,0.654-1.486,1.618c-0.034,1.19-0.021,2.386-0.002,3.579c0.007,0.438-0.042,0.702-0.594,0.698
		c-0.538-0.002-0.704-0.178-0.696-0.708c0.026-1.915,0.007-3.833,0.014-5.749c0.001-0.232-0.086-0.594,0.272-0.592
		c0.327,0.001,0.828-0.281,0.967,0.234c0.137,0.504,0.279,0.218,0.484,0.097C117.678,345.53,118.679,345.696,119.769,346.906"/>
	<path fill="#464547" d="M127.887,352.643c0,0.712,0.004,1.336-0.001,1.96c-0.004,0.452,0.14,0.921-0.651,0.93
		c-0.757,0.008-0.697-0.398-0.694-0.89c0.007-2.164,0.017-4.329-0.008-6.495c-0.006-0.507,0.275-1.361-0.847-1.003
		c-0.194,0.062-0.213-0.19-0.199-0.332c0.025-0.256-0.224-0.588,0.149-0.754c0.558-0.252,1.223-0.454,1.68-0.002
		c0.442,0.438,0.672,0.347,1.132,0.079c1.327-0.766,3.003-0.178,3.612,1.269c0.57,1.354,0.589,2.762,0.012,4.12
		C131.404,353.1,130.019,353.48,127.887,352.643 M127.887,349.48c0,0.313,0.033,0.633-0.006,0.941
		c-0.096,0.753,0.232,1.186,0.94,1.398c0.72,0.219,1.305,0.014,1.764-0.542c0.73-0.885,0.725-2.761-0.003-3.63
		c-0.47-0.561-1.072-0.738-1.776-0.528c-0.705,0.212-1.021,0.669-0.925,1.417C127.92,348.848,127.887,349.165,127.887,349.48"/>
	<path fill="#464547" d="M159.59,347.671c0,1.162-0.008,2.323,0.004,3.484c0.004,0.361-0.059,0.819,0.543,0.766
		c0.21-0.021,0.507-0.302,0.5,0.186c-0.004,0.312,0.221,0.72-0.284,0.869c-0.614,0.18-1.261,0.342-1.748-0.213
		c-0.258-0.293-0.387-0.251-0.68-0.086c-1.847,1.027-3.613,0.226-4.1-1.827c-0.229-0.97-0.21-1.936,0.039-2.89
		c0.463-1.774,2.057-2.59,3.722-1.85c0.596,0.269,0.695,0.137,0.664-0.427c-0.024-0.47-0.002-0.941-0.006-1.413
		c-0.003-0.44-0.082-0.832,0.631-0.847c0.726-0.015,0.73,0.335,0.72,0.854C159.575,345.409,159.59,346.539,159.59,347.671
		 M158.246,349.584c0-0.312-0.036-0.628,0.008-0.937c0.112-0.817-0.222-1.327-1.008-1.539c-0.803-0.217-1.453,0.078-1.834,0.77
		c-0.583,1.054-0.581,2.174-0.002,3.225c0.378,0.69,1.036,0.987,1.836,0.77c0.773-0.216,1.136-0.714,1.006-1.539
		C158.214,350.09,158.246,349.834,158.246,349.584"/>
	<path fill="#464547" d="M107.052,348.419c0-1.291,0.021-2.577-0.012-3.868c-0.012-0.529,0.147-0.711,0.69-0.701
		c1.541,0.032,3.082,0.02,4.624,0.004c0.436-0.004,0.7,0.045,0.697,0.599c-0.002,0.518-0.204,0.636-0.67,0.626
		c-1.132-0.022-2.265,0.012-3.396-0.015c-0.479-0.013-0.636,0.123-0.652,0.627c-0.059,1.946-0.08,1.946,1.866,1.946
		c0.441,0,0.883,0.027,1.321-0.01c0.516-0.042,0.726,0.118,0.721,0.675c-0.005,0.531-0.239,0.621-0.691,0.606
		c-0.786-0.025-1.573-0.006-2.359-0.006c-0.094,0-0.192-0.018-0.283,0.002c-1.239,0.278-0.333,1.224-0.52,1.83
		c-0.093,0.306-0.428,1.076,0.52,1.059c1.163-0.025,2.328,0.013,3.491-0.018c0.495-0.011,0.652,0.153,0.65,0.648
		c-0.001,0.473-0.192,0.583-0.619,0.58c-1.604-0.017-3.208-0.02-4.811,0c-0.472,0.007-0.583-0.192-0.576-0.623
		C107.065,351.061,107.052,349.739,107.052,348.419"/>
	<path fill="#464547" d="M258.014,346.391c0-0.808,0.03-1.532-0.009-2.249c-0.028-0.521,0.121-0.71,0.674-0.708
		c0.541,0.002,0.682,0.171,0.677,0.694c-0.026,2.263,0.002,4.525-0.02,6.788c-0.007,0.752,0.082,1.302,1.103,0.859
		c-0.087,0.478,0.298,0.989-0.335,1.204c-0.575,0.193-1.212,0.328-1.675-0.174c-0.274-0.298-0.344-0.404-0.745-0.129
		c-1.411,0.967-3.155,0.438-3.832-1.137c-0.545-1.263-0.551-2.574-0.103-3.863C254.37,345.891,255.924,345.402,258.014,346.391
		 M258.014,349.538c0-0.314-0.036-0.632,0.009-0.938c0.109-0.78-0.204-1.254-0.951-1.473c-0.806-0.239-1.414,0.061-1.864,0.707
		c-0.578,0.832-0.578,2.485-0.001,3.316c0.427,0.612,1.019,0.934,1.779,0.733c0.758-0.198,1.179-0.654,1.037-1.506
		C257.977,350.104,258.014,349.816,258.014,349.538"/>
	<path fill="#464547" d="M250.169,352.393c-2.038,1.45-3.995,0.682-4.518-1.752c-0.216-1.002-0.16-1.995,0.191-2.959
		c0.584-1.605,2.077-2.253,3.642-1.587c0.258,0.11,0.388,0.251,0.739-0.043c0.601-0.498,1.191-0.077,1.195,0.75
		c0.002,1.409,0.01,2.821-0.005,4.233c-0.007,0.72,0.186,1.129,1.062,0.732c-0.04,0.464,0.329,0.942-0.305,1.229
		C251.483,353.308,250.738,353.103,250.169,352.393 M250.089,349.505c0-0.314-0.034-0.632,0.007-0.938
		c0.104-0.746-0.222-1.185-0.908-1.419c-0.755-0.258-1.354-0.016-1.82,0.589c-0.68,0.88-0.672,2.671,0.021,3.539
		c0.446,0.562,1.024,0.828,1.742,0.571c0.692-0.248,1.079-0.707,0.965-1.497C250.057,350.073,250.089,349.787,250.089,349.505"/>
	<path fill="#464547" d="M236.565,349.52c-0.008,2.375-1.356,3.825-3.424,3.659c-1.25-0.099-2.129-0.752-2.524-1.933
		c-0.529-1.594-0.522-3.178,0.617-4.529c0.832-0.985,1.971-1.153,3.179-0.8C235.764,346.313,236.568,347.682,236.565,349.52
		 M231.601,349.605c-0.055,0.255,0.061,0.588,0.149,0.916c0.227,0.837,0.736,1.399,1.644,1.412c0.9,0.012,1.468-0.514,1.698-1.351
		c0.229-0.83,0.231-1.675-0.119-2.486c-0.286-0.661-0.775-1.042-1.52-1.054c-0.745-0.01-1.24,0.358-1.551,1.007
		C231.683,348.51,231.599,349.001,231.601,349.605"/>
	<path fill="#464547" d="M184.143,349.977c-0.409,0-0.817-0.002-1.227,0.004c-0.966,0.004-1.087,0.213-0.64,1.096
		c0.506,0.995,1.736,1.24,2.954,0.582c0.273-0.146,0.523-0.524,0.803,0.032c0.211,0.423,0.26,0.69-0.214,0.989
		c-2.177,1.382-4.671,0.263-5.045-2.282c-0.126-0.854-0.096-1.687,0.189-2.507c0.586-1.688,2.089-2.498,3.714-1.987
		c1.314,0.41,2.057,2.144,1.611,3.69c-0.091,0.319-0.269,0.387-0.543,0.383C185.212,349.975,184.677,349.977,184.143,349.977
		 M183.629,348.893c0.25,0,0.505-0.03,0.75,0.008c0.83,0.12,0.878-0.348,0.714-0.945c-0.143-0.518-0.465-0.867-1.031-0.96
		c-0.642-0.104-1.179,0.061-1.573,0.587c-0.249,0.329-0.495,0.725-0.339,1.117c0.158,0.401,0.606,0.13,0.918,0.189
		C183.249,348.922,183.443,348.893,183.629,348.893"/>
	<path fill="#464547" d="M142.394,349.977c-0.408,0-0.815-0.002-1.224,0.004c-0.941,0.006-1.054,0.18-0.67,1.021
		c0.478,1.048,1.772,1.342,2.999,0.657c0.327-0.182,0.563-0.479,0.853,0.101c0.252,0.505,0.098,0.736-0.323,0.948
		c-1.188,0.598-2.427,0.751-3.595,0.068c-1.299-0.759-1.508-2.111-1.471-3.455c0.055-2.024,1.082-3.313,2.716-3.532
		c0.953-0.125,1.822,0.118,2.418,0.932c0.665,0.906,0.574,1.952,0.43,2.987c-0.04,0.274-0.312,0.265-0.532,0.267
		C143.46,349.98,142.928,349.977,142.394,349.977 M141.859,348.893c0.188,0,0.383,0.035,0.561-0.008
		c0.344-0.081,0.904,0.294,1-0.335c0.088-0.587-0.12-1.15-0.688-1.422c-0.725-0.347-1.415-0.208-1.94,0.416
		c-0.282,0.336-0.548,0.776-0.347,1.193c0.165,0.343,0.623,0.102,0.946,0.153C141.543,348.913,141.703,348.893,141.859,348.893"/>
	<path fill="#464547" d="M207.041,349.528c-0.003,2.371-1.257,3.765-3.302,3.653c-1.25-0.067-2.154-0.68-2.576-1.857
		c-0.583-1.62-0.571-3.229,0.589-4.611c0.832-0.988,1.973-1.146,3.179-0.792C206.293,346.321,207.042,347.619,207.041,349.528
		 M205.753,349.324c-0.027-0.179-0.054-0.56-0.154-0.914c-0.236-0.832-0.752-1.364-1.673-1.364c-0.882,0-1.369,0.521-1.627,1.304
		c-0.265,0.798-0.254,1.604,0.03,2.395c0.271,0.751,0.804,1.203,1.62,1.189c0.805-0.015,1.324-0.46,1.608-1.216
		C205.707,350.324,205.728,349.927,205.753,349.324"/>
	<path fill="#464547" d="M267.616,349.501c-0.004,2.576-1.611,4.071-3.872,3.604c-0.03-0.006-0.062-0.008-0.095-0.015
		c-1.809-0.425-2.736-2.613-2.105-4.967c0.498-1.855,2.092-2.763,3.9-2.214C266.802,346.324,267.617,347.671,267.616,349.501
		 M262.638,349.449c0.055,0.371,0.071,0.751,0.17,1.109c0.232,0.836,0.766,1.379,1.673,1.375c0.903-0.005,1.427-0.544,1.67-1.382
		c0.225-0.776,0.22-1.553-0.063-2.308c-0.272-0.734-0.771-1.21-1.611-1.2c-0.827,0.011-1.323,0.456-1.611,1.201
		C262.713,348.638,262.677,349.035,262.638,349.449"/>
	<path fill="#464547" d="M229.398,351.793c0.182,0.698,0.196,1.23-0.691,1.316c-1.002,0.097-1.565-0.217-1.617-1.098
		c-0.062-1.034-0.008-2.071-0.025-3.107c-0.02-1.206-0.484-1.809-1.337-1.781c-0.852,0.026-1.469,0.786-1.479,1.848
		c-0.012,1.099-0.019,2.199,0.004,3.297c0.009,0.477-0.043,0.766-0.642,0.746c-0.517-0.015-0.715-0.139-0.705-0.691
		c0.032-1.915,0.009-3.832,0.019-5.748c0-0.227-0.11-0.575,0.253-0.604c0.342-0.029,0.885-0.236,1.005,0.159
		c0.191,0.635,0.394,0.238,0.618,0.108c1.82-1.032,3.46-0.143,3.561,1.952c0.043,0.938,0.057,1.886,0.027,2.826
		C228.36,351.799,228.557,352.202,229.398,351.793"/>
	<path fill="#464547" d="M194.488,351.793c0.169,0.689,0.202,1.229-0.693,1.314c-0.999,0.096-1.572-0.227-1.619-1.091
		c-0.057-1.067,0-2.139-0.033-3.205c-0.033-1.143-0.504-1.716-1.334-1.696c-0.809,0.018-1.455,0.771-1.471,1.764
		c-0.016,1.131-0.019,2.259,0.004,3.391c0.01,0.477-0.047,0.761-0.645,0.742c-0.516-0.011-0.711-0.141-0.703-0.691
		c0.031-1.915,0.01-3.831,0.018-5.746c0-0.229-0.109-0.576,0.253-0.606c0.345-0.026,0.85-0.236,1.009,0.163
		c0.168,0.416,0.219,0.349,0.539,0.163c1.959-1.133,3.61-0.175,3.641,2.09c0.008,0.849,0.014,1.695-0.002,2.541
		C193.434,351.671,193.524,352.251,194.488,351.793"/>
	<path fill="#464547" d="M147.608,346.618c0.464-0.295,0.815-0.614,1.293-0.708c1.644-0.329,2.688,0.436,2.815,2.163
		c0.077,1.032,0.027,2.073,0.032,3.111c0.001,0.393-0.015,0.815,0.562,0.738c0.25-0.035,0.494-0.192,0.521,0.226
		c0.021,0.34,0.102,0.67-0.341,0.862c-1.121,0.49-2.038-0.074-2.064-1.316c-0.021-0.976,0.01-1.953-0.009-2.926
		c-0.021-1.059-0.489-1.641-1.285-1.653c-0.803-0.017-1.507,0.744-1.529,1.712c-0.026,1.163-0.018,2.326,0,3.489
		c0.008,0.437-0.032,0.713-0.589,0.694c-0.49-0.015-0.737-0.089-0.727-0.671c0.035-1.887,0.008-3.773,0.02-5.659
		c0.001-0.31-0.157-0.758,0.426-0.742C147.17,345.95,147.752,345.747,147.608,346.618"/>
	<path fill="#464547" d="M216.497,346.651c0.636-0.57,1.247-0.81,1.981-0.785c1.113,0.037,1.735,0.493,2.006,1.601
		c0.289,1.177,0.088,2.378,0.142,3.568c0.022,0.496-0.098,1.117,0.77,0.829c0.307-0.101,0.284,0.162,0.309,0.317
		c0.049,0.31,0.075,0.603-0.295,0.8c-0.999,0.531-2.059-0.018-2.1-1.143c-0.035-1.003,0.005-2.012-0.013-3.016
		c-0.02-1.111-0.507-1.72-1.331-1.71c-0.808,0.01-1.471,0.767-1.485,1.744c-0.017,1.162-0.021,2.325,0.005,3.487
		c0.01,0.469-0.099,0.671-0.618,0.667c-0.523-0.003-0.707-0.152-0.699-0.698c0.029-1.885,0.01-3.771,0.016-5.654
		c0-0.321-0.125-0.744,0.449-0.725C216.067,345.951,216.626,345.763,216.497,346.651"/>
	<path fill="#464547" d="M237.487,347.192c-0.05-0.545-0.312-1.075,0.44-1.271c0.896-0.237,1.555,0.006,1.785,0.73
		c0.271,0.858,0.083,1.749,0.13,2.62c0.02,0.347-0.006,0.693,0.024,1.037c0.077,0.93,0.602,1.545,1.319,1.579
		c0.688,0.031,1.354-0.564,1.504-1.434c0.226-1.291-0.021-2.557-0.292-3.816c-0.05-0.228-0.316-0.628,0.152-0.668
		c0.371-0.035,0.926-0.306,1.092,0.354c0.378,1.5,0.634,3.024,0.339,4.559c-0.306,1.574-1.537,2.379-3.204,2.217
		c-1.374-0.13-2.209-1.166-2.229-2.775c-0.009-0.784-0.009-1.57,0-2.356C238.558,347.233,238.372,346.76,237.487,347.192"/>
	<path fill="#464547" d="M198.173,353.114c-1.372,0.006-1.988-0.603-2.042-2.064c-0.045-1.129-0.021-2.26-0.006-3.39
		c0.006-0.396-0.033-0.694-0.54-0.619c-0.477,0.074-0.479-0.237-0.477-0.579c0.004-0.323,0.059-0.581,0.46-0.521
		c0.624,0.094,0.765-0.236,0.722-0.768c-0.018-0.185,0.021-0.375,0.031-0.562c0.022-0.462,0.35-0.423,0.672-0.44
		c0.401-0.021,0.515,0.197,0.448,0.518c-0.248,1.178,0.376,1.392,1.344,1.251c0.123-0.018,0.251,0.01,0.376-0.004
		c0.426-0.051,0.53,0.161,0.528,0.551c-0.002,0.366-0.047,0.573-0.498,0.57c-0.553-0.005-1.296-0.265-1.619,0.127
		c-0.372,0.452-0.095,1.202-0.12,1.824c-0.022,0.563-0.016,1.129-0.002,1.694c0.026,1.142,0.492,1.453,1.574,1.068
		c0.275-0.097,0.587-0.454,0.776,0.147c0.151,0.474,0.099,0.771-0.399,0.954C198.985,353.027,198.568,353.14,198.173,353.114"/>
	<path fill="#464547" d="M133.422,347.204c0.089-0.462-0.33-0.939,0.214-1.177c0.588-0.257,1.26-0.406,1.75,0.137
		c0.316,0.352,0.432,0.375,0.749,0.023c0.401-0.442,0.982-0.35,1.511-0.28c0.691,0.087,0.577,0.583,0.516,1.066
		c-0.085,0.688-0.484,0.257-0.743,0.207c-0.916-0.172-1.519,0.373-1.583,1.6c-0.062,1.19-0.04,2.388-0.014,3.581
		c0.012,0.503-0.169,0.643-0.653,0.65c-0.52,0.007-0.725-0.131-0.712-0.689c0.035-1.443,0.008-2.891,0.014-4.338
		C134.473,347.296,134.4,346.714,133.422,347.204"/>
	<path fill="#464547" d="M268.567,347.23c0.05-0.506-0.31-1.023,0.301-1.243c0.563-0.203,1.21-0.341,1.666,0.171
		c0.309,0.342,0.437,0.375,0.753,0.031c0.408-0.438,0.984-0.347,1.514-0.274c0.697,0.095,0.549,0.575,0.493,1.066
		c-0.086,0.733-0.479,0.249-0.72,0.195c-0.657-0.148-1.104,0.068-1.366,0.678c-0.207,0.467-0.286,0.955-0.284,1.467
		c0.008,0.908,0.014,1.82-0.002,2.73c-0.006,0.43,0.195,0.949-0.616,0.969c-0.806,0.02-0.648-0.474-0.652-0.922
		c-0.001-1.381,0.009-2.764-0.007-4.146C269.64,347.312,269.521,346.752,268.567,347.23"/>
	<path fill="#464547" d="M213.047,348.429c0,1.314-0.021,2.632,0.012,3.947c0.012,0.52-0.195,0.642-0.661,0.631
		c-0.42-0.01-0.699-0.021-0.693-0.586c0.027-2.663,0.027-5.329,0-7.993c-0.005-0.563,0.275-0.565,0.694-0.58
		c0.475-0.012,0.67,0.12,0.658,0.63C213.029,345.795,213.047,347.111,213.047,348.429"/>
	<path fill="#464547" d="M177.305,349.147c0-0.816,0.024-1.635-0.008-2.45c-0.021-0.533,0.083-0.792,0.71-0.784
		c0.596,0.009,0.653,0.274,0.647,0.748c-0.017,1.479-0.01,2.956-0.003,4.433c0.002,0.479-0.043,1.053,0.737,0.771
		c0.34-0.121,0.286,0.116,0.3,0.272c0.03,0.331,0.129,0.673-0.311,0.875c-1.052,0.489-2.003-0.048-2.061-1.225
		c-0.041-0.877-0.007-1.76-0.007-2.64H177.305L177.305,349.147z"/>
	<path fill="#464547" d="M161.965,349.055c0-0.815,0.028-1.631-0.01-2.44c-0.026-0.541,0.168-0.684,0.694-0.697
		c0.586-0.016,0.66,0.243,0.652,0.73c-0.022,1.439-0.016,2.875-0.003,4.316c0.005,0.515-0.116,1.194,0.807,0.893
		c0.234-0.077,0.281,0.062,0.27,0.224c-0.021,0.312,0.183,0.664-0.259,0.897c-0.991,0.523-2.046,0.019-2.125-1.111
		c-0.064-0.934-0.013-1.874-0.013-2.812H161.965z"/>
	<path fill="#464547" d="M163.449,343.996c-0.014,0.547-0.331,0.781-0.841,0.766c-0.528-0.018-0.785-0.334-0.76-0.849
		c0.025-0.488,0.299-0.698,0.798-0.691C163.183,343.228,163.467,343.438,163.449,343.996"/>
	<path fill="#464547" d="M177.979,343.231c0.564-0.045,0.792,0.245,0.781,0.777c-0.013,0.493-0.266,0.745-0.75,0.753
		c-0.514,0.008-0.816-0.219-0.827-0.772C177.174,343.438,177.434,343.187,177.979,343.231"/>
</g>
</svg>
