<?xml version="1.0" encoding="utf-8"?>
<!-- Generator: Adobe Illustrator 15.0.0, SVG Export Plug-In . SVG Version: 6.00 Build 0)  -->
<!DOCTYPE svg PUBLIC "-//W3C//DTD SVG 1.1//EN" "http://www.w3.org/Graphics/SVG/1.1/DTD/svg11.dtd">
<svg version="1.1" id="Layer_1" xmlns="http://www.w3.org/2000/svg" xmlns:xlink="http://www.w3.org/1999/xlink" x="0px" y="0px"
	 width="1920px" height="881.854px" viewBox="0 0 1920 881.854" enable-background="new 0 0 1920 881.854" xml:space="preserve">
<g>
	<path fill="#1F386C" d="M48.447,635.808c26.162-10.984,56.275,1.316,67.26,27.479c10.985,26.159-1.315,56.272-27.477,67.257
		c-26.162,10.986-56.274-1.316-67.257-27.477C9.985,676.906,22.288,646.794,48.447,635.808"/>
	<path fill="#1F386C" d="M238.631,730.642c-7.224-17.206,0.866-37.007,18.069-44.231c17.204-7.223,37.006,0.866,44.229,18.068
		c7.225,17.204-0.865,37.007-18.068,44.231C265.658,755.933,245.856,747.843,238.631,730.642"/>
	<path fill="#00B6DD" d="M330.833,742.894c-2.952-7.025,0.353-15.112,7.378-18.062c7.026-2.949,15.113,0.354,18.064,7.379
		c2.949,7.026-0.354,15.114-7.379,18.062C341.869,753.225,333.783,749.921,330.833,742.894"/>
	<path fill="#1F386C" d="M450.715,783.765c-2.949-7.025,0.354-15.112,7.379-18.062c7.026-2.948,15.112,0.354,18.062,7.378
		c2.951,7.024-0.352,15.114-7.379,18.063C461.751,794.095,453.666,790.791,450.715,783.765"/>
	<path fill="#00B6DD" d="M377.061,745.896c-1.588-3.784,0.19-8.139,3.976-9.729c3.782-1.588,8.138,0.19,9.727,3.976
		c1.588,3.783-0.19,8.138-3.974,9.726C383.003,751.458,378.648,749.68,377.061,745.896"/>
	<path fill="#00B6DD" d="M236.568,663.556c-1.588-3.784,0.191-8.14,3.976-9.729c3.784-1.588,8.139,0.19,9.727,3.975
		c1.59,3.784-0.188,8.14-3.973,9.729C242.514,669.118,238.16,667.34,236.568,663.556"/>
	<path fill="#00B6DD" d="M386.035,786.509c3.784-1.59,8.139,0.19,9.729,3.974c1.587,3.783-0.193,8.138-3.977,9.729
		c-3.783,1.588-8.138-0.191-9.727-3.975C380.473,792.452,382.251,788.098,386.035,786.509"/>
	<path fill="#00B6DD" d="M477.884,812.317c2.186-0.918,4.702,0.109,5.621,2.296c0.916,2.185-0.112,4.701-2.297,5.618
		c-2.185,0.918-4.703-0.109-5.62-2.294C474.67,815.752,475.698,813.234,477.884,812.317"/>
	<path fill="#00B6DD" d="M401.068,749.568c-0.624-1.482,0.073-3.188,1.555-3.813c1.484-0.621,3.191,0.076,3.814,1.559
		c0.622,1.482-0.074,3.189-1.558,3.812C403.397,751.748,401.69,751.051,401.068,749.568"/>
	<path fill="#00B6DD" d="M551.568,809.296c1.484-0.623,3.191,0.074,3.813,1.558c0.623,1.482-0.073,3.19-1.557,3.814
		c-1.482,0.62-3.189-0.076-3.812-1.559C549.389,811.625,550.085,809.92,551.568,809.296"/>
	<path fill="#00B6DD" d="M490.885,794.075c1.482-0.623,3.19,0.074,3.811,1.557c0.624,1.483-0.073,3.19-1.555,3.813
		c-1.484,0.622-3.189-0.074-3.813-1.558C488.705,796.403,489.401,794.697,490.885,794.075"/>
	<path fill="#00B6DD" d="M412.282,764.133c-0.998-2.378,0.119-5.111,2.495-6.109c2.376-0.996,5.109,0.121,6.105,2.496
		c1,2.375-0.117,5.109-2.493,6.105C416.014,767.625,413.28,766.507,412.282,764.133"/>
	<path fill="#00B6DD" d="M433.375,766.285c-0.918-2.188,0.111-4.702,2.297-5.621c2.184-0.916,4.702,0.11,5.62,2.296
		c0.916,2.186-0.11,4.704-2.296,5.62C436.809,769.499,434.292,768.47,433.375,766.285"/>
	<path fill="#1F386C" d="M466.465,674.705c17.205-7.223,37.007,0.865,44.23,18.07c7.224,17.203-0.865,37.007-18.068,44.229
		c-17.204,7.223-37.006-0.867-44.231-18.069C441.173,701.732,449.262,681.931,466.465,674.705"/>
	<path fill="#59B13E" d="M435.971,814.336c2.004,1.264,2.606,3.916,1.344,5.92c-1.265,2.008-3.917,2.607-5.921,1.344
		c-2.007-1.265-2.607-3.915-1.342-5.92C431.315,813.673,433.964,813.072,435.971,814.336"/>
	<path fill="#59B13E" d="M306.404,759.504c-7.523-1.21-12.642-8.289-11.431-15.814c1.209-7.522,8.289-12.64,15.812-11.431
		c7.523,1.211,12.64,8.29,11.431,15.812C321.007,755.595,313.927,760.713,306.404,759.504"/>
	<path fill="#59B13E" d="M246.167,708.033c-4.05-0.65-6.808-4.464-6.156-8.514c0.653-4.053,4.464-6.81,8.516-6.157
		c4.053,0.652,6.809,4.464,6.156,8.517C254.032,705.93,250.219,708.686,246.167,708.033"/>
	<path fill="#59B13E" d="M335.426,765.274c-2.34-0.376-3.933-2.579-3.555-4.921c0.376-2.338,2.578-3.931,4.917-3.555
		c2.342,0.376,3.933,2.579,3.557,4.92C339.97,764.06,337.766,765.651,335.426,765.274"/>
	<path fill="#59B13E" d="M235.838,721.312c-1.587-0.256-2.666-1.75-2.412-3.337c0.254-1.59,1.748-2.67,3.338-2.413
		c1.587,0.253,2.667,1.747,2.412,3.337C238.92,720.485,237.426,721.565,235.838,721.312"/>
	<path fill="#59B13E" d="M254.521,671.399c-1.588-0.257-2.669-1.751-2.414-3.339c0.256-1.586,1.751-2.668,3.339-2.412
		c1.586,0.255,2.667,1.748,2.41,3.337C257.602,670.575,256.109,671.654,254.521,671.399"/>
	<path fill="#59B13E" d="M243.226,654.242c-1.588-0.256-2.667-1.75-2.413-3.338c0.255-1.586,1.75-2.667,3.338-2.413
		c1.588,0.256,2.667,1.749,2.412,3.34C246.308,653.417,244.815,654.498,243.226,654.242"/>
	<path fill="#59B13E" d="M271.283,728.885c-1.588-0.254-2.667-1.75-2.412-3.337c0.255-1.587,1.749-2.668,3.338-2.412
		c1.587,0.253,2.667,1.749,2.412,3.336C274.367,728.061,272.873,729.14,271.283,728.885"/>
	<path fill="#59B13E" d="M296.508,725.258c-1.587-0.256-2.669-1.749-2.413-3.338c0.256-1.586,1.75-2.667,3.338-2.41
		c1.585,0.253,2.667,1.747,2.412,3.336C299.588,724.434,298.096,725.513,296.508,725.258"/>
	<path fill="#59B13E" d="M265.5,688.753c-2.34-0.376-3.934-2.579-3.555-4.917c0.376-2.342,2.576-3.935,4.917-3.559
		c2.342,0.376,3.933,2.579,3.557,4.92S267.839,689.131,265.5,688.753"/>
	<path fill="#59B13E" d="M245.723,684.009c-2.34-0.378-3.933-2.579-3.555-4.92c0.375-2.34,2.578-3.934,4.919-3.557
		c2.34,0.376,3.933,2.578,3.556,4.921C250.267,682.792,248.063,684.386,245.723,684.009"/>
	<path fill="#DEDC00" d="M275.123,711.971c-4.052-0.652-6.809-4.465-6.157-8.516c0.653-4.052,4.466-6.81,8.516-6.157
		c4.054,0.651,6.809,4.464,6.159,8.516C282.987,709.865,279.176,712.622,275.123,711.971"/>
	<path fill="#EE7203" d="M101.762,685.536c49.621-20.836,106.734,2.498,127.571,52.117c20.837,49.62-2.499,106.734-52.117,127.571
		c-49.619,20.836-106.735-2.498-127.57-52.117C28.809,763.486,52.143,706.373,101.762,685.536"/>
	<path fill="#F39200" d="M384.556,691.379c-5.212-12.408,0.623-26.693,13.035-31.904c12.41-5.213,26.694,0.623,31.905,13.034
		c5.212,12.409-0.623,26.694-13.033,31.906C404.05,709.625,389.766,703.791,384.556,691.379"/>
	<path fill="#F39200" d="M451.066,700.22c-2.127-5.068,0.256-10.901,5.323-13.03c5.068-2.127,10.902,0.256,13.031,5.323
		c2.127,5.068-0.256,10.902-5.324,13.03C459.028,707.67,453.194,705.287,451.066,700.22"/>
	<path fill="#F39200" d="M537.547,729.703c-2.129-5.068,0.254-10.902,5.322-13.03c5.069-2.129,10.903,0.254,13.03,5.323
		c2.127,5.067-0.256,10.901-5.324,13.029S539.674,734.771,537.547,729.703"/>
	<path fill="#F39200" d="M484.415,702.384c-1.146-2.729,0.136-5.87,2.866-7.017c2.729-1.146,5.871,0.137,7.018,2.867
		c1.145,2.729-0.137,5.871-2.868,7.018C488.702,706.396,485.56,705.113,484.415,702.384"/>
	<path fill="#F39200" d="M517.589,733.285c-1.144-2.729,0.139-5.871,2.869-7.016c2.729-1.147,5.87,0.135,7.015,2.865
		c1.146,2.73-0.136,5.873-2.866,7.019C521.877,737.3,518.735,736.015,517.589,733.285"/>
	<path fill="#F39200" d="M383.067,642.987c-1.146-2.73,0.137-5.871,2.866-7.018c2.73-1.146,5.871,0.137,7.018,2.867
		c1.146,2.729-0.136,5.871-2.866,7.017C387.356,647,384.212,645.716,383.067,642.987"/>
	<path fill="#F39200" d="M359.504,688.485c-1.146-2.729,0.139-5.869,2.866-7.016c2.73-1.146,5.873,0.137,7.018,2.867
		c1.148,2.729-0.136,5.87-2.866,7.017C363.791,692.498,360.652,691.215,359.504,688.485"/>
	<path fill="#F39200" d="M367.785,655.802c-0.662-1.577,0.08-3.391,1.657-4.053c1.577-0.663,3.391,0.077,4.054,1.655
		c0.662,1.577-0.08,3.391-1.657,4.055C370.263,658.12,368.449,657.379,367.785,655.802"/>
	<path fill="#F39200" d="M529.531,746.931c-0.663-1.577,0.079-3.393,1.655-4.053c1.576-0.664,3.39,0.077,4.055,1.653
		c0.66,1.578-0.082,3.393-1.659,4.055C532.007,749.248,530.193,748.506,529.531,746.931"/>
	<path fill="#F39200" d="M516.454,746.545c-0.449-1.071,0.053-2.301,1.125-2.751c1.068-0.449,2.3,0.055,2.749,1.124
		c0.449,1.069-0.054,2.301-1.122,2.75C518.133,748.117,516.902,747.613,516.454,746.545"/>
	<path fill="#F39200" d="M501.732,705.034c-0.45-1.07,0.055-2.302,1.123-2.75c1.071-0.449,2.301,0.055,2.75,1.124
		c0.449,1.068-0.053,2.301-1.124,2.75C503.413,706.606,502.183,706.104,501.732,705.034"/>
	<path fill="#F39200" d="M509.82,715.54c-0.717-1.716,0.086-3.687,1.801-4.407c1.714-0.718,3.687,0.087,4.405,1.801
		c0.72,1.713-0.087,3.686-1.798,4.405C512.513,718.059,510.54,717.254,509.82,715.54"/>
	<path fill="#F39200" d="M525.038,717.093c-0.662-1.577,0.08-3.391,1.656-4.053c1.577-0.663,3.392,0.077,4.056,1.655
		c0.662,1.575-0.08,3.391-1.659,4.053C527.516,719.41,525.7,718.67,525.038,717.093"/>
	<path fill="#F39200" d="M364.689,623.413c-0.662-1.576,0.08-3.392,1.657-4.054c1.576-0.662,3.393,0.077,4.051,1.655
		c0.665,1.577-0.079,3.392-1.654,4.055C367.167,625.73,365.352,624.989,364.689,623.413"/>
	<path fill="#F39200" d="M263.267,805.21c12.412-5.212,26.696,0.625,31.909,13.034c5.21,12.41-0.625,26.696-13.036,31.907
		c-12.409,5.21-26.693-0.625-31.906-13.035C245.021,824.708,250.858,810.422,263.267,805.21"/>
	<path fill="#F39200" d="M25,689.059c7.628-3.202,16.407,0.386,19.61,8.013c3.203,7.626-0.384,16.406-8.013,19.609
		c-7.626,3.203-16.407-0.385-19.607-8.012C13.785,701.041,17.373,692.262,25,689.059"/>
	<path fill="#971B81" d="M238.733,773.475c-4.033,0.753-7.914-1.908-8.666-5.941c-0.753-4.034,1.908-7.914,5.942-8.668
		c4.033-0.751,7.914,1.907,8.667,5.943C245.429,768.841,242.77,772.723,238.733,773.475"/>
	<path fill="#E6007D" d="M267.32,767.419c-4.032,0.753-7.914-1.908-8.667-5.942c-0.75-4.034,1.909-7.913,5.943-8.666
		c4.035-0.754,7.915,1.906,8.667,5.942C274.016,762.785,271.356,766.665,267.32,767.419"/>
	<path fill="#E6007D" d="M233.486,740.243c-1.583,0.296-3.101-0.748-3.397-2.327c-0.296-1.583,0.748-3.104,2.329-3.397
		c1.581-0.296,3.101,0.747,3.395,2.328C236.109,738.429,235.066,739.948,233.486,740.243"/>
	<path fill="#E6007D" d="M230.476,723.722c-1.584,0.294-3.102-0.749-3.398-2.329c-0.294-1.581,0.749-3.102,2.329-3.396
		c1.581-0.295,3.102,0.748,3.396,2.329S232.055,723.427,230.476,723.722"/>
	<path fill="#E6007D" d="M250.435,748.806c-2.33,0.435-4.572-1.104-5.006-3.432c-0.436-2.331,1.102-4.573,3.433-5.008
		c2.33-0.434,4.571,1.103,5.006,3.434C254.302,746.131,252.765,748.371,250.435,748.806"/>
	<path fill="#E6007D" d="M28.265,852.941c-23.726-15.561-30.344-47.41-14.782-71.134c15.56-23.728,47.409-30.346,71.135-14.784
		c23.724,15.561,30.342,47.411,14.782,71.135C83.838,861.884,51.989,868.502,28.265,852.941"/>
	<path fill="#DEDC00" d="M373.977,737.457c-12.824-2.063-21.55-14.131-19.486-26.953c2.064-12.822,14.132-21.551,26.953-19.488
		c12.829,2.064,21.551,14.127,19.489,26.953C398.865,730.793,386.802,739.52,373.977,737.457"/>
	<path fill="#971B81" d="M372.285,831.896c-22.782,4.256-44.707-10.782-48.959-33.563c-4.252-22.79,10.781-44.708,33.576-48.964
		c22.781-4.248,44.704,10.773,48.959,33.57C410.112,805.721,395.087,827.646,372.285,831.896"/>
	<path fill="#00B6DD" d="M155.747,686.019c-5.053,5.703-13.773,6.228-19.477,1.174c-5.701-5.055-6.228-13.774-1.173-19.477
		c5.055-5.702,13.775-6.229,19.476-1.173C160.277,671.596,160.802,680.314,155.747,686.019"/>
	<path fill="#1F386C" d="M118.145,586.721c-5.054,5.702-13.773,6.227-19.477,1.174c-5.702-5.056-6.227-13.774-1.174-19.477
		c5.053-5.703,13.775-6.23,19.477-1.174C122.674,572.299,123.2,581.018,118.145,586.721"/>
	<path fill="#00B6DD" d="M115.921,669.512c-2.722,3.07-7.418,3.354-10.49,0.631c-3.07-2.722-3.354-7.418-0.63-10.489
		c2.721-3.071,7.416-3.354,10.487-0.632C118.359,661.745,118.644,666.44,115.921,669.512"/>
	<path fill="#00B6DD" d="M108.831,646.281c-1.066,1.205-2.905,1.315-4.11,0.249c-1.203-1.066-1.313-2.907-0.248-4.111
		c1.066-1.203,2.907-1.314,4.111-0.247C109.787,643.238,109.898,645.079,108.831,646.281"/>
	<path fill="#00B6DD" d="M117.1,629.866c-1.71,1.93-4.657,2.106-6.586,0.397c-1.927-1.709-2.105-4.657-0.395-6.585
		c1.707-1.929,4.656-2.106,6.583-0.397C118.631,624.989,118.808,627.938,117.1,629.866"/>
	<path fill="#00B6DD" d="M109.903,609.922c-1.573,1.775-4.286,1.937-6.061,0.365c-1.773-1.573-1.938-4.286-0.366-6.061
		c1.573-1.773,4.287-1.938,6.061-0.365C111.312,605.435,111.475,608.147,109.903,609.922"/>
	<path fill="#F39200" d="M86.044,659.914c-8.926,10.072-24.33,11.002-34.402,2.072c-10.073-8.927-11.002-24.329-2.073-34.402
		c8.927-10.072,24.33-11.002,34.403-2.074C94.044,634.439,94.973,649.841,86.044,659.914"/>
	<path fill="#F39200" d="M65.2,596.139c-3.646,4.111-9.937,4.493-14.05,0.846c-4.113-3.645-4.493-9.936-0.848-14.05
		c3.646-4.113,9.937-4.493,14.05-0.846C68.466,585.732,68.845,592.024,65.2,596.139"/>
	<path fill="#F39200" d="M54.31,505.42c-3.646,4.116-9.936,4.494-14.05,0.848c-4.115-3.646-4.494-9.937-0.847-14.05
		c3.646-4.112,9.936-4.491,14.05-0.846C57.577,495.018,57.956,501.308,54.31,505.42"/>
	<path fill="#F39200" d="M52.705,565.143c-1.964,2.216-5.352,2.422-7.566,0.457c-2.216-1.964-2.421-5.351-0.456-7.566
		c1.964-2.216,5.352-2.42,7.567-0.456C54.464,559.54,54.668,562.929,52.705,565.143"/>
	<path fill="#F39200" d="M66.185,521.857c-1.964,2.213-5.351,2.418-7.566,0.453c-2.214-1.963-2.42-5.351-0.455-7.564
		c1.964-2.216,5.352-2.421,7.566-0.456C67.945,516.253,68.147,519.642,66.185,521.857"/>
	<path fill="#F39200" d="M94.289,683.745c-1.963,2.217-5.352,2.418-7.567,0.457c-2.214-1.966-2.42-5.354-0.455-7.567
		c1.962-2.217,5.35-2.421,7.565-0.456S96.251,681.529,94.289,683.745"/>
	<path fill="#F39200" d="M73.31,505.183c-1.134,1.28-3.091,1.397-4.37,0.263c-1.279-1.133-1.399-3.088-0.265-4.37
		c1.136-1.278,3.092-1.396,4.372-0.261C74.326,501.947,74.444,503.903,73.31,505.183"/>
	<path fill="#F39200" d="M78.627,517.136c-0.77,0.869-2.096,0.949-2.966,0.179c-0.868-0.77-0.947-2.097-0.178-2.965
		c0.77-0.869,2.097-0.949,2.964-0.18C79.316,514.941,79.396,516.269,78.627,517.136"/>
	<path fill="#F39200" d="M47.591,548.387c-0.77,0.869-2.098,0.949-2.965,0.181c-0.868-0.771-0.948-2.099-0.179-2.967
		c0.77-0.866,2.098-0.949,2.966-0.179C48.28,546.191,48.359,547.518,47.591,548.387"/>
	<path fill="#F39200" d="M53.556,536.545c-1.234,1.391-3.36,1.521-4.751,0.287c-1.39-1.234-1.519-3.361-0.286-4.751
		c1.232-1.392,3.36-1.518,4.75-0.286C54.661,533.029,54.788,535.155,53.556,536.545"/>
	<path fill="#F39200" d="M48.363,522.158c-1.135,1.279-3.091,1.396-4.371,0.263c-1.28-1.134-1.398-3.091-0.264-4.372
		c1.134-1.279,3.091-1.396,4.372-0.262C49.379,518.921,49.498,520.878,48.363,522.158"/>
</g>
<g>
	<path fill="#961B80" d="M1795.299,10c-52.865,0.153-95.58,43.188-95.425,96.046c0.225,52.899,43.221,95.601,96.073,95.416
		c52.892-0.163,95.604-43.196,95.426-96.045C1891.173,52.516,1848.188,9.837,1795.299,10"/>
	<path fill="#E5007E" d="M1747.746,177.349c-21.588,0.056-39.035,17.615-38.955,39.196c0.077,21.625,17.604,39.069,39.211,38.997
		c21.575-0.08,39.028-17.64,38.957-39.25C1786.877,194.718,1769.323,177.271,1747.746,177.349"/>
	<path fill="#961B80" d="M1659.306,145.902c-11.626,0.043-21.031,9.506-20.987,21.127c0.049,11.629,9.521,21.004,21.125,20.961
		c11.637-0.018,21.02-9.463,20.997-21.104C1680.395,155.257,1670.932,145.851,1659.306,145.902"/>
	<path fill="#961B80" d="M1821.938,218.51c-11.622,0.049-21.042,9.482-20.985,21.134c0.048,11.629,9.496,21.007,21.124,20.963
		c11.637-0.021,21.008-9.496,20.999-21.105C1843.028,227.874,1833.567,218.466,1821.938,218.51"/>
	<path fill="#E5007E" d="M1617.999,78.824c-11.629,0.044-21.044,9.477-20.986,21.128c0.044,11.628,9.521,21.004,21.122,20.963
		c11.638-0.021,21.021-9.467,20.996-21.103C1639.088,88.182,1629.628,78.772,1617.999,78.824"/>
	<path fill="#E5007E" d="M1839.328,38.332c-11.605,0.031-21.043,9.484-20.986,21.134c0.048,11.629,9.518,20.997,21.12,20.963
		c11.638-0.028,21.012-9.497,20.995-21.113C1860.415,47.687,1850.956,38.286,1839.328,38.332"/>
	<path fill="#E5007E" d="M1733.812,118.396c-6.703,0.006-12.154,5.488-12.114,12.206c0.012,6.704,5.482,12.133,12.21,12.117
		c6.697-0.031,12.154-5.488,12.114-12.206C1746.014,123.806,1740.53,118.357,1733.812,118.396"/>
	<path fill="#E5007E" d="M1889.585,240.774c-6.697,0.03-12.157,5.488-12.114,12.206c0.018,6.729,5.479,12.135,12.207,12.117
		c6.704-0.015,12.154-5.495,12.124-12.19C1901.781,246.18,1896.304,240.735,1889.585,240.774"/>
	<path fill="#E5007E" d="M1868.153,194.064c-4.562,0.025-8.264,3.733-8.222,8.284c0.009,4.575,3.713,8.227,8.287,8.215
		c4.547,0.009,8.224-3.708,8.218-8.281C1876.412,197.723,1872.705,194.072,1868.153,194.064"/>
	<path fill="#E5007E" d="M1695.444,204.47c-4.573,0.002-8.243,3.723-8.216,8.283c0.025,4.567,3.712,8.226,8.285,8.225
		c4.541-0.015,8.22-3.714,8.22-8.284C1703.726,208.116,1700.023,204.467,1695.444,204.47"/>
	<path fill="#E5007E" d="M1745.843,217.628c-7.316,0.01-13.192,5.952-13.184,13.25c0.037,7.307,5.978,13.181,13.276,13.177
		c7.279-0.033,13.189-5.962,13.151-13.269C1759.083,223.496,1753.128,217.595,1745.843,217.628"/>
	<path fill="#E5007E" d="M1774.787,270.273c-6.696,0.032-12.156,5.49-12.111,12.206c0.017,6.729,5.477,12.135,12.18,12.119
		c6.729-0.016,12.178-5.497,12.146-12.192C1786.961,275.687,1781.502,270.227,1774.787,270.273"/>
	<path fill="#E5007E" d="M1866.812,346.228c-6.72,0.04-12.156,5.49-12.139,12.218c0.033,6.695,5.481,12.132,12.209,12.115
		c6.729-0.018,12.129-5.486,12.134-12.223C1878.99,351.648,1873.505,346.198,1866.812,346.228"/>
	<path fill="#E5007E" d="M1611.925,156.852c-6.705,0.008-12.157,5.489-12.113,12.206c0.007,6.706,5.479,12.136,12.207,12.119
		c6.703-0.015,12.154-5.496,12.111-12.213C1624.122,162.256,1618.641,156.805,1611.925,156.852"/>
	<path fill="#1F386C" d="M1563.13,118.017c14.491,4.018,29.492-4.469,33.511-18.958c4.018-14.49-4.469-29.492-18.957-33.511
		c-14.489-4.018-29.493,4.47-33.512,18.958C1540.154,98.996,1548.641,113.999,1563.13,118.017"/>
	<path fill="#00B6DD" d="M1620.34,66.167c5.916,1.639,12.043-1.826,13.686-7.742c1.641-5.917-1.825-12.045-7.742-13.686
		c-5.917-1.641-12.045,1.825-13.686,7.743C1610.955,58.399,1614.422,64.525,1620.34,66.167"/>
	<path fill="#00B6DD" d="M1405.728,108.837c1.25,0.347,2.543-0.385,2.888-1.634c0.347-1.248-0.385-2.542-1.633-2.889
		c-1.248-0.345-2.542,0.386-2.887,1.634C1403.746,107.198,1404.479,108.491,1405.728,108.837"/>
	<path fill="#59B13E" d="M1510.014,115.969c11.604-9.564,13.255-26.721,3.69-38.322c-9.563-11.604-26.719-13.258-38.322-3.693
		c-11.603,9.562-13.256,26.721-3.691,38.324C1481.254,123.88,1498.411,125.532,1510.014,115.969"/>
	<path fill="#59B13E" d="M1458,63.952c4.738-3.906,5.413-10.913,1.507-15.652c-3.905-4.739-10.911-5.413-15.65-1.509
		c-4.737,3.908-5.412,10.914-1.508,15.652C1446.256,67.182,1453.262,67.856,1458,63.952"/>
	<path fill="#59B13E" d="M1357.164,48.164c4.738-3.906,5.412-10.912,1.507-15.651c-3.905-4.738-10.911-5.414-15.651-1.508
		c-4.735,3.907-5.412,10.914-1.508,15.652C1345.419,51.394,1352.425,52.068,1357.164,48.164"/>
	<path fill="#59B13E" d="M1423.898,48.762c2.554-2.104,2.916-5.877,0.813-8.428c-2.103-2.552-5.878-2.917-8.429-0.813
		c-2.552,2.105-2.915,5.878-0.812,8.429C1417.574,50.501,1421.348,50.864,1423.898,48.762"/>
	<path fill="#59B13E" d="M1375.036,62.076c2.552-2.103,2.915-5.876,0.812-8.428c-2.104-2.55-5.876-2.914-8.429-0.813
		c-2.552,2.105-2.914,5.879-0.812,8.432C1368.711,63.819,1372.483,64.181,1375.036,62.076"/>
	<path fill="#59B13E" d="M1554.638,99.932c2.553-2.104,2.916-5.877,0.812-8.43c-2.103-2.553-5.876-2.916-8.43-0.812
		c-2.55,2.103-2.914,5.877-0.811,8.428C1548.314,101.67,1552.086,102.035,1554.638,99.932"/>
	<path fill="#59B13E" d="M1356.138,69.364c1.474-1.212,1.684-3.394,0.469-4.868c-1.213-1.475-3.396-1.685-4.869-0.47
		c-1.474,1.213-1.683,3.395-0.469,4.868C1352.484,70.37,1354.664,70.579,1356.138,69.364"/>
	<path fill="#59B13E" d="M1369.269,75.779c0.999-0.826,1.143-2.305,0.317-3.305c-0.824-0.999-2.304-1.14-3.304-0.318
		c-0.999,0.825-1.143,2.303-0.316,3.304C1366.789,76.46,1368.269,76.602,1369.269,75.779"/>
	<path fill="#59B13E" d="M1405.397,42.384c1-0.827,1.144-2.305,0.318-3.305c-0.823-0.999-2.302-1.143-3.304-0.318
		c-0.999,0.825-1.142,2.303-0.317,3.303C1402.92,43.064,1404.398,43.207,1405.397,42.384"/>
	<path fill="#59B13E" d="M1391.939,48.566c1.604-1.32,1.83-3.69,0.51-5.29c-1.32-1.602-3.689-1.832-5.291-0.511
		c-1.603,1.321-1.83,3.689-0.51,5.291C1387.969,49.659,1390.338,49.887,1391.939,48.566"/>
	<path fill="#59B13E" d="M1376.086,42.194c1.475-1.215,1.684-3.395,0.469-4.87c-1.215-1.474-3.395-1.682-4.869-0.469
		c-1.474,1.216-1.686,3.397-0.47,4.869C1372.433,43.199,1374.611,43.409,1376.086,42.194"/>
	<path fill="#59B13E" d="M1329.975,30.525c1.474-1.215,1.683-3.395,0.469-4.868c-1.215-1.475-3.396-1.685-4.869-0.472
		c-1.475,1.215-1.684,3.396-0.469,4.87C1326.32,31.53,1328.5,31.739,1329.975,30.525"/>
	<path fill="#59B13E" d="M1583.328,32.889c1.475-1.215,1.685-3.394,0.47-4.869c-1.215-1.475-3.394-1.685-4.87-0.469
		c-1.473,1.214-1.682,3.394-0.468,4.87C1579.675,33.895,1581.854,34.104,1583.328,32.889"/>
	<path fill="#DEDC00" d="M1554.983,42.694c2.552-2.104,2.915-5.876,0.812-8.428s-5.878-2.916-8.429-0.813
		c-2.552,2.105-2.915,5.877-0.812,8.43C1548.656,44.436,1552.43,44.797,1554.983,42.694"/>
	<path fill="#F39200" d="M1272.437,101.983c15.894,4.409,32.354-4.902,36.761-20.796c4.407-15.892-4.901-32.351-20.795-36.759
		c-15.895-4.408-32.353,4.902-36.76,20.795C1247.233,81.117,1256.543,97.575,1272.437,101.983"/>
	<path fill="#F39200" d="M1400.537,99.41c10.451,2.9,21.276-3.223,24.175-13.674c2.897-10.454-3.224-21.275-13.677-24.175
		c-10.451-2.898-21.272,3.225-24.172,13.676C1383.963,85.689,1390.086,96.511,1400.537,99.41"/>
</g>
</svg>
