<?xml version="1.0" encoding="utf-8"?>
<!-- Generator: Adobe Illustrator 15.0.0, SVG Export Plug-In . SVG Version: 6.00 Build 0)  -->
<!DOCTYPE svg PUBLIC "-//W3C//DTD SVG 1.1//EN" "http://www.w3.org/Graphics/SVG/1.1/DTD/svg11.dtd">
<svg version="1.1" id="Layer_1" xmlns="http://www.w3.org/2000/svg" xmlns:xlink="http://www.w3.org/1999/xlink" x="0px" y="0px"
	 width="1065.271px" height="308.474px" viewBox="0 0 1065.271 308.474" enable-background="new 0 0 1065.271 308.474"
	 xml:space="preserve">
<path d="M77.517,162.762c19.148-0.1,36.794-8.998,48.419-24.426l1.834-2.427l-17.972-13.71l-1.843,2.477
	c-7.297,9.765-18.431,15.402-30.557,15.47c-3.361,0.017-6.714-0.409-9.941-1.243c-16.72-4.395-28.455-19.54-28.538-36.845
	C38.804,80.95,55.9,63.678,77.007,63.562c11.977-0.05,23.452,5.638,30.708,15.169l1.859,2.461l17.822-13.918l-1.834-2.394
	C114.02,49.901,95.73,40.844,76.891,40.953c-33.583,0.167-60.771,27.629-60.587,61.229c0.142,27.514,18.823,51.615,45.451,58.595
	C66.876,162.128,72.17,162.796,77.517,162.762"/>
<polygon points="227.881,124.775 228.064,161.978 250.682,161.861 249.931,62.678 227.314,62.794 227.764,102.167 167.726,102.475 
	167.402,40.469 144.768,40.594 145.418,162.403 168.036,162.286 167.827,125.084 "/>
<polygon points="304.656,139.236 336.064,75.754 368.039,139.01 380.431,161.186 406.209,161.061 335.772,33.989 266.835,161.778 
	292.614,161.644 "/>
<polygon points="522.381,160.452 527.626,160.418 526.867,14.283 504.242,14.408 504.75,112.699 426.8,39.134 421.712,39.151 
	422.347,160.961 444.973,160.845 444.58,86.887 "/>
<path d="M598.564,158.967c5.204,0.868,10.557,1.06,15.862,0.559c18.73-1.793,35.276-11.851,45.434-27.596l0.585-0.892l-3.804-39.797
	l-51.338,4.919l2.168,22.517l28.805-2.768l0.834,8.672c-6.423,7.106-15.179,11.518-24.835,12.418
	c-3.337,0.326-6.706,0.209-10.01-0.342c-17.045-2.853-30.089-16.887-31.756-34.126c-2.002-21.008,13.477-39.739,34.476-41.757
	c11.925-1.143,23.868,3.503,31.958,12.334l2.085,2.268l16.479-15.461l-2.052-2.218c-12.826-13.869-31.874-21.226-50.622-19.432
	c-33.441,3.194-58.036,32.993-54.826,66.418C550.628,132.096,571.427,154.406,598.564,158.967"/>
<polygon points="772.163,159.143 772.029,136.534 705.912,136.875 705.846,122.289 755.451,122.031 755.316,99.422 705.713,99.673 
	705.513,60.292 771.646,59.95 771.529,37.333 682.778,37.801 683.412,159.61 "/>
<polygon points="109.815,180.343 70.003,223.842 29.613,180.743 24.884,180.776 17.028,289.926 37.862,289.825 42.49,225.043 
	70.178,254.598 97.415,224.776 102.835,289.474 123.81,289.359 114.703,180.309 "/>
<polygon points="156.151,289.191 179.878,289.092 190.652,268.993 218.357,215.804 246.521,268.76 257.654,288.675 281.363,288.559 
	218.083,174.404 "/>
<polygon points="404.691,178.808 376.428,178.941 337.315,222.057 337.089,179.159 316.29,179.257 316.85,288.357 337.657,288.258 
	337.482,252.697 350.375,238.486 381.79,288.024 406.334,287.891 365.02,222.573 "/>
<polygon points="469.24,266.774 469.173,254.466 513.323,254.232 513.223,233.432 469.074,233.65 468.898,199.273 527.777,198.957 
	527.66,178.174 447.982,178.574 448.542,287.691 528.219,287.258 528.12,266.474 "/>
<path d="M647.936,217.337c-0.118-18.014-12.344-33.792-29.757-38.346c-3.336-0.884-6.821-1.317-10.324-1.301l-39.864,0.217
	l0.584,109.149l20.8-0.1l-0.15-29.473l18.28-0.083l19.448,29.338l24.952-0.118l-23.267-34.943
	C640.696,244.408,648.002,231.548,647.936,217.337 M608.171,236.602l-19.047,0.099l-0.201-38.111l19.031-0.1
	c1.685,0,3.37,0.199,4.972,0.633c8.306,2.168,14.127,9.708,14.177,18.315C627.152,227.945,618.663,236.552,608.171,236.602"/>
<path d="M759.203,286.073c24.502,0,44.451-19.95,44.451-44.45c0-24.503-19.949-44.452-44.451-44.452h-31.741v88.902H759.203z
	 M740.172,273.363v-63.482h19.031c17.646,0,31.758,14.095,31.758,31.742c0,17.512-14.228,31.74-31.758,31.74H740.172z"/>
<path d="M918.441,286.057h14.444l-49.638-90.636l-49.505,90.636h14.444l8.656-15.879h52.824L918.441,286.057z M863.833,257.5
	l19.415-35.694l19.548,35.694H863.833z"/>
<polygon points="1030.911,197.188 1003.74,240.354 976.702,197.188 961.707,197.188 997.385,254.199 997.385,286.057 
	1010.078,286.057 1010.078,254.199 1045.889,197.188 "/>
</svg>
