<?xml version="1.0" encoding="utf-8"?>
<!-- Generator: Adobe Illustrator 15.0.0, SVG Export Plug-In . SVG Version: 6.00 Build 0)  -->
<!DOCTYPE svg PUBLIC "-//W3C//DTD SVG 1.1//EN" "http://www.w3.org/Graphics/SVG/1.1/DTD/svg11.dtd">
<svg version="1.1" id="Layer_1" xmlns="http://www.w3.org/2000/svg" xmlns:xlink="http://www.w3.org/1999/xlink" x="0px" y="0px"
	 width="1995.2px" height="480.048px" viewBox="0 0 1995.2 480.048" enable-background="new 0 0 1995.2 480.048"
	 xml:space="preserve">
<g>
	<path fill="#1E386C" d="M1671.346,261.045c-13.876-33.046,1.662-71.1,34.709-84.97c33.057-13.882,71.1,1.663,84.982,34.71
		c13.875,33.051-1.665,71.099-34.723,84.969C1723.269,309.642,1685.222,294.091,1671.346,261.045"/>
	<path fill="#1E386C" d="M1542.991,330.343c-13.877-33.046,1.662-71.1,34.715-84.97c33.051-13.882,71.093,1.664,84.974,34.709
		c13.876,33.047-1.662,71.1-34.715,84.971C1594.914,378.934,1556.866,363.389,1542.991,330.343"/>
	<path fill="#00B5DD" d="M1676.293,350.378c-5.283-12.57,0.627-27.048,13.203-32.319c12.565-5.277,27.036,0.634,32.312,13.203
		c5.283,12.571-0.628,27.037-13.204,32.319C1696.04,368.854,1681.569,362.943,1676.293,350.378"/>
	<path fill="#00B5DD" d="M1834.512,163.037c-3.471-8.263,0.412-17.782,8.682-21.258c8.268-3.465,17.775,0.419,21.252,8.688
		c3.469,8.263-0.419,17.782-8.682,21.251C1847.495,175.189,1837.977,171.299,1834.512,163.037"/>
	<path fill="#00B5DD" d="M1890.371,132.563c-1.901-4.529,0.228-9.751,4.764-11.66c4.528-1.909,9.751,0.222,11.652,4.764
		c1.909,4.529-0.23,9.752-4.757,11.66C1897.488,139.229,1892.271,137.098,1890.371,132.563"/>
	<path fill="#00B5DD" d="M1898.014,82.001c-1.022-2.441,0.117-5.253,2.565-6.273c2.442-1.029,5.254,0.118,6.274,2.56
		c1.029,2.441-0.118,5.253-2.56,6.287C1901.846,85.597,1899.033,84.442,1898.014,82.001"/>
	<path fill="#00B5DD" d="M1905.737,99.209c-1.022-2.44,0.117-5.251,2.567-6.28c2.439-1.029,5.246,0.126,6.273,2.566
		c1.029,2.442-0.125,5.254-2.561,6.281C1909.569,102.797,1906.757,101.652,1905.737,99.209"/>
	<path fill="#00B5DD" d="M1783.875,188.162c-0.766-1.812,0.087-3.905,1.911-4.671c1.812-0.762,3.906,0.094,4.672,1.91
		c0.766,1.812-0.094,3.906-1.912,4.677C1786.729,190.839,1784.634,189.979,1783.875,188.162"/>
	<path fill="#00B5DD" d="M1897.111,150.43c-0.592-1.413,0.065-3.033,1.479-3.633c1.411-0.592,3.031,0.073,3.623,1.486
		c0.595,1.413-0.065,3.026-1.479,3.634C1899.322,152.509,1897.703,151.835,1897.111,150.43"/>
	<path fill="#00B5DD" d="M1887.218,80.877c-0.407-0.962,0.045-2.064,1.007-2.464c0.954-0.408,2.049,0.05,2.457,1.006
		c0.397,0.955-0.053,2.064-1.008,2.464C1888.712,82.282,1887.618,81.832,1887.218,80.877"/>
	<path fill="#00B5DD" d="M1895.156,102.879c-0.4-0.962,0.045-2.064,1.014-2.471c0.956-0.398,2.05,0.06,2.45,1.014
		c0.407,0.954-0.045,2.064-1,2.464C1896.659,104.287,1895.563,103.827,1895.156,102.879"/>
	<path fill="#00B5DD" d="M1905.752,115.458c-0.4-0.956,0.043-2.06,1.005-2.465c0.956-0.407,2.056,0.052,2.456,1.006
		c0.401,0.955-0.044,2.065-0.998,2.465C1907.253,116.864,1906.15,116.412,1905.752,115.458"/>
	<path fill="#00B5DD" d="M1885.338,142.041c-0.406-0.955,0.045-2.064,1.008-2.464c0.953-0.4,2.049,0.051,2.447,1.006
		c0.409,0.955-0.042,2.057-0.998,2.465C1886.832,143.453,1885.738,142.995,1885.338,142.041"/>
	<path fill="#00B5DD" d="M1915.171,86.012c-0.593-1.406,0.065-3.026,1.486-3.626c1.405-0.592,3.024,0.074,3.618,1.486
		c0.592,1.414-0.068,3.026-1.473,3.633C1917.383,88.09,1915.762,87.423,1915.171,86.012"/>
	<path fill="#00B5DD" d="M1622.705,222.766c-3.472-8.263,0.419-17.782,8.682-21.257c8.268-3.466,17.775,0.418,21.251,8.686
		c3.471,8.264-0.413,17.782-8.681,21.253C1635.688,234.918,1626.175,231.029,1622.705,222.766"/>
	<path fill="#00B5DD" d="M1545.337,381.473c-2.133-5.083,0.254-10.934,5.338-13.061c5.079-2.137,10.928,0.254,13.061,5.332
		c2.131,5.08-0.259,10.93-5.333,13.066C1553.319,388.938,1547.469,386.558,1545.337,381.473"/>
</g>
<g>
	<path fill="#961B80" d="M1883.01,454.943c-61.229,7.637-117.043-35.872-124.677-97.093c-7.56-61.277,35.907-117.069,97.124-124.67
		c61.259-7.629,117.07,35.878,124.677,97.091C1987.723,391.547,1944.267,447.313,1883.01,454.943"/>
	<path fill="#E5007E" d="M1803.217,268.224c-25.002,3.128-47.797-14.623-50.894-39.621c-3.108-25.049,14.604-47.834,39.63-50.944
		c24.992-3.098,47.793,14.652,50.905,39.683C1845.953,242.33,1828.209,265.125,1803.217,268.224"/>
	<path fill="#961B80" d="M1705.475,317.706c-13.468,1.669-25.755-7.897-27.423-21.357c-1.663-13.471,7.919-25.726,21.359-27.392
		c13.475-1.699,25.734,7.85,27.429,21.33C1728.506,303.757,1718.942,316.045,1705.475,317.706"/>
	<path fill="#961B80" d="M1883.027,209.602c-13.463,1.662-25.763-7.868-27.42-21.364c-1.664-13.472,7.889-25.726,21.358-27.394
		c13.474-1.697,25.725,7.888,27.431,21.331C1906.061,195.644,1896.5,207.935,1883.027,209.602"/>
	<path fill="#E5007E" d="M1667.567,401.471c-13.471,1.668-25.765-7.86-27.421-21.358c-1.669-13.47,7.918-25.725,21.354-27.394
		c13.478-1.695,25.738,7.854,27.43,21.33C1690.6,387.52,1681.037,399.811,1667.567,401.471"/>
	<path fill="#E5007E" d="M1929.796,415.632c-13.44,1.68-25.765-7.869-27.421-21.366c-1.663-13.469,7.915-25.716,21.354-27.392
		c13.478-1.688,25.729,7.888,27.429,21.339C1952.826,401.684,1943.266,413.965,1929.796,415.632"/>
	<path fill="#E5007E" d="M1795.801,338.536c-7.762,0.984-14.883-4.557-15.831-12.34c-0.978-7.764,4.554-14.857,12.347-15.833
		c7.757-0.954,14.882,4.557,15.829,12.341C1809.127,330.468,1803.584,337.588,1795.801,338.536"/>
	<path fill="#E5007E" d="M1958.055,173.826c-7.758,0.955-14.887-4.558-15.83-12.341c-0.975-7.794,4.55-14.858,12.342-15.833
		c7.763-0.974,14.885,4.564,15.839,12.322C1971.376,165.764,1965.84,172.876,1958.055,173.826"/>
	<path fill="#E5007E" d="M1940.148,231.072c-5.287,0.646-10.121-3.101-10.744-8.375c-0.667-5.299,3.082-10.073,8.379-10.736
		c5.264-0.684,10.07,3.075,10.738,8.372C1949.168,225.616,1945.415,230.39,1940.148,231.072"/>
	<path fill="#E5007E" d="M1738.655,244.556c-5.294,0.674-10.093-3.092-10.736-8.375c-0.646-5.291,3.082-10.071,8.376-10.746
		c5.261-0.654,10.066,3.085,10.742,8.376C1747.705,239.11,1743.957,243.883,1738.655,244.556"/>
	<path fill="#E5007E" d="M1795.061,221.872c-8.474,1.069-16.153-4.941-17.224-13.391c-1.037-8.466,4.973-16.145,13.423-17.219
		c8.434-1.039,16.15,4.952,17.188,13.42C1809.52,213.122,1803.498,220.834,1795.061,221.872"/>
	<path fill="#E5007E" d="M1820.788,156.643c-7.758,0.955-14.887-4.558-15.828-12.34c-0.976-7.793,4.549-14.859,12.31-15.832
		c7.793-0.976,14.913,4.564,15.866,12.319C1834.08,148.576,1828.568,155.705,1820.788,156.643"/>
	<path fill="#E5007E" d="M1916.1,55.103c-7.785,0.946-14.885-4.558-15.859-12.35c-0.951-7.756,4.554-14.856,12.345-15.832
		c7.793-0.975,14.853,4.559,15.854,12.357C1929.398,47.027,1923.854,54.148,1916.1,55.103"/>
	<path fill="#E5007E" d="M1649,312.031c-7.765,0.983-14.887-4.556-15.829-12.34c-0.981-7.764,4.55-14.859,12.342-15.835
		c7.764-0.973,14.884,4.567,15.826,12.35C1662.322,303.972,1656.782,311.093,1649,312.031"/>
	<path fill="#00B6DD" d="M1597.372,357.102c1.396-0.587,3.002,0.068,3.586,1.464c0.586,1.395-0.069,3.001-1.464,3.588
		c-1.394,0.583-2.999-0.071-3.585-1.466C1595.322,359.292,1595.979,357.688,1597.372,357.102"/>
	<path fill="#59B13E" d="M1437.353,293.333c14.848,9.357,19.297,28.977,9.938,43.822c-9.356,14.847-28.975,19.298-43.822,9.939
		c-14.847-9.355-19.297-28.977-9.938-43.823C1402.886,288.425,1422.506,283.977,1437.353,293.333"/>
	<path fill="#59B13E" d="M1384.824,361.245c6.062,3.821,7.879,11.834,4.058,17.897c-3.82,6.063-11.833,7.881-17.896,4.06
		c-6.062-3.822-7.88-11.834-4.061-17.897C1370.749,359.241,1378.761,357.424,1384.824,361.245"/>
	<path fill="#59B13E" d="M1270.414,394.43c6.063,3.82,7.88,11.833,4.06,17.896c-3.821,6.063-11.834,7.881-17.897,4.06
		c-6.062-3.822-7.88-11.834-4.06-17.897C1256.34,392.427,1264.352,390.609,1270.414,394.43"/>
	<path fill="#59B13E" d="M1347.589,383.871c3.266,2.06,4.245,6.375,2.188,9.64c-2.059,3.266-6.374,4.245-9.639,2.187
		c-3.266-2.059-4.244-6.374-2.186-9.639C1340.009,382.793,1344.325,381.814,1347.589,383.871"/>
	<path fill="#59B13E" d="M1289.05,375.679c3.264,2.059,4.243,6.372,2.185,9.639c-2.059,3.264-6.372,4.242-9.638,2.187
		c-3.266-2.06-4.243-6.374-2.186-9.641C1281.468,374.598,1285.784,373.621,1289.05,375.679"/>
	<path fill="#59B13E" d="M1491.388,305.304c3.266,2.059,4.244,6.373,2.186,9.639c-2.057,3.266-6.373,4.244-9.639,2.187
		c-3.265-2.059-4.244-6.374-2.186-9.639C1483.808,304.225,1488.122,303.247,1491.388,305.304"/>
	<path fill="#59B13E" d="M1266.093,370.038c1.887,1.186,2.453,3.68,1.263,5.566c-1.187,1.887-3.681,2.451-5.567,1.264
		c-1.887-1.188-2.451-3.683-1.263-5.568C1261.714,369.413,1264.206,368.848,1266.093,370.038"/>
	<path fill="#59B13E" d="M1280.347,360.668c1.278,0.808,1.663,2.499,0.855,3.779c-0.807,1.277-2.498,1.661-3.777,0.855
		s-1.663-2.496-0.855-3.777C1277.376,360.248,1279.066,359.863,1280.347,360.668"/>
	<path fill="#59B13E" d="M1327.112,393.993c1.279,0.808,1.664,2.497,0.857,3.778c-0.807,1.278-2.498,1.663-3.778,0.856
		c-1.278-0.807-1.663-2.498-0.854-3.777C1324.142,393.569,1325.833,393.186,1327.112,393.993"/>
	<path fill="#59B13E" d="M1310.617,388.823c2.05,1.292,2.663,4.001,1.372,6.051c-1.293,2.05-4,2.665-6.051,1.373
		c-2.051-1.293-2.664-4.001-1.373-6.051C1305.857,388.145,1308.567,387.53,1310.617,388.823"/>
	<path fill="#59B13E" d="M1293.204,398.542c1.887,1.189,2.451,3.684,1.263,5.569s-3.682,2.45-5.567,1.264
		c-1.887-1.189-2.453-3.684-1.264-5.569C1288.825,397.919,1291.317,397.355,1293.204,398.542"/>
	<path fill="#59B13E" d="M1241.543,418.87c1.887,1.189,2.451,3.682,1.263,5.568c-1.188,1.887-3.682,2.453-5.568,1.265
		c-1.886-1.189-2.45-3.684-1.262-5.569C1237.164,418.247,1239.657,417.682,1241.543,418.87"/>
	<path fill="#59B13E" d="M1534.515,378.681c1.887,1.189,2.452,3.681,1.262,5.567c-1.188,1.886-3.68,2.452-5.567,1.263
		c-1.885-1.188-2.451-3.681-1.263-5.567C1530.136,378.056,1532.628,377.492,1534.515,378.681"/>
	<path fill="#DEDC00" d="M1500.247,371.519c3.267,2.058,4.245,6.374,2.187,9.638c-2.058,3.265-6.373,4.244-9.638,2.188
		c-3.266-2.059-4.244-6.373-2.186-9.64C1492.667,370.439,1496.981,369.461,1500.247,371.519"/>
	<path fill="#F39200" d="M1164.366,344.645c17.75-7.453,38.182,0.893,45.633,18.643c7.453,17.748-0.892,38.18-18.641,45.633
		c-17.751,7.452-38.181-0.895-45.634-18.643C1138.271,372.529,1146.618,352.098,1164.366,344.645"/>
	<path fill="#F39200" d="M1313.055,328.687c11.672-4.901,25.108,0.587,30.009,12.258c4.9,11.673-0.586,25.107-12.26,30.01
		c-11.67,4.901-25.106-0.587-30.007-12.259C1295.895,347.024,1301.383,333.588,1313.055,328.687"/>
</g>
<g>
	<path fill="#1F386C" d="M52.086,237.224c24.606-10.331,52.928,1.238,63.259,25.845c10.332,24.603-1.237,52.925-25.842,63.256
		c-24.605,10.332-52.927-1.238-63.257-25.842C15.912,275.878,27.482,247.557,52.086,237.224"/>
	<path fill="#1F386C" d="M230.958,326.417c-6.793-16.182,0.815-34.805,16.995-41.6c16.182-6.793,34.806,0.814,41.599,16.993
		c6.794,16.182-0.814,34.807-16.994,41.602C256.378,350.204,237.754,342.595,230.958,326.417"/>
	<path fill="#00B6DD" d="M317.676,337.941c-2.776-6.607,0.333-14.213,6.94-16.988c6.607-2.774,14.214,0.333,16.989,6.94
		c2.774,6.608-0.333,14.214-6.94,16.988C328.056,347.658,320.451,344.55,317.676,337.941"/>
	<path fill="#1F386C" d="M430.429,376.381c-2.774-6.607,0.333-14.214,6.94-16.988c6.609-2.774,14.213,0.333,16.989,6.938
		c2.775,6.607-0.331,14.216-6.94,16.989C440.809,386.096,433.204,382.989,430.429,376.381"/>
	<path fill="#00B6DD" d="M361.155,340.764c-1.494-3.559,0.178-7.654,3.738-9.149c3.558-1.494,7.654,0.179,9.148,3.739
		c1.494,3.558-0.178,7.652-3.737,9.146C366.744,345.996,362.648,344.323,361.155,340.764"/>
	<path fill="#00B6DD" d="M229.019,263.322c-1.494-3.559,0.18-7.655,3.739-9.149s7.654,0.179,9.148,3.737
		c1.496,3.56-0.177,7.656-3.736,9.149C234.61,268.553,230.515,266.88,229.019,263.322"/>
	<path fill="#00B6DD" d="M369.595,378.961c3.559-1.495,7.655,0.18,9.151,3.737c1.493,3.56-0.181,7.654-3.74,9.15
		c-3.558,1.493-7.654-0.18-9.148-3.738C364.363,384.551,366.036,380.456,369.595,378.961"/>
	<path fill="#00B6DD" d="M455.981,403.235c2.056-0.863,4.422,0.104,5.287,2.16c0.862,2.055-0.104,4.422-2.161,5.284
		c-2.054,0.863-4.423-0.104-5.285-2.158C452.958,406.465,453.925,404.098,455.981,403.235"/>
	<path fill="#00B6DD" d="M383.734,344.218c-0.586-1.395,0.069-2.998,1.464-3.586c1.395-0.585,3,0.071,3.587,1.466
		c0.585,1.395-0.07,2.999-1.466,3.584C385.924,346.269,384.319,345.613,383.734,344.218"/>
	<path fill="#00B6DD" d="M525.282,400.394c1.396-0.586,3.001,0.069,3.586,1.465c0.586,1.395-0.068,3.001-1.464,3.587
		c-1.394,0.584-3-0.071-3.585-1.466C523.233,402.584,523.888,400.98,525.282,400.394"/>
	<path fill="#00B6DD" d="M468.208,386.078c1.394-0.586,3.001,0.07,3.584,1.464c0.586,1.396-0.069,3.001-1.463,3.588
		c-1.396,0.585-3-0.07-3.586-1.466C466.158,388.268,466.812,386.664,468.208,386.078"/>
	<path fill="#00B6DD" d="M394.281,357.917c-0.938-2.236,0.112-4.807,2.347-5.745c2.234-0.938,4.805,0.113,5.743,2.348
		c0.939,2.233-0.111,4.805-2.345,5.742C397.791,361.201,395.219,360.15,394.281,357.917"/>
	<path fill="#00B6DD" d="M414.12,359.941c-0.864-2.057,0.104-4.422,2.16-5.286c2.055-0.862,4.422,0.104,5.286,2.159
		c0.862,2.056-0.104,4.423-2.16,5.285C417.349,362.963,414.983,361.996,414.12,359.941"/>
	<path fill="#1F386C" d="M445.241,273.808c16.181-6.794,34.806,0.813,41.6,16.995c6.794,16.181-0.813,34.806-16.994,41.6
		c-16.18,6.793-34.804-0.815-41.6-16.995C421.454,299.228,429.061,280.604,445.241,273.808"/>
	<path fill="#59B13E" d="M416.561,405.133c1.885,1.189,2.451,3.684,1.264,5.568c-1.19,1.888-3.684,2.453-5.569,1.264
		c-1.888-1.188-2.452-3.682-1.262-5.567C412.182,404.51,414.673,403.946,416.561,405.133"/>
	<path fill="#59B13E" d="M294.701,353.563c-7.076-1.138-11.89-7.796-10.751-14.873c1.138-7.075,7.796-11.889,14.873-10.751
		c7.076,1.139,11.888,7.797,10.751,14.872C308.435,349.887,301.775,354.7,294.701,353.563"/>
	<path fill="#59B13E" d="M238.046,305.154c-3.81-0.611-6.403-4.198-5.79-8.008c0.614-3.812,4.199-6.403,8.01-5.791
		c3.811,0.613,6.403,4.199,5.789,8.011C245.443,303.175,241.857,305.767,238.046,305.154"/>
	<path fill="#59B13E" d="M321.997,358.991c-2.201-0.354-3.699-2.427-3.344-4.628c0.353-2.2,2.423-3.697,4.625-3.344
		c2.202,0.354,3.699,2.425,3.345,4.626C326.27,357.848,324.197,359.344,321.997,358.991"/>
	<path fill="#59B13E" d="M228.332,317.642c-1.493-0.24-2.508-1.646-2.269-3.138c0.239-1.495,1.645-2.512,3.139-2.27
		c1.493,0.237,2.509,1.643,2.269,3.138C231.23,316.865,229.826,317.881,228.332,317.642"/>
	<path fill="#59B13E" d="M245.903,270.7c-1.493-0.242-2.51-1.647-2.271-3.142c0.241-1.492,1.646-2.509,3.141-2.268
		c1.492,0.239,2.509,1.644,2.267,3.138C248.801,269.923,247.396,270.939,245.903,270.7"/>
	<path fill="#59B13E" d="M235.28,254.562c-1.494-0.24-2.509-1.646-2.27-3.14c0.239-1.491,1.645-2.509,3.139-2.27
		c1.495,0.241,2.51,1.646,2.269,3.142C238.179,253.787,236.775,254.803,235.28,254.562"/>
	<path fill="#59B13E" d="M261.669,324.765c-1.495-0.239-2.508-1.646-2.269-3.139s1.645-2.509,3.139-2.269
		c1.493,0.238,2.509,1.646,2.269,3.138C264.568,323.99,263.164,325.004,261.669,324.765"/>
	<path fill="#59B13E" d="M285.392,321.354c-1.492-0.24-2.51-1.646-2.269-3.139c0.24-1.493,1.646-2.509,3.139-2.269
		c1.491,0.239,2.508,1.645,2.269,3.138C288.291,320.579,286.886,321.594,285.392,321.354"/>
	<path fill="#59B13E" d="M256.229,287.02c-2.2-0.354-3.699-2.425-3.344-4.625c0.354-2.202,2.424-3.7,4.625-3.347
		c2.202,0.354,3.699,2.426,3.345,4.628C260.501,285.877,258.43,287.375,256.229,287.02"/>
	<path fill="#59B13E" d="M237.628,282.558c-2.201-0.355-3.699-2.426-3.344-4.627c0.353-2.2,2.425-3.7,4.626-3.347
		c2.201,0.355,3.699,2.426,3.344,4.63C241.902,281.414,239.83,282.913,237.628,282.558"/>
	<path fill="#DEDC00" d="M265.28,308.857c-3.811-0.613-6.404-4.199-5.791-8.009c0.614-3.811,4.2-6.404,8.009-5.791
		c3.812,0.612,6.404,4.197,5.792,8.009C272.676,306.876,269.091,309.47,265.28,308.857"/>
	<path fill="#EE7203" d="M102.23,283.995c46.669-19.597,100.386,2.35,119.983,49.018c19.598,46.669-2.35,100.387-49.018,119.983
		c-46.667,19.597-100.386-2.349-119.982-49.017C33.616,357.309,55.562,303.592,102.23,283.995"/>
	<path fill="#F39200" d="M368.203,289.491c-4.901-11.671,0.587-25.106,12.26-30.008c11.672-4.902,25.106,0.587,30.007,12.26
		c4.902,11.671-0.586,25.106-12.258,30.009C386.539,306.651,373.104,301.164,368.203,289.491"/>
	<path fill="#F39200" d="M430.758,297.805c-2.001-4.767,0.241-10.254,5.007-12.256c4.767-2,10.253,0.241,12.256,5.008
		c2,4.766-0.241,10.253-5.007,12.254C438.248,304.813,432.76,302.572,430.758,297.805"/>
	<path fill="#F39200" d="M512.096,325.535c-2.002-4.767,0.239-10.253,5.006-12.256c4.768-2.002,10.255,0.239,12.255,5.008
		c2,4.766-0.241,10.252-5.007,12.254C519.583,332.542,514.097,330.301,512.096,325.535"/>
	<path fill="#F39200" d="M462.124,299.84c-1.078-2.566,0.128-5.521,2.696-6.599c2.567-1.078,5.522,0.128,6.6,2.695
		s-0.129,5.522-2.697,6.601C466.156,303.615,463.2,302.408,462.124,299.84"/>
	<path fill="#F39200" d="M493.325,328.904c-1.076-2.566,0.13-5.521,2.698-6.599c2.567-1.078,5.521,0.128,6.599,2.695
		c1.078,2.568-0.128,5.523-2.697,6.601C497.358,332.679,494.403,331.471,493.325,328.904"/>
	<path fill="#F39200" d="M366.804,243.977c-1.078-2.568,0.129-5.522,2.696-6.601c2.567-1.077,5.522,0.129,6.6,2.697
		c1.079,2.566-0.127,5.521-2.696,6.599C370.837,247.75,367.881,246.543,366.804,243.977"/>
	<path fill="#F39200" d="M344.643,286.769c-1.079-2.566,0.13-5.521,2.696-6.599c2.568-1.077,5.523,0.129,6.6,2.697
		c1.08,2.566-0.128,5.521-2.696,6.599C348.675,290.543,345.722,289.335,344.643,286.769"/>
	<path fill="#F39200" d="M352.431,256.029c-0.623-1.482,0.076-3.188,1.559-3.812c1.482-0.624,3.188,0.072,3.813,1.557
		c0.623,1.483-0.075,3.189-1.559,3.813C354.761,258.209,353.055,257.512,352.431,256.029"/>
	<path fill="#F39200" d="M504.556,341.738c-0.623-1.483,0.075-3.19,1.557-3.812c1.482-0.624,3.188,0.072,3.814,1.555
		c0.62,1.484-0.077,3.191-1.56,3.813C506.885,343.917,505.179,343.219,504.556,341.738"/>
	<path fill="#F39200" d="M492.257,341.375c-0.422-1.007,0.05-2.163,1.058-2.587c1.005-0.422,2.163,0.051,2.586,1.057
		c0.422,1.006-0.051,2.165-1.056,2.587C493.837,342.854,492.68,342.38,492.257,341.375"/>
	<path fill="#F39200" d="M478.411,302.333c-0.423-1.007,0.051-2.165,1.056-2.587c1.006-0.422,2.165,0.051,2.587,1.057
		c0.421,1.006-0.05,2.165-1.057,2.587C479.992,303.812,478.834,303.339,478.411,302.333"/>
	<path fill="#F39200" d="M486.019,312.214c-0.676-1.613,0.081-3.468,1.694-4.146c1.611-0.675,3.467,0.082,4.143,1.694
		c0.677,1.61-0.082,3.466-1.692,4.144C488.55,314.583,486.695,313.825,486.019,312.214"/>
	<path fill="#F39200" d="M500.331,313.674c-0.623-1.482,0.075-3.189,1.558-3.812c1.483-0.624,3.19,0.072,3.814,1.557
		c0.622,1.482-0.076,3.189-1.56,3.812C502.661,315.854,500.954,315.158,500.331,313.674"/>
	<path fill="#F39200" d="M349.519,225.566c-0.623-1.481,0.075-3.189,1.558-3.812c1.482-0.623,3.19,0.072,3.811,1.557
		c0.625,1.483-0.074,3.189-1.556,3.813C351.849,227.747,350.142,227.049,349.519,225.566"/>
	<path fill="#F39200" d="M254.129,396.551c11.673-4.902,25.107,0.587,30.01,12.259c4.901,11.672-0.587,25.108-12.261,30.009
		c-11.67,4.9-25.105-0.588-30.007-12.26C236.969,414.889,242.458,401.453,254.129,396.551"/>
	<path fill="#F39200" d="M30.033,287.308c7.174-3.013,15.431,0.362,18.444,7.535c3.012,7.174-0.361,15.431-7.536,18.444
		c-7.173,3.012-15.431-0.362-18.442-7.536C19.485,298.578,22.86,290.321,30.033,287.308"/>
	<path fill="#971B81" d="M231.054,366.703c-3.793,0.709-7.443-1.795-8.151-5.588c-0.708-3.794,1.795-7.443,5.59-8.151
		c3.793-0.707,7.442,1.793,8.151,5.589C237.352,362.345,234.851,365.996,231.054,366.703"/>
	<path fill="#E6007D" d="M257.942,361.007c-3.793,0.709-7.443-1.795-8.151-5.589c-0.707-3.794,1.795-7.442,5.588-8.15
		c3.796-0.709,7.444,1.793,8.152,5.589C264.239,356.65,261.737,360.299,257.942,361.007"/>
	<path fill="#E6007D" d="M226.119,335.448c-1.488,0.278-2.916-0.703-3.194-2.188c-0.278-1.488,0.703-2.919,2.19-3.195
		c1.486-0.278,2.916,0.702,3.192,2.189C228.586,333.742,227.605,335.17,226.119,335.448"/>
	<path fill="#E6007D" d="M223.288,319.909c-1.489,0.277-2.917-0.704-3.196-2.189c-0.276-1.487,0.705-2.918,2.191-3.195
		c1.486-0.276,2.917,0.703,3.194,2.19C225.754,318.202,224.773,319.632,223.288,319.909"/>
	<path fill="#E6007D" d="M242.061,343.501c-2.192,0.409-4.3-1.038-4.708-3.229c-0.41-2.191,1.037-4.301,3.229-4.71
		c2.191-0.407,4.299,1.037,4.708,3.23C245.698,340.986,244.252,343.093,242.061,343.501"/>
	<path fill="#E6007D" d="M33.104,441.444c-22.314-14.637-28.54-44.591-13.903-66.904c14.634-22.315,44.589-28.54,66.904-13.904
		c22.312,14.636,28.538,44.592,13.902,66.904C85.373,449.854,55.418,456.079,33.104,441.444"/>
	<path fill="#DEDC00" d="M358.254,332.828c-12.062-1.941-20.269-13.29-18.328-25.351c1.942-12.06,13.292-20.269,25.35-18.328
		c12.066,1.94,20.269,13.286,18.33,25.35C381.662,326.559,370.316,334.767,358.254,332.828"/>
	<path fill="#971B81" d="M356.663,421.649c-21.427,4.003-42.049-10.141-46.048-31.567c-3.999-21.434,10.14-42.048,31.578-46.051
		c21.427-3.996,42.045,10.132,46.048,31.573C392.24,397.032,378.109,417.653,356.663,421.649"/>
	<path fill="#00B6DD" d="M153.003,284.449c-4.752,5.363-12.954,5.857-18.318,1.104c-5.362-4.755-5.857-12.956-1.104-18.318
		c4.754-5.364,12.956-5.858,18.318-1.104C157.265,270.884,157.759,279.083,153.003,284.449"/>
	<path fill="#1F386C" d="M117.639,191.056c-4.753,5.364-12.954,5.857-18.318,1.104c-5.362-4.755-5.856-12.955-1.104-18.318
		c4.752-5.363,12.956-5.859,18.318-1.104C121.898,177.493,122.393,185.693,117.639,191.056"/>
	<path fill="#00B6DD" d="M115.547,268.923c-2.561,2.888-6.977,3.154-9.866,0.594c-2.888-2.56-3.155-6.977-0.593-9.865
		c2.559-2.889,6.975-3.155,9.863-0.595C117.84,261.619,118.107,266.035,115.547,268.923"/>
	<path fill="#00B6DD" d="M108.879,247.075c-1.003,1.133-2.733,1.237-3.866,0.234c-1.131-1.003-1.235-2.734-0.233-3.867
		c1.003-1.131,2.734-1.236,3.867-0.231C109.778,244.213,109.882,245.945,108.879,247.075"/>
	<path fill="#00B6DD" d="M116.656,231.636c-1.609,1.814-4.38,1.98-6.195,0.373c-1.812-1.607-1.979-4.38-0.371-6.192
		c1.605-1.813,4.379-1.981,6.191-0.374C118.096,227.049,118.262,229.823,116.656,231.636"/>
	<path fill="#00B6DD" d="M109.887,212.877c-1.479,1.67-4.031,1.822-5.701,0.344c-1.667-1.479-1.822-4.031-0.344-5.699
		c1.479-1.668,4.032-1.823,5.7-0.345C111.212,208.658,111.365,211.209,109.887,212.877"/>
	<path fill="#F39200" d="M87.447,259.897c-8.395,9.474-22.882,10.348-32.356,1.949c-9.474-8.396-10.348-22.883-1.95-32.356
		c8.396-9.474,22.883-10.348,32.357-1.951C94.972,235.937,95.845,250.422,87.447,259.897"/>
	<path fill="#F39200" d="M67.843,199.915c-3.429,3.867-9.346,4.225-13.214,0.796c-3.868-3.429-4.226-9.346-0.797-13.215
		c3.429-3.868,9.346-4.226,13.214-0.796C70.915,190.127,71.271,196.044,67.843,199.915"/>
	<path fill="#F39200" d="M57.601,114.591c-3.429,3.87-9.345,4.227-13.214,0.798c-3.87-3.43-4.226-9.346-0.796-13.214
		c3.429-3.868,9.345-4.225,13.214-0.796C60.673,104.807,61.03,110.723,57.601,114.591"/>
	<path fill="#F39200" d="M56.091,170.762c-1.847,2.084-5.033,2.277-7.116,0.43c-2.084-1.847-2.277-5.033-0.429-7.116
		c1.847-2.084,5.034-2.276,7.117-0.429C57.745,165.493,57.937,168.68,56.091,170.762"/>
	<path fill="#F39200" d="M68.769,130.051c-1.847,2.082-5.032,2.274-7.116,0.427c-2.083-1.847-2.276-5.032-0.428-7.114
		c1.848-2.084,5.033-2.278,7.116-0.43C70.424,124.781,70.615,127.967,68.769,130.051"/>
	<path fill="#F39200" d="M95.202,282.311c-1.847,2.084-5.033,2.273-7.117,0.429c-2.083-1.849-2.276-5.035-0.428-7.117
		c1.846-2.084,5.032-2.276,7.115-0.429C96.856,277.042,97.047,280.226,95.202,282.311"/>
	<path fill="#F39200" d="M75.47,114.369c-1.066,1.204-2.907,1.314-4.11,0.247c-1.203-1.066-1.315-2.904-0.249-4.11
		c1.068-1.202,2.908-1.313,4.112-0.246C76.426,111.326,76.537,113.166,75.47,114.369"/>
	<path fill="#F39200" d="M80.471,125.611c-0.724,0.816-1.971,0.892-2.79,0.167c-0.816-0.723-0.89-1.972-0.167-2.788
		c0.724-0.817,1.973-0.893,2.789-0.169C81.12,123.546,81.194,124.794,80.471,125.611"/>
	<path fill="#F39200" d="M51.281,155.002c-0.724,0.818-1.973,0.893-2.789,0.17c-0.816-0.725-0.892-1.974-0.168-2.79
		c0.725-0.814,1.973-0.893,2.789-0.168C51.929,152.938,52.004,154.185,51.281,155.002"/>
	<path fill="#F39200" d="M56.891,143.866c-1.161,1.308-3.16,1.43-4.469,0.269c-1.307-1.159-1.429-3.16-0.269-4.467
		c1.159-1.31,3.16-1.428,4.468-0.27C57.93,140.559,58.05,142.559,56.891,143.866"/>
	<path fill="#F39200" d="M52.007,130.334c-1.067,1.203-2.907,1.312-4.11,0.247c-1.204-1.067-1.316-2.907-0.249-4.112
		c1.067-1.203,2.908-1.313,4.112-0.246C52.962,127.29,53.074,129.13,52.007,130.334"/>
</g>
</svg>
