<?xml version="1.0" encoding="utf-8"?>
<!-- Generator: Adobe Illustrator 15.0.0, SVG Export Plug-In . SVG Version: 6.00 Build 0)  -->
<!DOCTYPE svg PUBLIC "-//W3C//DTD SVG 1.1//EN" "http://www.w3.org/Graphics/SVG/1.1/DTD/svg11.dtd">
<svg version="1.1" id="Layer_1" xmlns="http://www.w3.org/2000/svg" xmlns:xlink="http://www.w3.org/1999/xlink" x="0px" y="0px"
	 width="521.824px" height="516.042px" viewBox="0 0 521.824 516.042" enable-background="new 0 0 521.824 516.042"
	 xml:space="preserve">
<g>
	<rect x="-514" y="-35.868" fill="#1F386C" width="134" height="36"/>
</g>
<g>
	<rect x="-374" y="-35.868" fill="#59B13E" width="135" height="36"/>
</g>
<g enable-background="new    ">
	<path fill="#FFFFFF" d="M-469.688-25.05h-4.778v-1.175h10.77v1.175h-4.779v16.321h-1.212V-25.05z"/>
	<path fill="#FFFFFF" d="M-460.819-26.225h7.584v1.175h-6.371v6.798h5.586v1.174h-5.586v7.173h6.632v1.175h-7.845V-26.225z"/>
	<path fill="#FFFFFF" d="M-436.759-10.579c-0.452,0.5-2.472,2.174-5.515,2.174c-4.731,0-8.344-3.899-8.344-9.073
		c0-5.173,3.708-9.073,8.273-9.073c2.639,0,4.469,1.225,5.254,1.925l-0.428,1.149c-0.57-0.525-2.33-1.875-4.826-1.875
		c-3.875,0-7.013,3.349-7.013,7.873s2.972,7.873,7.084,7.873c2.876,0,4.636-1.649,5.111-2.099L-436.759-10.579z"/>
	<path fill="#FFFFFF" d="M-433.809-26.225h1.213v7.948h9.818v-7.948h1.212v17.496h-1.212v-8.348h-9.818v8.348h-1.213V-26.225z"/>
</g>
<g enable-background="new    ">
	<path fill="#FFFFFF" d="M-327.867-24.175l-0.784,0.875c-0.903-0.875-2.377-2.05-5.135-2.05c-4.113,0-7.037,3.424-7.037,7.923
		c0,4.549,2.948,7.823,7.013,7.823c2.996,0,4.708-1.424,5.325-2.074v-4.374h-3.994v-1.175h5.183v5.949
		c-1.807,2.1-4.018,2.874-6.514,2.874c-4.73,0-8.296-3.824-8.296-9.022c0-5.174,3.566-9.123,8.32-9.123
		C-330.672-26.55-328.723-25.05-327.867-24.175z"/>
	<path fill="#FFFFFF" d="M-323.728-26.225h3.828c3.233,0,4.969,2.199,4.969,4.749c0,2.149-1.236,3.849-3.091,4.499l4.232,8.248
		h-1.355l-4.018-7.998h-3.352v7.998h-1.212V-26.225z M-319.853-17.877c2.234,0,3.637-1.375,3.637-3.599
		c0-2.074-1.332-3.574-3.709-3.574h-2.591v7.173H-319.853z"/>
	<path fill="#FFFFFF" d="M-311.173-26.225h7.584v1.175h-6.372v6.798h5.587v1.174h-5.587v7.173h6.633v1.175h-7.845V-26.225z"/>
	<path fill="#FFFFFF" d="M-299.974-26.225h7.584v1.175h-6.372v6.798h5.587v1.174h-5.587v7.173h6.633v1.175h-7.845V-26.225z"/>
	<path fill="#FFFFFF" d="M-288.775-26.225h1.189l10.199,15.421v-15.421h1.212v17.496h-1.212l-10.175-15.446v15.446h-1.213V-26.225z"
		/>
</g>
<g>
	<rect x="-655" y="-35.868" fill="#971B81" width="134" height="36"/>
</g>
<g enable-background="new    ">
	<path fill="#FFFFFF" d="M-620.993-12.553c0.475,1.45,1.498,2.975,4.042,2.975c1.997,0,3.518-1.3,3.518-3.449
		c0-5.074-8.083-3.649-8.083-9.298c0-2.299,1.664-4.224,4.493-4.224c2.781,0,4.089,1.975,4.493,3.1l-1.022,0.4
		c-0.404-0.925-1.426-2.35-3.471-2.35c-2.164,0-3.281,1.399-3.281,3.099c0,4.524,8.106,3.524,8.106,9.198
		c0,2.6-1.831,4.699-4.778,4.699c-3.067,0-4.493-1.949-5.064-3.749L-620.993-12.553z"/>
	<path fill="#FFFFFF" d="M-601.711-26.55c4.707,0,8.416,3.949,8.416,9.073c0,5.149-3.732,9.073-8.439,9.073
		c-4.684,0-8.392-3.849-8.392-9.073C-610.126-22.65-606.394-26.55-601.711-26.55z M-601.711-9.604c4.018,0,7.156-3.324,7.156-7.873
		c0-4.499-3.138-7.873-7.156-7.873c-4.042,0-7.156,3.375-7.156,7.873C-608.867-12.928-605.752-9.604-601.711-9.604z"/>
	<path fill="#FFFFFF" d="M-577.412-10.579c-0.452,0.5-2.472,2.174-5.515,2.174c-4.731,0-8.344-3.899-8.344-9.073
		c0-5.173,3.708-9.073,8.273-9.073c2.639,0,4.469,1.225,5.254,1.925l-0.428,1.149c-0.57-0.525-2.33-1.875-4.826-1.875
		c-3.875,0-7.013,3.349-7.013,7.873s2.972,7.873,7.084,7.873c2.876,0,4.636-1.649,5.111-2.099L-577.412-10.579z"/>
	<path fill="#FFFFFF" d="M-574.461-26.225h1.213v17.496h-1.213V-26.225z"/>
	<path fill="#FFFFFF" d="M-567.376-15.002l-2.258,6.273h-1.236l6.372-17.496h1.188l6.371,17.496h-1.236l-2.258-6.273H-567.376z
		 M-563.905-24.775l-3.043,8.598h6.086L-563.905-24.775z"/>
	<path fill="#FFFFFF" d="M-554.56-26.225h1.213v16.321h6.632v1.175h-7.845V-26.225z"/>
</g>
<g>
	<ellipse fill="#971B81" cx="257.91" cy="257.684" rx="248.91" ry="251.76"/>
</g>
<g enable-background="new    ">
	<path fill="#FFFFFF" d="M57.104,210.025h27.868c17.121,0,28.743,11.229,28.743,28.464c0,16.974-12.122,28.856-28.618,28.856H74.724
		v34.078H57.104V210.025z M82.597,251.415c7.748,0,12.997-5.223,12.997-12.926c0-7.573-5.374-12.535-12.747-12.535h-8.123v25.461
		H82.597z"/>
	<path fill="#FFFFFF" d="M124.838,210.025h44.989v16.582h-27.368v20.369h23.494v16.32h-23.494v21.676h28.493v16.451h-46.114V210.025
		z"/>
	<path fill="#FFFFFF" d="M180.325,255.724c0-26.636,18.621-47.397,45.489-47.397c26.869,0,45.489,20.761,45.489,47.397
		c0,26.897-18.621,47.396-45.489,47.396C198.945,303.121,180.325,282.622,180.325,255.724z M198.695,255.724
		c0,17.496,11.372,30.162,27.118,30.162s27.119-12.666,27.119-30.162c0-17.235-11.373-30.162-27.119-30.162
		S198.695,238.489,198.695,255.724z"/>
	<path fill="#FFFFFF" d="M283.428,210.025h27.867c17.121,0,28.743,11.229,28.743,28.464c0,16.974-12.122,28.856-28.618,28.856
		h-10.372v34.078h-17.62V210.025z M308.921,251.415c7.748,0,12.997-5.223,12.997-12.926c0-7.573-5.374-12.535-12.747-12.535h-8.123
		v25.461H308.921z"/>
	<path fill="#FFFFFF" d="M351.162,210.025h17.621v74.816h28.492v16.582h-46.113V210.025z"/>
	<path fill="#FFFFFF" d="M408.023,210.025h44.989v16.582h-27.368v20.369h23.494v16.32h-23.494v21.676h28.492v16.451h-46.113V210.025
		z"/>
</g>
</svg>
