<?xml version="1.0" encoding="utf-8"?>
<!-- Generator: Adobe Illustrator 15.0.0, SVG Export Plug-In . SVG Version: 6.00 Build 0)  -->
<!DOCTYPE svg PUBLIC "-//W3C//DTD SVG 1.1//EN" "http://www.w3.org/Graphics/SVG/1.1/DTD/svg11.dtd">
<svg version="1.1" id="Layer_1" xmlns="http://www.w3.org/2000/svg" xmlns:xlink="http://www.w3.org/1999/xlink" x="0px" y="0px"
	 width="1920px" height="1103px" viewBox="0 0 1920 1103" enable-background="new 0 0 1920 1103" xml:space="preserve">
<g>
	<path fill="#1E386C" d="M1687.717,837.616c-12.148-28.935,1.455-62.25,30.388-74.396c28.943-12.153,62.252,1.457,74.405,30.389
		c12.148,28.938-1.458,62.252-30.399,74.396C1733.177,880.163,1699.865,866.547,1687.717,837.616"/>
	<path fill="#1E386C" d="M1575.339,898.288c-12.15-28.934,1.454-62.249,30.393-74.396c28.938-12.153,62.244,1.458,74.398,30.391
		c12.149,28.934-1.456,62.25-30.396,74.393C1620.798,940.83,1587.485,927.22,1575.339,898.288"/>
	<path fill="#00B5DD" d="M1692.049,915.829c-4.626-11.006,0.548-23.683,11.56-28.297c11.001-4.62,23.671,0.555,28.291,11.56
		c4.626,11.007-0.551,23.671-11.561,28.298C1709.338,932.004,1696.669,926.83,1692.049,915.829"/>
	<path fill="#00B5DD" d="M1830.572,751.807c-3.038-7.235,0.362-15.569,7.603-18.612c7.239-3.034,15.562,0.368,18.604,7.606
		c3.041,7.233-0.365,15.566-7.6,18.604C1841.939,762.445,1833.607,759.039,1830.572,751.807"/>
	<path fill="#00B5DD" d="M1879.479,725.125c-1.665-3.965,0.199-8.538,4.173-10.209c3.964-1.672,8.534,0.193,10.199,4.17
		c1.673,3.966-0.2,8.54-4.164,10.211C1885.71,730.961,1881.145,729.095,1879.479,725.125"/>
	<path fill="#00B5DD" d="M1886.171,680.856c-0.895-2.138,0.102-4.598,2.246-5.493c2.139-0.9,4.6,0.104,5.492,2.241
		c0.903,2.138-0.102,4.6-2.24,5.504C1889.526,684.005,1887.063,682.993,1886.171,680.856"/>
	<path fill="#00B5DD" d="M1892.933,695.923c-0.896-2.137,0.103-4.598,2.249-5.498c2.136-0.901,4.594,0.11,5.492,2.248
		c0.901,2.137-0.109,4.599-2.242,5.499C1896.289,699.064,1893.826,698.062,1892.933,695.923"/>
	<path fill="#00B5DD" d="M1786.24,773.804c-0.672-1.587,0.074-3.419,1.674-4.089c1.585-0.667,3.419,0.08,4.089,1.672
		c0.671,1.586-0.082,3.42-1.674,4.095C1788.737,776.147,1786.904,775.393,1786.24,773.804"/>
	<path fill="#00B5DD" d="M1885.381,740.768c-0.518-1.237,0.058-2.654,1.295-3.18c1.235-0.519,2.654,0.065,3.172,1.301
		c0.521,1.237-0.059,2.649-1.294,3.183C1887.317,742.588,1885.898,741.998,1885.381,740.768"/>
	<path fill="#00B5DD" d="M1876.719,679.871c-0.355-0.841,0.04-1.806,0.882-2.155c0.836-0.358,1.794,0.044,2.15,0.88
		c0.349,0.837-0.046,1.809-0.882,2.157C1878.025,681.102,1877.069,680.707,1876.719,679.871"/>
	<path fill="#00B5DD" d="M1883.67,699.137c-0.351-0.844,0.04-1.808,0.887-2.164c0.839-0.349,1.795,0.054,2.146,0.888
		c0.356,0.835-0.038,1.808-0.876,2.157C1884.985,700.368,1884.025,699.965,1883.67,699.137"/>
	<path fill="#00B5DD" d="M1892.946,710.149c-0.351-0.837,0.038-1.802,0.88-2.157c0.838-0.357,1.801,0.044,2.151,0.881
		c0.351,0.836-0.039,1.808-0.874,2.157C1894.261,711.381,1893.295,710.984,1892.946,710.149"/>
	<path fill="#00B5DD" d="M1875.072,733.425c-0.355-0.838,0.039-1.81,0.881-2.159c0.837-0.35,1.796,0.044,2.146,0.882
		c0.358,0.835-0.037,1.8-0.874,2.157C1876.382,734.66,1875.423,734.258,1875.072,733.425"/>
	<path fill="#00B5DD" d="M1901.193,684.369c-0.52-1.233,0.057-2.649,1.301-3.176c1.23-0.518,2.647,0.066,3.168,1.303
		c0.518,1.236-0.06,2.647-1.289,3.181C1903.129,686.187,1901.711,685.603,1901.193,684.369"/>
	<path fill="#00B5DD" d="M1645.131,804.102c-3.039-7.236,0.365-15.569,7.601-18.611c7.239-3.035,15.562,0.366,18.606,7.603
		c3.038,7.236-0.361,15.568-7.601,18.608C1656.498,814.74,1648.168,811.336,1645.131,804.102"/>
	<path fill="#00B5DD" d="M1577.393,943.055c-1.868-4.453,0.223-9.575,4.673-11.437c4.446-1.869,9.568,0.222,11.435,4.669
		c1.865,4.447-0.227,9.569-4.668,11.439C1584.38,949.59,1579.259,947.505,1577.393,943.055"/>
</g>
<g>
	<path fill="#1F386C" d="M64.556,256.706c18.028-7.354,38.602,1.297,45.958,19.323c7.352,18.028-1.298,38.603-19.323,45.956
		c-18.028,7.354-38.604-1.296-45.958-19.322C37.879,284.638,46.532,264.062,64.556,256.706"/>
	<path fill="#1F386C" d="M521.531,64.588c18.027-7.353,38.601,1.298,45.957,19.324c7.354,18.027-1.296,38.602-19.321,45.957
		c-18.029,7.354-38.604-1.296-45.959-19.323C494.854,92.52,503.504,71.943,521.531,64.588"/>
	<path fill="#00B6DD" d="M602.93,122.638c7.362-3.002,15.764,0.529,18.768,7.891c3.004,7.362-0.53,15.766-7.891,18.768
		c-7.362,3.003-15.766-0.53-18.77-7.891C592.034,134.042,595.567,125.642,602.93,122.638"/>
	<path fill="#00B6DD" d="M134.573,255.267c3.966-1.617,8.491,0.286,10.108,4.25c1.616,3.966-0.285,8.49-4.251,10.106
		c-3.964,1.62-8.49-0.283-10.106-4.248C128.707,261.411,130.609,256.887,134.573,255.267"/>
	<path fill="#00B6DD" d="M478.371,105.336c3.965-1.618,8.49,0.286,10.109,4.249c1.615,3.966-0.287,8.491-4.252,10.109
		c-3.963,1.617-8.49-0.285-10.107-4.251C472.505,111.479,474.407,106.954,478.371,105.336"/>
	<path fill="#00B6DD" d="M573.931,133.241c2.291-0.935,4.904,0.165,5.84,2.454c0.934,2.29-0.165,4.905-2.456,5.839
		c-2.29,0.934-4.906-0.165-5.84-2.454S571.64,134.174,573.931,133.241"/>
	<path fill="#00B6DD" d="M650.843,130.872c1.555-0.635,3.328,0.111,3.961,1.666c0.636,1.554-0.11,3.328-1.665,3.963
		c-1.553,0.631-3.326-0.114-3.961-1.668C648.545,133.279,649.291,131.507,650.843,130.872"/>
	<path fill="#00B6DD" d="M630.329,147.791c1.555-0.635,3.329,0.11,3.962,1.665c0.636,1.554-0.112,3.329-1.665,3.963
		c-1.554,0.632-3.327-0.113-3.96-1.667C628.031,150.198,628.776,148.425,630.329,147.791"/>
	<path fill="#00B6DD" d="M587.689,114.345c1.554-0.633,3.33,0.112,3.96,1.665c0.635,1.555-0.111,3.328-1.664,3.963
		c-1.555,0.634-3.326-0.111-3.962-1.667C585.389,116.751,586.135,114.979,587.689,114.345"/>
	<path fill="#59B13E" d="M453.531,75.24c16.365,10.547,21.079,32.363,10.53,48.727c-10.547,16.366-32.362,21.082-48.727,10.532
		c-16.364-10.547-21.08-32.364-10.531-48.729C415.349,69.405,437.167,64.692,453.531,75.24"/>
	<path fill="#59B13E" d="M394.49,149.983c6.683,4.309,8.608,13.219,4.299,19.902c-4.308,6.683-13.216,8.608-19.897,4.3
		c-6.684-4.31-8.61-13.217-4.303-19.901C378.898,147.603,387.807,145.679,394.49,149.983"/>
	<path fill="#59B13E" d="M267.192,185.506c6.684,4.308,8.609,13.217,4.301,19.9c-4.308,6.683-13.217,8.609-19.901,4.301
		c-6.68-4.309-8.608-13.218-4.299-19.901C251.601,183.125,260.51,181.199,267.192,185.506"/>
	<path fill="#59B13E" d="M352.928,174.665c3.6,2.321,4.636,7.119,2.317,10.718c-2.321,3.599-7.119,4.637-10.718,2.316
		c-3.6-2.319-4.635-7.119-2.315-10.717C344.529,173.384,349.329,172.345,352.928,174.665"/>
	<path fill="#59B13E" d="M288.077,164.916c3.599,2.321,4.635,7.117,2.315,10.718c-2.321,3.597-7.117,4.634-10.716,2.316
		c-3.6-2.321-4.636-7.119-2.317-10.719C279.679,163.631,284.478,162.594,288.077,164.916"/>
	<path fill="#59B13E" d="M513.339,89.129c3.6,2.321,4.637,7.119,2.315,10.719c-2.318,3.599-7.117,4.636-10.717,2.315
		c-3.599-2.321-4.634-7.119-2.315-10.716C504.942,87.848,509.741,86.811,513.339,89.129"/>
	<path fill="#59B13E" d="M530.178,134.901c2.078,1.341,2.677,4.113,1.338,6.191c-1.342,2.081-4.114,2.68-6.192,1.339
		c-2.079-1.34-2.679-4.113-1.337-6.189C525.327,134.161,528.097,133.562,530.178,134.901"/>
	<path fill="#59B13E" d="M262.674,158.397c2.079,1.337,2.679,4.111,1.337,6.189c-1.338,2.081-4.111,2.679-6.191,1.339
		c-2.079-1.339-2.677-4.113-1.338-6.191C257.823,157.654,260.594,157.056,262.674,158.397"/>
	<path fill="#59B13E" d="M278.592,148.165c1.41,0.911,1.817,2.79,0.908,4.202c-0.91,1.409-2.791,1.815-4.201,0.907
		c-1.41-0.909-1.816-2.789-0.906-4.2C275.302,147.665,277.181,147.256,278.592,148.165"/>
	<path fill="#59B13E" d="M330.095,185.662c1.411,0.911,1.818,2.789,0.91,4.201c-0.91,1.409-2.792,1.816-4.202,0.907
		c-1.409-0.909-1.817-2.789-0.905-4.2C326.806,185.159,328.686,184.752,330.095,185.662"/>
	<path fill="#59B13E" d="M311.855,179.74c2.26,1.458,2.909,4.469,1.454,6.728c-1.458,2.259-4.469,2.913-6.729,1.455
		c-2.26-1.457-2.91-4.468-1.454-6.728C306.584,178.934,309.595,178.283,311.855,179.74"/>
	<path fill="#59B13E" d="M292.428,190.326c2.08,1.341,2.678,4.114,1.338,6.192c-1.34,2.079-4.111,2.677-6.191,1.339
		c-2.079-1.34-2.679-4.113-1.337-6.192C287.577,189.585,290.348,188.987,292.428,190.326"/>
	<path fill="#59B13E" d="M234.887,212.293c2.08,1.339,2.678,4.112,1.338,6.19c-1.339,2.08-4.112,2.68-6.191,1.34
		c-2.08-1.34-2.678-4.113-1.339-6.192C230.037,211.552,232.808,210.954,234.887,212.293"/>
	<path fill="#59B13E" d="M33.721,327.113c1.343-7.836,8.783-13.102,16.622-11.759c7.835,1.342,13.101,8.784,11.759,16.621
		c-1.344,7.836-8.785,13.1-16.62,11.759C37.644,342.391,32.379,334.949,33.721,327.113"/>
	<path fill="#59B13E" d="M88.063,264.809c0.722-4.219,4.73-7.055,8.951-6.332c4.22,0.725,7.057,4.729,6.333,8.952
		c-0.723,4.22-4.73,7.055-8.952,6.331C90.176,273.037,87.341,269.031,88.063,264.809"/>
	<path fill="#59B13E" d="M27.391,357.333c0.417-2.438,2.735-4.077,5.172-3.658c2.437,0.417,4.074,2.73,3.658,5.168
		c-0.418,2.438-2.733,4.076-5.171,3.66S26.974,359.771,27.391,357.333"/>
	<path fill="#59B13E" d="M74.32,253.892c0.283-1.654,1.854-2.765,3.507-2.482c1.656,0.283,2.768,1.853,2.482,3.508
		c-0.281,1.653-1.852,2.765-3.507,2.48C75.149,257.115,74.037,255.545,74.32,253.892"/>
	<path fill="#59B13E" d="M126.199,273.914c0.286-1.653,1.856-2.765,3.509-2.482c1.653,0.283,2.765,1.855,2.481,3.51
		c-0.283,1.653-1.853,2.765-3.507,2.479C127.027,277.139,125.917,275.568,126.199,273.914"/>
	<path fill="#59B13E" d="M144.22,262.313c0.285-1.655,1.854-2.767,3.509-2.483c1.652,0.282,2.766,1.854,2.483,3.508
		c-0.284,1.655-1.854,2.766-3.51,2.482C145.048,265.537,143.937,263.968,144.22,262.313"/>
	<path fill="#59B13E" d="M66.042,290.794c0.281-1.655,1.854-2.765,3.508-2.482c1.652,0.282,2.764,1.853,2.481,3.508
		c-0.282,1.653-1.854,2.764-3.507,2.48C66.868,294.019,65.759,292.45,66.042,290.794"/>
	<path fill="#59B13E" d="M69.557,317.15c0.284-1.653,1.854-2.766,3.507-2.481c1.654,0.283,2.767,1.854,2.482,3.508
		c-0.282,1.652-1.853,2.764-3.507,2.481C70.385,320.374,69.275,318.805,69.557,317.15"/>
	<path fill="#59B13E" d="M107.976,285.185c0.417-2.437,2.732-4.076,5.168-3.658c2.439,0.419,4.078,2.731,3.661,5.17
		c-0.418,2.439-2.733,4.075-5.173,3.658C109.195,289.938,107.557,287.624,107.976,285.185"/>
	<path fill="#59B13E" d="M113.137,264.602c0.417-2.438,2.732-4.076,5.17-3.657c2.438,0.417,4.077,2.731,3.659,5.17
		c-0.417,2.438-2.732,4.076-5.173,3.656C114.357,269.355,112.718,267.04,113.137,264.602"/>
	<path fill="#59B13E" d="M560.354,171.02c2.079,1.341,2.679,4.111,1.338,6.19c-1.341,2.079-4.111,2.679-6.191,1.338
		c-2.079-1.339-2.678-4.111-1.337-6.19C555.502,170.277,558.273,169.678,560.354,171.02"/>
	<path fill="#DEDC00" d="M522.42,162.687c3.6,2.32,4.637,7.118,2.316,10.716s-7.118,4.637-10.717,2.318
		c-3.6-2.322-4.636-7.119-2.316-10.719C514.022,161.403,518.82,160.367,522.42,162.687"/>
	<path fill="#DEDC00" d="M83.649,294.98c0.723-4.221,4.73-7.057,8.95-6.334c4.221,0.724,7.057,4.731,6.334,8.95
		c-0.723,4.224-4.73,7.058-8.951,6.335C85.763,303.207,82.925,299.201,83.649,294.98"/>
	<path fill="#EE7203" d="M137.381,18.372c51.993-21.21,111.339,3.741,132.551,55.734c21.212,51.996-3.741,111.34-55.735,132.553
		c-51.992,21.211-111.338-3.742-132.549-55.734C60.435,98.931,85.386,39.585,137.381,18.372"/>
	<path fill="#EE7203" d="M116.967,231.121c39.548-16.134,84.689,2.846,100.825,42.395c16.134,39.548-2.846,84.689-42.394,100.824
		c-39.548,16.134-84.689-2.846-100.826-42.394C58.437,292.396,77.418,247.256,116.967,231.121"/>
	<path fill="#F39200" d="M274.031,69.065c19.774-8.068,42.346,1.421,50.413,21.196c8.067,19.773-1.421,42.345-21.196,50.413
		c-19.776,8.066-42.346-1.424-50.414-21.197C244.766,99.703,254.256,77.132,274.031,69.065"/>
	<path fill="#F39200" d="M154.477,408.34c2.86-1.167,6.125,0.207,7.292,3.065c1.166,2.861-0.206,6.125-3.067,7.292
		c-2.859,1.167-6.125-0.204-7.291-3.065C150.245,412.772,151.618,409.507,154.477,408.34"/>
	<path fill="#F39200" d="M141.269,392.259c1.652-0.674,3.538,0.12,4.212,1.771c0.674,1.652-0.118,3.537-1.771,4.213
		c-1.653,0.673-3.538-0.12-4.213-1.772C138.824,394.82,139.617,392.934,141.269,392.259"/>
	<path fill="#F39200" d="M175.097,389.373c1.651-0.674,3.537,0.119,4.211,1.771c0.673,1.651-0.118,3.538-1.771,4.209
		c-1.652,0.677-3.538-0.118-4.212-1.769C172.652,391.932,173.445,390.047,175.097,389.373"/>
	<path fill="#F39200" d="M350.857,47.175c13.005-5.306,27.847,0.937,33.154,13.94c5.305,13.003-0.935,27.847-13.94,33.152
		c-13.003,5.305-27.846-0.937-33.151-13.939C331.614,67.326,337.854,52.482,350.857,47.175"/>
	<path fill="#F39200" d="M464.44,161.56c13.003-5.307,27.847,0.936,33.151,13.938c5.304,13.005-0.934,27.847-13.939,33.153
		c-13.002,5.306-27.846-0.935-33.151-13.939C445.195,181.708,451.435,166.866,464.44,161.56"/>
	<path fill="#971B81" d="M19.862,256.357c-0.742-4.216,2.075-8.237,6.292-8.979c4.217-0.742,8.237,2.076,8.979,6.293
		c0.742,4.216-2.073,8.236-6.292,8.98C24.626,263.393,20.605,260.577,19.862,256.357"/>
	<path fill="#E6007D" d="M25.878,286.25c-0.743-4.215,2.075-8.237,6.293-8.979c4.217-0.741,8.235,2.076,8.978,6.292
		c0.743,4.219-2.073,8.238-6.293,8.98C30.642,293.286,26.621,290.468,25.878,286.25"/>
	<path fill="#E6007D" d="M54.593,251.236c-0.292-1.654,0.812-3.228,2.464-3.519c1.654-0.292,3.229,0.812,3.52,2.465
		c0.292,1.653-0.812,3.229-2.464,3.518C56.458,253.992,54.882,252.887,54.593,251.236"/>
	<path fill="#E6007D" d="M71.862,248.27c-0.291-1.655,0.815-3.229,2.465-3.521c1.654-0.29,3.23,0.815,3.52,2.468
		c0.292,1.651-0.812,3.228-2.465,3.519C73.729,251.026,72.153,249.921,71.862,248.27"/>
	<path fill="#E6007D" d="M45.478,268.829c-0.429-2.437,1.199-4.759,3.634-5.187c2.436-0.43,4.761,1.199,5.189,3.635
		c0.427,2.435-1.199,4.757-3.637,5.186S45.907,271.266,45.478,268.829"/>
</g>
<g>
	<path fill="#961B80" d="M1833.043,1001.85c-52.747,11.678-104.965-21.67-116.64-74.41c-11.614-52.793,21.698-104.99,74.438-116.635
		c52.774-11.675,104.989,21.674,116.642,74.409C1919.12,938.003,1885.812,990.177,1833.043,1001.85"/>
	<path fill="#E5007E" d="M1748.176,845.634c-21.536,4.776-42.86-8.826-47.61-30.364c-4.763-21.579,8.808-42.893,30.368-47.656
		c21.529-4.749,42.862,8.854,47.625,30.417C1783.307,819.56,1769.709,840.883,1748.176,845.634"/>
	<path fill="#961B80" d="M1667.035,896.781c-11.603,2.558-23.098-4.771-25.654-16.369c-2.554-11.605,4.791-23.073,16.372-25.627
		c11.606-2.586,23.074,4.732,25.658,16.343C1685.968,882.734,1678.639,894.229,1667.035,896.781"/>
	<path fill="#961B80" d="M1812.939,787.99c-11.599,2.554-23.102-4.746-25.653-16.375c-2.556-11.606,4.768-23.071,16.372-25.629
		c11.605-2.584,23.07,4.767,25.66,16.345C1831.874,773.934,1824.548,785.431,1812.939,787.99"/>
	<path fill="#E5007E" d="M1640.86,972.907c-11.604,2.559-23.104-4.74-25.653-16.37c-2.56-11.604,4.793-23.072,16.368-25.628
		c11.608-2.585,23.08,4.733,25.658,16.342C1659.793,958.858,1652.467,970.356,1640.86,972.907"/>
	<path fill="#E5007E" d="M1870.602,963.748c-11.578,2.565-23.104-4.747-25.654-16.375c-2.557-11.605,4.791-23.065,16.368-25.629
		c11.61-2.575,23.074,4.766,25.657,16.353C1889.534,949.701,1882.207,961.191,1870.602,963.748"/>
	<path fill="#E5007E" d="M1747.479,907.531c-6.687,1.495-13.348-2.751-14.811-9.459c-1.491-6.686,2.75-13.323,9.462-14.812
		c6.684-1.467,13.347,2.752,14.809,9.459C1758.434,899.407,1754.185,906.068,1747.479,907.531"/>
	<path fill="#E5007E" d="M1875.407,750.652c-6.686,1.469-13.35-2.753-14.811-9.459c-1.49-6.713,2.746-13.326,9.46-14.814
		c6.686-1.483,13.348,2.759,14.815,9.441C1886.356,742.532,1882.114,749.188,1875.407,750.652"/>
	<path fill="#E5007E" d="M1864.491,802.021c-4.556,0.997-9.075-1.874-10.052-6.42c-1.015-4.564,1.862-9.033,6.424-10.045
		c4.533-1.027,9.029,1.855,10.048,6.417C1871.908,796.526,1869.027,800.995,1864.491,802.021"/>
	<path fill="#E5007E" d="M1689.96,830.298c-4.561,1.021-9.052-1.868-10.046-6.421c-0.997-4.56,1.861-9.032,6.42-10.054
		c4.531-1.002,9.027,1.864,10.051,6.421C1697.401,824.809,1694.525,829.276,1689.96,830.298"/>
	<path fill="#E5007E" d="M1737.267,805.898c-7.298,1.628-14.486-2.982-16.111-10.26c-1.599-7.295,3.011-14.48,10.288-16.11
		c7.267-1.596,14.485,2.992,16.082,10.287C1749.152,797.085,1744.537,804.302,1737.267,805.898"/>
	<path fill="#E5007E" d="M1754.344,746.931c-6.684,1.468-13.349-2.752-14.809-9.459c-1.489-6.713,2.746-13.325,9.434-14.809
		c6.712-1.491,13.373,2.754,14.838,9.438C1765.271,738.808,1761.048,745.475,1754.344,746.931"/>
	<path fill="#E5007E" d="M1829.1,650.605c-6.709,1.463-13.35-2.754-14.836-9.466c-1.466-6.683,2.75-13.324,9.462-14.811
		c6.713-1.49,13.321,2.753,14.832,9.47C1840.03,642.474,1835.781,649.136,1829.1,650.605"/>
	<path fill="#E5007E" d="M1617.34,896.467c-6.687,1.493-13.349-2.752-14.809-9.46c-1.493-6.688,2.748-13.325,9.46-14.814
		c6.688-1.484,13.35,2.76,14.81,9.467C1628.295,888.35,1624.048,895.01,1617.34,896.467"/>
	<path fill="#1F386C" d="M1577.379,946.108c13.552-7.25,30.407-2.145,37.657,11.401c7.248,13.549,2.145,30.407-11.401,37.655
		c-13.551,7.249-30.407,2.144-37.657-11.402C1558.73,970.215,1563.834,953.356,1577.379,946.108"/>
	<path fill="#00B6DD" d="M1646.025,985.002c5.532-2.958,12.417-0.874,15.379,4.656c2.959,5.532,0.875,12.419-4.656,15.378
		c-5.532,2.962-12.418,0.877-15.377-4.656C1638.408,994.849,1640.492,987.965,1646.025,985.002"/>
	<path fill="#00B6DD" d="M1422.493,990.486c1.171-0.627,2.624-0.187,3.247,0.982c0.625,1.165,0.184,2.62-0.982,3.245
		c-1.168,0.622-2.621,0.185-3.244-0.983C1420.886,992.562,1421.327,991.111,1422.493,990.486"/>
	<path fill="#59B13E" d="M1524.879,960.038c13.709,6.938,19.197,23.675,12.256,37.382c-6.938,13.712-23.674,19.2-37.384,12.259
		c-13.708-6.937-19.196-23.676-12.256-37.386C1494.432,958.584,1511.17,953.099,1524.879,960.038"/>
	<path fill="#59B13E" d="M1484.66,1023.541c5.598,2.834,7.838,9.67,5.005,15.27c-2.834,5.599-9.671,7.839-15.268,5.006
		c-5.598-2.837-7.84-9.671-5.007-15.269C1472.227,1022.949,1479.061,1020.71,1484.66,1023.541"/>
	<path fill="#59B13E" d="M1387.65,1061.852c5.601,2.832,7.84,9.667,5.007,15.266c-2.834,5.598-9.668,7.84-15.268,5.007
		c-5.595-2.835-7.838-9.67-5.007-15.269C1375.218,1061.258,1382.053,1059.017,1387.65,1061.852"/>
	<path fill="#59B13E" d="M1454.057,1046.317c3.018,1.527,4.224,5.209,2.696,8.224c-1.525,3.013-5.207,4.224-8.221,2.696
		c-3.016-1.528-4.222-5.208-2.695-8.223C1447.362,1045.999,1451.043,1044.792,1454.057,1046.317"/>
	<path fill="#59B13E" d="M1402.358,1043.979c3.016,1.525,4.221,5.206,2.694,8.222c-1.527,3.014-5.206,4.223-8.223,2.697
		c-3.014-1.529-4.221-5.21-2.693-8.226C1395.661,1043.655,1399.342,1042.45,1402.358,1043.979"/>
	<path fill="#59B13E" d="M1572.961,966.041c3.016,1.525,4.223,5.207,2.695,8.223c-1.525,3.016-5.207,4.222-8.222,2.694
		c-3.015-1.525-4.222-5.205-2.696-8.222C1566.266,965.723,1569.945,964.515,1572.961,966.041"/>
	<path fill="#59B13E" d="M1381.884,1040.941c1.74,0.879,2.439,3.006,1.558,4.749c-0.881,1.743-3.008,2.438-4.751,1.558
		c-1.741-0.881-2.437-3.009-1.557-4.749C1378.017,1040.757,1380.144,1040.059,1381.884,1040.941"/>
	<path fill="#59B13E" d="M1393.54,1031.607c1.181,0.598,1.656,2.041,1.057,3.223c-0.599,1.181-2.042,1.652-3.222,1.057
		c-1.183-0.6-1.656-2.04-1.055-3.224C1390.916,1031.481,1392.358,1031.01,1393.54,1031.607"/>
	<path fill="#59B13E" d="M1437.038,1056.819c1.183,0.599,1.654,2.042,1.058,3.223c-0.599,1.182-2.041,1.654-3.223,1.058
		c-1.181-0.599-1.655-2.041-1.057-3.224C1434.415,1056.694,1435.857,1056.222,1437.038,1056.819"/>
	<path fill="#59B13E" d="M1422.236,1053.666c1.893,0.956,2.648,3.271,1.692,5.16c-0.959,1.893-3.271,2.652-5.163,1.694
		s-2.65-3.27-1.691-5.162C1418.03,1053.465,1420.343,1052.707,1422.236,1053.666"/>
	<path fill="#59B13E" d="M1407.854,1063.567c1.743,0.88,2.439,3.007,1.558,4.749c-0.881,1.743-3.009,2.438-4.749,1.559
		c-1.743-0.883-2.44-3.01-1.558-4.75C1403.985,1063.383,1406.112,1062.686,1407.854,1063.567"/>
	<path fill="#59B13E" d="M1364.489,1085.521c1.741,0.882,2.438,3.008,1.558,4.749c-0.881,1.741-3.009,2.44-4.748,1.56
		c-1.745-0.881-2.44-3.01-1.559-4.751C1360.621,1085.337,1362.746,1084.641,1364.489,1085.521"/>
	<path fill="#59B13E" d="M1616.571,1026.466c1.742,0.882,2.438,3.006,1.556,4.749c-0.88,1.742-3.005,2.438-4.749,1.557
		c-1.741-0.88-2.436-3.007-1.556-4.749C1612.703,1026.281,1614.83,1025.584,1616.571,1026.466"/>
	<path fill="#DEDC00" d="M1586.114,1023.032c3.015,1.528,4.223,5.207,2.696,8.222c-1.526,3.018-5.207,4.223-8.222,2.698
		c-3.017-1.527-4.223-5.208-2.697-8.223C1579.416,1022.712,1583.1,1021.508,1586.114,1023.032"/>
	<path fill="#F39200" d="M1291.129,1027.149c14.861-7.953,33.354-2.354,41.307,12.508c7.951,14.857,2.354,33.354-12.508,41.307
		c-14.862,7.951-33.354,2.352-41.307-12.51C1270.67,1053.596,1276.269,1035.102,1291.129,1027.149"/>
	<path fill="#F39200" d="M1419.43,1001.048c9.771-5.232,21.936-1.548,27.162,8.222c5.229,9.774,1.549,21.936-8.227,27.165
		c-9.77,5.229-21.93,1.546-27.16-8.226C1405.974,1018.437,1409.657,1006.277,1419.43,1001.048"/>
</g>
<g>
	<path fill="#1F386C" d="M104.195,791.67c23.365,0.155,42.181,19.22,42.025,42.584c-0.154,23.362-19.219,42.179-42.583,42.022
		c-23.364-0.155-42.178-19.219-42.023-42.582C61.767,810.331,80.833,791.518,104.195,791.67"/>
	<path fill="#1F386C" d="M217.476,925.055c0.103-15.364,12.639-27.736,28.004-27.634c15.364,0.103,27.737,12.639,27.636,28
		c-0.102,15.366-12.64,27.737-28.003,27.639C229.749,952.955,217.376,940.418,217.476,925.055"/>
	<path fill="#00B6DD" d="M283.315,964.188c0.041-6.274,5.162-11.327,11.436-11.285s11.327,5.162,11.287,11.437
		c-0.042,6.273-5.163,11.327-11.437,11.285C288.325,975.585,283.273,970.465,283.315,964.188"/>
	<path fill="#1F386C" d="M360.845,1033.955c0.042-6.274,5.162-11.327,11.436-11.285c6.275,0.042,11.326,5.16,11.287,11.436
		c-0.041,6.272-5.162,11.327-11.437,11.285C365.855,1045.348,360.803,1040.229,360.845,1033.955"/>
	<path fill="#00B6DD" d="M317.343,981.432c0.022-3.38,2.779-6.1,6.159-6.077c3.378,0.023,6.1,2.779,6.077,6.159
		c-0.022,3.377-2.778,6.099-6.158,6.077C320.041,987.568,317.32,984.812,317.343,981.432"/>
	<path fill="#00B6DD" d="M237.639,873.597c0.022-3.381,2.78-6.101,6.159-6.078c3.379,0.024,6.101,2.779,6.078,6.159
		c-0.021,3.379-2.778,6.102-6.159,6.079C240.339,879.732,237.618,876.977,237.639,873.597"/>
	<path fill="#00B6DD" d="M310.985,1015.086c3.38,0.022,6.1,2.781,6.079,6.16c-0.024,3.378-2.781,6.099-6.161,6.077
		c-3.378-0.022-6.099-2.779-6.077-6.159C304.849,1017.785,307.606,1015.062,310.985,1015.086"/>
	<path fill="#00B6DD" d="M372.168,1064.369c1.951,0.013,3.524,1.607,3.513,3.56c-0.014,1.952-1.608,3.522-3.559,3.51
		s-3.527-1.606-3.512-3.557C368.622,1065.93,370.216,1064.355,372.168,1064.369"/>
	<path fill="#00B6DD" d="M334.33,991.986c0.008-1.324,1.088-2.389,2.413-2.383c1.324,0.01,2.39,1.092,2.383,2.415
		c-0.009,1.324-1.091,2.392-2.415,2.383C335.387,994.392,334.321,993.312,334.33,991.986"/>
	<path fill="#00B6DD" d="M428.933,1085.942c1.326,0.009,2.391,1.091,2.381,2.413c-0.008,1.326-1.088,2.393-2.414,2.384
		c-1.324-0.01-2.39-1.089-2.382-2.413C426.529,1087.002,427.608,1085.935,428.933,1085.942"/>
	<path fill="#00B6DD" d="M387.918,1054.768c1.324,0.009,2.392,1.09,2.381,2.412c-0.008,1.327-1.087,2.393-2.412,2.386
		c-1.327-0.01-2.391-1.091-2.383-2.415C385.513,1055.824,386.593,1054.759,387.918,1054.768"/>
	<path fill="#00B6DD" d="M338.104,1006.646c0.014-2.123,1.745-3.831,3.867-3.818c2.122,0.017,3.83,1.746,3.815,3.868
		c-0.013,2.122-1.744,3.829-3.865,3.816C339.798,1010.499,338.089,1008.768,338.104,1006.646"/>
	<path fill="#00B6DD" d="M353.376,1015.105c0.013-1.953,1.607-3.523,3.559-3.511c1.951,0.013,3.524,1.604,3.512,3.557
		c-0.013,1.951-1.605,3.524-3.558,3.511C354.936,1018.65,353.364,1017.055,353.376,1015.105"/>
	<path fill="#1F386C" d="M408.084,956.484c15.366,0.103,27.738,12.639,27.636,28.005c-0.102,15.362-12.638,27.738-28.002,27.635
		c-15.363-0.102-27.736-12.639-27.635-28.004C380.184,968.755,392.721,956.384,408.084,956.484"/>
	<path fill="#59B13E" d="M339.781,1052.326c1.108,1.604,0.705,3.809-0.899,4.916c-1.608,1.11-3.811,0.706-4.918-0.898
		c-1.11-1.607-0.707-3.81,0.9-4.918C336.471,1050.315,338.67,1050.72,339.781,1052.326"/>
	<path fill="#59B13E" d="M259.441,968.853c-5.305-3.35-6.886-10.367-3.534-15.674c3.352-5.303,10.37-6.885,15.674-3.532
		c5.303,3.354,6.885,10.369,3.534,15.673C271.763,970.623,264.744,972.207,259.441,968.853"/>
	<path fill="#59B13E" d="M230.502,910.38c-2.856-1.805-3.708-5.585-1.904-8.44c1.807-2.858,5.585-3.71,8.441-1.902
		c2.857,1.805,3.71,5.583,1.902,8.44C237.138,911.333,233.359,912.185,230.502,910.38"/>
	<path fill="#59B13E" d="M279.546,982.622c-1.65-1.044-2.143-3.228-1.099-4.878c1.042-1.647,3.225-2.14,4.875-1.098
		c1.651,1.043,2.143,3.226,1.1,4.876C283.38,983.174,281.195,983.664,279.546,982.622"/>
	<path fill="#59B13E" d="M218.383,917.087c-1.12-0.706-1.453-2.188-0.746-3.307c0.708-1.121,2.189-1.455,3.309-0.745
		c1.12,0.705,1.454,2.186,0.746,3.306C220.984,917.46,219.503,917.795,218.383,917.087"/>
	<path fill="#59B13E" d="M248.69,885.349c-1.119-0.708-1.453-2.188-0.746-3.31c0.707-1.118,2.188-1.453,3.309-0.744
		c1.119,0.706,1.453,2.187,0.744,3.307C251.291,885.723,249.81,886.057,248.69,885.349"/>
	<path fill="#59B13E" d="M245.695,868.703c-1.119-0.709-1.452-2.191-0.746-3.311c0.706-1.119,2.188-1.452,3.308-0.746
		c1.12,0.709,1.455,2.189,0.745,3.31C248.296,869.075,246.815,869.408,245.695,868.703"/>
	<path fill="#59B13E" d="M242.767,934.3c-1.121-0.708-1.453-2.189-0.746-3.31c0.706-1.118,2.188-1.452,3.308-0.743
		c1.12,0.706,1.454,2.188,0.746,3.305C245.367,934.675,243.888,935.006,242.767,934.3"/>
	<path fill="#59B13E" d="M263.038,939.721c-1.119-0.707-1.455-2.187-0.745-3.308c0.707-1.118,2.188-1.454,3.307-0.745
		c1.119,0.705,1.454,2.188,0.746,3.306C265.638,940.095,264.158,940.429,263.038,939.721"/>
	<path fill="#59B13E" d="M251.383,902.042c-1.65-1.043-2.143-3.227-1.099-4.874c1.043-1.653,3.225-2.143,4.875-1.102
		c1.651,1.044,2.142,3.226,1.099,4.877C255.216,902.594,253.033,903.086,251.383,902.042"/>
	<path fill="#59B13E" d="M237.947,892.046c-1.65-1.043-2.143-3.225-1.099-4.876c1.042-1.65,3.226-2.143,4.876-1.1
		c1.65,1.041,2.142,3.225,1.098,4.877C241.78,892.597,239.596,893.09,237.947,892.046"/>
	<path fill="#DEDC00" d="M251.151,922.736c-2.857-1.805-3.709-5.584-1.904-8.44c1.806-2.856,5.586-3.71,8.441-1.904
		c2.858,1.808,3.71,5.584,1.905,8.442C257.786,923.689,254.007,924.544,251.151,922.736"/>
	<path fill="#EE7203" d="M128.458,846.584c44.315,0.294,80,36.454,79.709,80.77c-0.293,44.315-36.456,80.001-80.77,79.708
		c-44.314-0.293-80.001-36.454-79.708-80.77C47.982,881.976,84.142,846.292,128.458,846.584"/>
	<path fill="#F39200" d="M340.671,942.584c0.073-11.083,9.116-20.008,20.2-19.933c11.083,0.07,20.009,9.114,19.935,20.198
		c-0.073,11.082-9.117,20.009-20.2,19.937C349.522,962.711,340.596,953.668,340.671,942.584"/>
	<path fill="#F39200" d="M388.164,970.815c0.031-4.526,3.724-8.174,8.251-8.143c4.525,0.032,8.17,3.724,8.142,8.25
		c-0.031,4.527-3.724,8.172-8.25,8.143C391.78,979.035,388.135,975.342,388.164,970.815"/>
	<path fill="#F39200" d="M444.092,1021.143c0.029-4.527,3.724-8.172,8.25-8.143c4.527,0.03,8.173,3.724,8.141,8.251
		c-0.03,4.524-3.723,8.169-8.249,8.139C447.707,1029.361,444.062,1025.668,444.092,1021.143"/>
	<path fill="#F39200" d="M412.712,983.252c0.016-2.437,2.004-4.4,4.442-4.384c2.437,0.017,4.401,2.007,4.385,4.444
		c-0.017,2.436-2.006,4.4-4.445,4.384C414.658,987.68,412.694,985.69,412.712,983.252"/>
	<path fill="#F39200" d="M427.822,1017.393c0.017-2.438,2.005-4.399,4.443-4.384c2.438,0.015,4.4,2.002,4.383,4.44
		c-0.016,2.438-2.004,4.404-4.443,4.386C429.768,1021.819,427.807,1019.829,427.822,1017.393"/>
	<path fill="#F39200" d="M355.215,905.466c0.017-2.439,2.005-4.402,4.442-4.387c2.438,0.019,4.402,2.005,4.384,4.444
		c-0.016,2.437-2.004,4.4-4.441,4.385C357.162,909.89,355.199,907.901,355.215,905.466"/>
	<path fill="#F39200" d="M322.642,932.28c0.015-2.437,2.005-4.398,4.441-4.383c2.438,0.018,4.401,2.006,4.384,4.443
		c-0.015,2.438-2.003,4.399-4.442,4.384C324.588,936.708,322.626,934.72,322.642,932.28"/>
	<path fill="#F39200" d="M339.496,910.217c0.009-1.408,1.158-2.542,2.567-2.531c1.407,0.009,2.542,1.156,2.532,2.566
		c-0.009,1.408-1.158,2.542-2.567,2.532C340.62,912.775,339.486,911.626,339.496,910.217"/>
	<path fill="#F39200" d="M432.445,1031.59c0.009-1.409,1.159-2.543,2.565-2.532c1.408,0.007,2.542,1.157,2.534,2.565
		c-0.011,1.407-1.16,2.542-2.568,2.533C433.568,1034.146,432.436,1032.996,432.445,1031.59"/>
	<path fill="#F39200" d="M422.668,1027.063c0.008-0.957,0.785-1.726,1.743-1.721c0.953,0.007,1.724,0.788,1.716,1.743
		c-0.006,0.954-0.786,1.725-1.74,1.719C423.431,1028.798,422.662,1028.018,422.668,1027.063"/>
	<path fill="#F39200" d="M424.965,990.867c0.005-0.957,0.786-1.725,1.74-1.719c0.957,0.007,1.725,0.788,1.719,1.741
		c-0.007,0.956-0.785,1.727-1.742,1.719C425.729,992.603,424.96,991.822,424.965,990.867"/>
	<path fill="#F39200" d="M427.687,1001.441c0.012-1.531,1.258-2.764,2.791-2.753c1.53,0.012,2.763,1.258,2.751,2.788
		c-0.009,1.531-1.259,2.764-2.789,2.754C428.909,1004.222,427.676,1002.971,427.687,1001.441"/>
	<path fill="#F39200" d="M438.706,1007.543c0.009-1.406,1.158-2.542,2.565-2.531c1.409,0.008,2.543,1.157,2.535,2.566
		c-0.009,1.407-1.16,2.541-2.567,2.531C439.83,1010.102,438.696,1008.951,438.706,1007.543"/>
	<path fill="#F39200" d="M347.639,884.694c0.009-1.409,1.159-2.542,2.566-2.535c1.409,0.01,2.543,1.159,2.532,2.567
		c-0.006,1.407-1.157,2.541-2.565,2.532C348.764,887.251,347.631,886.101,347.639,884.694"/>
	<path fill="#F39200" d="M211.981,989.488c11.084,0.075,20.009,9.12,19.936,20.203c-0.073,11.084-9.118,20.01-20.202,19.936
		c-11.082-0.073-20.007-9.118-19.934-20.2C191.853,998.344,200.898,989.418,211.981,989.488"/>
	<path fill="#F39200" d="M69.199,824.393c6.812,0.047,12.297,5.606,12.252,12.418c-0.045,6.81-5.604,12.299-12.417,12.253
		c-6.812-0.045-12.297-5.608-12.25-12.417C56.828,829.834,62.387,824.349,69.199,824.393"/>
	<path fill="#971B81" d="M203.683,957.519c-3.298-0.735-5.375-4.008-4.637-7.307c0.735-3.298,4.007-5.372,7.306-4.636
		c3.297,0.735,5.374,4.006,4.637,7.306C210.253,956.179,206.982,958.255,203.683,957.519"/>
	<path fill="#E6007D" d="M227.288,962.191c-3.297-0.735-5.374-4.008-4.637-7.308c0.738-3.295,4.007-5.37,7.304-4.635
		c3.301,0.734,5.375,4.007,4.638,7.305C233.858,960.851,230.587,962.928,227.288,962.191"/>
	<path fill="#E6007D" d="M210.472,930.659c-1.293-0.288-2.105-1.57-1.818-2.862c0.289-1.295,1.571-2.107,2.864-1.817
		c1.291,0.288,2.106,1.57,1.815,2.86C213.045,930.136,211.764,930.949,210.472,930.659"/>
	<path fill="#E6007D" d="M213.542,917.176c-1.294-0.29-2.107-1.572-1.818-2.863c0.289-1.293,1.571-2.106,2.862-1.817
		c1.293,0.289,2.107,1.571,1.818,2.862C216.115,916.65,214.833,917.465,213.542,917.176"/>
	<path fill="#E6007D" d="M220.531,942.631c-1.906-0.426-3.105-2.314-2.679-4.221c0.424-1.903,2.315-3.104,4.22-2.679
		c1.904,0.427,3.104,2.313,2.678,4.22C224.325,941.856,222.436,943.057,220.531,942.631"/>
	<path fill="#E6007D" d="M18.602,949.528c-12.923-19.465-7.621-45.722,11.843-58.645c19.465-12.925,45.721-7.621,58.645,11.844
		c12.922,19.465,7.62,45.721-11.845,58.643C57.781,974.295,31.525,968.991,18.602,949.528"/>
	<path fill="#DEDC00" d="M317.741,974.044c-9.042-5.715-11.741-17.678-6.026-26.717c5.715-9.039,17.678-11.74,26.716-6.026
		c9.046,5.718,11.742,17.674,6.027,26.718C338.742,977.058,326.782,979.759,317.741,974.044"/>
	<path fill="#971B81" d="M285.878,1044.998c-18.627-4.156-30.357-22.641-26.199-41.268c4.161-18.631,22.64-30.357,41.275-26.196
		c18.624,4.16,30.357,22.632,26.197,41.271C322.993,1037.429,304.517,1049.164,285.878,1044.998"/>
	<path fill="#00B6DD" d="M169.174,864.432c-5.673,2.681-12.445,0.256-15.127-5.419c-2.679-5.672-0.254-12.445,5.42-15.126
		c5.673-2.682,12.445-0.253,15.125,5.418C177.274,854.979,174.849,861.75,169.174,864.432"/>
	<path fill="#1F386C" d="M172.86,777.074c-5.672,2.682-12.444,0.256-15.125-5.416c-2.68-5.675-0.254-12.447,5.417-15.127
		c5.672-2.682,12.447-0.257,15.126,5.419C180.96,767.622,178.534,774.395,172.86,777.074"/>
	<path fill="#00B6DD" d="M144.368,839.037c-3.056,1.443-6.704,0.137-8.147-2.92c-1.443-3.055-0.138-6.702,2.92-8.146
		c3.053-1.442,6.7-0.137,8.144,2.921C148.728,833.946,147.422,837.593,144.368,839.037"/>
	<path fill="#00B6DD" d="M146.521,819.153c-1.197,0.567-2.625,0.055-3.192-1.144c-0.565-1.195-0.052-2.625,1.144-3.191
		c1.197-0.565,2.626-0.056,3.192,1.144C148.231,817.16,147.718,818.589,146.521,819.153"/>
	<path fill="#00B6DD" d="M158.097,809.402c-1.919,0.907-4.208,0.087-5.115-1.833c-0.906-1.916-0.086-4.205,1.833-5.112
		c1.917-0.907,4.207-0.088,5.112,1.831C160.836,806.206,160.016,808.496,158.097,809.402"/>
	<path fill="#00B6DD" d="M159.107,791.974c-1.765,0.833-3.872,0.077-4.707-1.688c-0.833-1.767-0.079-3.873,1.685-4.707
		c1.767-0.833,3.874-0.079,4.708,1.685C161.627,789.03,160.872,791.139,159.107,791.974"/>
	<path fill="#F39200" d="M124.854,822.095c-10.02,4.736-21.983,0.451-26.717-9.57c-4.735-10.021-0.452-21.983,9.571-26.718
		c10.02-4.735,21.983-0.45,26.718,9.571C139.161,805.4,134.877,817.361,124.854,822.095"/>
	<path fill="#F39200" d="M129.727,767.061c-4.094,1.932-8.978,0.184-10.912-3.909c-1.934-4.091-0.184-8.978,3.909-10.911
		c4.092-1.933,8.978-0.185,10.911,3.908C135.568,760.24,133.817,765.126,129.727,767.061"/>
	<path fill="#F39200" d="M150.857,694.851c-4.092,1.937-8.979,0.186-10.912-3.908c-1.935-4.092-0.183-8.979,3.909-10.912
		c4.093-1.934,8.977-0.183,10.911,3.91C156.7,688.032,154.95,692.918,150.857,694.851"/>
	<path fill="#F39200" d="M130.303,739.548c-2.204,1.041-4.835,0.1-5.876-2.106c-1.042-2.203-0.101-4.833,2.105-5.875
		c2.204-1.041,4.836-0.1,5.877,2.104C133.449,735.874,132.506,738.508,130.303,739.548"/>
	<path fill="#F39200" d="M154.525,711.141c-2.205,1.039-4.834,0.1-5.876-2.106c-1.041-2.204-0.099-4.837,2.105-5.874
		c2.205-1.044,4.835-0.102,5.876,2.104C157.672,707.469,156.729,710.1,154.525,711.141"/>
	<path fill="#F39200" d="M123.379,842.809c-2.204,1.041-4.834,0.098-5.876-2.104c-1.041-2.206-0.099-4.84,2.106-5.878
		c2.203-1.043,4.834-0.101,5.875,2.104C126.525,839.138,125.583,841.766,123.379,842.809"/>
	<path fill="#F39200" d="M165.319,700.823c-1.273,0.603-2.793,0.057-3.394-1.216c-0.602-1.273-0.059-2.792,1.215-3.396
		c1.274-0.597,2.793-0.054,3.395,1.219C167.137,698.702,166.592,700.222,165.319,700.823"/>
	<path fill="#F39200" d="M165.475,711.597c-0.865,0.406-1.895,0.037-2.304-0.827c-0.408-0.864-0.039-1.896,0.825-2.302
		c0.864-0.409,1.895-0.041,2.303,0.822C166.707,710.155,166.338,711.188,165.475,711.597"/>
	<path fill="#F39200" d="M131.857,725.206c-0.864,0.407-1.895,0.039-2.303-0.826c-0.408-0.863-0.039-1.895,0.825-2.304
		c0.863-0.403,1.896-0.038,2.303,0.826C133.09,723.766,132.72,724.796,131.857,725.206"/>
	<path fill="#F39200" d="M140.208,718.171c-1.384,0.653-3.036,0.062-3.69-1.322c-0.653-1.383-0.062-3.035,1.322-3.688
		c1.384-0.656,3.035-0.062,3.688,1.321C142.183,715.867,141.59,717.519,140.208,718.171"/>
	<path fill="#F39200" d="M140.936,705.597c-1.275,0.601-2.793,0.057-3.395-1.217c-0.602-1.272-0.058-2.792,1.215-3.396
		c1.273-0.602,2.794-0.057,3.395,1.218C142.752,703.475,142.208,704.995,140.936,705.597"/>
</g>
</svg>
